<?xml version="1.0" encoding="UTF-8"?>
<svg width="88px" height="227px" viewBox="0 0 88 227" version="1.1" xmlns="http://www.w3.org/2000/svg" xmlns:xlink="http://www.w3.org/1999/xlink">
    <!-- Generator: Sketch 54.1 (76490) - https://sketchapp.com -->
    <title>100% icon</title>
    <desc>Created with Sketch.</desc>
    <defs>
        <linearGradient x1="25.0214098%" y1="0.322001689%" x2="75.1404959%" y2="100%" id="linearGradient-1">
            <stop stop-color="#F27E8D" offset="0%"></stop>
            <stop stop-color="#F29886" offset="48.791174%"></stop>
            <stop stop-color="#F2B47E" offset="100%"></stop>
        </linearGradient>
        <polygon id="path-2" points="0 -5.68434189e-14 88 -5.68434189e-14 88 64 0 64"></polygon>
    </defs>
    <g id="Company-Design" stroke="none" stroke-width="1" fill="none" fill-rule="evenodd">
        <g id="4.1-Shareholder-details" transform="translate(-144.000000, -184.000000)">
            <g id="100%-icon-THICKER" transform="translate(144.000000, 182.000000)">
                <g id="pin-icon" transform="translate(4.000000, 3.000000)">
                    <path d="M79,39.9910651 C79,66.872238 39.9921634,111 39.9921634,111 C39.9921634,111 1,65.9073089 1,39.9910651 C1,18.4643216 18.4561604,1 40.0078366,1 C61.5595128,1 79,18.4486551 79,39.9910651" id="Fill-1" fill="url(#linearGradient-1)"></path>
                    <g id="Group-5" transform="translate(0.000000, 0.000000)" fill="#2F5472" stroke="#2F5472">
                        <path d="M39.9634699,1.5900149 C29.7045141,1.5900149 20.060498,5.58061662 12.8081285,12.8265994 C5.55736546,20.0709777 1.56411245,29.7020149 1.56411245,39.9453616 C1.56411245,53.1857513 12.1411406,71.7010521 21.0143936,84.9013272 C29.3131888,97.2473215 37.7013012,107.355241 39.9541526,110.020456 C42.2179277,107.396319 50.607004,97.4806281 58.9006586,85.2475966 C64.5620241,76.8976596 69.0702972,69.1195966 72.3008193,62.1293845 C76.3130281,53.4476195 78.3470843,45.9837341 78.3470843,39.9453616 C78.3470843,29.6949547 74.3567229,20.0623129 67.1111004,12.8208229 C59.8645141,5.5783702 50.2233896,1.5900149 39.9634699,1.5900149 M39.9477269,112.000193 L39.9435502,112.000193 C39.7176867,111.998909 39.5037108,111.900066 39.356241,111.72966 C39.2579277,111.616376 29.4211406,100.211631 19.715759,85.7722957 C14.0078072,77.2808344 9.45808835,69.4122728 6.19254618,62.3848344 C2.08330924,53.5429318 9.63855418e-05,45.9930407 9.63855418e-05,39.9453616 C9.63855418e-05,29.284502 4.15591968,19.2613043 11.7019438,11.7220034 C19.2495743,4.18077708 29.2865221,0.0274704871 39.9634699,0.0274704871 C50.6410602,0.0274704871 60.6751165,4.17853066 68.2172851,11.7162269 C75.75849,19.2526395 79.9111004,29.2777628 79.9111004,39.9453616 C79.9111004,46.2135106 77.827245,53.9001123 73.7173655,62.7920779 C70.4495743,69.8609146 65.8969639,77.7156768 60.1861205,86.138141 C50.4749558,100.4597 40.6320643,111.625041 40.533751,111.736078 C40.3853173,111.903917 40.1719839,112.000193 39.9477269,112.000193" id="Fill-3"></path>
                    </g>
                    <path d="M40,18 C51.5980287,18 61,27.4019713 61,39 C61,50.5980287 51.5980287,60 40,60 C28.4019713,60 19,50.5980287 19,39 C19,27.4019713 28.4019713,18 40,18" id="Fill-6" fill="#FFFFFF"></path>
                    <path d="M40,19.5466529 C28.7418649,19.5466529 19.5826215,28.4977316 19.5826215,39.5 C19.5826215,50.5022684 28.7418649,59.4533471 40,59.4533471 C51.2581351,59.4533471 60.4173785,50.5022684 60.4173785,39.5 C60.4173785,28.4977316 51.2581351,19.5466529 40,19.5466529 M40,61 C27.8692774,61 18,51.3550244 18,39.5 C18,27.6446579 27.8692774,18 40,18 C52.1307226,18 62,27.6446579 62,39.5 C62,51.3550244 52.1307226,61 40,61" id="Fill-8" stroke="#2F5472" fill="#2F5472"></path>
                </g>
                <g id="Group-4" transform="translate(11.000000, 129.000000)" fill="#2F5472">
                    <polygon id="Fill-1" points="0 10.0980963 9.66126926 21 12 18.9022978 2.33912249 8"></polygon>
                    <polygon id="Fill-2" points="53 16.9092902 55.5265298 19 65 7.0907098 62.4738768 5"></polygon>
                    <polygon id="Fill-3" points="33.6646048 -5.68434189e-14 30 0.0709889208 30.3353952 14 34 13.9290111"></polygon>
                </g>
                <g id="Group-3" transform="translate(0.000000, 165.000000)">
                    <mask id="mask-3" fill="white">
                        <use xlink:href="#path-2"></use>
                    </mask>
                    <g id="Clip-2"></g>
                    <path d="M64.4374,19.4375393 C72.1406,19.4375393 70.9374,31.2031025 70.9374,32.0624998 C70.9374,38.734479 69.914,44.7500602 64.4374,44.7500602 C57.078,44.7500602 57.9374,33.265696 57.9374,32.0624998 C57.9374,31.375102 56.7342,19.4375393 64.4374,19.4375393 L64.4374,19.4375393 Z M39.5624,19.4375393 C47.2656,19.4375393 46.0624,31.2031025 46.0624,32.0624998 C46.0624,38.734479 45.039,44.7500602 39.5624,44.7500602 C32.203,44.7500602 33.0624,33.265696 33.0624,32.0624998 C33.0624,31.375102 31.8592,19.4375393 39.5624,19.4375393 L39.5624,19.4375393 Z M21.0624,16.1251496 C20.203,20.9219346 16.7968,21.9531314 12,22.1251309 L12,25.2499211 L20.25,25.2499211 L20.25,47.687451 L24,47.687451 L24,16.1251496 L21.0624,16.1251496 Z M64.4374,16.00015 C54.5078,16.00015 53.9998,25.3281208 53.9998,32.0001 C53.9998,36.9610845 54.039,48.00005 64.4374,48.00005 C74.1952,48.00005 74.875,38.39068 74.875,32.0624998 C74.875,25.3907207 74.1952,16.00015 64.4374,16.00015 L64.4374,16.00015 Z M39.5624,16.00015 C29.6328,16.00015 29.125,25.3907207 29.125,32.0624998 C29.125,37.0234843 28.7812,48.00005 39.5624,48.00005 C49.3202,48.00005 49.9998,38.39068 49.9998,32.0624998 C49.9998,25.3907207 49.3202,16.00015 39.5624,16.00015 L39.5624,16.00015 Z M14,3.9999875 L74,3.9999875 C79.5156,3.9999875 84,8.48437349 84,14.0001562 L84,50.0000437 C84,55.5156265 79.5156,60.0000125 74,60.0000125 L14,60.0000125 C8.4842,60.0000125 4,55.5156265 4,50.0000437 L4,14.0001562 C4,8.48437349 8.4842,3.9999875 14,3.9999875 L14,3.9999875 Z M14,-5.68434189e-14 C6.2656,-5.68434189e-14 0,6.26578042 0,14.0001562 L0,50.0000437 C0,57.7344196 6.2656,64 14,64 L74,64 C81.7342,64 88,57.7344196 88,50.0000437 L88,14.0001562 C88,6.26578042 81.7342,-5.68434189e-14 74,-5.68434189e-14 L14,-5.68434189e-14 Z" id="Fill-1" fill="#2F5472" mask="url(#mask-3)"></path>
                </g>
            </g>
        </g>
    </g>
</svg>