<?xml version="1.0" encoding="UTF-8"?>
<svg width="52px" height="95px" viewBox="0 0 52 95" version="1.1" xmlns="http://www.w3.org/2000/svg" xmlns:xlink="http://www.w3.org/1999/xlink">
    <!-- Generator: Sketch 55 (78076) - https://sketchapp.com -->
    <title>Group 2</title>
    <desc>Created with Sketch.</desc>
    <g id="Onboarding" stroke="none" stroke-width="1" fill="none" fill-rule="evenodd">
        <g id="Id-Check-REVISED--Copy" transform="translate(-160.000000, -1287.000000)">
            <g id="Group-2" transform="translate(160.000000, 1287.000000)">
                <g id="SELFIE-PHONE">
                    <g id="Phone">
                        <path d="M39.9846529,93 L8.01555715,93 C4.15069932,93 1,89.8770349 1,85.9992675 L1,11.0009421 C1,7.14413566 4.12969466,4 8.01555715,4 L39.9846529,4 C43.8493007,4 47,7.12317475 47,11.0009421 L47,85.9992675 C47,89.8558643 43.8705154,93 39.9846529,93" id="Fill-6" fill="#2F5472"></path>
                        <g id="Group-10" transform="translate(0.000000, 3.000000)" fill="#2F5472">
                            <path d="M8.26044622,2.19956671 C4.94517449,2.19956671 2.24807603,4.89393229 2.24807603,8.20584478 L2.24807603,83.876489 C2.24807603,87.18819 4.94517449,89.882767 8.26044622,89.882767 L40.4816696,89.882767 C43.7967296,89.882767 46.4940398,87.18819 46.4940398,83.876489 L46.4940398,8.20584478 C46.4940398,4.89393229 43.7967296,2.19956671 40.4816696,2.19956671 L8.26044622,2.19956671 Z M40.4816696,91.9976537 L8.26044622,91.9976537 C3.77784317,91.9976537 0.131044266,88.35455 0.131044266,83.876489 L0.131044266,8.20584478 C0.131044266,3.7277838 3.77784317,0.0846800613 8.26044622,0.0846800613 L40.4816696,0.0846800613 C44.9642726,0.0846800613 48.6110716,3.7277838 48.6110716,8.20584478 L48.6110716,83.876489 C48.6110716,88.35455 44.9642726,91.9976537 40.4816696,91.9976537 L40.4816696,91.9976537 Z" id="Fill-8"></path>
                        </g>
                        <path d="M43.9844749,90 L12.0155251,90 C8.15068493,90 5,86.8760895 5,82.9974087 L5,8.00259128 C5,4.14487633 8.12968037,1 12.0155251,1 L43.9844749,1 C47.8493151,1 51,4.12391048 51,8.00259128 L51,83.0181649 C50.9789954,86.8760895 47.8493151,90 43.9844749,90" id="Fill-19" fill="#FFFFFF"></path>
                        <path d="M11.2165939,2.11737629 C7.86576419,2.11737629 5.13973799,4.81491369 5.13973799,8.13072497 L5.13973799,83.869275 C5.13973799,87.1850863 7.86576419,89.8826237 11.2165939,89.8826237 L43.7834061,89.8826237 C47.1158341,89.8826237 49.8420742,87.1918619 49.860262,83.8845201 L49.860262,8.13072497 C49.860262,4.81491369 47.1342358,2.11737629 43.7834061,2.11737629 L11.2165939,2.11737629 Z M43.7834061,92 L11.2165939,92 C6.68591266,92 3,88.3526076 3,83.869275 L3,8.13072497 C3,3.64760414 6.68591266,0 11.2165939,0 L43.7834061,0 C48.3140873,0 52,3.64760414 52,8.13072497 L52,83.8904488 C51.975393,88.3648884 48.2892664,92 43.7834061,92 L43.7834061,92 Z" id="Fill-21" fill="#2F5472"></path>
                        <path d="M38.2654424,5 L17.7128548,5 C16.2153589,5 15,3.92307692 15,2.59615385 L15,1 L41,1 L41,2.57692308 C41,3.92307692 39.7846411,5 38.2654424,5" id="Fill-23" fill="#2F5472"></path>
                        <path d="M17.0801393,2.27272727 L17.0801393,3.02272727 C17.0801393,3.96272727 17.7798982,4.72727273 18.6402438,4.72727273 L38.3391629,4.72727273 C39.2255102,4.72727273 39.9198607,3.96840909 39.9198607,3 L39.9198607,2.27272727 L17.0801393,2.27272727 Z M38.3391629,7 L18.6402438,7 C16.6331174,7 15,5.21568182 15,3.02272727 L15,1.13636364 C15,0.508863636 15.4657432,0 16.0400696,0 L40.9599304,0 C41.5344648,0 42,0.508863636 42,1.13636364 L42,3 C42,5.20568182 40.35773,7 38.3391629,7 L38.3391629,7 Z" id="Fill-25" fill="#2F5472"></path>
                    </g>
                </g>
                <g id="Group-11" transform="translate(5.000000, 1.000000)" fill="#2F5472">
                    <path d="M22.5,27.3913043 C30.0638251,27.3913043 36.1956522,33.5231315 36.1956522,41.0881548 C36.1956522,48.6507816 30.0638251,54.7826087 22.5,54.7826087 C14.9361749,54.7826087 8.80434783,48.6507816 8.80434783,41.0881548 C8.80434783,33.5231315 14.9361749,27.3913043 22.5,27.3913043 M45,68.4782609 L45,3.68882008 C45,1.65455305 43.3263369,0 41.2700535,0 L35.9795455,0 C35.884492,0 35.8508021,0.0214258669 35.8508021,0.0214258669 C35.8796791,0.736811755 35.6137701,1.42005884 35.1192513,1.91523443 C34.4971925,2.53896523 33.5490642,2.85559192 32.3025401,2.85559192 L13.448262,2.85559192 C12.2005348,2.85559192 11.2536096,2.53896523 10.6315508,1.91523443 C10.1418449,1.42482015 9.87593583,0.747524689 9.88195187,0.00595162969 C9.86149733,0.00595162969 9.82780749,0 9.77245989,0 L3.72994652,0 C1.6736631,0 0,1.65455305 0,3.68882008 L0,68.4782609 C5.31697861,62.0136007 13.419385,57.8831697 22.5,57.8831697 C31.580615,57.8831697 39.6830214,62.0136007 45,68.4782609 Z" id="Fill-3"></path>
                </g>
            </g>
        </g>
    </g>
</svg>