<?xml version="1.0" encoding="UTF-8"?>
<svg width="310px" height="181px" viewBox="0 0 310 181" version="1.1" xmlns="http://www.w3.org/2000/svg" xmlns:xlink="http://www.w3.org/1999/xlink">
    <!-- Generator: Sketch 54.1 (76490) - https://sketchapp.com -->
    <title>Adresss box</title>
    <desc>Created with Sketch.</desc>
    <defs>
        <linearGradient x1="0.322001689%" y1="49.9582626%" x2="100%" y2="50.042008%" id="linearGradient-1">
            <stop stop-color="#F27E8D" offset="0%"></stop>
            <stop stop-color="#F29886" offset="48.791174%"></stop>
            <stop stop-color="#F2B47E" offset="100%"></stop>
        </linearGradient>
        <linearGradient x1="0.322001689%" y1="49.7637194%" x2="100%" y2="50.2378121%" id="linearGradient-2">
            <stop stop-color="#F27E8D" offset="0%"></stop>
            <stop stop-color="#F29886" offset="48.791174%"></stop>
            <stop stop-color="#F2B47E" offset="100%"></stop>
        </linearGradient>
        <rect id="path-3" x="0" y="0" width="310" height="181" rx="5"></rect>
        <filter x="-1.1%" y="-1.9%" width="102.3%" height="103.9%" filterUnits="objectBoundingBox" id="filter-4">
            <feGaussianBlur stdDeviation="3" in="SourceAlpha" result="shadowBlurInner1"></feGaussianBlur>
            <feOffset dx="0" dy="1" in="shadowBlurInner1" result="shadowOffsetInner1"></feOffset>
            <feComposite in="shadowOffsetInner1" in2="SourceAlpha" operator="arithmetic" k2="-1" k3="1" result="shadowInnerInner1"></feComposite>
            <feColorMatrix values="0 0 0 0 0   0 0 0 0 0   0 0 0 0 0  0 0 0 0.5 0" type="matrix" in="shadowInnerInner1"></feColorMatrix>
        </filter>
    </defs>
    <g id="Onboarding" stroke="none" stroke-width="1" fill="none" fill-rule="evenodd">
        <g id="Id-Check-REVISED-" transform="translate(-33.000000, -847.000000)">
            <g id="Adresss-box" transform="translate(33.000000, 847.000000)">
                <g id="Group-2" transform="translate(48.000000, 116.000000)" fill="#2F5472">
                    <text id="Proof-of-address" font-family="OpenSans-Light, Open Sans" font-size="24" font-weight="300" line-spacing="25">
                        <tspan x="32.4791847" y="26">Proof of address</tspan>
                    </text>
                    <path d="M14.0034604,25.4672618 L20.6884993,18.7819442 C21.1038336,18.3669471 21.1038336,17.6935955 20.6884993,17.2785983 C20.273165,16.8632468 19.6005503,16.8632468 19.1852161,17.2785983 L12.5001772,23.9639159 L5.81478393,17.2785983 C5.39944967,16.8632468 4.72683496,16.8632468 4.3115007,17.2785983 C3.89616643,17.6935955 3.89616643,18.3669471 4.3115007,18.7819442 L10.996894,25.4672618 L4.3115007,32.1525794 C3.89616643,32.5675766 3.89616643,33.2409282 4.3115007,33.6559254 C4.51916783,33.8632468 4.79133226,33.9670846 5.06314232,33.9670846 C5.33495237,33.9670846 5.6071168,33.8632468 5.81478393,33.655571 L12.5001772,26.9702534 L19.1852161,33.655571 C19.3928832,33.8632468 19.6650476,33.9670846 19.9368577,33.9670846 C20.2086677,33.9670846 20.4808322,33.8632468 20.6884993,33.655571 C21.1038336,33.2405738 21.1038336,32.5672222 20.6884993,32.152225 L14.0034604,25.4672618 Z" id="Shape-Copy" fill-rule="nonzero" transform="translate(12.500000, 25.467085) rotate(-315.000000) translate(-12.500000, -25.467085) "></path>
                </g>
                <g id="address-letter" transform="translate(109.000000, 28.000000)">
                    <g id="paper-address" transform="translate(0.000000, 7.000000)">
                        <rect id="Rectangle" stroke="#2F5472" stroke-width="2" fill="#FFFFFF" x="1" y="1" width="85" height="71" rx="2"></rect>
                        <rect id="Rectangle" fill="url(#linearGradient-1)" x="9" y="26" width="69" height="2" rx="1"></rect>
                        <rect id="Rectangle-Copy-3" fill="#2F5472" x="9" y="35" width="29" height="2" rx="1"></rect>
                        <rect id="Rectangle-Copy-5" fill="url(#linearGradient-2)" x="9" y="51" width="29" height="2" rx="1"></rect>
                        <rect id="Rectangle-Copy-4" fill="#2F5472" x="9" y="43" width="69" height="2" rx="1"></rect>
                    </g>
                    <g id="paper-address-copy" transform="translate(24.000000, 0.000000)">
                        <rect id="Rectangle" stroke="#2F5472" stroke-width="2" fill="#FFFFFF" x="1" y="1" width="85" height="71" rx="2"></rect>
                        <rect id="Rectangle-Copy-6" fill="#2F5472" x="9" y="24" width="69" height="2" rx="1"></rect>
                        <rect id="Rectangle-Copy-7" fill="url(#linearGradient-2)" x="9" y="33" width="29" height="2" rx="1"></rect>
                        <rect id="Rectangle-Copy-8" fill="url(#linearGradient-2)" x="9" y="49" width="29" height="2" rx="1"></rect>
                        <rect id="Rectangle-Copy-9" fill="#2F5472" x="9" y="41" width="69" height="2" rx="1"></rect>
                    </g>
                </g>
                <g id="Rectangle-Copy">
                    <use fill="black" fill-opacity="1" filter="url(#filter-4)" xlink:href="#path-3"></use>
                    <rect stroke="#2F5472" stroke-width="1" stroke-linejoin="square" x="0.5" y="0.5" width="309" height="180" rx="5"></rect>
                </g>
            </g>
        </g>
    </g>
</svg>