<?xml version="1.0" encoding="UTF-8"?>
<svg width="57px" height="96px" viewBox="0 0 57 96" version="1.1" xmlns="http://www.w3.org/2000/svg" xmlns:xlink="http://www.w3.org/1999/xlink">
    <!-- Generator: Sketch 54.1 (76490) - https://sketchapp.com -->
    <title>Fill 1</title>
    <desc>Created with Sketch.</desc>
    <g id="Onboarding-(Desktop)" stroke="none" stroke-width="1" fill="none" fill-rule="evenodd">
        <g id="ID-Check-DT" transform="translate(-320.000000, -824.000000)" fill="#2F5472">
            <path d="M344.5,907 C343.668063,907 343,907.673875 343,908.5 C343,909.326125 343.668063,910 344.5,910 L353.5,910 C354.332125,910 355,909.326125 355,908.5 C355,907.673875 354.332125,907 353.5,907 L344.5,907 Z M323,904 L374,904 L374,912.125 C374,914.810109 371.852223,917 369.21875,917 L327.78125,917 C325.147777,917 323,914.810109 323,912.125 L323,904 Z M369.5,888 C368.668063,888 368,888.673875 368,889.5 L368,892.5 C368,893.326125 368.668063,894 369.5,894 C370.331937,894 371,893.326125 371,892.5 L371,889.5 C371,888.673875 370.331937,888 369.5,888 L369.5,888 Z M360.5,888 C359.668063,888 359,888.673875 359,889.5 L359,892.5 C359,893.326125 359.668063,894 360.5,894 C361.332125,894 362,893.326125 362,892.5 L362,889.5 C362,888.673875 361.332125,888 360.5,888 L360.5,888 Z M353.5,888 C352.668063,888 352,888.673875 352,889.5 L352,892.5 C352,893.326125 352.668063,894 353.5,894 C354.332125,894 355,893.326125 355,892.5 L355,889.5 C355,888.673875 354.332125,888 353.5,888 L353.5,888 Z M343.5,888 C342.668063,888 342,888.673875 342,889.5 L342,892.5 C342,893.326125 342.668063,894 343.5,894 C344.331937,894 345,893.326125 345,892.5 L345,889.5 C345,888.673875 344.331937,888 343.5,888 L343.5,888 Z M336.5,888 C335.667875,888 335,888.673875 335,889.5 L335,892.5 C335,893.326125 335.667875,894 336.5,894 C337.331937,894 338,893.326125 338,892.5 L338,889.5 C338,888.673875 337.331937,888 336.5,888 L336.5,888 Z M327.5,888 C326.667875,888 326,888.673875 326,889.5 L326,892.5 C326,893.326125 326.667875,894 327.5,894 C328.331937,894 329,893.326125 329,892.5 L329,889.5 C329,888.673875 328.331937,888 327.5,888 L327.5,888 Z M347.5,834 C346.668063,834 346,834.673875 346,835.5 C346,836.326125 346.668063,837 347.5,837 L350.5,837 C351.332125,837 352,836.326125 352,835.5 C352,834.673875 351.332125,834 350.5,834 L347.5,834 Z M327.78125,827 L369.21875,827 C371.852223,827 374,829.167918 374,831.826087 L374,833.434783 L356.46875,833.434783 C355.584816,833.434783 354.875,834.157489 354.875,835.043478 C354.875,835.929467 355.584816,836.652174 356.46875,836.652174 L374,836.652174 L374,901 L323,901 L323,836.652174 L340.53125,836.652174 C341.415184,836.652174 342.125,835.929467 342.125,835.043478 C342.125,834.157489 341.415184,833.434783 340.53125,833.434783 L323,833.434783 L323,831.826087 C323,829.167918 325.147777,827 327.78125,827 L327.78125,827 Z M327.916667,824 C323.550031,824 320,827.5876 320,832 L320,912 C320,916.4126 323.550031,920 327.916667,920 L369.083333,920 C373.449771,920 377,916.4126 377,912 L377,832 C377,827.5876 373.449771,824 369.083333,824 L327.916667,824 Z" id="Fill-1"></path>
        </g>
    </g>
</svg>