<?xml version="1.0" encoding="UTF-8"?>
<svg width="310px" height="181px" viewBox="0 0 310 181" version="1.1" xmlns="http://www.w3.org/2000/svg" xmlns:xlink="http://www.w3.org/1999/xlink">
    <!-- Generator: Sketch 54.1 (76490) - https://sketchapp.com -->
    <title>Selfie box</title>
    <desc>Created with Sketch.</desc>
    <defs>
        <rect id="path-1" x="0" y="0" width="310" height="181" rx="5"></rect>
        <filter x="-1.1%" y="-1.9%" width="102.3%" height="103.9%" filterUnits="objectBoundingBox" id="filter-2">
            <feGaussianBlur stdDeviation="3" in="SourceAlpha" result="shadowBlurInner1"></feGaussianBlur>
            <feOffset dx="0" dy="1" in="shadowBlurInner1" result="shadowOffsetInner1"></feOffset>
            <feComposite in="shadowOffsetInner1" in2="SourceAlpha" operator="arithmetic" k2="-1" k3="1" result="shadowInnerInner1"></feComposite>
            <feColorMatrix values="0 0 0 0 0   0 0 0 0 0   0 0 0 0 0  0 0 0 0.5 0" type="matrix" in="shadowInnerInner1"></feColorMatrix>
        </filter>
        <linearGradient x1="0.322001689%" y1="0.322001689%" x2="100%" y2="100%" id="linearGradient-3">
            <stop stop-color="#F27E8D" offset="0%"></stop>
            <stop stop-color="#F29886" offset="48.791174%"></stop>
            <stop stop-color="#F2B47E" offset="100%"></stop>
        </linearGradient>
        <linearGradient x1="0.322001689%" y1="40.8754697%" x2="100%" y2="59.1836735%" id="linearGradient-4">
            <stop stop-color="#F27E8D" offset="0%"></stop>
            <stop stop-color="#F29886" offset="48.791174%"></stop>
            <stop stop-color="#F2B47E" offset="100%"></stop>
        </linearGradient>
    </defs>
    <g id="Onboarding" stroke="none" stroke-width="1" fill="none" fill-rule="evenodd">
        <g id="Id-Check-REVISED-" transform="translate(-33.000000, -1242.000000)">
            <g id="Selfie-box" transform="translate(33.000000, 1242.000000)">
                <g id="Rectangle-Copy-2">
                    <use fill="black" fill-opacity="1" filter="url(#filter-2)" xlink:href="#path-1"></use>
                    <rect stroke="#2F5472" stroke-width="1" stroke-linejoin="square" x="0.5" y="0.5" width="309" height="180" rx="5"></rect>
                </g>
                <path d="M117.00346,143.967262 L123.688499,137.281944 C124.103834,136.866947 124.103834,136.193596 123.688499,135.778598 C123.273165,135.363247 122.60055,135.363247 122.185216,135.778598 L115.500177,142.463916 L108.814784,135.778598 C108.39945,135.363247 107.726835,135.363247 107.311501,135.778598 C106.896166,136.193596 106.896166,136.866947 107.311501,137.281944 L113.996894,143.967262 L107.311501,150.652579 C106.896166,151.067577 106.896166,151.740928 107.311501,152.155925 C107.519168,152.363247 107.791332,152.467085 108.063142,152.467085 C108.334952,152.467085 108.607117,152.363247 108.814784,152.155571 L115.500177,145.470253 L122.185216,152.155571 C122.392883,152.363247 122.665048,152.467085 122.936858,152.467085 C123.208668,152.467085 123.480832,152.363247 123.688499,152.155571 C124.103834,151.740574 124.103834,151.067222 123.688499,150.652225 L117.00346,143.967262 Z" id="Shape-Copy-2" fill="#2F5472" fill-rule="nonzero" transform="translate(115.500000, 143.967085) rotate(-315.000000) translate(-115.500000, -143.967085) "></path>
                <text id="Selfie" fill="#2F5472" font-family="OpenSans-Light, Open Sans" font-size="24" font-weight="300" line-spacing="25">
                    <tspan x="135.479185" y="145">Selfie</tspan>
                </text>
                <g id="SELFIE-PHONE" transform="translate(129.000000, 24.000000)">
                    <g id="Phone">
                        <path d="M39.9846529,93 L8.01555715,93 C4.15069932,93 1,89.8770349 1,85.9992675 L1,11.0009421 C1,7.14413566 4.12969466,4 8.01555715,4 L39.9846529,4 C43.8493007,4 47,7.12317475 47,11.0009421 L47,85.9992675 C47,89.8558643 43.8705154,93 39.9846529,93" id="Fill-6" fill="#2F5472"></path>
                        <g id="Group-10" transform="translate(0.000000, 3.000000)" fill="#2F5472">
                            <path d="M8.26044622,2.19956671 C4.94517449,2.19956671 2.24807603,4.89393229 2.24807603,8.20584478 L2.24807603,83.876489 C2.24807603,87.18819 4.94517449,89.882767 8.26044622,89.882767 L40.4816696,89.882767 C43.7967296,89.882767 46.4940398,87.18819 46.4940398,83.876489 L46.4940398,8.20584478 C46.4940398,4.89393229 43.7967296,2.19956671 40.4816696,2.19956671 L8.26044622,2.19956671 Z M40.4816696,91.9976537 L8.26044622,91.9976537 C3.77784317,91.9976537 0.131044266,88.35455 0.131044266,83.876489 L0.131044266,8.20584478 C0.131044266,3.7277838 3.77784317,0.0846800613 8.26044622,0.0846800613 L40.4816696,0.0846800613 C44.9642726,0.0846800613 48.6110716,3.7277838 48.6110716,8.20584478 L48.6110716,83.876489 C48.6110716,88.35455 44.9642726,91.9976537 40.4816696,91.9976537 L40.4816696,91.9976537 Z" id="Fill-8"></path>
                        </g>
                        <path d="M43.9844749,90 L12.0155251,90 C8.15068493,90 5,86.8760895 5,82.9974087 L5,8.00259128 C5,4.14487633 8.12968037,1 12.0155251,1 L43.9844749,1 C47.8493151,1 51,4.12391048 51,8.00259128 L51,83.0181649 C50.9789954,86.8760895 47.8493151,90 43.9844749,90" id="Fill-19" fill="#FFFFFF"></path>
                        <path d="M11.2165939,2.11737629 C7.86576419,2.11737629 5.13973799,4.81491369 5.13973799,8.13072497 L5.13973799,83.869275 C5.13973799,87.1850863 7.86576419,89.8826237 11.2165939,89.8826237 L43.7834061,89.8826237 C47.1158341,89.8826237 49.8420742,87.1918619 49.860262,83.8845201 L49.860262,8.13072497 C49.860262,4.81491369 47.1342358,2.11737629 43.7834061,2.11737629 L11.2165939,2.11737629 Z M43.7834061,92 L11.2165939,92 C6.68591266,92 3,88.3526076 3,83.869275 L3,8.13072497 C3,3.64760414 6.68591266,0 11.2165939,0 L43.7834061,0 C48.3140873,0 52,3.64760414 52,8.13072497 L52,83.8904488 C51.975393,88.3648884 48.2892664,92 43.7834061,92 L43.7834061,92 Z" id="Fill-21" fill="#2F5472"></path>
                        <path d="M38.2654424,5 L17.7128548,5 C16.2153589,5 15,3.92307692 15,2.59615385 L15,1 L41,1 L41,2.57692308 C41,3.92307692 39.7846411,5 38.2654424,5" id="Fill-23" fill="#2F5472"></path>
                        <path d="M17.0801393,2.27272727 L17.0801393,3.02272727 C17.0801393,3.96272727 17.7798982,4.72727273 18.6402438,4.72727273 L38.3391629,4.72727273 C39.2255102,4.72727273 39.9198607,3.96840909 39.9198607,3 L39.9198607,2.27272727 L17.0801393,2.27272727 Z M38.3391629,7 L18.6402438,7 C16.6331174,7 15,5.21568182 15,3.02272727 L15,1.13636364 C15,0.508863636 15.4657432,0 16.0400696,0 L40.9599304,0 C41.5344648,0 42,0.508863636 42,1.13636364 L42,3 C42,5.20568182 40.35773,7 38.3391629,7 L38.3391629,7 Z" id="Fill-25" fill="#2F5472"></path>
                    </g>
                    <g id="Group-12" transform="translate(12.000000, 32.000000)">
                        <path d="M15.4998412,0 C24.0603273,0 31,6.93974385 31,15.5 C31,24.0602561 24.0603273,31 15.4998412,31 C6.93967275,31 0,24.0602561 0,15.5 C0,6.93974385 6.93967275,0 15.4998412,0" id="Fill-1" stroke="#2F5472" stroke-width="2"></path>
                        <path d="M10.5,11 C11.3286792,11 12,11.6716038 12,12.5 C12,13.3283962 11.3286792,14 10.5,14 C9.67160377,14 9,13.3283962 9,12.5 C9,11.6716038 9.67160377,11 10.5,11" id="Fill-6" fill="url(#linearGradient-3)"></path>
                        <path d="M20.4998585,11 C21.3284596,11 22,11.6716038 22,12.5 C22,13.3283962 21.3284596,14 20.4998585,14 C19.6715404,14 19,13.3283962 19,12.5 C19,11.6716038 19.6715404,11 20.4998585,11" id="Fill-8" fill="url(#linearGradient-3)"></path>
                        <path d="M16.0001668,23 C13.1040763,23 10.4199933,21.4822659 9.16309137,19.1329866 C8.76431525,18.388297 9.12203594,17.4982512 9.96131664,17.1448594 C10.8016069,16.7911692 11.8044363,17.1087442 12.2028759,17.8531353 C12.905866,19.1664156 14.3963128,20.0152722 16.0001668,20.0152722 C17.6400284,20.0152722 19.1247543,19.1774591 19.7826508,17.8805948 C20.1642644,17.1290404 21.1596904,16.7932585 22.0077206,17.1320251 C22.8550778,17.4704932 23.2326531,18.3539727 22.851376,19.1055271 C21.6510095,21.4712224 18.9618787,23 16.0001668,23" id="Fill-10" fill="url(#linearGradient-4)"></path>
                    </g>
                </g>
            </g>
        </g>
    </g>
</svg>