<?xml version="1.0" encoding="UTF-8"?>
<svg width="67px" height="83px" viewBox="0 0 67 83" version="1.1" xmlns="http://www.w3.org/2000/svg" xmlns:xlink="http://www.w3.org/1999/xlink">
    <!-- Generator: Sketch 54.1 (76490) - https://sketchapp.com -->
    <title>Group 3</title>
    <desc>Created with Sketch.</desc>
    <g id="Onboarding" stroke="none" stroke-width="1" fill="none" fill-rule="evenodd">
        <g id="L" transform="translate(-156.000000, -880.000000)" fill="#2F5472">
            <g id="Group-3" transform="translate(156.000000, 880.500000)">
                <path d="M39.3260821,70.2857072 C38.5220822,70.2857072 37.8695605,70.9417071 37.8695605,71.7499927 L37.8695605,74.6785638 C37.8695605,75.4868495 38.5220822,76.1428494 39.3260821,76.1428494 C40.130082,76.1428494 40.7826037,75.4868495 40.7826037,74.6785638 L40.7826037,71.7499927 C40.7826037,70.9417071 40.130082,70.2857072 39.3260821,70.2857072 L39.3260821,70.2857072 Z M32.0434743,70.2857072 C31.2394744,70.2857072 30.5869527,70.9417071 30.5869527,71.7499927 L30.5869527,74.6785638 C30.5869527,75.4868495 31.2394744,76.1428494 32.0434743,76.1428494 C32.8474742,76.1428494 33.4999959,75.4868495 33.4999959,74.6785638 L33.4999959,71.7499927 C33.4999959,70.9417071 32.8474742,70.2857072 32.0434743,70.2857072 L32.0434743,70.2857072 Z M24.7608665,70.2857072 C23.9568666,70.2857072 23.3043449,70.9417071 23.3043449,71.7499927 L23.3043449,74.6785638 C23.3043449,75.4868495 23.9568666,76.1428494 24.7608665,76.1428494 C25.5648664,76.1428494 26.2173881,75.4868495 26.2173881,74.6785638 L26.2173881,71.7499927 C26.2173881,70.9417071 25.5648664,70.2857072 24.7608665,70.2857072 L24.7608665,70.2857072 Z M17.4782587,70.2857072 C16.6742588,70.2857072 16.0217372,70.9417071 16.0217372,71.7499927 L16.0217372,74.6785638 C16.0217372,75.4868495 16.6742588,76.1428494 17.4782587,76.1428494 C18.2822586,76.1428494 18.9347803,75.4868495 18.9347803,74.6785638 L18.9347803,71.7499927 C18.9347803,70.9417071 18.2822586,70.2857072 17.4782587,70.2857072 L17.4782587,70.2857072 Z M10.1956509,70.2857072 C9.39165101,70.2857072 8.73912935,70.9417071 8.73912935,71.7499927 L8.73912935,74.6785638 C8.73912935,75.4868495 9.39165101,76.1428494 10.1956509,76.1428494 C10.9996508,76.1428494 11.6521725,75.4868495 11.6521725,74.6785638 L11.6521725,71.7499927 C11.6521725,70.9417071 10.9996508,70.2857072 10.1956509,70.2857072 L10.1956509,70.2857072 Z M50.9782546,64.4285649 L63.3586878,64.4285649 C63.1970139,64.6716363 63.0107612,64.8984175 62.8039352,65.1036005 L50.1931895,77.781568 C49.9890944,77.9894965 49.7635156,78.1767421 49.521733,78.3392778 L49.521733,65.8928505 C49.521733,65.0845648 50.1742547,64.4285649 50.9782546,64.4285649 L50.9782546,64.4285649 Z M26.2173881,52.7142804 C25.4133882,52.7142804 24.7608665,53.3702803 24.7608665,54.1785659 C24.7608665,54.9868516 25.4133882,55.6428515 26.2173881,55.6428515 L52.4347761,55.6428515 C53.238776,55.6428515 53.8912977,54.9868516 53.8912977,54.1785659 C53.8912977,53.3702803 53.238776,52.7142804 52.4347761,52.7142804 L26.2173881,52.7142804 Z M14.5652156,52.7142804 C13.7612157,52.7142804 13.108694,53.3702803 13.108694,54.1785659 C13.108694,54.9868516 13.7612157,55.6428515 14.5652156,55.6428515 L20.3913018,55.6428515 C21.1953017,55.6428515 21.8478234,54.9868516 21.8478234,54.1785659 C21.8478234,53.3702803 21.1953017,52.7142804 20.3913018,52.7142804 L14.5652156,52.7142804 Z M26.2173881,43.928567 C25.4133882,43.928567 24.7608665,44.5845669 24.7608665,45.3928525 C24.7608665,46.2011382 25.4133882,46.8571381 26.2173881,46.8571381 L52.4347761,46.8571381 C53.238776,46.8571381 53.8912977,46.2011382 53.8912977,45.3928525 C53.8912977,44.5845669 53.238776,43.928567 52.4347761,43.928567 L26.2173881,43.928567 Z M14.5652156,43.928567 C13.7612157,43.928567 13.108694,44.5845669 13.108694,45.3928525 C13.108694,46.2011382 13.7612157,46.8571381 14.5652156,46.8571381 L20.3913018,46.8571381 C21.1953017,46.8571381 21.8478234,46.2011382 21.8478234,45.3928525 C21.8478234,44.5845669 21.1953017,43.928567 20.3913018,43.928567 L14.5652156,43.928567 Z M26.2173881,35.1428536 C25.4133882,35.1428536 24.7608665,35.7988535 24.7608665,36.6071391 C24.7608665,37.4154248 25.4133882,38.0714247 26.2173881,38.0714247 L52.4347761,38.0714247 C53.238776,38.0714247 53.8912977,37.4154248 53.8912977,36.6071391 C53.8912977,35.7988535 53.238776,35.1428536 52.4347761,35.1428536 L26.2173881,35.1428536 Z M14.5652156,35.1428536 C13.7612157,35.1428536 13.108694,35.7988535 13.108694,36.6071391 C13.108694,37.4154248 13.7612157,38.0714247 14.5652156,38.0714247 L20.3913018,38.0714247 C21.1953017,38.0714247 21.8478234,37.4154248 21.8478234,36.6071391 C21.8478234,35.7988535 21.1953017,35.1428536 20.3913018,35.1428536 L14.5652156,35.1428536 Z M26.2173881,26.3571402 C25.4133882,26.3571402 24.7608665,27.0131401 24.7608665,27.8214257 C24.7608665,28.6297114 25.4133882,29.2857113 26.2173881,29.2857113 L52.4347761,29.2857113 C53.238776,29.2857113 53.8912977,28.6297114 53.8912977,27.8214257 C53.8912977,27.0131401 53.238776,26.3571402 52.4347761,26.3571402 L26.2173881,26.3571402 Z M14.5652156,26.3571402 C13.7612157,26.3571402 13.108694,27.0131401 13.108694,27.8214257 C13.108694,28.6297114 13.7612157,29.2857113 14.5652156,29.2857113 L20.3913018,29.2857113 C21.1953017,29.2857113 21.8478234,28.6297114 21.8478234,27.8214257 C21.8478234,27.0131401 21.1953017,26.3571402 20.3913018,26.3571402 L14.5652156,26.3571402 Z M26.2173881,17.5714268 C25.4133882,17.5714268 24.7608665,18.2274267 24.7608665,19.0357124 C24.7608665,19.843998 25.4133882,20.4999979 26.2173881,20.4999979 L52.4347761,20.4999979 C53.238776,20.4999979 53.8912977,19.843998 53.8912977,19.0357124 C53.8912977,18.2274267 53.238776,17.5714268 52.4347761,17.5714268 L26.2173881,17.5714268 Z M14.5652156,17.5714268 C13.7612157,17.5714268 13.108694,18.2274267 13.108694,19.0357124 C13.108694,19.843998 13.7612157,20.4999979 14.5652156,20.4999979 L20.3913018,20.4999979 C21.1953017,20.4999979 21.8478234,19.843998 21.8478234,19.0357124 C21.8478234,18.2274267 21.1953017,17.5714268 20.3913018,17.5714268 L14.5652156,17.5714268 Z M4.36956468,2.92857113 L62.630427,2.92857113 C63.4344269,2.92857113 64.0869486,3.58457106 64.0869486,4.3928567 L64.0869486,61.4999938 L50.9782546,61.4999938 C48.5647983,61.4999938 46.6086899,63.4665293 46.6086899,65.8928505 L46.6086899,79.0714205 L4.36956468,79.0714205 C3.56556478,79.0714205 2.91304312,78.4154206 2.91304312,77.607135 L2.91304312,4.3928567 C2.91304312,3.58457106 3.56556478,2.92857113 4.36956468,2.92857113 L4.36956468,2.92857113 Z M4.36956468,0 C1.95610845,0 0,1.96653551 0,4.3928567 L0,77.607135 C0,80.0334562 1.95610845,81.9999917 4.36956468,81.9999917 L47.1037252,81.9999917 C49.0365293,82.0029202 50.8921377,81.2328891 52.261268,79.8608535 L64.8720137,67.182703 C66.2369565,65.8062746 67.0029048,63.9407748 66.9999917,61.9976678 L66.9999917,4.3928567 C66.9999917,1.96653551 65.0438833,0 62.630427,0 L4.36956468,0 Z" id="Fill-1"></path>
            </g>
        </g>
    </g>
</svg>