<svg height="80" viewBox="0 0 111 80" width="111" xmlns="http://www.w3.org/2000/svg" xmlns:xlink="http://www.w3.org/1999/xlink"><linearGradient id="a"><stop offset="0" stop-color="#f27e8d"/><stop offset=".48791174" stop-color="#f29886"/><stop offset="1" stop-color="#f2b47e"/></linearGradient><linearGradient id="b" x1=".322002%" x2="100%" xlink:href="#a" y1="49.958263%" y2="50.042008%"/><linearGradient id="c" x1=".322002%" x2="100%" xlink:href="#a" y1="49.763719%" y2="50.237812%"/><g fill="none" fill-rule="evenodd"><g transform="translate(0 7)"><rect fill="#fff" height="71" rx="2" stroke="#2f5472" stroke-width="2" width="85" x="1" y="1"/><rect fill="url(#b)" height="2" rx="1" width="69" x="9" y="26"/><rect fill="#2f5472" height="2" rx="1" width="29" x="9" y="35"/><rect fill="url(#c)" height="2" rx="1" width="29" x="9" y="51"/><rect fill="#2f5472" height="2" rx="1" width="69" x="9" y="43"/></g><g transform="translate(24)"><rect fill="#fff" height="71" rx="2" stroke="#2f5472" stroke-width="2" width="85" x="1" y="1"/><rect fill="#2f5472" height="2" rx="1" width="69" x="9" y="24"/><rect fill="url(#c)" height="2" rx="1" width="29" x="9" y="33"/><rect fill="url(#c)" height="2" rx="1" width="29" x="9" y="49"/><rect fill="#2f5472" height="2" rx="1" width="69" x="9" y="41"/></g></g></svg>