<?xml version="1.0" encoding="UTF-8"?>
<svg width="310px" height="181px" viewBox="0 0 310 181" version="1.1" xmlns="http://www.w3.org/2000/svg" xmlns:xlink="http://www.w3.org/1999/xlink">
    <!-- Generator: Sketch 54.1 (76490) - https://sketchapp.com -->
    <title>passport group</title>
    <desc>Created with Sketch.</desc>
    <defs>
        <rect id="path-1" x="0" y="0" width="310" height="181" rx="5"></rect>
        <filter x="-1.1%" y="-1.9%" width="102.3%" height="103.9%" filterUnits="objectBoundingBox" id="filter-2">
            <feGaussianBlur stdDeviation="3" in="SourceAlpha" result="shadowBlurInner1"></feGaussianBlur>
            <feOffset dx="0" dy="1" in="shadowBlurInner1" result="shadowOffsetInner1"></feOffset>
            <feComposite in="shadowOffsetInner1" in2="SourceAlpha" operator="arithmetic" k2="-1" k3="1" result="shadowInnerInner1"></feComposite>
            <feColorMatrix values="0 0 0 0 0   0 0 0 0 0   0 0 0 0 0  0 0 0 0.5 0" type="matrix" in="shadowInnerInner1"></feColorMatrix>
        </filter>
        <linearGradient x1="50%" y1="0%" x2="50%" y2="100%" id="linearGradient-3">
            <stop stop-color="#2F5472" offset="0%"></stop>
            <stop stop-color="#2F5472" offset="100%"></stop>
        </linearGradient>
        <linearGradient x1="12.1029647%" y1="0.322001689%" x2="88.1426755%" y2="100%" id="linearGradient-4">
            <stop stop-color="#F27E8D" offset="0%"></stop>
            <stop stop-color="#F29886" offset="48.791174%"></stop>
            <stop stop-color="#F2B47E" offset="100%"></stop>
        </linearGradient>
        <linearGradient x1="0.5018314%" y1="0.322001689%" x2="99.8190047%" y2="100%" id="linearGradient-5">
            <stop stop-color="#F27E8D" offset="0%"></stop>
            <stop stop-color="#F29886" offset="48.791174%"></stop>
            <stop stop-color="#F2B47E" offset="100%"></stop>
        </linearGradient>
    </defs>
    <g id="Onboarding" stroke="none" stroke-width="1" fill="none" fill-rule="evenodd">
        <g id="Id-Check-REVISED-" transform="translate(-33.000000, -398.000000)">
            <g id="passport-group" transform="translate(33.000000, 398.000000)">
                <g id="Rectangle">
                    <use fill="black" fill-opacity="1" filter="url(#filter-2)" xlink:href="#path-1"></use>
                    <rect stroke="#2F5472" stroke-width="1" stroke-linejoin="square" x="0.5" y="0.5" width="309" height="180" rx="5"></rect>
                </g>
                <g id="passport-cross" transform="translate(85.000000, 128.000000)" fill="#2F5472">
                    <text id="Passport" font-family="OpenSans-Light, Open Sans" font-size="24" font-weight="300" line-spacing="60">
                        <tspan x="36.9530494" y="26">Passport</tspan>
                    </text>
                    <path d="M14.0034604,15.0209925 L20.6884993,8.33567488 C21.1038336,7.92067769 21.1038336,7.24732615 20.6884993,6.83232897 C20.273165,6.41697738 19.6005503,6.41697738 19.1852161,6.83232897 L12.5001772,13.5176466 L5.81478393,6.83232897 C5.39944967,6.41697738 4.72683496,6.41697738 4.3115007,6.83232897 C3.89616643,7.24732615 3.89616643,7.92067769 4.3115007,8.33567488 L10.996894,15.0209925 L4.3115007,21.7063101 C3.89616643,22.1213073 3.89616643,22.7946588 4.3115007,23.209656 C4.51916783,23.4169774 4.79133226,23.5208153 5.06314232,23.5208153 C5.33495237,23.5208153 5.6071168,23.4169774 5.81478393,23.2093016 L12.5001772,16.523984 L19.1852161,23.2093016 C19.3928832,23.4169774 19.6650476,23.5208153 19.9368577,23.5208153 C20.2086677,23.5208153 20.4808322,23.4169774 20.6884993,23.2093016 C21.1038336,22.7943044 21.1038336,22.1209529 20.6884993,21.7059557 L14.0034604,15.0209925 Z" id="Shape" fill-rule="nonzero" transform="translate(12.500000, 15.020815) rotate(-315.000000) translate(-12.500000, -15.020815) "></path>
                </g>
                <g id="camera/passport-icon" transform="translate(113.000000, 39.000000)">
                    <g id="camera" transform="translate(2.269565, 3.031579)">
                        <g id="Group-5" transform="translate(0.756522, 9.852632)" fill="#2F5472" stroke="url(#linearGradient-3)">
                            <path d="M1.87160483,41.1350677 L13.4938702,53.5315422 C13.4979755,53.5358937 13.501944,53.5403813 13.5059125,53.5447328 C14.6010849,54.7760851 16.2143533,55.4822599 17.9317609,55.4822599 L73.1066626,55.4822599 C76.2521871,55.4822599 78.8113297,53.1307917 78.8113297,50.2404115 L78.8113297,17.2359542 C78.8007926,15.7727459 78.1229982,14.3632521 76.9517399,13.3734107 C76.9314868,13.3562765 76.9120547,13.3379184 76.8939912,13.3183364 L66.0119217,1.68705465 L57.4630634,6.94399748 C57.1951204,7.10894838 56.8487652,7.07046437 56.6237916,6.85098313 C56.0334413,6.27508285 55.2055276,5.94490909 54.3524345,5.94490909 L36.6733993,5.94490909 C35.6671763,5.94490909 34.7256812,6.39026291 34.1550366,7.13641753 L31.8894269,10.0602503 C30.9456054,11.2717487 29.4345604,11.9941058 27.8464715,11.9941058 L17.9317609,11.9941058 C14.7862365,11.9941058 12.2270939,14.3455739 12.2270939,17.2359542 L12.2270939,34.3871755 C12.2270939,34.6225671 12.1043437,34.8413684 11.9030444,34.9653876 L1.87160483,41.1350677 Z M73.1066626,56.8421189 L17.9317609,56.8421189 C15.8254392,56.8421189 13.8413202,55.9711292 12.4865524,54.4520307 L0.302400588,41.4561304 C0.162818454,41.3073619 0.0976801246,41.104063 0.12477548,40.9023959 C0.152144526,40.7007288 0.268736661,40.5216354 0.442940638,40.4144785 L10.8586416,34.0084548 L10.8586416,17.2359542 C10.8586416,13.5957477 14.0315351,10.6342468 17.9317609,10.6342468 L27.8464715,10.6342468 C29.0144455,10.6342468 30.1208392,10.1090693 30.806297,9.22924049 L33.0682117,6.31016721 C33.8933885,5.2312551 35.2419982,4.58505011 36.6733993,4.58505011 L54.3524345,4.58505011 C55.374942,4.58505011 56.3747333,4.92283908 57.1695304,5.5253926 L65.7699793,0.236629061 C66.047912,0.065966759 66.408636,0.113969781 66.6311464,0.351945102 L77.8695608,12.3641234 C79.3250467,13.6089383 80.166508,15.3804266 80.179782,17.2310587 L80.179782,50.2404115 C80.179782,53.880618 77.0068885,56.8421189 73.1066626,56.8421189 L73.1066626,56.8421189 Z" id="Fill-3"></path>
                        </g>
                        <path d="M67.9114323,7.87402934 L57.0940762,7.87402934 C55.5799192,7.87402934 54.1612496,7.15150992 53.274581,5.91109405 L50.8055502,2.4755824 C50.0278737,1.3986195 48.7866741,0.757894737 47.4634919,0.757894737 L28.175041,0.757894737 C26.8518587,0.757894737 25.5968817,1.3986195 24.8329827,2.4755824 L22.3639518,5.91109405 C21.4772833,7.13801381 20.0586137,7.87402934 18.5444566,7.87402934 L7.72710052,7.87402934 C3.88032319,7.87402934 0.756521739,10.9958585 0.756521739,14.8403434 L0.756521739,53.6654012 C0.756521739,57.5098861 3.88032319,60.6315789 7.72710052,60.6315789 L67.9250734,60.6315789 C71.7718507,60.6315789 74.8956522,57.5097498 74.8956522,53.6654012 L74.8956522,14.8403434 C74.8820111,10.9958585 71.7582097,7.87402934 67.9114323,7.87402934" id="Fill-6" fill="#FFFFFF"></path>
                        <g id="Group-10" fill="#2F5472" stroke="#2F5472">
                            <path d="M7.78869973,8.52119488 C4.32824025,8.52119488 1.51304348,11.2966506 1.51304348,14.7080952 L1.51304348,52.9290234 C1.51304348,56.3403337 4.32824025,59.1157895 7.78869973,59.1157895 L67.8634742,59.1157895 C71.3239337,59.1157895 74.1391304,56.3403337 74.1391304,52.9290234 L74.1391304,14.7080952 C74.1268786,11.29759 71.3054198,8.52119488 67.849861,8.52119488 L57.0546433,8.52119488 C55.3253664,8.52119488 53.6934235,7.69369814 52.6891824,6.30778202 L50.2261575,2.9272042 C49.5795335,2.04374474 48.5392175,1.51578947 47.4437684,1.51578947 L28.1947924,1.51578947 C27.0880443,1.51578947 26.0488174,2.0421343 25.4148536,2.92384912 L22.9482893,6.30925825 C21.9332938,7.69477177 20.3021677,8.52119488 18.5839175,8.52119488 L7.78869973,8.52119488 Z M67.9844468,60.6315789 L7.66772711,60.6315789 C3.43967951,60.6315789 0,57.2347528 0,53.0593804 L0,14.6181225 C0,10.4427502 3.43967951,7.04578901 7.66772711,7.04578901 L18.5064216,7.04578901 C19.7939437,7.04578901 21.0174997,6.42381591 21.779352,5.38192998 L24.2524331,1.98186437 C25.1422175,0.742237428 26.602366,0 28.1560033,0 L47.4825027,0 C49.0201485,0 50.4792035,0.74048273 51.3852527,1.98078455 L53.8601108,5.38341473 C54.6134889,6.42476074 55.8362248,7.04578901 57.1320844,7.04578901 L67.9707788,7.04578901 C72.1913091,7.04578901 75.6371392,10.4415354 75.6521739,14.6156929 L75.6521739,53.0593804 C75.6521739,57.2347528 72.2123577,60.6315789 67.9844468,60.6315789 L67.9844468,60.6315789 Z" id="Fill-8"></path>
                        </g>
                        <path d="M37.8260336,18.9473684 C45.7645475,18.9473684 52.2,25.3944414 52.2,33.3474219 C52.2,41.3002954 45.7645475,47.7473684 37.8260336,47.7473684 C29.8876264,47.7473684 23.4521739,41.3002954 23.4521739,33.3474219 C23.4521739,25.3944414 29.8876264,18.9473684 37.8260336,18.9473684" id="Fill-11" fill="#2F5472"></path>
                        <path d="M37.8260504,23.4947368 C43.2576652,23.4947368 47.6608696,27.905892 47.6608696,33.347405 C47.6608696,38.7888448 43.2576652,43.2 37.8260504,43.2 C32.3945087,43.2 27.9913043,38.7888448 27.9913043,33.347405 C27.9913043,27.905892 32.3945087,23.4947368 37.8260504,23.4947368" id="Fill-11-Copy" fill="#FFFFFF"></path>
                        <path d="M10.2130435,13.6421053 C11.6753824,13.6421053 12.8608696,14.9992656 12.8608696,16.6736842 C12.8608696,18.3479618 11.6753824,19.7052632 10.2130435,19.7052632 C8.75070455,19.7052632 7.56521739,18.3479618 7.56521739,16.6736842 C7.56521739,14.9992656 8.75070455,13.6421053 10.2130435,13.6421053" id="Fill-19" fill="url(#linearGradient-4)"></path>
                        <path d="M10.2130435,14.1712016 C9.04426021,14.1712016 8.09335521,15.1238324 8.09335521,16.2947368 C8.09335521,17.4656413 9.04426021,18.4182721 10.2130435,18.4182721 C11.3818267,18.4182721 12.3327317,17.4656413 12.3327317,16.2947368 C12.3327317,15.1238324 11.3818267,14.1712016 10.2130435,14.1712016 M10.2130435,19.7052632 C8.33589893,19.7052632 6.80869565,18.1752882 6.80869565,16.2947368 C6.80869565,14.4141855 8.33589893,12.8842105 10.2130435,12.8842105 C12.090188,12.8842105 13.6173913,14.4141855 13.6173913,16.2947368 C13.6173913,18.1752882 12.090188,19.7052632 10.2130435,19.7052632" id="Fill-21" fill="url(#linearGradient-5)"></path>
                    </g>
                </g>
            </g>
        </g>
    </g>
</svg>