<?xml version="1.0" encoding="UTF-8"?>
<svg width="124px" height="71px" viewBox="0 0 124 71" version="1.1" xmlns="http://www.w3.org/2000/svg" xmlns:xlink="http://www.w3.org/1999/xlink">
    <!-- Generator: Sketch 55 (78076) - https://sketchapp.com -->
    <title>Group 6</title>
    <desc>Created with Sketch.</desc>
    <defs>
        <polygon id="path-1" points="0 55.1 77.6 55.1 77.6 0 0 0"></polygon>
    </defs>
    <g id="Onboarding" stroke="none" stroke-width="1" fill="none" fill-rule="evenodd">
        <g id="Id-Check-REVISED--Copy" transform="translate(-124.000000, -433.000000)">
            <g id="Group-6" transform="translate(123.000000, 433.000000)">
                <g id="Group-4" transform="translate(30.000000, 36.000000) rotate(-10.000000) translate(-30.000000, -36.000000) translate(6.000000, 4.000000)">
                    <rect id="Rectangle" stroke="#2F5472" stroke-width="2" x="1" y="1" width="46" height="61.7241379" rx="3"></rect>
                    <path d="M18.8358621,8.7337931 C17.817931,10.0910345 16.9131034,11.7875862 16.2344828,13.9365517 L11.7103448,13.9365517 C13.52,11.4482759 15.8951724,9.63862069 18.8358621,8.7337931 L18.8358621,8.7337931 Z M35.5751724,13.8234483 L31.0510345,13.8234483 C30.3724138,11.7875862 29.4675862,9.97793103 28.4496552,8.62068966 C31.2772414,9.63862069 33.7655172,11.4482759 35.5751724,13.8234483 L35.5751724,13.8234483 Z M28.4496552,37.0096552 C29.4675862,35.6524138 30.3724138,33.8427586 31.0510345,31.6937931 L35.6882759,31.6937931 C33.8786207,34.0689655 31.3903448,35.9917241 28.4496552,37.0096552 L28.4496552,37.0096552 Z M14.9903448,23.7765517 C14.9903448,25.9255172 15.3296552,27.9613793 15.6689655,29.7710345 L10.3531034,29.7710345 C9.44827586,27.9613793 8.88275862,25.9255172 8.65655172,23.7765517 L14.9903448,23.7765517 Z M14.9903448,21.7406897 L8.76965517,21.7406897 C8.88275862,19.5917241 9.56137931,17.5558621 10.4662069,15.7462069 L15.782069,15.7462069 C15.2165517,17.6689655 14.9903448,19.7048276 14.9903448,21.7406897 L14.9903448,21.7406897 Z M22.6813793,15.8593103 L22.6813793,21.8537931 L16.9131034,21.8537931 C17.0262069,19.5917241 17.2524138,17.6689655 17.7048276,15.8593103 L22.6813793,15.8593103 Z M22.6813793,8.05517241 L22.6813793,13.8234483 L18.2703448,13.8234483 C19.4013793,10.7696552 20.9848276,8.62068966 22.6813793,8.05517241 L22.6813793,8.05517241 Z M24.6041379,13.8234483 L24.6041379,8.05517241 C26.4137931,8.62068966 27.8841379,10.7696552 29.0151724,13.8234483 L24.6041379,13.8234483 Z M30.3724138,21.7406897 L24.6041379,21.7406897 L24.6041379,15.7462069 L29.5806897,15.7462069 C30.0331034,17.6689655 30.2593103,19.7048276 30.3724138,21.7406897 L30.3724138,21.7406897 Z M32.2951724,23.7765517 L38.5158621,23.7765517 C38.4027586,25.9255172 37.8372414,27.9613793 36.8193103,29.7710345 L31.5034483,29.7710345 C32.0689655,27.8482759 32.2951724,25.9255172 32.2951724,23.7765517 L32.2951724,23.7765517 Z M24.6041379,29.7710345 L24.6041379,23.7765517 L30.3724138,23.7765517 C30.2593103,25.9255172 30.0331034,27.9613793 29.5806897,29.7710345 L24.6041379,29.7710345 Z M24.6041379,37.5751724 L24.6041379,31.5806897 L29.0151724,31.5806897 C27.9972414,34.8606897 26.4137931,37.0096552 24.6041379,37.5751724 L24.6041379,37.5751724 Z M17.7048276,29.7710345 C17.2524138,27.9613793 17.0262069,26.0386207 16.9131034,23.7765517 L22.6813793,23.7765517 L22.6813793,29.7710345 L17.7048276,29.7710345 Z M22.6813793,31.6937931 L22.6813793,37.5751724 C20.9848276,37.0096552 19.2882759,34.8606897 18.2703448,31.6937931 L22.6813793,31.6937931 Z M38.5158621,21.7406897 L32.2951724,21.7406897 C32.182069,19.5917241 31.9558621,17.5558621 31.5034483,15.7462069 L36.8193103,15.7462069 C37.8372414,17.6689655 38.4027586,19.5917241 38.5158621,21.7406897 L38.5158621,21.7406897 Z M11.5972414,31.6937931 L16.2344828,31.6937931 C16.9131034,33.8427586 17.817931,35.6524138 18.8358621,37.0096552 C15.8951724,35.9917241 13.4068966,34.0689655 11.5972414,31.6937931 L11.5972414,31.6937931 Z M23.5862069,39.7241379 L23.5862069,39.7241379 C32.9737931,39.7241379 40.5517241,32.1462069 40.5517241,22.7586207 C40.5517241,13.3710345 32.9737931,5.79310345 23.5862069,5.79310345 C14.1986207,5.79310345 6.62068966,13.3710345 6.62068966,22.7586207 C6.7337931,32.1462069 14.3117241,39.7241379 23.5862069,39.7241379 L23.5862069,39.7241379 Z" id="Fill-4" fill="#2F5472"></path>
                    <path d="M38.0689655,52.9655172 C38.0689655,52.5057471 37.6163793,52.137931 37.0506466,52.137931 L10.1217672,52.137931 C9.55603448,52.137931 9.10344828,52.5057471 9.10344828,52.9655172 C9.10344828,53.4252874 9.55603448,53.7931034 10.1217672,53.7931034 L37.0506466,53.7931034 C37.6163793,53.7011494 38.0689655,53.3333333 38.0689655,52.9655172" id="Fill-6" fill="#2F5472"></path>
                    <path d="M10.1129462,47.2643678 C9.5514902,47.2643678 9.10344828,47.6321839 9.10344828,48.091954 C9.10344828,48.5517241 9.5514902,48.8275862 10.1129462,48.8275862 L30.4387779,48.8275862 C31.0002339,48.8275862 31.4482759,48.4597701 31.4482759,48 C31.4482759,47.5402299 31.0002339,47.1724138 30.4387779,47.1724138 L10.1129462,47.1724138 L10.1129462,47.2643678 Z" id="Fill-8" fill="#2F5472"></path>
                </g>
                <g id="Group-51" transform="translate(46.807872, 8.318596)">
                    <rect id="Rectangle" fill="#FFFFFF" x="0" y="0" width="77" height="55" rx="5"></rect>
                    <path d="M73.9001,0.5 L3.6001,0.5 C1.9001,0.5 0.5001,1.9 0.5001,3.6 L0.5001,51.5 C0.5001,53.2 1.9001,54.6 3.6001,54.6 L74.0001,54.6 C75.7001,54.6 77.1001,53.2 77.1001,51.5 L77.1001,3.6 C77.0001,1.9 75.6001,0.5 73.9001,0.5 M73.9001,1.5 C75.1001,1.5 76.0001,2.4 76.0001,3.6 L76.0001,51.5 C76.0001,52.6 75.1001,53.6 73.9001,53.6 L3.6001,53.6 C2.5001,53.6 1.5001,52.7 1.5001,51.5 L1.5001,3.6 C1.5001,2.5 2.4001,1.5 3.6001,1.5 L73.9001,1.5" id="Fill-1" fill="#2F5472"></path>
                    <path d="M73.9001,0.5 L3.6001,0.5 C1.9001,0.5 0.5001,1.9 0.5001,3.6 L0.5001,51.5 C0.5001,53.2 1.9001,54.6 3.6001,54.6 L74.0001,54.6 C75.7001,54.6 77.1001,53.2 77.1001,51.5 L77.1001,3.6 C77.0001,1.9 75.6001,0.5 73.9001,0.5 Z M73.9001,1.5 C75.1001,1.5 76.0001,2.4 76.0001,3.6 L76.0001,51.5 C76.0001,52.6 75.1001,53.6 73.9001,53.6 L3.6001,53.6 C2.5001,53.6 1.5001,52.7 1.5001,51.5 L1.5001,3.6 C1.5001,2.5 2.4001,1.5 3.6001,1.5 L73.9001,1.5 L73.9001,1.5 Z" id="Stroke-3" stroke="#2F5472"></path>
                    <mask id="mask-2" fill="white">
                        <use xlink:href="#path-1"></use>
                    </mask>
                    <g id="Clip-6"></g>
                    <polygon id="Fill-5" fill="#2F5472" mask="url(#mask-2)" points="11.8 9.7 22.401 9.7 22.401 8.7 11.8 8.7"></polygon>
                    <polygon id="Fill-7" fill="#2F5472" mask="url(#mask-2)" points="54.6 9.7 65.2 9.7 65.2 8.7 54.6 8.7"></polygon>
                    <path d="M26.9998,41.7002 L10.4998,41.7002 C9.8998,41.7002 9.4998,41.5002 9.3998,41.2002 C9.2998,40.9002 9.3998,40.5002 9.8998,40.0002 L12.9998,36.5002 C13.8998,35.5002 15.6998,34.7002 16.9998,34.7002 L20.8998,34.7002 C22.1998,34.7002 23.9998,35.5002 24.8998,36.5002 L27.8998,39.9002 C28.1008,40.0992 28.1008,40.2002 28.1998,40.4002 C28.1998,40.5002 28.2998,40.5992 28.2998,40.5992 C28.4998,41.2002 27.9998,41.7002 26.9998,41.7002 M18.7998,21.6002 C21.8998,21.6002 24.4998,24.1002 24.4998,27.3002 C24.4998,30.4002 21.9998,33.0002 18.7998,33.0002 C15.6998,33.0002 13.1008,30.5002 13.1008,27.3002 C12.9998,24.2002 15.6008,21.6002 18.7998,21.6002 M28.1008,17.7002 L9.4998,17.7002 C7.7998,17.7002 6.4998,19.1002 6.4998,20.7002 L6.4998,44.0002 C6.4998,45.7002 7.8998,47.0002 9.4998,47.0002 L28.1008,47.0002 C29.7998,47.0002 31.1008,45.5992 31.1008,44.0002 L31.1008,20.7002 C31.1008,19.1002 29.7998,17.7002 28.1008,17.7002" id="Fill-8" fill="#2F5472" mask="url(#mask-2)"></path>
                    <path d="M67.7,28.7998 L38.6,28.7998 C38.1,28.7998 37.7,29.1998 37.7,29.6998 C37.7,30.1998 38.1,30.5998 38.6,30.5998 L67.7,30.5998 C68.2,30.5998 68.6,30.1998 68.6,29.6998 C68.6,29.1998 68.2,28.7998 67.7,28.7998" id="Fill-9" fill="#2F5472" mask="url(#mask-2)"></path>
                    <path d="M67.7,32.3999 L38.6,32.3999 C38.1,32.3999 37.7,32.7999 37.7,33.2999 C37.7,33.7999 38.1,34.1999 38.6,34.1999 L67.7,34.1999 C68.2,34.1999 68.6,33.7999 68.6,33.2999 C68.6,32.7999 68.2,32.3999 67.7,32.3999" id="Fill-10" fill="#2F5472" mask="url(#mask-2)"></path>
                    <path d="M67.7,25.1001 L38.6,25.1001 C38.1,25.1001 37.7,25.5001 37.7,26.0001 C37.7,26.5001 38.1,26.9001 38.6,26.9001 L67.7,26.9001 C68.2,26.9001 68.6,26.5001 68.6,26.0001 C68.6,25.5001 68.2,25.1001 67.7,25.1001" id="Fill-11" fill="#2F5472" mask="url(#mask-2)"></path>
                    <path d="M67.7,39.5996 L38.6,39.5996 C38.1,39.5996 37.7,39.9996 37.7,40.4996 C37.7,40.9996 38.1,41.4006 38.6,41.4006 L67.7,41.4006 C68.2,41.4006 68.6,40.9996 68.6,40.4996 C68.6,39.9996 68.2,39.5996 67.7,39.5996" id="Fill-12" fill="#2F5472" mask="url(#mask-2)"></path>
                    <path d="M67.7,43.2002 L38.6,43.2002 C38.1,43.2002 37.7,43.5992 37.7,44.0992 C37.7,44.5992 38.1,45.0002 38.6,45.0002 L67.7,45.0002 C68.2,45.0002 68.6,44.5992 68.6,44.0992 C68.6,43.5992 68.2,43.2002 67.7,43.2002" id="Fill-13" fill="#2F5472" mask="url(#mask-2)"></path>
                    <path d="M67.7,36 L38.6,36 C38.1,36 37.7,36.4 37.7,36.9 C37.7,37.4 38.1,37.8 38.6,37.8 L67.7,37.8 C68.2,37.8 68.6,37.4 68.6,36.9 C68.6,36.4 68.2,36 67.7,36" id="Fill-14" fill="#2F5472" mask="url(#mask-2)"></path>
                    <polygon id="Fill-15" fill="#2F5472" mask="url(#mask-2)" points="38 21.1 38.8 21.1 38.8 17.8 38 17.8"></polygon>
                    <polygon id="Fill-16" fill="#2F5472" mask="url(#mask-2)" points="39.1 21.1 39.499 21.1 39.499 17.8 39.1 17.8"></polygon>
                    <polygon id="Fill-17" fill="#2F5472" mask="url(#mask-2)" points="43.2 21.1 43.6 21.1 43.6 17.8 43.2 17.8"></polygon>
                    <polygon id="Fill-18" fill="#2F5472" mask="url(#mask-2)" points="39.7 21.1 40.9 21.1 40.9 17.8 39.7 17.8"></polygon>
                    <polygon id="Fill-19" fill="#2F5472" mask="url(#mask-2)" points="41.1 21.1 41.299 21.1 41.299 17.8 41.1 17.8"></polygon>
                    <polygon id="Fill-20" fill="#2F5472" mask="url(#mask-2)" points="41.5 21.1 42.9 21.1 42.9 17.8 41.5 17.8"></polygon>
                    <polygon id="Fill-21" fill="#2F5472" mask="url(#mask-2)" points="43.8 21.1 44.2 21.1 44.2 17.8 43.8 17.8"></polygon>
                    <polygon id="Fill-22" fill="#2F5472" mask="url(#mask-2)" points="44.3 21.1 44.401 21.1 44.401 17.8 44.3 17.8"></polygon>
                    <polygon id="Fill-23" fill="#2F5472" mask="url(#mask-2)" points="44.7 21.1 45.5 21.1 45.5 17.8 44.7 17.8"></polygon>
                    <polygon id="Fill-24" fill="#2F5472" mask="url(#mask-2)" points="45.7 21.1 46.5 21.1 46.5 17.8 45.7 17.8"></polygon>
                    <polygon id="Fill-25" fill="#2F5472" mask="url(#mask-2)" points="46.6 21.1 46.999 21.1 46.999 17.8 46.6 17.8"></polygon>
                    <polygon id="Fill-26" fill="#2F5472" mask="url(#mask-2)" points="50.8 21.1 51.2 21.1 51.2 17.8 50.8 17.8"></polygon>
                    <polygon id="Fill-27" fill="#2F5472" mask="url(#mask-2)" points="47.3 21.1 48.5 21.1 48.5 17.8 47.3 17.8"></polygon>
                    <polygon id="Fill-28" fill="#2F5472" mask="url(#mask-2)" points="48.7 21.1 48.9 21.1 48.9 17.8 48.7 17.8"></polygon>
                    <polygon id="Fill-29" fill="#2F5472" mask="url(#mask-2)" points="49.1 21.1 50.499 21.1 50.499 17.8 49.1 17.8"></polygon>
                    <polygon id="Fill-30" fill="#2F5472" mask="url(#mask-2)" points="51.3 21.1 51.7 21.1 51.7 17.8 51.3 17.8"></polygon>
                    <polygon id="Fill-31" fill="#2F5472" mask="url(#mask-2)" points="51.9 21.1 52 21.1 52 17.8 51.9 17.8"></polygon>
                    <polygon id="Fill-32" fill="#2F5472" mask="url(#mask-2)" points="52.3 21.1 53.101 21.1 53.101 17.8 52.3 17.8"></polygon>
                    <polygon id="Fill-33" fill="#2F5472" mask="url(#mask-2)" points="53.3 21.1 54.101 21.1 54.101 17.8 53.3 17.8"></polygon>
                    <polygon id="Fill-34" fill="#2F5472" mask="url(#mask-2)" points="54.3 21.1 54.7 21.1 54.7 17.8 54.3 17.8"></polygon>
                    <polygon id="Fill-35" fill="#2F5472" mask="url(#mask-2)" points="58.4 21.1 58.799 21.1 58.799 17.8 58.4 17.8"></polygon>
                    <polygon id="Fill-36" fill="#2F5472" mask="url(#mask-2)" points="55 21.1 56.2 21.1 56.2 17.8 55 17.8"></polygon>
                    <polygon id="Fill-37" fill="#2F5472" mask="url(#mask-2)" points="56.4 21.1 56.6 21.1 56.6 17.8 56.4 17.8"></polygon>
                    <polygon id="Fill-38" fill="#2F5472" mask="url(#mask-2)" points="56.8 21.1 58.2 21.1 58.2 17.8 56.8 17.8"></polygon>
                    <polygon id="Fill-39" fill="#2F5472" mask="url(#mask-2)" points="59 21.1 59.4 21.1 59.4 17.8 59 17.8"></polygon>
                    <polygon id="Fill-40" fill="#2F5472" mask="url(#mask-2)" points="59.6 21.1 59.7 21.1 59.7 17.8 59.6 17.8"></polygon>
                    <polygon id="Fill-41" fill="#2F5472" mask="url(#mask-2)" points="59.9 21.1 60.7 21.1 60.7 17.8 59.9 17.8"></polygon>
                    <polygon id="Fill-42" fill="#2F5472" mask="url(#mask-2)" points="60.9 21.1 61.7 21.1 61.7 17.8 60.9 17.8"></polygon>
                    <polygon id="Fill-43" fill="#2F5472" mask="url(#mask-2)" points="61.9 21.1 62.299 21.1 62.299 17.8 61.9 17.8"></polygon>
                    <polygon id="Fill-44" fill="#2F5472" mask="url(#mask-2)" points="66 21.1 66.4 21.1 66.4 17.8 66 17.8"></polygon>
                    <polygon id="Fill-45" fill="#2F5472" mask="url(#mask-2)" points="62.5 21.1 63.7 21.1 63.7 17.8 62.5 17.8"></polygon>
                    <polygon id="Fill-46" fill="#2F5472" mask="url(#mask-2)" points="63.9 21.1 64.1 21.1 64.1 17.8 63.9 17.8"></polygon>
                    <polygon id="Fill-47" fill="#2F5472" mask="url(#mask-2)" points="64.4 21.1 65.799 21.1 65.799 17.8 64.4 17.8"></polygon>
                    <polygon id="Fill-48" fill="#2F5472" mask="url(#mask-2)" points="66.6 21.1 66.999 21.1 66.999 17.8 66.6 17.8"></polygon>
                    <polygon id="Fill-49" fill="#2F5472" mask="url(#mask-2)" points="67.1 21.1 67.2 21.1 67.2 17.8 67.1 17.8"></polygon>
                    <polygon id="Fill-50" fill="#2F5472" mask="url(#mask-2)" points="67.5 21.1 68.3 21.1 68.3 17.8 67.5 17.8"></polygon>
                </g>
            </g>
        </g>
    </g>
</svg>