<?xml version="1.0" encoding="UTF-8"?>
<svg width="77px" height="89px" viewBox="0 0 77 89" version="1.1" xmlns="http://www.w3.org/2000/svg" xmlns:xlink="http://www.w3.org/1999/xlink">
    <!-- Generator: Sketch 54.1 (76490) - https://sketchapp.com -->
    <title>Group 6</title>
    <desc>Created with Sketch.</desc>
    <defs>
        <path d="M14.4933333,0.291052632 C5.01166667,1.9707177 -1.2925,11.0169617 0.379666667,20.5434928 L0.379666667,20.5434928 C2.1655,30.0500957 11.1686667,36.3844258 20.5356667,34.724689 L20.5356667,34.724689 C30.017,33.0451914 36.321,23.9989474 34.6493333,14.4722488 L34.6493333,14.4722488 C33.1588333,5.97746411 25.8388333,0.0214354067 17.5488333,0.0209330144 L17.5488333,0.0209330144 C16.5416667,0.0209330144 15.5203333,0.109019139 14.4933333,0.291052632 L14.4933333,0.291052632 Z M19.9088333,2.29007177 C22.9458333,2.81708134 25.7813333,4.20854067 28.032,6.29514354 L28.032,6.29514354 L23.4623333,7.10466507 C22.4145,5.15990431 21.1785,3.48526316 19.9088333,2.29007177 L19.9088333,2.29007177 Z M15.9241667,2.4042823 C17.8525,2.65430622 19.7203333,4.57244019 21.4065,7.46906699 L21.4065,7.46906699 L16.9511667,8.25815789 L15.9241667,2.4042823 Z M13.982,2.74858852 L15.0095,8.60246411 L10.5541667,9.39155502 C11.1526667,6.09016746 12.3693333,3.62576555 13.982,2.74858852 L13.982,2.74858852 Z M10.219,4.125311 C9.43283333,5.68490431 8.821,7.56820574 8.51816667,9.87050239 L8.51816667,9.87050239 L3.94916667,10.6801914 C5.3335,7.8311244 7.41016667,5.569689 10.219,4.125311 L10.219,4.125311 Z M24.262,8.97473684 L29.631,8.02370813 C31.0011667,9.79279904 31.9148333,11.6427751 32.412,13.8032297 L32.412,13.8032297 L26.1291667,14.9165311 C25.632,12.7560766 25.041,10.7304306 24.262,8.97473684 L24.262,8.97473684 Z M17.2938333,10.2094498 L22.3198333,9.31904306 C23.1193333,11.1889474 23.7103333,13.2147608 24.1871667,15.2603349 L24.1871667,15.2603349 L18.3611667,16.2929187 L17.2938333,10.2094498 Z M10.3456667,11.5587081 L15.3721667,10.668134 L16.4395,16.7514354 L10.6135,17.7838517 C10.3248333,15.4676555 10.2111667,13.4763397 10.3456667,11.5587081 L10.3456667,11.5587081 Z M3.01466667,12.7391627 L8.38366667,11.7883014 C8.15483333,13.8405742 8.28883333,15.9467703 8.6515,18.0129426 L8.6515,18.0129426 L2.36866667,19.1259091 C2.1005,16.9249282 2.42316667,14.7376794 3.01466667,12.7391627 L3.01466667,12.7391627 Z M26.4918333,16.9823684 L32.7746667,15.8694019 C33.0428333,18.0703828 32.8343333,20.2375359 32.1281667,22.2559809 L32.1281667,22.2559809 L26.7596667,23.207512 C26.9885,21.1552392 26.8743333,19.1632536 26.4918333,16.9823684 L26.4918333,16.9823684 Z M18.7238333,18.3585885 L24.5496667,17.3266746 C24.8183333,19.527488 24.9525,21.6341866 24.8175,23.5513158 L24.8175,23.5513158 L19.7915,24.44189 L18.7238333,18.3585885 Z M10.9561667,19.7348086 L16.7821667,18.7028947 L17.8495,24.7861962 L12.823,25.6767703 C12.0438333,23.9210766 11.4731667,22.0101435 10.9561667,19.7348086 L10.9561667,19.7348086 Z M2.617,21.212512 L9.014,20.0791148 C9.3965,22.2596651 10.1021667,24.2652153 10.7671667,26.0410048 L10.7671667,26.0410048 L5.39816667,26.9920335 C4.162,25.3177273 3.2285,23.3530383 2.617,21.212512 L2.617,21.212512 Z M26.645,25.2398565 L31.3286667,24.4099043 C29.924,27.1440909 27.753,29.5403349 24.9645,31.0999282 L24.9645,31.0999282 C25.7506667,29.5403349 26.3421667,27.5418182 26.645,25.2398565 L26.645,25.2398565 Z M20.1138333,26.2784689 L24.5686667,25.489378 C24.1246667,28.9999282 22.9081667,31.4641627 21.1811667,32.3619378 L21.1811667,32.3619378 L20.1138333,26.2784689 Z M13.7368333,27.5267464 L18.1921667,26.7376555 L19.239,32.7057416 C17.4248333,32.435622 15.3286667,30.5581818 13.7368333,27.5267464 L13.7368333,27.5267464 Z M6.99716667,28.7205981 L11.6805,27.8909809 C12.7486667,29.9501196 13.9846667,31.6247608 15.2548333,32.8199522 L15.2548333,32.8199522 C12.1031667,32.3133732 9.24783333,30.807201 6.99716667,28.7205981 L6.99716667,28.7205981 Z" id="path-1"></path>
    </defs>
    <g id="Onboarding" stroke="none" stroke-width="1" fill="none" fill-rule="evenodd">
        <g id="J" transform="translate(-150.000000, -422.000000)">
            <g id="Group-6" transform="translate(189.225398, 466.719674) rotate(-18.000000) translate(-189.225398, -466.719674) translate(158.225398, 428.719674)">
                <path d="M5.87478272,67.1361408 L56.2660871,67.1361408 L56.2660871,71.153998 C56.2660871,71.8916096 55.6703425,72.4932837 54.9400001,72.4932837 L5.87478272,72.4932837 C4.41393218,72.4932837 3.22260881,71.2899355 3.22260881,69.8147122 C3.22260881,68.1457948 5.06669848,67.1361408 5.87478272,67.1361408 L5.87478272,67.1361408 Z M7.20086968,59.1004265 C6.47052728,59.1004265 5.87478272,59.7021006 5.87478272,60.4397122 C5.87478272,61.1773239 6.47052728,61.778998 7.20086968,61.778998 L9.85304359,61.778998 C10.583386,61.778998 11.1791305,61.1773239 11.1791305,60.4397122 C11.1791305,59.7021006 10.583386,59.1004265 9.85304359,59.1004265 L7.20086968,59.1004265 Z M7.20086968,52.403998 C6.47052728,52.403998 5.87478272,53.0056721 5.87478272,53.7432837 C5.87478272,54.4808953 6.47052728,55.0825694 7.20086968,55.0825694 L9.85304359,55.0825694 C10.583386,55.0825694 11.1791305,54.4808953 11.1791305,53.7432837 C11.1791305,53.0056721 10.583386,52.403998 9.85304359,52.403998 L7.20086968,52.403998 Z M7.20086968,45.7075694 C6.47052728,45.7075694 5.87478272,46.3092435 5.87478272,47.0468551 C5.87478272,47.7844667 6.47052728,48.3861408 7.20086968,48.3861408 L9.85304359,48.3861408 C10.583386,48.3861408 11.1791305,47.7844667 11.1791305,47.0468551 C11.1791305,46.3092435 10.583386,45.7075694 9.85304359,45.7075694 L7.20086968,45.7075694 Z M7.20086968,39.0111408 C6.47052728,39.0111408 5.87478272,39.6128149 5.87478272,40.3504265 C5.87478272,41.0880381 6.47052728,41.6897122 7.20086968,41.6897122 L9.85304359,41.6897122 C10.583386,41.6897122 11.1791305,41.0880381 11.1791305,40.3504265 C11.1791305,39.6128149 10.583386,39.0111408 9.85304359,39.0111408 L7.20086968,39.0111408 Z M7.20086968,32.3147122 C6.47052728,32.3147122 5.87478272,32.9163864 5.87478272,33.653998 C5.87478272,34.3916096 6.47052728,34.9932837 7.20086968,34.9932837 L9.85304359,34.9932837 C10.583386,34.9932837 11.1791305,34.3916096 11.1791305,33.653998 C11.1791305,32.9163864 10.583386,32.3147122 9.85304359,32.3147122 L7.20086968,32.3147122 Z M7.20086968,25.6182837 C6.47052728,25.6182837 5.87478272,26.2199578 5.87478272,26.9575694 C5.87478272,27.695181 6.47052728,28.2968551 7.20086968,28.2968551 L9.85304359,28.2968551 C10.583386,28.2968551 11.1791305,27.695181 11.1791305,26.9575694 C11.1791305,26.2199578 10.583386,25.6182837 9.85304359,25.6182837 L7.20086968,25.6182837 Z M7.20086968,18.9218551 C6.47052728,18.9218551 5.87478272,19.5235292 5.87478272,20.2611408 C5.87478272,20.9987524 6.47052728,21.6004265 7.20086968,21.6004265 L9.85304359,21.6004265 C10.583386,21.6004265 11.1791305,20.9987524 11.1791305,20.2611408 C11.1791305,19.5235292 10.583386,18.9218551 9.85304359,18.9218551 L7.20086968,18.9218551 Z M7.20086968,12.2254265 C6.47052728,12.2254265 5.87478272,12.8271006 5.87478272,13.5647122 C5.87478272,14.3023239 6.47052728,14.903998 7.20086968,14.903998 L9.85304359,14.903998 C10.583386,14.903998 11.1791305,14.3023239 11.1791305,13.5647122 C11.1791305,12.8271006 10.583386,12.2254265 9.85304359,12.2254265 L7.20086968,12.2254265 Z M15.1573914,5.52899796 C14.427049,5.52899796 13.8313045,6.13067207 13.8313045,6.86828367 L13.8313045,12.2254265 C13.8313045,12.9630381 14.427049,13.5647122 15.1573914,13.5647122 C15.8877338,13.5647122 16.4834784,12.9630381 16.4834784,12.2254265 L16.4834784,6.86828367 C16.4834784,6.13067207 15.8877338,5.52899796 15.1573914,5.52899796 L15.1573914,5.52899796 Z M7.20086968,5.52899796 C6.47052728,5.52899796 5.87478272,6.13067207 5.87478272,6.86828367 C5.87478272,7.60589528 6.47052728,8.20756939 7.20086968,8.20756939 L9.85304359,8.20756939 C10.583386,8.20756939 11.1791305,7.60589528 11.1791305,6.86828367 C11.1791305,6.13067207 10.583386,5.52899796 9.85304359,5.52899796 L7.20086968,5.52899796 Z M5.87478272,2.85042653 L57.592174,2.85042653 C58.3225164,2.85042653 58.918261,3.45210064 58.918261,4.18971225 L58.918261,63.1182837 C58.918261,63.8558953 58.3225164,64.4575694 57.592174,64.4575694 L16.4834784,64.4575694 L16.4834784,17.5825694 C16.4834784,16.8449578 15.8877338,16.2432837 15.1573914,16.2432837 C14.427049,16.2432837 13.8313045,16.8449578 13.8313045,17.5825694 L13.8313045,64.4575694 L5.87478272,64.4575694 C5.05642131,64.4575694 4.09799196,64.7557279 3.22260881,65.3050024 L3.22260881,5.52899796 C3.22260881,4.05377475 4.41393218,2.85042653 5.87478272,2.85042653 L5.87478272,2.85042653 Z M5.87478272,0.171855103 C2.94810881,0.171855103 0.570434893,2.57319439 0.570434893,5.52899796 L0.570434893,69.8147122 C0.570434893,72.7705158 2.94810881,75.1718551 5.87478272,75.1718551 L54.9400001,75.1718551 C57.131193,75.1718551 58.918261,73.3670002 58.918261,71.153998 L58.918261,66.8902145 C60.4566876,66.3357502 61.5704349,64.8603596 61.5704349,63.1182837 L61.5704349,4.18971225 C61.5704349,1.97671001 59.783367,0.171855103 57.592174,0.171855103 L5.87478272,0.171855103 Z" id="Fill-1" fill="#2F5472"></path>
                <g id="Group-5" transform="translate(19.561785, 17.912714)">
                    <mask id="mask-2" fill="white">
                        <use xlink:href="#path-1"></use>
                    </mask>
                    <g id="Clip-4"></g>
                    <polygon id="Fill-3" fill="#2F5472" mask="url(#mask-2)" points="-8.58216667 -0.85269378 35.7875 -8.71362679 43.611 35.8681675 -0.758666667 43.7294354"></polygon>
                </g>
            </g>
        </g>
    </g>
</svg>