<?xml version="1.0" encoding="utf-8"?>
<!-- Generator: Adobe Illustrator 23.0.1, SVG Export Plug-In . SVG Version: 6.00 Build 0)  -->
<svg version="1.1" id="Layer_1" xmlns="http://www.w3.org/2000/svg" xmlns:xlink="http://www.w3.org/1999/xlink" x="0px" y="0px"
	 viewBox="0 0 95 79" style="enable-background:new 0 0 95 79;" xml:space="preserve">
<style type="text/css">
	.st0{fill-rule:evenodd;clip-rule:evenodd;}
	.st1{fill-rule:evenodd;clip-rule:evenodd;fill:#FFFFFF;stroke:#2F5472;stroke-width:2;}
	.st2{enable-background:new    ;}
	.st3{fill:#2F5472;}
	.st4{fill-rule:evenodd;clip-rule:evenodd;fill:#2F5472;}
	.st5{fill-rule:evenodd;clip-rule:evenodd;fill:url(#Rectangle-Copy-7_1_);}
</style>
<title>paper address copy</title>
<desc>Created with Sketch.</desc>
<g id="Symbols">
	<g id="C-Docs-illusz-Copy-3" transform="translate(4.000000, 2.000000)">
		<g id="paper-address-copy">
			<g id="Rectangle">
				<g>
					<path id="path-1" class="st0" d="M2,0h83c1.1,0,2,0.9,2,2v67c0,1.1-0.9,2-2,2H2c-1.1,0-2-0.9-2-2V2C0,0.9,0.9,0,2,0z"/>
				</g>
				<path class="st1" d="M3,1h81c1.1,0,2,0.9,2,2v65c0,1.1-0.9,2-2,2H3c-1.1,0-2-0.9-2-2V3C1,1.9,1.9,1,3,1z"/>
			</g>
			<g class="st2">
				<path class="st3" d="M10.3,26.7h2.6c1.2,0,2.1,0.2,2.7,0.6c0.6,0.4,0.8,1,0.8,1.7c0,0.5-0.2,1-0.5,1.4c-0.3,0.4-0.8,0.6-1.3,0.7
					v0.1c1.4,0.2,2.1,1,2.1,2.2c0,0.8-0.3,1.5-0.8,1.9c-0.6,0.5-1.3,0.7-2.4,0.7h-3.2V26.7z M11.4,30.7h1.8c0.8,0,1.3-0.1,1.6-0.4
					s0.5-0.6,0.5-1.2c0-0.5-0.2-0.9-0.6-1.1s-1-0.3-1.8-0.3h-1.6V30.7z M11.4,31.6v3.5h1.9c0.7,0,1.3-0.1,1.7-0.4
					c0.4-0.3,0.6-0.7,0.6-1.4c0-0.6-0.2-1-0.6-1.3c-0.4-0.3-1-0.4-1.8-0.4H11.4z"/>
				<path class="st3" d="M18.4,35.3c0-0.3,0.1-0.5,0.2-0.6c0.1-0.1,0.3-0.2,0.6-0.2c0.2,0,0.4,0.1,0.6,0.2c0.1,0.1,0.2,0.4,0.2,0.6
					c0,0.3-0.1,0.5-0.2,0.6s-0.3,0.2-0.6,0.2c-0.2,0-0.4-0.1-0.5-0.2C18.5,35.9,18.4,35.6,18.4,35.3z"/>
				<path class="st3" d="M27.3,36h-5.2v-9.3h5.2v1h-4.1v3h3.8v1h-3.8V35h4.1V36z"/>
				<path class="st3" d="M29.1,35.3c0-0.3,0.1-0.5,0.2-0.6c0.1-0.1,0.3-0.2,0.6-0.2c0.2,0,0.4,0.1,0.6,0.2c0.1,0.1,0.2,0.4,0.2,0.6
					c0,0.3-0.1,0.5-0.2,0.6s-0.3,0.2-0.6,0.2c-0.2,0-0.4-0.1-0.5-0.2C29.1,35.9,29.1,35.6,29.1,35.3z"/>
				<path class="st3" d="M36.8,27.6c-1,0-1.8,0.3-2.4,1c-0.6,0.7-0.9,1.6-0.9,2.8c0,1.2,0.3,2.2,0.9,2.8c0.6,0.7,1.4,1,2.4,1
					c0.6,0,1.4-0.1,2.2-0.3v0.9c-0.6,0.2-1.4,0.4-2.4,0.4c-1.4,0-2.4-0.4-3.2-1.2c-0.7-0.8-1.1-2-1.1-3.5c0-1,0.2-1.8,0.5-2.5
					c0.4-0.7,0.9-1.3,1.5-1.7c0.7-0.4,1.5-0.6,2.4-0.6c1,0,1.8,0.2,2.6,0.5L38.9,28C38.2,27.7,37.5,27.6,36.8,27.6z"/>
			</g>
			<path id="Rectangle-Copy-6" class="st4" d="M10,42h67c0.6,0,1,0.4,1,1l0,0c0,0.6-0.4,1-1,1H10c-0.6,0-1-0.4-1-1l0,0
				C9,42.4,9.4,42,10,42z"/>
			
				<linearGradient id="Rectangle-Copy-7_1_" gradientUnits="userSpaceOnUse" x1="-617.1002" y1="249.5024" x2="-616.1035" y2="249.4976" gradientTransform="matrix(29 0 0 -2 17905 551)">
				<stop  offset="0" style="stop-color:#F27E8D"/>
				<stop  offset="0.4879" style="stop-color:#F29886"/>
				<stop  offset="1" style="stop-color:#F2B47E"/>
			</linearGradient>
			<path id="Rectangle-Copy-7" class="st5" d="M10,51h27c0.6,0,1,0.4,1,1l0,0c0,0.6-0.4,1-1,1H10c-0.6,0-1-0.4-1-1l0,0
				C9,51.4,9.4,51,10,51z"/>
		</g>
	</g>
</g>
</svg>
