<?xml version="1.0" encoding="UTF-8"?>
<svg width="21px" height="17px" viewBox="0 0 21 17" version="1.1" xmlns="http://www.w3.org/2000/svg" xmlns:xlink="http://www.w3.org/1999/xlink">
    <!-- Generator: Sketch 55 (78076) - https://sketchapp.com -->
    <title>camera/passport icon</title>
    <desc>Created with Sketch.</desc>
    <g id="Onboarding" stroke="none" stroke-width="1" fill="none" fill-rule="evenodd">
        <g id="Id-Check-REVISED--Copy" transform="translate(-120.000000, -1405.000000)">
            <g id="camera/passport-icon-mini" transform="translate(119.000000, 1404.000000)">
                <g id="camera" transform="translate(1.543860, 1.531915)">
                    <path d="M17.3236463,1.9894489 L14.564228,1.9894489 C14.177979,1.9894489 13.8160881,1.80689745 13.5899062,1.49349451 L12.9600768,0.625479595 C12.761698,0.353374608 12.4450782,0.191489362 12.1075453,0.191489362 L7.18722058,0.191489362 C6.8496877,0.191489362 6.52955341,0.353374608 6.33468907,0.625479595 L5.70485967,1.49349451 C5.47867784,1.80348753 5.11678691,1.9894489 4.73053794,1.9894489 L1.97111961,1.9894489 C0.989838442,1.9894489 0.192982456,2.77820893 0.192982456,3.74955485 L0.192982456,13.5590774 C0.192982456,14.5304234 0.989838442,15.3191489 1.97111961,15.3191489 L17.327126,15.3191489 C18.3084072,15.3191489 19.1052632,14.5303889 19.1052632,13.5590774 L19.1052632,3.74955485 C19.1017834,2.77820893 18.3049275,1.9894489 17.3236463,1.9894489" id="Fill-6" fill="#FFFFFF"></path>
                    <g id="Group-10" fill="#2F5472" stroke="#2F5472">
                        <path d="M1.98683306,2.15296147 C1.10409839,2.15296147 0.385964912,2.85420694 0.385964912,3.71614106 L0.385964912,13.3730245 C0.385964912,14.2349247 1.10409839,14.9361702 1.98683306,14.9361702 L17.3114126,14.9361702 C18.1941472,14.9361702 18.9122807,14.2349247 18.9122807,13.3730245 L18.9122807,3.71614106 C18.9091554,2.85444429 18.1894245,2.15296147 17.30794,2.15296147 L14.5541689,2.15296147 C14.1130447,2.15296147 13.6967495,1.9438865 13.4405759,1.59372152 L12.8122785,0.739586167 C12.6473301,0.516371676 12.3819541,0.382978723 12.102514,0.382978723 L7.192259,0.382978723 C6.9099367,0.382978723 6.64483849,0.515964784 6.48311955,0.738738474 L5.85391933,1.59409451 C5.59500235,1.94415776 5.17891554,2.15296147 4.74060409,2.15296147 L1.98683306,2.15296147 Z M17.3422717,15.3191489 L1.95597395,15.3191489 C0.877433874,15.3191489 0,14.4609083 0,13.4059605 L0,3.69340861 C0,2.63846081 0.877433874,1.78018605 1.95597395,1.78018605 L4.72083551,1.78018605 C5.04927178,1.78018605 5.36139083,1.62303859 5.55573305,1.35979614 L6.18659567,0.500737008 C6.41357232,0.187533393 6.78604415,0 7.18236422,0 L12.1123948,0 C12.5046356,0 12.8768285,0.187090051 13.1079542,0.500464182 L13.73927,1.36017127 C13.9314506,1.62327732 14.2433604,1.78018605 14.5739235,1.78018605 L17.3387851,1.78018605 C18.4154075,1.78018605 19.2944104,2.63815388 19.2982456,3.69279476 L19.2982456,13.4059605 C19.2982456,14.4609083 18.4207769,15.3191489 17.3422717,15.3191489 L17.3422717,15.3191489 Z" id="Fill-8"></path>
                    </g>
                    <path d="M9.64910919,4.78723404 C11.6741586,4.78723404 13.3157895,6.41614876 13.3157895,8.42554543 C13.3157895,10.4349151 11.6741586,12.0638298 9.64910919,12.0638298 C7.62408699,12.0638298 5.98245614,10.4349151 5.98245614,8.42554543 C5.98245614,6.41614876 7.62408699,4.78723404 9.64910919,4.78723404" id="Fill-11" fill="#2F5472"></path>
                    <path d="M9.64911349,5.93617021 C11.0346736,5.93617021 12.1578947,7.05069081 12.1578947,8.42554116 C12.1578947,9.80037302 11.0346736,10.9148936 9.64911349,10.9148936 C8.26357199,10.9148936 7.14035088,9.80037302 7.14035088,8.42554116 C7.14035088,7.05069081 8.26357199,5.93617021 9.64911349,5.93617021" id="Fill-11-Copy" fill="#FFFFFF"></path>
                </g>
            </g>
        </g>
    </g>
</svg>