<?xml version="1.0" encoding="UTF-8"?>
<svg width="288px" height="161px" viewBox="0 0 288 161" version="1.1" xmlns="http://www.w3.org/2000/svg" xmlns:xlink="http://www.w3.org/1999/xlink">
    <!-- Generator: Sketch 54.1 (76490) - https://sketchapp.com -->
    <title>Group 3</title>
    <desc>Created with Sketch.</desc>
    <defs>
        <polygon id="path-1" points="0 0 27 0 27 28 0 28"></polygon>
        <polygon id="path-3" points="0 0 27 0 27 28 0 28"></polygon>
    </defs>
    <g id="Onboarding" stroke="none" stroke-width="1" fill="none" fill-rule="evenodd">
        <g id="Id-Check-REVISED--Copy-4" transform="translate(-44.000000, -408.000000)">
            <g id="Group-3" transform="translate(44.000000, 408.000000)">
                <path d="M1.91687417,161 C0.860724271,161 0.000205042317,160.140838 0.000205042317,159.085077 L0.000205042317,134.950668 C-0.0151385398,133.887248 0.832594371,133.015319 1.8900229,133 C3.00243261,133.015319 3.85016552,133.885971 3.83482193,134.941732 L3.83482193,157.170155 L25.0473242,157.170155 C26.1674057,157.185474 27.0151386,158.054849 26.999795,159.111886 C26.9857301,160.153604 26.1264895,161 25.0818472,161 L1.91687417,161 Z" id="Fill-4" fill="#FFFFFF"></path>
                <g id="Group-8">
                    <mask id="mask-2" fill="white">
                        <use xlink:href="#path-1"></use>
                    </mask>
                    <g id="Clip-7"></g>
                    <path d="M1.87662997,28 C1.3670827,27.9910702 0.891929866,27.7844093 0.536520644,27.4157365 C0.18238529,27.0483393 -0.00742106873,26.5648549 0.000222140346,26.0545811 L0.000222140346,1.91352681 C0.000222140346,0.858535696 0.857535425,0 1.90975054,0 L25.0559354,0 C26.1654746,0.01403253 27.0125969,0.882773703 26.9998582,1.93648913 C26.9871195,2.9787234 26.1298062,3.82705362 25.0890559,3.82705362 L3.82055281,3.82705362 L3.82055281,26.0430999 C3.80271866,27.1567725 2.94667924,28 1.91102441,28 L1.87662997,28 Z" id="Fill-6" fill="#FFFFFF" mask="url(#mask-2)"></path>
                </g>
                <path d="M262.916874,161 C261.860724,161 261.000205,160.140838 261.000205,159.085077 L261.000205,134.950668 C260.984861,133.887248 261.832594,133.015319 262.890023,133 C264.002433,133.015319 264.850166,133.885971 264.834822,134.941732 L264.834822,157.170155 L286.047324,157.170155 C287.167406,157.185474 288.015139,158.054849 287.999795,159.111886 C287.98573,160.153604 287.126489,161 286.081847,161 L262.916874,161 Z" id="Fill-4" fill="#FFFFFF" transform="translate(274.500000, 147.000000) scale(-1, 1) translate(-274.500000, -147.000000) "></path>
                <g id="Group-8" transform="translate(274.500000, 14.000000) scale(-1, 1) translate(-274.500000, -14.000000) translate(261.000000, 0.000000)">
                    <mask id="mask-4" fill="white">
                        <use xlink:href="#path-3"></use>
                    </mask>
                    <g id="Clip-7"></g>
                    <path d="M1.87662997,28 C1.3670827,27.9910702 0.891929866,27.7844093 0.536520644,27.4157365 C0.18238529,27.0483393 -0.00742106873,26.5648549 0.000222140346,26.0545811 L0.000222140346,1.91352681 C0.000222140346,0.858535696 0.857535425,0 1.90975054,0 L25.0559354,0 C26.1654746,0.01403253 27.0125969,0.882773703 26.9998582,1.93648913 C26.9871195,2.9787234 26.1298062,3.82705362 25.0890559,3.82705362 L3.82055281,3.82705362 L3.82055281,26.0430999 C3.80271866,27.1567725 2.94667924,28 1.91102441,28 L1.87662997,28 Z" id="Fill-6" fill="#FFFFFF" mask="url(#mask-4)"></path>
                </g>
            </g>
        </g>
    </g>
</svg>