<svg id="Layer_1" data-name="Layer 1" xmlns="http://www.w3.org/2000/svg" xmlns:xlink="http://www.w3.org/1999/xlink" viewBox="0 0 22 19"><defs><style>.cls-1{fill:#fff;}.cls-1,.cls-3{fill-rule:evenodd;}.cls-2{mask:url(#mask);}.cls-3{fill:#1e0808;}</style><mask id="mask" x="0" y="0" width="22" height="19" maskUnits="userSpaceOnUse"><g transform="translate(-9 -11)"><g id="b"><path id="a" class="cls-1" d="M9,11H31V30H9Z"/></g></g></mask></defs><title>chat</title><g class="cls-2"><path class="cls-3" d="M25.49,18.69a1.84,1.84,0,0,0-1.87,1.8,1.82,1.82,0,1,0,3.64.1,1.84,1.84,0,0,0-1.77-1.9m-5.49,0a1.84,1.84,0,0,0-1.82,1.81,1.82,1.82,0,1,0,3.64.05A1.85,1.85,0,0,0,20,18.69m-3.62,1.84a1.85,1.85,0,0,0-1.83-1.84,1.83,1.83,0,0,0-1.81,1.79,1.91,1.91,0,0,0,1.81,1.92,1.92,1.92,0,0,0,1.83-1.87M29.09,30l-1.89-.73c-.68-.26-1.35-.53-2-.78a.61.61,0,0,0-.42,0,12.8,12.8,0,0,1-5.19.89,11.93,11.93,0,0,1-7.29-2.66A8.39,8.39,0,0,1,9,20.89a7.57,7.57,0,0,1,1.39-5.21,10.82,10.82,0,0,1,7.43-4.49,12.41,12.41,0,0,1,8.35,1.42A9.29,9.29,0,0,1,30.29,17,7.72,7.72,0,0,1,30,24a8.28,8.28,0,0,1-1.91,2.41.55.55,0,0,0-.15.76c.37.77.7,1.55,1.05,2.33.06.14.11.3.17.45l-.08.07" transform="translate(-9 -11)"/></g></svg>