<svg xmlns="http://www.w3.org/2000/svg" xmlns:xlink="http://www.w3.org/1999/xlink" width="40" height="40" viewBox="0 0 40 40">
    <defs>
        <path id="a" d="M0 0h22v19H0z"/>
    </defs>
    <g fill="none" fill-rule="evenodd" transform="translate(9 11)">
        <mask id="b" fill="#fff">
            <use xlink:href="#a"/>
        </mask>
        <path fill="#FFF" d="M16.486 7.693a1.839 1.839 0 0 0-1.867 1.802c-.02 1.013.833 1.9 1.827 1.898.946 0 1.794-.845 1.811-1.803.02-1.025-.785-1.887-1.771-1.897m-5.483 0c-.985-.006-1.828.826-1.827 1.804 0 1.017.866 1.917 1.832 1.905.956-.011 1.812-.888 1.81-1.853-.004-1.023-.812-1.85-1.815-1.856m-3.625 1.84a1.846 1.846 0 0 0-1.829-1.84c-.967-.004-1.805.821-1.813 1.785-.01 1.017.834 1.914 1.811 1.925.95.011 1.827-.886 1.83-1.87M20.09 19l-1.893-.73c-.676-.26-1.349-.529-2.029-.777a.647.647 0 0 0-.422-.004 12.73 12.73 0 0 1-5.19.887c-2.697-.106-5.166-.912-7.29-2.658-1.828-1.502-3-3.415-3.228-5.828-.18-1.895.295-3.653 1.387-5.208 1.83-2.605 4.39-3.99 7.43-4.493 2.933-.484 5.744-.05 8.359 1.426 1.79 1.01 3.225 2.415 4.075 4.338 1.048 2.373.927 4.728-.28 7.027a8.31 8.31 0 0 1-1.912 2.413c-.267.233-.295.442-.144.757.366.768.701 1.552 1.046 2.33.064.145.112.298.168.446l-.077.074" mask="url(#b)"/>
    </g>
</svg>
