<?xml version="1.0" encoding="UTF-8"?>
<svg width="22px" height="22px" viewBox="0 0 22 22" version="1.1" xmlns="http://www.w3.org/2000/svg" xmlns:xlink="http://www.w3.org/1999/xlink">
    <!-- Generator: Sketch 54.1 (76490) - https://sketchapp.com -->
    <title>cross cross@3x</title>
    <desc>Created with Sketch.</desc>
    <g id="Symbols" stroke="none" stroke-width="1" fill="none" fill-rule="evenodd">
        <g id="Rectangle-CARD" transform="translate(-274.000000, -39.000000)" fill="#ffffff" fill-rule="nonzero">
            <path d="M286.937833,49.993125 L295.583833,41.347125 C296.121,40.8104167 296.121,39.9395833 295.583833,39.402875 C295.046667,38.8657083 294.17675,38.8657083 293.639583,39.402875 L284.993583,48.048875 L276.347125,39.402875 C275.809958,38.8657083 274.940042,38.8657083 274.402875,39.402875 C273.865708,39.9395833 273.865708,40.8104167 274.402875,41.347125 L283.049333,49.993125 L274.402875,58.639125 C273.865708,59.1758333 273.865708,60.0466667 274.402875,60.583375 C274.671458,60.8515 275.023458,60.9857917 275.375,60.9857917 C275.726542,60.9857917 276.078542,60.8515 276.347125,60.5829167 L284.993583,51.9369167 L293.639583,60.5829167 C293.908167,60.8515 294.260167,60.9857917 294.611708,60.9857917 C294.96325,60.9857917 295.31525,60.8515 295.583833,60.5829167 C296.121,60.0462083 296.121,59.175375 295.583833,58.6386667 L286.937833,49.993125 Z" id="cross-cross"></path>
        </g>
    </g>
</svg>
