<?xml version="1.0" encoding="utf-8"?>
<!-- Generator: Adobe Illustrator 23.0.1, SVG Export Plug-In . SVG Version: 6.00 Build 0)  -->
<svg version="1.1" id="Layer_1" xmlns="http://www.w3.org/2000/svg" xmlns:xlink="http://www.w3.org/1999/xlink" x="0px" y="0px"
	 viewBox="0 0 95 79" style="enable-background:new 0 0 95 79;" xml:space="preserve">
<style type="text/css">
	.st0{fill-rule:evenodd;clip-rule:evenodd;}
	.st1{fill-rule:evenodd;clip-rule:evenodd;fill:#FFFFFF;stroke:#2F5472;stroke-width:2;}
	.st2{enable-background:new    ;}
	.st3{fill:#2F5472;}
	.st4{fill-rule:evenodd;clip-rule:evenodd;fill:#2F5472;}
	.st5{fill-rule:evenodd;clip-rule:evenodd;fill:url(#Rectangle-Copy-7_1_);}
</style>
<title>paper address copy</title>
<desc>Created with Sketch.</desc>
<g id="Symbols">
	<g id="C-Docs-illusz-Copy-2" transform="translate(4.000000, 2.000000)">
		<g id="paper-address-copy">
			<g id="Rectangle">
				<g>
					<path id="path-1" class="st0" d="M2,0h83c1.1,0,2,0.9,2,2v67c0,1.1-0.9,2-2,2H2c-1.1,0-2-0.9-2-2V2C0,0.9,0.9,0,2,0z"/>
				</g>
				<path class="st1" d="M3,1h81c1.1,0,2,0.9,2,2v65c0,1.1-0.9,2-2,2H3c-1.1,0-2-0.9-2-2V3C1,1.9,1.9,1,3,1z"/>
			</g>
			<g class="st2">
				<path class="st3" d="M14.2,27.6c-1,0-1.8,0.3-2.4,1c-0.6,0.7-0.9,1.6-0.9,2.8c0,1.2,0.3,2.2,0.9,2.8c0.6,0.7,1.4,1,2.4,1
					c0.6,0,1.4-0.1,2.2-0.3v0.9c-0.6,0.2-1.4,0.4-2.4,0.4c-1.4,0-2.4-0.4-3.2-1.2c-0.7-0.8-1.1-2-1.1-3.5c0-1,0.2-1.8,0.5-2.5
					c0.4-0.7,0.9-1.3,1.5-1.7c0.7-0.4,1.5-0.6,2.4-0.6c1,0,1.8,0.2,2.6,0.5L16.4,28C15.7,27.7,15,27.6,14.2,27.6z"/>
				<path class="st3" d="M18.2,35.3c0-0.3,0.1-0.5,0.2-0.6c0.1-0.1,0.3-0.2,0.6-0.2c0.2,0,0.4,0.1,0.6,0.2c0.1,0.1,0.2,0.4,0.2,0.6
					c0,0.3-0.1,0.5-0.2,0.6s-0.3,0.2-0.6,0.2c-0.2,0-0.4-0.1-0.5-0.2C18.2,35.9,18.2,35.6,18.2,35.3z"/>
				<path class="st3" d="M27.8,36l-1.2-3h-3.7l-1.1,3h-1.1l3.7-9.3h0.9l3.6,9.3H27.8z M26.3,32.1l-1.1-2.9c-0.1-0.4-0.3-0.8-0.4-1.3
					c-0.1,0.4-0.2,0.9-0.4,1.3l-1.1,2.9H26.3z"/>
				<path class="st3" d="M29.9,35.3c0-0.3,0.1-0.5,0.2-0.6c0.1-0.1,0.3-0.2,0.6-0.2c0.2,0,0.4,0.1,0.6,0.2c0.1,0.1,0.2,0.4,0.2,0.6
					c0,0.3-0.1,0.5-0.2,0.6s-0.3,0.2-0.6,0.2c-0.2,0-0.4-0.1-0.5-0.2C29.9,35.9,29.9,35.6,29.9,35.3z"/>
				<path class="st3" d="M41,31.3c0,1.5-0.4,2.7-1.2,3.5c-0.8,0.8-2,1.2-3.6,1.2h-2.6v-9.3h2.8c1.4,0,2.6,0.4,3.4,1.2
					C40.6,28.7,41,29.8,41,31.3z M39.9,31.3c0-1.2-0.3-2.1-0.9-2.7c-0.6-0.6-1.5-0.9-2.7-0.9h-1.6v7.4H36c1.3,0,2.3-0.3,2.9-0.9
					S39.9,32.5,39.9,31.3z"/>
			</g>
			<path id="Rectangle-Copy-6" class="st4" d="M10,42h67c0.6,0,1,0.4,1,1l0,0c0,0.6-0.4,1-1,1H10c-0.6,0-1-0.4-1-1l0,0
				C9,42.4,9.4,42,10,42z"/>
			
				<linearGradient id="Rectangle-Copy-7_1_" gradientUnits="userSpaceOnUse" x1="-617.1002" y1="249.5024" x2="-616.1035" y2="249.4976" gradientTransform="matrix(29 0 0 -2 17905 551)">
				<stop  offset="0" style="stop-color:#F27E8D"/>
				<stop  offset="0.4879" style="stop-color:#F29886"/>
				<stop  offset="1" style="stop-color:#F2B47E"/>
			</linearGradient>
			<path id="Rectangle-Copy-7" class="st5" d="M10,51h27c0.6,0,1,0.4,1,1l0,0c0,0.6-0.4,1-1,1H10c-0.6,0-1-0.4-1-1l0,0
				C9,51.4,9.4,51,10,51z"/>
		</g>
	</g>
</g>
</svg>
