<svg id="Layer_1" data-name="Layer 1" xmlns="http://www.w3.org/2000/svg" viewBox="0 0 22.99 22.99"><defs><style>.cls-1{stroke:#000;stroke-miterlimit:10;}</style></defs><title>cross</title><g id="Symbols"><g id="Rectangle-CARD"><path id="cross-cross" class="cls-1" d="M12.94,11l8.64-8.64A1.38,1.38,0,1,0,19.64.4L11,9.05,2.35.4A1.39,1.39,0,0,0,.4.4a1.39,1.39,0,0,0,0,2L9.05,11,.4,19.64a1.38,1.38,0,1,0,2,1.94L11,12.94l8.65,8.64a1.37,1.37,0,0,0,1,.41,1.38,1.38,0,0,0,1-2.35Z" transform="translate(0.5 0.5)"/></g></g></svg>