<?xml version="1.0" encoding="utf-8"?>
<!-- Generator: Adobe Illustrator 23.0.1, SVG Export Plug-In . SVG Version: 6.00 Build 0)  -->
<svg version="1.1" id="Layer_1" xmlns="http://www.w3.org/2000/svg" xmlns:xlink="http://www.w3.org/1999/xlink" x="0px" y="0px"
	 viewBox="0 0 95 79" style="enable-background:new 0 0 95 79;" xml:space="preserve">
<style type="text/css">
	.st0{fill-rule:evenodd;clip-rule:evenodd;}
	.st1{fill-rule:evenodd;clip-rule:evenodd;fill:url(#SVGID_1_);stroke:#2F5472;stroke-width:2;}
	.st2{enable-background:new    ;}
	.st3{fill:#FFFFFF;}
	.st4{fill-rule:evenodd;clip-rule:evenodd;fill:#2F5472;}
	.st5{fill-rule:evenodd;clip-rule:evenodd;fill:#FFFFFF;}
</style>
<title>paper address copy</title>
<desc>Created with Sketch.</desc>
<g id="Symbols">
	<g id="C-Docs-illusz-Copy-6" transform="translate(4.000000, 2.000000)">
		<g id="paper-address-copy">
			<g id="Rectangle">
				<g>
					<path id="path-2" class="st0" d="M2,0h83c1.1,0,2,0.9,2,2v67c0,1.1-0.9,2-2,2H2c-1.1,0-2-0.9-2-2V2C0,0.9,0.9,0,2,0z"/>
				</g>
				
					<linearGradient id="SVGID_1_" gradientUnits="userSpaceOnUse" x1="-631.5262" y1="416.8453" x2="-630.5294" y2="416.1815" gradientTransform="matrix(85 0 0 -69 53681 28775)">
					<stop  offset="0" style="stop-color:#F27E8D"/>
					<stop  offset="0.4879" style="stop-color:#F29886"/>
					<stop  offset="1" style="stop-color:#F2B47E"/>
				</linearGradient>
				<path class="st1" d="M3,1h81c1.1,0,2,0.9,2,2v65c0,1.1-0.9,2-2,2H3c-1.1,0-2-0.9-2-2V3C1,1.9,1.9,1,3,1z"/>
			</g>
			<g class="st2">
				<path class="st3" d="M17.7,31.3c0,1.5-0.4,2.7-1.2,3.5c-0.8,0.8-2,1.2-3.6,1.2h-2.6v-9.3h2.8c1.4,0,2.6,0.4,3.4,1.2
					C17.3,28.7,17.7,29.8,17.7,31.3z M16.5,31.3c0-1.2-0.3-2.1-0.9-2.7c-0.6-0.6-1.5-0.9-2.7-0.9h-1.6v7.4h1.3
					c1.3,0,2.3-0.3,2.9-0.9S16.5,32.5,16.5,31.3z"/>
				<path class="st3" d="M19.4,35.3c0-0.3,0.1-0.5,0.2-0.6c0.1-0.1,0.3-0.2,0.6-0.2c0.2,0,0.4,0.1,0.6,0.2c0.1,0.1,0.2,0.4,0.2,0.6
					c0,0.3-0.1,0.5-0.2,0.6s-0.3,0.2-0.6,0.2c-0.2,0-0.4-0.1-0.5-0.2C19.5,35.9,19.4,35.6,19.4,35.3z"/>
				<path class="st3" d="M23.2,36v-9.3h1.1V35h4.1v1H23.2z"/>
				<path class="st3" d="M29.6,35.3c0-0.3,0.1-0.5,0.2-0.6c0.1-0.1,0.3-0.2,0.6-0.2c0.2,0,0.4,0.1,0.6,0.2c0.1,0.1,0.2,0.4,0.2,0.6
					c0,0.3-0.1,0.5-0.2,0.6s-0.3,0.2-0.6,0.2c-0.2,0-0.4-0.1-0.5-0.2C29.7,35.9,29.6,35.6,29.6,35.3z"/>
				<path class="st3" d="M39.3,36l-1.2-3h-3.7l-1.1,3h-1.1l3.7-9.3h0.9l3.6,9.3H39.3z M37.8,32.1l-1.1-2.9c-0.1-0.4-0.3-0.8-0.4-1.3
					c-0.1,0.4-0.2,0.9-0.4,1.3l-1.1,2.9H37.8z"/>
			</g>
			<path id="Rectangle-Copy-6" class="st4" d="M10,42h67c0.6,0,1,0.4,1,1l0,0c0,0.6-0.4,1-1,1H10c-0.6,0-1-0.4-1-1l0,0
				C9,42.4,9.4,42,10,42z"/>
			<path id="Rectangle-Copy-7" class="st5" d="M10,51h27c0.6,0,1,0.4,1,1l0,0c0,0.6-0.4,1-1,1H10c-0.6,0-1-0.4-1-1l0,0
				C9,51.4,9.4,51,10,51z"/>
		</g>
	</g>
</g>
</svg>
