<svg id="Layer_1" data-name="Layer 1" xmlns="http://www.w3.org/2000/svg" xmlns:xlink="http://www.w3.org/1999/xlink" viewBox="0 0 87 71"><defs><style>.cls-1,.cls-2,.cls-3,.cls-4{fill-rule:evenodd;}.cls-2{stroke:#2f5472;stroke-width:2px;fill:url(#linear-gradient);}.cls-3{fill:#2f5472;}.cls-4{fill:#fff;}</style><linearGradient id="linear-gradient" x1="-878.58" y1="49.57" x2="-877.59" y2="50.23" gradientTransform="translate(74685 -3405.41) scale(85 69)" gradientUnits="userSpaceOnUse"><stop offset="0" stop-color="#f27e8d"/><stop offset="0.49" stop-color="#f29886"/><stop offset="1" stop-color="#f2b47e"/></linearGradient></defs><title>document-signed</title><g id="Symbols"><g id="C-Docs-illusz-Copy-6"><g id="paper-address-copy"><g id="Rectangle"><path id="path-2" class="cls-1" d="M6,2H89a2,2,0,0,1,2,2V71a2,2,0,0,1-2,2H6a2,2,0,0,1-2-2V4A2,2,0,0,1,6,2Z" transform="translate(-4 -2)"/><path class="cls-2" d="M7,3H88a2,2,0,0,1,2,2V70a2,2,0,0,1-2,2H7a2,2,0,0,1-2-2V5A2,2,0,0,1,7,3Z" transform="translate(-4 -2)"/></g><path id="Rectangle-Copy-6" class="cls-3" d="M14,44H81a.94.94,0,0,1,1,1h0a.94.94,0,0,1-1,1H14a.94.94,0,0,1-1-1h0A.94.94,0,0,1,14,44Z" transform="translate(-4 -2)"/><path id="Rectangle-Copy-7" class="cls-4" d="M14,53H41a.94.94,0,0,1,1,1h0a.94.94,0,0,1-1,1H14a.94.94,0,0,1-1-1h0A.94.94,0,0,1,14,53Z" transform="translate(-4 -2)"/></g></g><path id="Rectangle-Copy-6-2" data-name="Rectangle-Copy-6" class="cls-3" d="M14,44H81a.94.94,0,0,1,1,1h0a.94.94,0,0,1-1,1H14a.94.94,0,0,1-1-1h0A.94.94,0,0,1,14,44Z" transform="translate(-4 -2)"/><path id="Rectangle-Copy-6-3" data-name="Rectangle-Copy-6" class="cls-3" d="M14,35H81a.94.94,0,0,1,1,1h0a.94.94,0,0,1-1,1H14a.94.94,0,0,1-1-1h0A.94.94,0,0,1,14,35Z" transform="translate(-4 -2)"/></g></svg>