<?xml version="1.0" encoding="UTF-8"?>
<svg width="19px" height="20px" viewBox="0 0 19 20" version="1.1" xmlns="http://www.w3.org/2000/svg" xmlns:xlink="http://www.w3.org/1999/xlink">
    <!-- Generator: Sketch 54.1 (76490) - https://sketchapp.com -->
    <title>Icon/Add</title>
    <desc>Created with Sketch.</desc>
    <defs>
        <path d="M9.41024966,22.845213 L9.41024966,24.845213 L8.41024966,24.845213 L8.41024966,22.845213 L7.41024966,22.845213 L7.41024966,20.845213 L10.4102497,20.845213 L10.4102497,22.845213 L9.41024966,22.845213 Z M6.41024966,19.845213 L6.41024966,3.84521302 L11.4102497,3.84521302 L11.4102497,19.845213 L6.41024966,19.845213 Z M3.41024966,10.845213 L3.41024966,3.84521302 L5.41024966,3.84521302 L5.41024966,10.845213 L3.41024966,10.845213 Z M6.41024966,2.84521302 C6.41024966,1.74064352 7.30568016,0.845213017 8.41024966,0.845213017 L9.41024966,0.845213017 C10.5148192,0.845213017 11.4102497,1.74064352 11.4102497,2.84521302 L6.41024966,2.84521302 Z" id="path-1"></path>
    </defs>
    <g id="Symbols" stroke="none" stroke-width="1" fill="none" fill-rule="evenodd">
        <g id="Icon/Add" transform="translate(-11.000000, -10.000000)">
            <g id="Group" transform="translate(5.000000, 4.000000)">
                <g id="Group-2" transform="translate(14.433013, 16.250000) rotate(-330.000000) translate(-14.433013, -16.250000) translate(6.433013, 2.750000)">
                    <g id="Colour/Flat/White" transform="translate(0.089750, 0.654787)">
                        <mask id="mask-2" fill="white">
                            <use xlink:href="#path-1"></use>
                        </mask>
                        <use id="Mask" fill="#676767" transform="translate(7.410250, 12.845213) rotate(-345.000000) translate(-7.410250, -12.845213) " xlink:href="#path-1"></use>
                        <g id="Colour/Flat/Black" mask="url(#mask-2)" fill="#000000">
                            <g transform="translate(8.500000, 12.500000) rotate(-30.000000) translate(-8.500000, -12.500000) translate(-11.000000, -7.000000)" id="Rectangle">
                                <rect x="0" y="0" width="39" height="39"></rect>
                            </g>
                        </g>
                    </g>
                </g>
            </g>
        </g>
    </g>
</svg>