<svg id="Layer_1" data-name="Layer 1" xmlns="http://www.w3.org/2000/svg" xmlns:xlink="http://www.w3.org/1999/xlink" viewBox="0 0 19 20"><defs><style>.cls-1{fill:#fff;fill-rule:evenodd;}.cls-2{mask:url(#mask);}</style><mask id="mask" x="-14.57" y="-13.44" width="47.38" height="47.38" maskUnits="userSpaceOnUse"><g id="mask-2"><path id="path-1" class="cls-1" d="M2.56,18.3l-1.4,1.43L.44,19l1.4-1.43-.72-.7,1.4-1.43,2.15,2.09L3.27,19ZM2.5,14.05,13.65,2.58l3.59,3.49L6.08,17.54ZM6.62,5.51l4.88-5,1.44,1.4-4.88,5Zm7.73-3.64a2,2,0,0,1,2.83,0l.71.7a2,2,0,0,1,0,2.82Z"/></g></mask></defs><title>edit</title><g id="Symbols"><g id="Group"><g id="Group-2"><g class="cls-2"><g id="Rectangle"><rect x="-10.38" y="-9.25" width="39" height="39" transform="translate(-3.05 16.57) rotate(-75.8)"/></g></g></g></g></g></svg>