<?xml version="1.0" encoding="utf-8"?>
<!-- Generator: Adobe Illustrator 23.0.1, SVG Export Plug-In . SVG Version: 6.00 Build 0)  -->
<svg version="1.1" id="Layer_1" xmlns="http://www.w3.org/2000/svg" xmlns:xlink="http://www.w3.org/1999/xlink" x="0px" y="0px"
	 viewBox="0 0 16 12" style="enable-background:new 0 0 16 12;" xml:space="preserve">
<style type="text/css">
	.st0{enable-background:new    ;}
	.st1{fill:#2F5472;}
</style>
<title></title>
<desc>Created with Sketch.</desc>
<g id="Landing-Pages">
	<g id="Landing-Page---1--Copy-11" transform="translate(-37.000000, -1547.000000)">
		<g class="st0">
			<path class="st1" d="M52.1,1547.8c0.3,0.3,0.4,0.6,0.4,1v8.4c0,0.4-0.1,0.7-0.4,1c-0.3,0.3-0.6,0.4-1,0.4H38.9
				c-0.4,0-0.7-0.1-1-0.4c-0.3-0.3-0.4-0.6-0.4-1v-8.4c0-0.4,0.1-0.7,0.4-1c0.3-0.3,0.6-0.4,1-0.4h12.1
				C51.5,1547.4,51.8,1547.5,52.1,1547.8z M38.9,1548.8v1.2c0.7,0.5,2,1.6,3.9,3.1l0.3,0.2c0.4,0.3,0.7,0.6,0.9,0.7
				c0.4,0.3,0.7,0.4,0.9,0.4c0.3,0,0.6-0.1,0.9-0.4c0.2-0.1,0.5-0.4,0.9-0.7l0.3-0.2c1.9-1.5,3.3-2.5,3.9-3.1v-1.2H38.9z
				 M51.1,1557.2v-5.4l-3.4,2.7c-0.5,0.4-0.9,0.7-1.2,0.9c-0.5,0.3-1,0.5-1.5,0.5s-1-0.2-1.5-0.5c-0.3-0.2-0.7-0.5-1.2-0.9l-3.4-2.7
				v5.4H51.1z"/>
		</g>
	</g>
</g>
</svg>
