<svg xmlns="http://www.w3.org/2000/svg" width="301" height="177" viewBox="0 0 301 177">
    <defs>
        <linearGradient id="a" x1="0%" x2="0%" y1="0%" y2="100%">
            <stop offset="0%" stop-color="#559BAB"/>
            <stop offset="100%" stop-color="#8AD9D0"/>
        </linearGradient>
    </defs>
    <g fill="none" fill-rule="evenodd">
        <g fill="#F4B779">
            <path d="M174 59h3V48h-3z"/>
            <path d="M170 55h11v-3h-11z"/>
        </g>
        <path fill="#2F5472" d="M139.597 107.418c-3.92 6.845-3.727 11.968-3.175 14.6.598 2.85 2.431 5.798 4.776 5.92 2.017.1 3.652-.984 4.368-2.898.742-1.985 1.17-6.592-4.296-15.147a59.662 59.662 0 0 0-1.673-2.475m7.322 21.747c-1.501 1.501-3.57 2.302-5.882 2.188-3.719-.193-6.916-3.667-7.961-8.644-.69-3.29-.947-9.818 4.299-18.245-5.832-7.368-14.404-15.557-25.575-24.424C90.68 63.28 68.787 53.95 48.483 53.06c-19.478-.854-37.1 6.02-50.959 19.88a1.71 1.71 0 0 1-2.418-.004 1.71 1.71 0 0 1-.004-2.418C9.655 55.964 28.162 48.746 48.62 49.643c21.03.922 43.61 10.508 65.3 27.722 12.026 9.545 20.11 17.53 25.48 24.132 6.554-8.82 17.414-17.024 32.293-24.391a1.714 1.714 0 0 1 2.293.775c.421.846.079 1.87-.767 2.29-14.698 7.278-25.283 15.32-31.46 23.905-.058.078-.113.156-.168.234 8.875 11.953 8.332 18.85 7.178 21.937a8.116 8.116 0 0 1-1.85 2.918M279.037 174.031h-59.073c-7.142 0-12.964-5.825-12.964-13.058V21.09c0-7.194 5.783-13.058 12.964-13.058h59.073c7.141 0 12.963 5.825 12.963 13.058v139.884c0 7.194-5.783 13.058-12.963 13.058"/>
        <path fill="#2F5472" d="M220.172 10.095c-6.089 0-11.043 4.98-11.043 11.099V161.02c0 6.12 4.954 11.099 11.043 11.099h59.182c6.089 0 11.043-4.98 11.043-11.099V21.194c0-6.12-4.954-11.099-11.043-11.099h-59.182zm59.182 165.932h-59.182c-8.233 0-14.931-6.732-14.931-15.007V21.194c0-8.275 6.698-15.007 14.931-15.007h59.182c8.233 0 14.932 6.732 14.932 15.007V161.02c0 8.275-6.699 15.007-14.932 15.007z"/>
        <path fill="url(#a)" d="M81.037 168.031H21.963C14.822 168.031 9 162.204 9 154.97V15.092C9 7.897 14.783 2.031 21.963 2.031h59.074C88.178 2.031 94 7.858 94 15.092v139.917c-.039 7.195-5.822 13.022-12.963 13.022" transform="translate(205)"/>
        <path fill="#2F5472" d="M226.924 3.944c-6.086 0-11.038 4.984-11.038 11.111v139.952c0 6.127 4.952 11.111 11.038 11.111h59.152c6.053 0 11.005-4.972 11.038-11.083V15.055c0-6.127-4.952-11.111-11.038-11.111h-59.152zm59.152 166.087h-59.152c-8.23 0-14.924-6.74-14.924-15.024V15.055C212 6.771 218.695.031 226.924.031h59.152c8.23 0 14.924 6.74 14.924 15.024v139.991c-.045 8.268-6.74 14.985-14.924 14.985z"/>
        <path fill="#2F5472" d="M275.057 10.031h-37.153c-2.707 0-4.904-2.154-4.904-4.808V2.031h47v3.154c0 2.692-2.197 4.846-4.943 4.846"/>
        <path fill="#2F5472" d="M234.93 3.927v1.286c0 1.611 1.32 2.922 2.946 2.922h37.21c1.673 0 2.985-1.301 2.985-2.961V3.927h-43.142zm40.155 8.104h-37.209c-3.791 0-6.876-3.059-6.876-6.818V1.979c0-1.076.88-1.948 1.965-1.948h47.07c1.086 0 1.965.872 1.965 1.948v3.195c0 3.781-3.102 6.857-6.915 6.857z"/>
    </g>
</svg>
