<?xml version="1.0" encoding="UTF-8"?>
<svg width="376px" height="194px" viewBox="0 0 376 194" version="1.1" xmlns="http://www.w3.org/2000/svg" xmlns:xlink="http://www.w3.org/1999/xlink">
    <!-- Generator: Sketch 54.1 (76490) - https://sketchapp.com -->
    <title>Untitled</title>
    <desc>Created with Sketch.</desc>
    <defs>
        <linearGradient x1="0%" y1="0%" x2="0%" y2="100%" id="linearGradient-1">
            <stop stop-color="#559BAB" offset="0%"></stop>
            <stop stop-color="#8AD9D0" offset="100%"></stop>
        </linearGradient>
    </defs>
    <g id="Page-1" stroke="none" stroke-width="1" fill="none" fill-rule="evenodd">
        <g id="email-sent" transform="translate(-5.000000, 0.000000)" fill-rule="nonzero">
            <g id="flicker" transform="translate(177.000000, 64.000000)" fill="#F4B779">
                <polygon id="Fill-1" points="4 11 7 11 7 0 4 0"></polygon>
                <polygon id="Fill-2" points="0 7 11 7 11 4 0 4"></polygon>
            </g>
            <g id="line-swoosh" transform="translate(0.487045, 0.414261)" fill="#2F5472">
                <path d="M112.78691,150.266429 C105.175533,152.334563 101.688635,156.093374 100.21824,158.344756 C98.626335,160.782811 97.8372093,164.163823 99.4093171,165.908618 C100.765371,167.405087 102.687329,167.794189 104.546826,166.94748 C106.475269,166.068575 110.035892,163.113657 112.219982,153.199425 C112.427503,152.257154 112.616593,151.278917 112.78691,150.266429 M102.587323,170.821035 C100.463988,170.821035 98.4345147,169.924661 96.880838,168.209323 C94.387856,165.442791 94.5830895,160.725268 97.3634608,156.467406 C99.2014548,153.652921 103.636533,148.855591 113.304347,146.606264 C114.39076,137.271917 114.120096,125.420394 112.490305,111.251382 C109.409234,84.4666853 100.524743,62.3875239 86.7969578,47.4009176 C73.6279099,33.0243389 56.3070775,25.4251972 36.7065865,25.4251972 C35.763868,25.4251972 34.9999997,24.6582956 34.9999997,23.7125987 C34.9999997,22.7669019 35.763868,22.0000003 36.7065865,22.0000003 C57.287341,22.0000003 75.4775087,29.982079 89.3097362,45.0827444 C103.528677,60.605394 112.716599,83.3504137 115.880611,110.858854 C117.635323,126.111941 117.704611,137.474689 116.834934,145.940748 C127.70521,144.338098 141.18588,146.216476 156.916515,151.527587 C157.809743,151.829004 158.290317,152.80039 157.989958,153.697106 C157.689257,154.592795 156.722305,155.075748 155.828395,154.773988 C140.288216,149.527614 127.116778,147.729728 116.678611,149.431024 C116.583042,149.446094 116.488838,149.46185 116.394635,149.477949 C114.218054,164.206638 108.956647,168.699126 105.958515,170.066122 C104.846162,170.573051 103.703772,170.821035 102.587323,170.821035" id="Fill-3" transform="translate(96.539707, 96.410518) rotate(-45.000000) translate(-96.539707, -96.410518) "></path>
            </g>
            <g id="Phone" transform="translate(212.000000, 16.000000)">
                <path d="M74.0368586,174.031 L14.9635295,174.031 C7.82194439,174.031 2,168.206143 2,160.973454 L2,21.0889365 C2,13.8953425 7.78313143,8.03099961 14.9635295,8.03099961 L74.0368586,8.03099961 C81.1780556,8.03099961 87,13.8562469 87,21.0889365 L87,160.973454 C87,168.166657 81.2172567,174.031 74.0368586,174.031" id="Fill-6" fill="#2F5472"></path>
                <g id="Group-10" transform="translate(0.000000, 6.031000)" fill="#2F5472">
                    <path d="M15.1722482,4.06441674 C9.08297355,4.06441674 4.12911923,9.04313576 4.12911923,15.1629741 L4.12911923,154.989164 C4.12911923,161.108612 9.08297355,166.087722 15.1722482,166.087722 L74.354087,166.087722 C80.4429728,166.087722 85.3972159,161.108612 85.3972159,154.989164 L85.3972159,15.1629741 C85.3972159,9.04313576 80.4429728,4.06441674 74.354087,4.06441674 L15.1722482,4.06441674 Z M74.354087,169.995664 L15.1722482,169.995664 C6.93889563,169.995664 0.24069355,163.263842 0.24069355,154.989164 L0.24069355,15.1629741 C0.24069355,6.88829615 6.93889563,0.156474026 15.1722482,0.156474026 L74.354087,0.156474026 C82.5874396,0.156474026 89.2856416,6.88829615 89.2856416,15.1629741 L89.2856416,154.989164 C89.2856416,163.263842 82.5874396,169.995664 74.354087,169.995664 L74.354087,169.995664 Z" id="Fill-8"></path>
                </g>
                <path d="M81.0365297,168.031 L21.9634703,168.031 C14.8219178,168.031 9,162.20438 9,154.969987 L9,15.0920126 C9,7.89672399 14.783105,2.03099961 21.9634703,2.03099961 L81.0365297,2.03099961 C88.1780822,2.03099961 94,7.85761916 94,15.0920126 L94,155.0087 C93.9611872,162.20438 88.1780822,168.031 81.0365297,168.031" id="Fill-19" fill="url(#linearGradient-1)"></path>
                <path d="M21.9240175,3.94354276 C15.8378166,3.94354276 10.8864629,8.92812274 10.8864629,15.0551653 L10.8864629,155.006834 C10.8864629,161.133876 15.8378166,166.118456 21.9240175,166.118456 L81.0759825,166.118456 C87.1287598,166.118456 92.0805022,161.146397 92.1135371,155.035004 L92.1135371,15.0551653 C92.1135371,8.92812274 87.1621834,3.94354276 81.0759825,3.94354276 L21.9240175,3.94354276 Z M81.0759825,170.031 L21.9240175,170.031 C13.694821,170.031 7,163.291253 7,155.006834 L7,15.0551653 C7,6.7711377 13.694821,0.0309996063 21.9240175,0.0309996063 L81.0759825,0.0309996063 C89.305179,0.0309996063 96,6.7711377 96,15.0551653 L96,155.045959 C95.9553057,163.313946 89.2600961,170.031 81.0759825,170.031 L81.0759825,170.031 Z" id="Fill-21" fill="#2F5472"></path>
                <path d="M70.0567613,10.0309996 L32.9040067,10.0309996 C30.196995,10.0309996 28,7.87715345 28,5.2233073 L28,2.03099961 L75,2.03099961 L75,5.18484576 C75,7.87715345 72.803005,10.0309996 70.0567613,10.0309996" id="Fill-23" fill="#2F5472"></path>
                <path d="M29.929152,3.9271035 L29.929152,5.21281779 C29.929152,6.82424636 31.2509187,8.13489571 32.876016,8.13489571 L70.0850854,8.13489571 C71.7592971,8.13489571 73.070848,6.83398662 73.070848,5.17385675 L73.070848,3.9271035 L29.929152,3.9271035 Z M70.0850854,12.0309996 L32.876016,12.0309996 C29.0847772,12.0309996 26,8.97216844 26,5.21281779 L26,1.97905155 C26,0.903337269 26.8797371,0.0309996063 27.964576,0.0309996063 L75.035424,0.0309996063 C76.1206558,0.0309996063 77,0.903337269 77,1.97905155 L77,5.17385675 C77,8.95502558 73.8979345,12.0309996 70.0850854,12.0309996 L70.0850854,12.0309996 Z" id="Fill-25" fill="#2F5472"></path>
            </g>
        </g>
    </g>
</svg>