<?xml version="1.0" encoding="UTF-8"?>
<svg width="29px" height="24px" viewBox="0 0 29 24" version="1.1" xmlns="http://www.w3.org/2000/svg" xmlns:xlink="http://www.w3.org/1999/xlink">
    <!-- Generator: Sketch 54.1 (76490) - https://sketchapp.com -->
    <title></title>
    <desc>Created with Sketch.</desc>
    <g id="Profile-" stroke="none" stroke-width="1" fill="none" fill-rule="evenodd">
        <g id="Inner-Bank-Statement-Copy" transform="translate(-47.000000, -217.000000)" fill="#42505C" fill-rule="nonzero">
            <path d="M75.2850888,228.488306 C75.3866511,228.556014 75.4374322,228.64065 75.4374322,228.742212 C75.4374322,228.843774 75.4035779,228.945336 75.3358699,229.046899 L74.3202474,230.316427 C74.2525394,230.384135 74.1594402,230.426453 74.0409512,230.44338 C73.9224621,230.460307 73.8293629,230.434916 73.7616549,230.367208 L72.999938,229.757835 L72.999938,239.812498 C72.999938,240.049477 72.9237663,240.244138 72.7714229,240.396481 C72.6190795,240.548824 72.4244188,240.624996 72.1874399,240.624996 L63.6562103,240.624996 C63.554648,240.624996 63.4615496,240.582679 63.3769141,240.498043 C63.2922786,240.413408 63.2499613,240.320309 63.2499613,240.218747 L63.2499613,233.718763 L59.999969,233.718763 L59.999969,240.218747 C59.999969,240.320309 59.9576517,240.413408 59.8730162,240.498043 C59.7883807,240.582679 59.6952822,240.624996 59.59372,240.624996 L51.0624903,240.624996 C50.8255115,240.624996 50.6308507,240.548824 50.4785073,240.396481 C50.3261639,240.244138 50.2499923,240.049477 50.2499923,239.812498 L50.2499923,229.757835 L49.4882753,230.367208 C49.4205674,230.434916 49.3274682,230.460307 49.2089791,230.44338 C49.0904901,230.426453 48.9973908,230.384135 48.9296829,230.316427 L47.9140603,229.046899 C47.8463524,228.945336 47.8124981,228.843774 47.8124981,228.742212 C47.8124981,228.64065 47.8632792,228.556014 47.9648414,228.488306 L60.3554369,218.332081 C60.7278316,218.027394 61.1510082,217.87505 61.6249651,217.87505 C62.0989221,217.87505 62.5220987,218.027394 62.8944934,218.332081 L70.5624438,224.578159 L70.5624438,221.531292 C70.5624438,221.429729 70.6047612,221.336631 70.6893966,221.251995 C70.7740321,221.16736 70.8671306,221.125043 70.9686929,221.125043 L72.593689,221.125043 C72.6952512,221.125043 72.7883497,221.16736 72.8729852,221.251995 C72.9576207,221.336631 72.999938,221.429729 72.999938,221.531292 L72.999938,226.609405 L75.2850888,228.488306 Z M70.5624438,238.187502 L70.5624438,227.726589 L61.8788708,220.617231 C61.7096006,220.481815 61.5403297,220.481815 61.3710595,220.617231 L52.6874864,227.726589 L52.6874864,238.187502 L57.5624748,238.187502 L57.5624748,231.687517 C57.5624748,231.585955 57.6047922,231.492857 57.6894276,231.408221 C57.7740631,231.323586 57.8671616,231.281268 57.9687238,231.281268 L65.2812064,231.281268 C65.3827687,231.281268 65.4758672,231.323586 65.5605026,231.408221 C65.6451381,231.492857 65.6874554,231.585955 65.6874554,231.687517 L65.6874554,238.187502 L70.5624438,238.187502 Z" id=""></path>
        </g>
    </g>
</svg>