<?xml version="1.0" encoding="UTF-8"?>
<svg width="41px" height="28px" viewBox="0 0 41 28" version="1.1" xmlns="http://www.w3.org/2000/svg" xmlns:xlink="http://www.w3.org/1999/xlink">
    <!-- Generator: Sketch 54.1 (76490) - https://sketchapp.com -->
    <title>Group 10</title>
    <desc>Created with Sketch.</desc>
    <defs>
        <polygon id="path-1" points="0 0.154 9.84572727 0.154 9.84572727 9.99990909 0 9.99990909"></polygon>
    </defs>
    <g id="Landing-Pages" stroke="none" stroke-width="1" fill="none" fill-rule="evenodd">
        <g id="Landing-Page---1--Copy-11" transform="translate(-11.000000, -902.000000)">
            <g id="Group-10" transform="translate(11.000000, 902.000000)">
                <path d="M15.2864036,15.6592884 L12.3971358,15.6592884 C12.2929808,15.6592884 12.196626,15.6164006 12.1186245,15.5439678 C11.9626214,15.3867125 11.9598685,15.127003 12.1140362,14.9630763 L20.5372821,6 C22.440519,7.55921024 23.3425836,10.0910208 22.8809982,12.5646945 C22.1964202,16.2072993 18.7964718,18.5832841 15.2864036,17.8751587 L15.2864036,15.6592884 Z" id="Fill-1" fill="#2F5472"></path>
                <path d="M23.0472045,3.32459374 L26.3145577,0 L33.2464479,7.05103577 L33.2464479,3.46757697 L36.8201596,3.46757697 L36.8201596,10.6826229 L40.8861156,14.8216603 C40.9585875,14.8926847 41,14.9968849 41,15.1001506 C41,15.3230362 40.8211732,15.5043352 40.5934044,15.5043352 L37.6272331,15.5043352 L37.6272331,27 L15,27 L15,21.4890712 C20.7215153,22.1871658 25.9258448,18.1499922 26.6289164,12.4699133 C27.0538652,9.01635429 25.7079585,5.5814859 23.0472045,3.32459374" id="Fill-3" fill="#2F5472"></path>
                <g id="Group-7" transform="translate(0.000000, 18.000000)">
                    <mask id="mask-2" fill="white">
                        <use xlink:href="#path-1"></use>
                    </mask>
                    <g id="Clip-6"></g>
                    <polygon id="Fill-5" fill="#2F5472" mask="url(#mask-2)" points="-0.000181818182 8.22581818 8.073 0.154 9.84572727 1.92990909 1.77618182 9.99990909"></polygon>
                </g>
                <path d="M24.2018308,10.5023567 C24.2018308,6.3064252 20.9774503,2.90377078 17.0002233,2.90377078 C13.0252288,2.90377078 9.80218799,6.3064252 9.80218799,10.5023567 C9.80218799,14.702059 13.0252288,18.1032994 17.0002233,18.1032994 C20.9774503,18.1032994 24.2018308,14.7015877 24.2018308,10.5023567 M26,10.5023567 C26,15.7493922 21.9709757,20 16.9997767,20 C12.03215,20 8,15.7493922 8,10.5023567 C8,5.25862069 12.0317035,1 16.9997767,1 C21.9709757,1 26,5.25862069 26,10.5023567" id="Fill-8" fill="#2F5472"></path>
            </g>
        </g>
    </g>
</svg>