<svg xmlns="http://www.w3.org/2000/svg" xmlns:xlink="http://www.w3.org/1999/xlink" width="306" height="148" viewBox="0 0 306 148">
    <defs>
        <path id="a" d="M0 .1h19.906V20H0z"/>
        <path id="c" d="M.04.094h12.915v11.865H.039z"/>
    </defs>
    <g fill="none" fill-rule="evenodd">
        <text fill="#42505C" font-family="OpenSans-Light, Open Sans" font-size="16" font-weight="300">
            <tspan x="81" y="57">GetGround can connect you to </tspan> <tspan x="81" y="85">mortgages, insurance, property </tspan> <tspan x="81" y="113">management and solicitors </tspan> <tspan x="81" y="141">(optional service)</tspan>
        </text>
        <text fill="#42505C" font-family="OpenSans-Bold, Open Sans" font-size="13" font-weight="bold">
            <tspan x="81" y="14">Step 2</tspan>
        </text>
        <path fill="#2F5472" d="M57.5 19a4.5 4.5 0 1 0 0-9 4.5 4.5 0 0 0 0 9z"/>
        <g transform="translate(0 8)">
            <mask id="b" fill="#fff">
                <use xlink:href="#a"/>
            </mask>
            <path fill="#2F5472" d="M16.476 1.809c.226-.236.54-.375.873-.375.329 0 .642.139.878.385.062.062.118.129.17.185.04.046.082.093.117.129A4.979 4.979 0 0 0 19.9 3.165V.099H6.029L8.04 2.112 0 10.147l3.866 3.866 4.94-4.939 2.12 2.12-4.94 4.94L9.854 20l8.04-8.04 2.013 2.012v-8.21l-.01-.005a.716.716 0 0 1-.155-.056c-.035-.01-.076-.026-.118-.041a4.728 4.728 0 0 0-.194-.072 3.888 3.888 0 0 1-.53-.231 7.091 7.091 0 0 1-.929-.544 6.814 6.814 0 0 1-1.196-1.017l-.041-.046c-.098-.103-.21-.221-.313-.355a1.226 1.226 0 0 1-.262-.831c.01-.283.128-.55.318-.755" mask="url(#b)"/>
        </g>
        <path fill="#2F5472" d="M43 27h-.005c-.605-.015-2.94-.071-3.505-.087-.056-.005-.056-.046-.062-.077 0-.035-.004-.066-.004-.102-.01-.148-.087-1.21-.112-1.599 0-.02 0-.178-.02-.178-.103-.005-1.73-.123-1.853-.133-.04-.005-.03-.051-.035-.087-.026-.378-.123-1.763-.127-1.798 0-.016-.016-.01-.03-.01-.622-.046-1.232-.087-1.848-.133-.01 0-.01-.01-.01-.026-.015-.184-.102-1.435-.127-1.793 0-.025-.006-.046-.006-.072 0 0-1.775-.127-1.83-.132-.011 0-.047 0-.052-.005-.045-.046-2.101-2.105-2.111-2.126a5.23 5.23 0 0 1-.82.261 6.06 6.06 0 0 1-3.729-.286 6.062 6.062 0 0 1-2.981-2.682 6.156 6.156 0 0 1-.595-4.215l.005-.01a6.25 6.25 0 0 1 .661-1.701 6.066 6.066 0 0 1 3.633-2.81 5.112 5.112 0 0 1-.534 1.717 5.037 5.037 0 0 1-.753 1.088c-.087.097-.188.189-.27.286-.208.26-.275.618-.173.94.112.342.407.608.758.674.194.036.397.016.58-.061.178-.071.31-.204.438-.342.26-.276.498-.572.717-.884A7.21 7.21 0 0 0 29.446 7c.738.056 1.476.25 2.147.567a6.094 6.094 0 0 1 3.038 3.28 6.112 6.112 0 0 1 .01 4.332l8.273 8.306.045 1.819c.01.567.026 1.129.041 1.696M20.48 13.5h.04zM20.47 12.49c.02 0 .04 0 .06.02-.02-.02-.04-.02-.06-.02"/>
        <g transform="translate(15)">
            <mask id="d" fill="#fff">
                <use xlink:href="#c"/>
            </mask>
            <path fill="#2F5472" d="M12.95 6.892a7.22 7.22 0 0 1-1.061 3.85c-.069.11-.143.22-.216.324-.064.1-.138.209-.216.292-.06.063-.108.136-.167.204-.06.068-.118.136-.177.199-.089.094-.192.188-.32.193-.216.036-.437-.115-.5-.34-.128-.324.181-.57.353-.778.943-1.128 1.43-2.638 1.366-4.137-.06-1.431-.614-2.81-1.552-3.84A5.44 5.44 0 0 0 7.4 1.158a5.283 5.283 0 0 0-3.335.511c-1.13.586-2.058 1.588-2.584 2.8a6.287 6.287 0 0 0-.471 3.239H.077c0-.02-.005-.031-.005-.036a8.565 8.565 0 0 1-.03-.507c-.01-.34.005-.68.044-1.019A7.093 7.093 0 0 1 1.663 2.4C2.459 1.449 3.495.739 4.644.378a6.19 6.19 0 0 1 3.38-.094c1.144.293 2.2.92 3.03 1.802a7.046 7.046 0 0 1 1.817 3.756c.05.335.079.674.084 1.014-.005.015-.005.026-.005.036" mask="url(#d)"/>
        </g>
        <path fill="#2F5472" d="M21.948 13c-.225 0-.444-.01-.669-.033h-.005c-.062 0-.129-.02-.19-.024l-.206-.029c-.134-.019-.267-.052-.401-.081h-.005c-.129-.033-.262-.062-.391-.105-.005 0-.01-.005-.01-.005h-.01a.47.47 0 0 1-.076-.024c-.024 0-.062-.023-.086-.028a.877.877 0 0 1-.1-.038c-.072-.029-.139-.057-.21-.081a3.234 3.234 0 0 1-.415-.182 6.497 6.497 0 0 1-1.47-.997c-.111-.1-.216-.204-.316-.31-.095-.1-.196-.2-.277-.314a.477.477 0 0 1-.11-.325.489.489 0 0 1 .124-.286c.086-.09.2-.138.325-.138a.46.46 0 0 1 .339.152c.09.096.172.196.263.292.095.1.195.195.3.29.205.187.43.358.664.506a5.465 5.465 0 0 0 2.984.863 5.097 5.097 0 0 0-.052.897"/>
    </g>
</svg>
