<?xml version="1.0" encoding="UTF-8"?>
<svg width="34px" height="34px" viewBox="0 0 34 34" version="1.1" xmlns="http://www.w3.org/2000/svg" xmlns:xlink="http://www.w3.org/1999/xlink">
    <!-- Generator: Sketch 54.1 (76490) - https://sketchapp.com -->
    <title>Group 3</title>
    <desc>Created with Sketch.</desc>
    <defs>
        <polygon id="path-1" points="0 -1.13686838e-13 34 -1.13686838e-13 34 34 0 34"></polygon>
    </defs>
    <g id="Landing-Pages" stroke="none" stroke-width="1" fill="none" fill-rule="evenodd">
        <g id="Landing-Page---1--Copy-11" transform="translate(-15.000000, -1285.000000)">
            <g id="Group-3" transform="translate(15.000000, 1285.000000)">
                <mask id="mask-2" fill="white">
                    <use xlink:href="#path-1"></use>
                </mask>
                <g id="Clip-2"></g>
                <path d="M17.0869681,32.4042603 C17.0825908,32.4054541 17.0666734,32.4082397 17.0439912,32.4082397 L17.038818,32.4173923 L2.41710736,25.2266152 L9.33122184,21.9897706 L16.3352695,25.4339419 C16.5951209,25.5616807 16.8637268,25.5887406 17.0439912,25.5887406 C17.233408,25.5887406 17.5163396,25.5592931 17.787731,25.4192182 L25.2032431,21.5858614 L31.6712729,24.8609082 L17.0869681,32.4042603 Z M17.9445173,1.59534176 C17.9484966,1.59454588 17.9640161,1.5917603 17.9866983,1.5917603 C18.0109723,1.5917603 18.0288794,1.59494382 18.019329,1.58937266 L31.6720687,8.50079588 L17.0849784,16.0449438 C17.0809991,16.0457397 17.0658776,16.0489232 17.0443891,16.0489232 L17.0384201,16.05728 L2.41631149,8.86690075 L17.9445173,1.59534176 Z M33.4106452,23.9571863 L26.7050485,20.5619616 L33.0521061,17.2805478 C33.2542569,17.1754916 33.2542569,17.006765 33.0509123,16.9044944 L25.8928639,13.2804541 L33.4186039,9.38939607 C33.7843058,9.19957865 34.0011802,8.86292135 33.9991906,8.48845974 C33.996803,8.11479401 33.7759492,7.78132022 33.4106452,7.59667603 L18.7328258,0.166338951 C18.4610364,0.0290496255 18.177309,-1.13686838e-13 17.9866983,-1.13686838e-13 C17.8116071,-1.13686838e-13 17.5497661,0.0246722846 17.2962817,0.143258427 L0.612075803,7.95442416 C0.232446151,8.13230337 0.00323579456,8.46498127 5.23173899e-05,8.84382022 C-0.00392702907,9.22305712 0.219314307,9.56011236 0.596556352,9.74555243 L8.61016426,13.686353 L0.949524383,17.272589 C0.74538391,17.3684925 0.744588041,17.5284644 0.94753471,17.6283474 L7.74982955,20.9734316 L0.612075803,24.3145365 C0.232048216,24.4924157 0.00283785991,24.8250936 5.23173899e-05,25.2039326 C-0.00352909443,25.5831695 0.219712242,25.9202247 0.596556352,26.1048689 L16.3360654,33.8455993 C16.5955188,33.973338 16.8641247,34 17.0443891,34 C17.233408,34 17.5159416,33.9713483 17.7893227,33.8308755 L33.4193998,25.7495084 C33.7851017,25.559691 34.0019761,25.2230337 33.9999864,24.8485721 C33.996803,24.4753043 33.7763472,24.1414326 33.4106452,23.9571863 L33.4106452,23.9571863 Z" id="Fill-1" fill="#2F5472" mask="url(#mask-2)"></path>
            </g>
        </g>
    </g>
</svg>