<svg xmlns="http://www.w3.org/2000/svg" xmlns:xlink="http://www.w3.org/1999/xlink" width="314" height="179" viewBox="0 0 314 179">
    <defs>
        <path id="a" d="M0 .18h30.786V27H0z"/>
        <path id="c" d="M0 27h31V1H0z"/>
    </defs>
    <g fill="none" fill-rule="evenodd">
        <text fill="#42505C" font-family="OpenSans-Light, Open Sans" font-size="16" font-weight="300">
            <tspan x="77" y="60">GetGround will manage on an </tspan> <tspan x="77" y="88">on-going basis all your company </tspan> <tspan x="77" y="116">requirements including </tspan> <tspan x="77" y="144">accounting, tax, legal documents, </tspan> <tspan x="77" y="172">filings and secretarial work</tspan>
        </text>
        <text fill="#42505C" font-family="OpenSans-Bold, Open Sans" font-size="13" font-weight="bold">
            <tspan x="77" y="14">Step 4</tspan>
        </text>
        <circle cx="53.5" cy="15.5" r="4.5" fill="#2F5472"/>
        <g>
            <mask id="b" fill="#fff">
                <use xlink:href="#a"/>
            </mask>
            <path fill="#2F5472" d="M9.158 18.144c-.59 0-1.07.484-1.07 1.08v2.628c0 1.66-1.331 3.006-2.975 3.006-1.643 0-2.975-1.346-2.975-3.006V2.34h20.88l.143 15.768-14.003.036zm20.56 0h-4.419L25.156 1.26c0-.597-.478-1.08-1.069-1.08H1.07C.48.18 0 .663 0 1.26v20.592C0 24.695 2.281 27 5.096 27h20.773c2.744-.097 4.919-2.374 4.917-5.148v-2.628c0-.596-.479-1.08-1.069-1.08z" mask="url(#b)"/>
        </g>
        <mask id="d" fill="#fff">
            <use xlink:href="#c"/>
        </mask>
        <path fill="#2F5472" d="M5 7h9V5H5zM5 11h16V9H5zM5 16h16v-2H5z" mask="url(#d)"/>
    </g>
</svg>
