<?xml version="1.0" encoding="UTF-8"?>
<svg width="101px" height="69px" viewBox="0 0 101 69" version="1.1" xmlns="http://www.w3.org/2000/svg" xmlns:xlink="http://www.w3.org/1999/xlink">
    <!-- Generator: Sketch 55.2 (78181) - https://sketchapp.com -->
    <title>Group 8</title>
    <desc>Created with Sketch.</desc>
    <defs>
        <polygon id="path-1" points="0 68.1985 70 68.1985 70 0.0005 0 0.0005"></polygon>
    </defs>
    <g id="Landing-Pages-Mobile" stroke="none" stroke-width="1" fill="none" fill-rule="evenodd">
        <g id="1.-What-we-do" transform="translate(-678.000000, -2650.000000)">
            <g id="Group-8" transform="translate(678.000000, 2650.000000)">
                <path d="M69.5,34.5301515 L76.4150758,27.6150758 C77.2351768,26.7949747 78.5648232,26.7949747 79.3849242,27.6150758 C80.2050253,28.4351768 80.2050253,29.7648232 79.3849242,30.5849242 L72.4698485,37.5 L79.3849242,44.4150758 C80.2050253,45.2351768 80.2050253,46.5648232 79.3849242,47.3849242 C78.5648232,48.2050253 77.2351768,48.2050253 76.4150758,47.3849242 L69.5,40.4698485 L62.5849242,47.3849242 C61.7648232,48.2050253 60.4351768,48.2050253 59.6150758,47.3849242 C58.7949747,46.5648232 58.7949747,45.2351768 59.6150758,44.4150758 L66.5301515,37.5 L59.6150758,30.5849242 C58.7949747,29.7648232 58.7949747,28.4351768 59.6150758,27.6150758 C60.4351768,26.7949747 61.7648232,26.7949747 62.5849242,27.6150758 L69.5,34.5301515 Z M70,69 C52.8791728,69 39,55.1208272 39,38 C39,20.8791728 52.8791728,7 70,7 C87.1208272,7 101,20.8791728 101,38 C101,55.1208272 87.1208272,69 70,69 Z M70,63 C83.8071187,63 95,51.8071187 95,38 C95,24.1928813 83.8071187,13 70,13 C56.1928813,13 45,24.1928813 45,38 C45,51.8071187 56.1928813,63 70,63 Z" id="Oval-2-Copy" fill-opacity="0.5" fill="#F4B779"></path>
                <g id="Group-28">
                    <path d="M4.5176,24.492 L4.5176,28.815 L69.4836,28.815 L69.4836,24.586 L38.8586,3.466 C37.7396,2.695 36.2606,2.693 35.1396,3.463 L4.5176,24.492 Z" id="Fill-1" fill="#F4B779"></path>
                    <mask id="mask-2" fill="white">
                        <use xlink:href="#path-1"></use>
                    </mask>
                    <g id="Clip-4"></g>
                    <polygon id="Fill-3" fill="#F4B779" mask="url(#mask-2)" points="30.713 33.3755 43.287 33.3755 43.287 28.8155 30.713 28.8155"></polygon>
                    <polygon id="Fill-5" fill="#F4B779" mask="url(#mask-2)" points="52.418 33.3755 64.992 33.3755 64.992 28.8155 52.418 28.8155"></polygon>
                    <polygon id="Fill-6" fill="#F4B779" mask="url(#mask-2)" points="9.009 33.3755 21.583 33.3755 21.583 28.8155 9.009 28.8155"></polygon>
                    <polygon id="Fill-7" fill="#F4B779" mask="url(#mask-2)" points="30.712 62.6265 43.286 62.6265 43.286 58.0655 30.712 58.0655"></polygon>
                    <polygon id="Fill-8" fill="#F4B779" mask="url(#mask-2)" points="52.417 62.6265 64.991 62.6265 64.991 58.0655 52.417 58.0655"></polygon>
                    <polygon id="Fill-9" fill="#F4B779" mask="url(#mask-2)" points="9.009 62.6265 21.583 62.6265 21.583 58.0655 9.009 58.0655"></polygon>
                    <path d="M68.5635,68.1989 L5.4365,68.1989 C4.6435,68.1989 4.0005,67.5549 4.0005,66.7619 L4.0005,63.5899 C4.0005,62.7969 4.6435,62.1529 5.4365,62.1529 L68.5635,62.1529 C69.3575,62.1529 70.0005,62.7969 70.0005,63.5899 L70.0005,66.7619 C70.0005,67.5549 69.3575,68.1989 68.5635,68.1989" id="Fill-10" fill="#F4B779" mask="url(#mask-2)"></path>
                    <polygon id="Fill-11" fill="#F4B779" mask="url(#mask-2)" points="54.136 59.4995 63.271 59.4995 63.271 32.9385 54.136 32.9385"></polygon>
                    <polygon id="Fill-12" fill="#F4B779" mask="url(#mask-2)" points="32.432 58.7645 41.566 58.7645 41.566 32.2035 32.432 32.2035"></polygon>
                    <polygon id="Fill-13" fill="#F4B779" mask="url(#mask-2)" points="10.729 59.1415 19.864 59.1415 19.864 32.5805 10.729 32.5805"></polygon>
                    <path d="M36.5146,9.4064 C36.5146,11.3474 34.9416,12.9214 33.0006,12.9214 C31.0596,12.9214 29.4856,11.3474 29.4856,9.4064 C29.4856,7.4654 31.0596,5.8914 33.0006,5.8914 C34.9416,5.8914 36.5146,7.4654 36.5146,9.4064" id="Fill-14" fill="#B7D1DA" mask="url(#mask-2)"></path>
                    <path d="M2,25.5685 L64,25.5685 L64,23.5235 L2,23.5235 L2,25.5685 Z M65,27.5685 L1,27.5685 C0.447,27.5685 0,27.1205 0,26.5685 L0,22.5225 C0,21.9705 0.447,21.5225 1,21.5225 L65,21.5225 C65.553,21.5225 66,21.9705 66,22.5225 L66,26.5685 C66,27.1205 65.553,27.5685 65,27.5685 L65,27.5685 Z" id="Fill-15" fill="#2F5472" mask="url(#mask-2)"></path>
                    <path d="M4.2783,21.5226 L61.7213,21.5226 L33.0003,2.2056 L4.2783,21.5226 Z M65.0003,23.5226 L1.0003,23.5226 C0.5603,23.5226 0.1723,23.2346 0.0443,22.8146 C-0.0847,22.3936 0.0773,21.9386 0.4423,21.6926 L32.4423,0.1706 C32.7783,-0.0574 33.2213,-0.0574 33.5573,0.1706 L65.5573,21.6926 C65.9233,21.9386 66.0853,22.3936 65.9563,22.8146 C65.8283,23.2346 65.4393,23.5226 65.0003,23.5226 L65.0003,23.5226 Z" id="Fill-16" fill="#2F5472" mask="url(#mask-2)"></path>
                    <path d="M8.729,56.3465 L13.863,56.3465 L13.863,31.3755 L8.729,31.3755 L8.729,56.3465 Z M14.863,58.3465 L7.729,58.3465 C7.177,58.3465 6.729,57.8995 6.729,57.3465 L6.729,30.3755 C6.729,29.8225 7.177,29.3755 7.729,29.3755 L14.863,29.3755 C15.416,29.3755 15.863,29.8225 15.863,30.3755 L15.863,57.3465 C15.863,57.8995 15.416,58.3465 14.863,58.3465 L14.863,58.3465 Z" id="Fill-17" fill="#2F5472" mask="url(#mask-2)"></path>
                    <path d="M30.434,56.3465 L35.568,56.3465 L35.568,31.3755 L30.434,31.3755 L30.434,56.3465 Z M36.567,58.3465 L29.434,58.3465 C28.881,58.3465 28.434,57.8995 28.434,57.3465 L28.434,30.3755 C28.434,29.8225 28.881,29.3755 29.434,29.3755 L36.567,29.3755 C37.12,29.3755 37.567,29.8225 37.567,30.3755 L37.567,57.3465 C37.567,57.8995 37.12,58.3465 36.567,58.3465 L36.567,58.3465 Z" id="Fill-18" fill="#2F5472" mask="url(#mask-2)"></path>
                    <path d="M52.138,56.3465 L57.272,56.3465 L57.272,31.3755 L52.138,31.3755 L52.138,56.3465 Z M58.271,58.3465 L51.138,58.3465 C50.585,58.3465 50.138,57.8995 50.138,57.3465 L50.138,30.3755 C50.138,29.8225 50.585,29.3755 51.138,29.3755 L58.271,29.3755 C58.824,29.3755 59.271,29.8225 59.271,30.3755 L59.271,57.3465 C59.271,57.8995 58.824,58.3465 58.271,58.3465 L58.271,58.3465 Z" id="Fill-19" fill="#2F5472" mask="url(#mask-2)"></path>
                    <path d="M7.009,29.3755 L15.584,29.3755 L15.584,27.5685 L7.009,27.5685 L7.009,29.3755 Z M16.584,31.3755 L6.009,31.3755 C5.456,31.3755 5.009,30.9275 5.009,30.3755 L5.009,26.5685 C5.009,26.0155 5.456,25.5685 6.009,25.5685 L16.584,25.5685 C17.137,25.5685 17.584,26.0155 17.584,26.5685 L17.584,30.3755 C17.584,30.9275 17.137,31.3755 16.584,31.3755 L16.584,31.3755 Z" id="Fill-20" fill="#2F5472" mask="url(#mask-2)"></path>
                    <path d="M2,64.1985 L64,64.1985 L64,62.1525 L2,62.1525 L2,64.1985 Z M65,66.1985 L1,66.1985 C0.447,66.1985 0,65.7505 0,65.1985 L0,61.1525 C0,60.6015 0.447,60.1525 1,60.1525 L65,60.1525 C65.553,60.1525 66,60.6015 66,61.1525 L66,65.1985 C66,65.7505 65.553,66.1985 65,66.1985 L65,66.1985 Z" id="Fill-21" fill="#2F5472" mask="url(#mask-2)"></path>
                    <path d="M28.713,29.3755 L37.287,29.3755 L37.287,27.5685 L28.713,27.5685 L28.713,29.3755 Z M38.287,31.3755 L27.713,31.3755 C27.16,31.3755 26.713,30.9275 26.713,30.3755 L26.713,26.5685 C26.713,26.0155 27.16,25.5685 27.713,25.5685 L38.287,25.5685 C38.84,25.5685 39.287,26.0155 39.287,26.5685 L39.287,30.3755 C39.287,30.9275 38.84,31.3755 38.287,31.3755 L38.287,31.3755 Z" id="Fill-22" fill="#2F5472" mask="url(#mask-2)"></path>
                    <path d="M50.417,29.3755 L58.991,29.3755 L58.991,27.5685 L50.417,27.5685 L50.417,29.3755 Z M59.991,31.3755 L49.417,31.3755 C48.864,31.3755 48.417,30.9275 48.417,30.3755 L48.417,26.5685 C48.417,26.0155 48.864,25.5685 49.417,25.5685 L59.991,25.5685 C60.544,25.5685 60.991,26.0155 60.991,26.5685 L60.991,30.3755 C60.991,30.9275 60.544,31.3755 59.991,31.3755 L59.991,31.3755 Z" id="Fill-23" fill="#2F5472" mask="url(#mask-2)"></path>
                    <path d="M7.009,60.1525 L15.584,60.1525 L15.584,58.3455 L7.009,58.3455 L7.009,60.1525 Z M16.584,62.1525 L6.009,62.1525 C5.456,62.1525 5.009,61.7055 5.009,61.1525 L5.009,57.3465 C5.009,56.7945 5.456,56.3465 6.009,56.3465 L16.584,56.3465 C17.137,56.3465 17.584,56.7945 17.584,57.3465 L17.584,61.1525 C17.584,61.7055 17.137,62.1525 16.584,62.1525 L16.584,62.1525 Z" id="Fill-24" fill="#2F5472" mask="url(#mask-2)"></path>
                    <path d="M28.713,60.1525 L37.287,60.1525 L37.287,58.3455 L28.713,58.3455 L28.713,60.1525 Z M38.287,62.1525 L27.713,62.1525 C27.16,62.1525 26.713,61.7055 26.713,61.1525 L26.713,57.3465 C26.713,56.7945 27.16,56.3465 27.713,56.3465 L38.287,56.3465 C38.84,56.3465 39.287,56.7945 39.287,57.3465 L39.287,61.1525 C39.287,61.7055 38.84,62.1525 38.287,62.1525 L38.287,62.1525 Z" id="Fill-25" fill="#2F5472" mask="url(#mask-2)"></path>
                    <path d="M50.417,60.1525 L58.991,60.1525 L58.991,58.3455 L50.417,58.3455 L50.417,60.1525 Z M59.991,62.1525 L49.417,62.1525 C48.864,62.1525 48.417,61.7055 48.417,61.1525 L48.417,57.3465 C48.417,56.7945 48.864,56.3465 49.417,56.3465 L59.991,56.3465 C60.544,56.3465 60.991,56.7945 60.991,57.3465 L60.991,61.1525 C60.991,61.7055 60.544,62.1525 59.991,62.1525 L59.991,62.1525 Z" id="Fill-26" fill="#2F5472" mask="url(#mask-2)"></path>
                    <path d="M33,7.3126 C31.846,7.3126 30.906,8.2516 30.906,9.4066 C30.906,10.5606 31.846,11.4996 33,11.4996 C34.154,11.4996 35.094,10.5606 35.094,9.4066 C35.094,8.2516 34.154,7.3126 33,7.3126 M33,13.4996 C30.743,13.4996 28.906,11.6636 28.906,9.4066 C28.906,7.1486 30.743,5.3126 33,5.3126 C35.257,5.3126 37.094,7.1486 37.094,9.4066 C37.094,11.6636 35.257,13.4996 33,13.4996" id="Fill-27" fill="#2F5472" mask="url(#mask-2)"></path>
                </g>
            </g>
        </g>
    </g>
</svg>