<?xml version="1.0" encoding="UTF-8"?>
<svg width="40px" height="40px" viewBox="0 0 40 40" version="1.1" xmlns="http://www.w3.org/2000/svg" xmlns:xlink="http://www.w3.org/1999/xlink">
    <!-- Generator: Sketch 56.1 (81669) - https://sketch.com -->
    <title>Group 15</title>
    <desc>Created with Sketch.</desc>
    <defs>
        <polygon id="path-1" points="0.000490909091 0.000166666667 8.18230909 0.000166666667 8.18230909 10 0.000490909091 10"></polygon>
        <polygon id="path-3" points="0.000490909091 0.00017 8.18230909 0.00017 8.18230909 17 0.000490909091 17"></polygon>
        <linearGradient x1="0%" y1="14.2011834%" x2="100%" y2="85.7988166%" id="linearGradient-5">
            <stop stop-color="#F2B47E" offset="0%"></stop>
            <stop stop-color="#FEC858" offset="100%"></stop>
        </linearGradient>
        <polygon id="path-6" points="0.000490909091 0.000173333333 8.18230909 0.000173333333 8.18230909 26 0.000490909091 26"></polygon>
        <polygon id="path-8" points="0 40 40 40 40 0 0 0"></polygon>
        <linearGradient x1="0%" y1="49.875%" x2="100%" y2="50.125%" id="linearGradient-10">
            <stop stop-color="#F2B47E" offset="0%"></stop>
            <stop stop-color="#FEC858" offset="100%"></stop>
        </linearGradient>
        <linearGradient x1="37.5%" y1="0%" x2="62.5%" y2="100%" id="linearGradient-11">
            <stop stop-color="#F2B47E" offset="0%"></stop>
            <stop stop-color="#FEC858" offset="100%"></stop>
        </linearGradient>
    </defs>
    <g id="Landing-Pages-Mobile" stroke="none" stroke-width="1" fill="none" fill-rule="evenodd">
        <g id="Landing-Page-" transform="translate(-26.000000, -1821.000000)">
            <g id="Group-15" transform="translate(26.000000, 1821.000000)">
                <g id="Group-3" transform="translate(4.000000, 30.000000)">
                    <mask id="mask-2" fill="white">
                        <use xlink:href="#path-1"></use>
                    </mask>
                    <g id="Clip-2"></g>
                    <path d="M8.18230909,10.0001667 L8.18230909,0.830166667 C8.18230909,0.371833333 7.83049091,0.000166666667 7.37885455,0.000166666667 L0.802309091,0.000166666667 C0.360490909,0.000166666667 0.000490909091,0.370166667 0.000490909091,0.830166667 L0.000490909091,10.0001667 L1.63685455,10.0001667 L1.63685455,1.66683333 L6.54594545,1.66683333 L6.54594545,10.0001667 L8.18230909,10.0001667 Z" id="Fill-1" fill="#F2B47E" mask="url(#mask-2)"></path>
                </g>
                <g id="Group-6" transform="translate(16.000000, 23.000000)">
                    <mask id="mask-4" fill="white">
                        <use xlink:href="#path-3"></use>
                    </mask>
                    <g id="Clip-5"></g>
                    <path d="M8.18230909,17.00017 L8.18230909,0.84677 C8.18230909,0.37927 7.83049091,0.00017 7.37885455,0.00017 L0.802309091,0.00017 C0.360490909,0.00017 0.000490909091,0.37757 0.000490909091,0.84677 L0.000490909091,17.00017 L1.63685455,17.00017 L1.63685455,1.70017 L6.54594545,1.70017 L6.54594545,17.00017 L8.18230909,17.00017 Z" id="Fill-4" fill="#F2B47E" mask="url(#mask-4)"></path>
                </g>
                <path d="M25.7734641,6.32320099 L27.3690233,9.94835608 L29,9.28132754 L26.2338918,3 L19.7117559,5.66640819 L20.4041684,7.23759305 L24.1141534,5.7192928 C22.0776461,10.3748449 19.1149707,14.1450062 15.4705081,17.1270161 C12.9186759,19.2116935 10.1826727,20.7914082 7.45021114,21.9326923 C6.49570903,22.3318859 5.61204196,22.6457816 4.8222313,22.8863213 C4.35294919,23.0279156 4.02710802,23.1115074 3.86241656,23.1473325 L3,23.3366935 L3.38782182,25 L4.25378014,24.8123449 C4.4627435,24.7662841 4.83816919,24.6690447 5.35349407,24.5138027 C6.19997276,24.2562035 7.14207874,23.9201303 8.15501975,23.4987593 C11.0415475,22.2943548 13.9245334,20.6276365 16.6162648,18.4269541 C20.4838578,15.2641129 23.6218499,11.2619417 25.7734641,6.32320099" id="Fill-7" fill="url(#linearGradient-5)"></path>
                <g id="Group-11" transform="translate(28.000000, 14.000000)">
                    <mask id="mask-7" fill="white">
                        <use xlink:href="#path-6"></use>
                    </mask>
                    <g id="Clip-10"></g>
                    <path d="M8.18230909,26.0001733 L8.18230909,0.863373333 C8.18230909,0.386706667 7.83049091,0.000173333333 7.37885455,0.000173333333 L0.802309091,0.000173333333 C0.360490909,0.000173333333 0.000490909091,0.384973333 0.000490909091,0.863373333 L0.000490909091,26.0001733 L1.63685455,26.0001733 L1.63685455,1.73350667 L6.54594545,1.73350667 L6.54594545,26.0001733 L8.18230909,26.0001733 Z" id="Fill-9" fill="#F2B47E" mask="url(#mask-7)"></path>
                </g>
                <mask id="mask-9" fill="white">
                    <use xlink:href="#path-8"></use>
                </mask>
                <g id="Clip-13"></g>
                <polygon id="Fill-12" fill="url(#linearGradient-10)" mask="url(#mask-9)" points="0 40 40 40 40 38 0 38"></polygon>
                <path d="M10.5363081,12.4495 C11.4354619,12.23075 12.235674,11.71625 12.6626853,10.8115 C13.5305944,8.96175 12.6574778,7.65975 10.8018883,6.68325 C10.5363081,6.54325 10.6161557,6.58 9.8576032,6.22825 C9.15633268,5.901 9.21708631,5.93075 8.98795832,5.81 C7.86141236,5.215 7.5489651,4.746 7.90654363,3.9865 C8.3439698,3.05375 10.3471039,3.10975 11.0501103,3.612 L11.7565882,4.11775 L12.7616269,2.68975 L12.0534131,2.184 C11.654175,1.89875 11.1212788,1.68525 10.5363081,1.56975 L10.5363081,0 L8.80048996,0 L8.80048996,1.53125 C7.769414,1.69575 6.81297821,2.22075 6.33736405,3.2375 C5.4711908,5.082 6.33909986,6.3875 8.18427453,7.3605 C8.45159052,7.50225 8.38910107,7.47075 9.13029541,7.81725 C9.84718829,8.148 9.77081229,8.113 9.99820447,8.23375 C11.1369012,8.83225 11.4493484,9.30125 11.0917699,10.0625 C10.6543437,10.99525 8.65294542,10.941 7.94993908,10.43875 L7.24172529,9.93125 L6.2366866,11.35925 L6.94663621,11.865 C7.42051456,12.2045 8.0853329,12.44425 8.80048996,12.53525 L8.80048996,14 L10.5363081,14 L10.5363081,12.4495 Z" id="Fill-14" fill="url(#linearGradient-11)" mask="url(#mask-9)"></path>
            </g>
        </g>
    </g>
</svg>