<?xml version="1.0" encoding="UTF-8"?>
<svg width="70px" height="64px" viewBox="0 0 70 64" version="1.1" xmlns="http://www.w3.org/2000/svg" xmlns:xlink="http://www.w3.org/1999/xlink">
    <!-- Generator: Sketch 55.2 (78181) - https://sketchapp.com -->
    <title>Group 12</title>
    <desc>Created with Sketch.</desc>
    <defs>
        <polygon id="path-1" points="6e-05 0.470302326 35.5986 0.470302326 35.5986 27 6e-05 27"></polygon>
        <polygon id="path-3" points="0.325472727 0 25.8527455 0 25.8527455 27.6888267 0.325472727 27.6888267"></polygon>
    </defs>
    <g id="Landing-Pages-Mobile" stroke="none" stroke-width="1" fill="none" fill-rule="evenodd">
        <g id="1.-What-we-do" transform="translate(-130.000000, -2864.000000)">
            <g id="Group-12" transform="translate(130.000000, 2864.000000)">
                <path d="M38.5,27.5301515 L45.4150758,20.6150758 C46.2351768,19.7949747 47.5648232,19.7949747 48.3849242,20.6150758 C49.2050253,21.4351768 49.2050253,22.7648232 48.3849242,23.5849242 L41.4698485,30.5 L48.3849242,37.4150758 C49.2050253,38.2351768 49.2050253,39.5648232 48.3849242,40.3849242 C47.5648232,41.2050253 46.2351768,41.2050253 45.4150758,40.3849242 L38.5,33.4698485 L31.5849242,40.3849242 C30.7648232,41.2050253 29.4351768,41.2050253 28.6150758,40.3849242 C27.7949747,39.5648232 27.7949747,38.2351768 28.6150758,37.4150758 L35.5301515,30.5 L28.6150758,23.5849242 C27.7949747,22.7648232 27.7949747,21.4351768 28.6150758,20.6150758 C29.4351768,19.7949747 30.7648232,19.7949747 31.5849242,20.6150758 L38.5,27.5301515 Z M39,62 C21.8791728,62 8,48.1208272 8,31 C8,13.8791728 21.8791728,0 39,0 C56.1208272,0 70,13.8791728 70,31 C70,48.1208272 56.1208272,62 39,62 Z M39,56 C52.8071187,56 64,44.8071187 64,31 C64,17.1928813 52.8071187,6 39,6 C25.1928813,6 14,17.1928813 14,31 C14,44.8071187 25.1928813,56 39,56 Z" id="Oval-2-Copy-2" fill-opacity="0.5" fill="#F4B779"></path>
                <g id="Group-19" transform="translate(0.000000, 6.000000)">
                    <g id="Group-3" transform="translate(3.000000, 31.000000)">
                        <mask id="mask-2" fill="white">
                            <use xlink:href="#path-1"></use>
                        </mask>
                        <g id="Clip-2"></g>
                        <path d="M35.59866,27 L6e-05,27 L6e-05,11.7563023 C6e-05,5.52306977 4.82826,0.470302326 10.78446,0.470302326 L17.46066,2.43 L24.81426,0.470302326 C30.77046,0.470302326 35.59866,5.52306977 35.59866,11.7563023 L35.59866,27 Z" id="Fill-1" fill="#F4B779" mask="url(#mask-2)"></path>
                    </g>
                    <path d="M21.6259532,29 L20.5931771,29 C15.2948299,29 11,24.8818497 11,19.8014644 L11,14 L31,14 L31,20.0121772 C31,24.976163 26.8029072,29 21.6259532,29" id="Fill-4" fill="#F4B779"></path>
                    <path d="M18.0631038,4.60873606 L23.7747474,4 C28.3179484,4 32,7.52288569 32,11.8676812 L32,14 L10,14 L10,11.6876162 C10,8.3465381 12.2281787,5.50325279 15.3411914,4.44319238 C16.1835146,4.15625 17.1175399,4.60873606 18.0631038,4.60873606" id="Fill-6" fill="#F4B779"></path>
                    <path d="M29.9955132,22 L29,22 L29,16 L29.9955132,16 C31.102636,16 32,16.9411188 32,18.101499 L32,19.8990889 C32,21.059469 31.102636,22 29.9955132,22" id="Fill-8" fill="#F4B779"></path>
                    <path d="M10.0041121,22 L11,22 L11,16 L10.0041121,16 C8.89719626,16 8,16.9411188 8,18.101499 L8,19.8990889 C8,21.059469 8.89719626,22 10.0041121,22" id="Fill-10" fill="#F4B779"></path>
                    <polygon id="Fill-12" fill="#B7D1DA" points="11 29.628736 13.065475 33.9647475 13.9237702 35.3595214 14.7665306 34.5657215 16.3180641 36.2040988 14.5846445 50.802304 17.2799243 54 19.8088528 51.2850115 18.4113722 36.9181973 19.8088528 34.5657215 20.5609938 35.2991026 21.5099084 34.5657215 24 29.628736 22.6640112 28 17.2540331 31.1970532 12.3974806 28 11 28.8445774"></polygon>
                    <g id="Group-16" transform="translate(4.000000, 0.000000)">
                        <mask id="mask-4" fill="white">
                            <use xlink:href="#path-3"></use>
                        </mask>
                        <g id="Clip-15"></g>
                        <path d="M1.51910558,15.7919378 C1.51733636,14.8878489 2.18624545,14.1399378 3.04365455,14.0870489 L3.04365455,18.54216 C2.18624545,18.4892711 1.51733636,17.74136 1.51910558,16.8372711 L1.51910558,15.7919378 Z M3.5282,7.80260444 C3.53115455,4.73504889 5.89183636,2.24989333 8.80501818,2.24616 C8.89306364,2.24429333 8.97933636,2.22313778 9.05910909,2.18393778 C10.3236545,1.56047111 11.7040182,1.23940444 13.1009273,1.24432521 L17.2372909,1.24432521 C20.2314273,1.24749333 22.6582909,3.80296 22.6618364,6.95638222 L22.6618364,11.9652711 C22.4467455,12.1450933 22.2222,12.3112267 21.9882,12.4630489 C20.4985182,13.4878489 18.7559273,14.0304267 16.9772909,14.0248696 C14.8187,14.0260711 12.7280636,13.2308711 11.0682,11.7786044 C10.4022455,11.1999378 9.81901818,10.52296 9.33683636,9.76882667 C9.22751818,9.61762667 9.06206364,9.52242667 8.88183636,9.50749333 L8.84047273,9.50749333 C8.66851818,9.50562667 8.50483636,9.58278222 8.39138182,9.71904889 C8.32047273,9.79371556 8.24365455,9.86216 8.16092727,9.93682667 L8.09592727,9.98660444 C7.9547,10.1060711 7.80638182,10.2162044 7.65274545,10.3163822 C7.52865455,10.3972711 7.40456364,10.47816 7.27456364,10.5466044 C7.14456364,10.6150489 7.03229091,10.6710489 6.92001818,10.7270489 L6.77229091,10.7892711 C6.60742727,10.8633156 6.43783636,10.9236711 6.26410909,10.9697156 C5.96392727,11.0574489 5.65783636,11.1171822 5.3482,11.15016 C4.75433636,11.2111378 4.15456364,11.1644711 3.57547273,11.0132711 L3.5282,7.80260444 Z M24.6827455,15.7919378 L24.6827455,16.8497156 C24.6809727,17.7550489 24.0102909,18.5017156 23.1522909,18.5546044 L23.1522909,14.0870489 L23.1995636,14.0870489 C24.0416091,14.1586044 24.6880636,14.90216 24.6827455,15.7919378 L24.6827455,15.7919378 Z M17.3200182,25.3057156 L17.2544273,25.3057156 C17.0363818,25.43016 16.8112455,25.54216 16.5813818,25.6479378 L16.4750182,25.6977156 C15.9715636,25.9192267 15.4492,26.0897156 14.9144273,26.2079378 L14.7377455,26.2452711 C14.5309273,26.2888267 14.3182,26.3199378 14.1113818,26.3448267 L13.8868364,26.3448267 C13.6156091,26.3746933 13.3437909,26.3896267 13.0713818,26.3884541 C8.17629091,26.3884541 4.20774545,22.2095378 4.20774545,17.0550489 L4.20774545,12.4070489 C4.6007,12.4468711 4.99660909,12.4468711 5.38956364,12.4070489 C5.78429091,12.3728267 6.17606364,12.3025156 6.55956364,12.1954933 C6.78588182,12.13576 7.00688182,12.0567378 7.22138182,11.9590489 L7.37501818,11.8906044 C7.52274545,11.82216 7.67047273,11.7537156 7.80638182,11.6790489 C7.94229091,11.6043822 8.12547273,11.48616 8.26138182,11.3928267 C8.43392727,11.2839378 8.59938182,11.1632267 8.75774545,11.0319378 C9.21806364,11.6616267 9.74574545,12.2334489 10.3295636,12.7368267 C13.6203364,15.6170933 18.2501091,16.08376 22.0000182,13.9128267 L22.0000182,17.1048267 C22.0000182,17.3972711 22.0000182,17.6834933 21.9580636,17.9634933 L21.9580636,18.1314933 C21.9291091,18.4114933 21.8877455,18.6914933 21.8339727,18.9652711 L21.8339727,19.0399378 C21.7813818,19.3074933 21.7163818,19.5688267 21.6454727,19.83016 C21.6425182,19.8550489 21.6425182,19.8799378 21.6454727,19.9048267 C20.9340182,22.2244711 19.3935182,24.1614489 17.3495636,25.3057156 L17.3200182,25.3057156 Z M3.1382,19.7928267 C3.21797273,19.7922044 3.29715455,19.7816267 3.37456364,19.7617156 C4.52210909,24.4296267 8.52197273,27.6894489 13.1009273,27.6888267 C13.4082,27.6888267 13.6918364,27.6888267 14.0227455,27.6390489 L14.2762455,27.6390489 C14.5132,27.6079378 14.7495636,27.5706044 14.9859273,27.5208267 L15.1927455,27.4834933 C15.7996091,27.3478489 16.3922909,27.1543378 16.9654727,26.9048267 L17.0954727,26.8426044 C17.3495636,26.7306044 17.5971545,26.5999378 17.8453364,26.4630489 L17.9286545,26.4194933 C18.2063818,26.2577156 18.4835182,26.0834933 18.7500182,25.8968267 C20.0068818,24.9902489 21.0516091,23.7943378 21.8050182,22.3999378 C21.8304273,22.3706933 21.8540636,22.33896 21.8759273,22.3066044 C22.0532,21.9656267 22.2127455,21.6140711 22.3545636,21.2550489 C22.4721545,20.9482933 22.5791091,20.6371822 22.6730636,20.3217156 L22.7091091,20.2159378 C22.7439727,20.0790489 22.7859273,19.9483822 22.8154727,19.8114933 C22.8934727,19.8214489 22.9732455,19.8214489 23.0518364,19.8114933 C24.5994273,19.8083822 25.8527455,18.48616 25.8527455,16.8559378 L25.8527455,15.79816 C25.8497909,14.3241156 24.8115636,13.0796711 23.4241091,12.88616 L23.5954727,12.7430489 C23.6551545,12.69016 23.7036091,12.6248267 23.7372909,12.55016 C23.7396545,12.5271378 23.7396545,12.5047378 23.7372909,12.4817156 C23.7562,12.4356711 23.7703818,12.38776 23.7780636,12.3386044 L23.7780636,12.2826044 C23.8070182,11.97896 23.8212,11.6734489 23.8200182,11.3679378 C23.8200182,11.0506044 23.8200182,10.7457156 23.7780636,10.4097156 L23.7780636,6.95638222 C23.7757,3.12598222 20.8335636,0.0167377778 17.1959273,-0.000103355065 L13.0595636,-0.000103355065 C11.5326545,-0.00441777778 10.0234727,0.337182222 8.63365455,1.00171556 C5.13488182,1.10313778 2.34815455,4.11718222 2.34638182,7.80260444 L2.34638182,11.3368267 C2.34047273,11.4177156 2.34047273,11.4986044 2.34638182,11.5794933 C2.37356364,11.8134489 2.52483636,12.0113156 2.73638182,12.0897156 L3.03183636,12.1830489 L3.03183636,12.8488267 C1.52383636,12.9023378 0.327836364,14.2034044 0.325472727,15.7919378 L0.325472727,16.8372711 C0.325472727,18.4699822 1.58174545,19.7928267 3.13229091,19.7928267 L3.1382,19.7928267 Z" id="Fill-14" fill="#2F5472" mask="url(#mask-4)"></path>
                    </g>
                    <path d="M10.0423045,30.8157379 L11.2558311,30.8157379 L13.3370292,35.4096694 C13.5135974,35.8050038 13.8849365,36.0771012 14.3139182,36.1234675 L14.4534737,36.1234675 C14.8248129,36.1234675 15.1755221,35.9526441 15.4060921,35.6598038 C15.5608168,35.8922458 15.7313173,36.1149264 15.9157733,36.3247952 L14.7022467,50.6617661 C14.6882911,50.8228283 14.7380457,50.9826703 14.8418023,51.1071274 L17.111097,53.7853956 C17.1450758,53.8738577 17.1990777,53.9531686 17.2688555,54.0172274 C17.3762526,54.1124005 17.5133811,54.166698 17.657184,54.1697484 L17.7057251,54.1697484 C17.8483145,54.1685282 17.985443,54.1166711 18.0940536,54.0233283 C18.167472,53.9610997 18.223901,53.8811787 18.2578797,53.7914964 L20.5271745,51.119329 C20.6303242,50.995482 20.6806856,50.83503 20.66673,50.6733577 L19.477474,36.3736019 C19.6716382,36.1612927 19.8500266,35.9349516 20.0114257,35.6964088 C20.2407822,35.9697264 20.5775358,36.1283482 20.9337059,36.1295684 L21.0732615,36.1295684 C21.5040634,36.0850323 21.8784364,35.8129348 22.056218,35.4157702 L24.1368094,30.8157379 L25.9570994,30.8157379 C30.8834107,30.8724757 34.8328331,34.9289233 34.7861123,39.8815842 L34.7861123,54.7249247 L30.4350126,54.7249247 L30.4350126,38.5448904 C30.4350126,38.2087342 30.1637894,37.9348065 29.8282493,37.9348065 C29.4939227,37.9348065 29.221486,38.2087342 29.221486,38.5448904 L29.221486,54.7798323 L6.77185022,54.7798323 L6.77185022,38.5448904 C6.77185022,38.2087342 6.50002026,37.9348065 6.16508691,37.9348065 C5.83015357,37.9348065 5.5583236,38.2087342 5.5583236,38.5448904 L5.5583236,54.7249247 L1.2138983,54.7249247 L1.2138983,39.8815842 C1.16657076,34.9289233 5.11659991,30.8724757 10.0423045,30.8157379 L10.0423045,30.8157379 Z M12.8394833,29.2295198 L16.8016478,31.7918721 L14.4413385,34.9094006 L12.3115993,30.1934523 L12.8394833,29.2295198 Z M18.3549618,35.7330139 L18.3549618,35.7330139 C18.1820343,35.9050575 17.954498,36.010602 17.7117927,36.031955 C17.2688555,36.031955 16.7349038,35.537787 16.1888168,34.6287621 L17.657184,32.6459895 L19.2044305,34.6470646 C18.9805348,35.0521603 18.6941425,35.4188207 18.3549618,35.7330139 L18.3549618,35.7330139 Z M19.4343938,50.5092452 L17.657184,52.5896312 L15.921841,50.5092452 L17.0504207,37.1423076 C17.2451917,37.2136874 17.449671,37.2527328 17.657184,37.2582235 C17.8634835,37.2557832 18.0685695,37.2210084 18.2639473,37.1545093 L19.4343938,50.5092452 Z M22.5112905,29.2356207 L23.0209717,30.205654 L20.8973001,34.9032998 L21.4494547,35.1534342 L20.8730296,34.9032998 L20.502904,34.4091319 C20.4604305,34.2852848 20.379731,34.1779101 20.2717271,34.1040899 L18.5369908,31.7918721 L22.5112905,29.2356207 Z M25.9570994,29.5955701 L24.1368094,29.5955701 L23.6331959,28.6499401 C23.4736171,28.3467285 23.1938992,28.1246579 22.8632132,28.0398563 C22.5319205,27.9526143 22.179391,28.0099622 21.8923919,28.1984781 L17.657184,30.9072505 L13.4705172,28.2045789 C12.9104746,27.8336479 12.1580881,27.9898294 11.789176,28.5529368 C11.7679393,28.5858813 11.7473094,28.6206561 11.7291065,28.656041 L11.2315606,29.5955701 L10.0180339,29.5955701 C4.43156413,29.6657298 -0.0469558643,34.2639319 0.000371673942,39.8815842 L0.000371673942,55.3899161 C0.000371673942,55.7272925 0.271594874,56 0.607134985,56 L35.3928756,56 C35.727809,56 35.9996389,55.7272925 35.9996389,55.3899161 L35.9996389,39.8815842 C36.0463597,34.2547806 31.5532774,29.6523079 25.9570994,29.5955701 L25.9570994,29.5955701 Z" id="Fill-17" fill="#2F5472"></path>
                </g>
            </g>
        </g>
    </g>
</svg>