<?xml version="1.0" encoding="UTF-8"?>
<svg width="42px" height="45px" viewBox="0 0 42 45" version="1.1" xmlns="http://www.w3.org/2000/svg" xmlns:xlink="http://www.w3.org/1999/xlink">
    <!-- Generator: Sketch 56.1 (81669) - https://sketch.com -->
    <title>Group 8</title>
    <desc>Created with Sketch.</desc>
    <defs>
        <linearGradient x1="0%" y1="0%" x2="100%" y2="100%" id="linearGradient-1">
            <stop stop-color="#F2B47E" offset="0%"></stop>
            <stop stop-color="#FEC858" offset="100%"></stop>
        </linearGradient>
        <polygon id="path-2" points="0 0.000189473684 41.6305846 0.000189473684 41.6305846 45 0 45"></polygon>
        <linearGradient x1="7.2068902%" y1="0%" x2="92.7931098%" y2="100%" id="linearGradient-4">
            <stop stop-color="#F2B47E" offset="0%"></stop>
            <stop stop-color="#FEC858" offset="100%"></stop>
        </linearGradient>
    </defs>
    <g id="Landing-Pages-Mobile" stroke="none" stroke-width="1" fill="none" fill-rule="evenodd">
        <g id="Landing-Page-" transform="translate(-22.000000, -2207.000000)">
            <g id="Group-8" transform="translate(22.000000, 2207.000000)">
                <path d="M29.1806934,27.1838811 C29.0911178,27.3125267 29.001092,27.3548387 28.8660534,27.3548387 C28.8205904,27.3548387 28.7305646,27.3125267 28.6855517,27.3125267 L21.9786325,23.679251 C21.7085552,23.8502086 21.3934651,24.0215936 20.9883491,24.0215936 C20.1781173,24.0215936 19.5483871,23.4228147 19.5483871,22.6535056 C19.5483871,22.0124148 19.9985159,21.4995421 20.6282461,21.3713239 L20.6282461,14.1483667 C20.6282461,13.9778366 20.7632847,13.8064516 20.9883491,13.8064516 C21.2134136,13.8064516 21.3489023,13.9778366 21.3489023,14.1483667 L21.3489023,21.2858451 C21.9786325,21.4140633 22.4287613,21.926936 22.4287613,22.5680269 C22.4287613,22.7394118 22.3837484,22.909942 22.3391857,23.0381602 L29.0456548,26.7137478 C29.2261564,26.799654 29.2707192,27.013351 29.1806934,27.1838811 L29.1806934,27.1838811 Z M33.7586529,15.1979482 C32.5082398,13.1724881 30.7841267,11.4047903 28.7151909,10.1552034 L27.3794342,12.482392 C27.2932285,12.6117042 27.2065919,12.6548083 27.0777144,12.6548083 C27.0341805,12.6548083 26.9484059,12.6117042 26.9048721,12.6117042 C26.7328918,12.5259271 26.6893579,12.3104068 26.7755636,12.1375594 L28.1117513,9.8099398 C26.0428155,8.64656101 23.7583655,8 21.2588325,8 L21.2588325,10.7151252 C21.2588325,10.8875415 21.129093,11.0599578 20.9135788,11.0599578 C20.6980647,11.0599578 20.5687562,10.9306456 20.5687562,10.7151252 L20.5687562,8 C18.0687921,8.04267303 15.7843422,8.68923404 13.7158374,9.8099398 L15.0515941,12.1375594 C15.1377997,12.3104068 15.0946969,12.5259271 14.9222856,12.6117042 C14.8791828,12.6548083 14.7934081,12.6548083 14.7498743,12.6548083 C14.6205658,12.6548083 14.5343601,12.6117042 14.4481545,12.482392 L13.1981724,10.1552034 C11.1296677,11.4047903 9.40555452,13.128953 8.15514145,15.1979482 L10.4831252,16.5341743 C10.6551055,16.6634865 10.6986394,16.8363339 10.6120027,17.0083191 C10.5688999,17.1376313 10.4395914,17.1807354 10.3102829,17.1807354 C10.2676111,17.1807354 10.1809744,17.1376313 10.1378716,17.1376313 L7.81031882,15.8014052 C6.64654243,17.8704004 6,20.154916 6,22.655383 L8.71547823,22.655383 C8.88788954,22.655383 9.06030086,22.7842641 9.06030086,22.9997845 C9.06030086,23.1722008 8.93099237,23.344617 8.71547823,23.344617 L6,23.344617 C6.04310283,25.8446529 6.68964526,28.1295996 7.81031882,30.1985948 L10.1378716,28.8619377 C10.3102829,28.7761606 10.525797,28.8188336 10.6120027,28.9916809 C10.7413112,29.1636661 10.6551055,29.3365135 10.4831252,29.4653946 L8.15514145,30.8016207 C9.40555452,32.871047 11.1296677,34.5952097 13.1981724,35.8447966 L14.5343601,33.517608 C14.6636686,33.3447607 14.8360799,33.3020877 15.0089223,33.3878648 C15.1809026,33.4740729 15.2244364,33.6895932 15.1377997,33.8624406 L13.801612,36.1896292 C15.8709789,37.353439 18.1549978,38 20.6549619,38 L20.6549619,35.2844437 C20.6549619,35.1120275 20.7842703,34.9400422 20.9997845,34.9400422 C21.2152986,34.9400422 21.3446071,35.0689234 21.3446071,35.2844437 L21.3446071,38 C23.8450022,37.957327 26.1290211,37.310766 28.1979569,36.1896292 L26.8622003,33.8624406 C26.7755636,33.6895932 26.8186664,33.4740729 26.9910777,33.3878648 C27.1639201,33.2585526 27.3359003,33.3447607 27.4652088,33.517608 L28.8018276,35.8447966 C30.8703323,34.5952097 32.5944455,32.871047 33.8448586,30.8016207 L31.5168748,29.4653946 C31.3444634,29.3365135 31.3013606,29.1636661 31.3879973,28.9916809 C31.474203,28.8188336 31.6897171,28.7761606 31.8616974,28.8619377 L34.1896812,30.1985948 C35.3534576,28.1295996 36,25.8446529 36,23.344617 L33.2840907,23.344617 C33.1121105,23.344617 32.9392681,23.2153048 32.9392681,22.9997845 C32.9392681,22.8273682 33.0685766,22.655383 33.2840907,22.655383 L36,22.655383 C35.9564661,20.154916 35.3099237,17.8704004 34.1896812,15.8014052 L31.8616974,17.1376313 C31.7323889,17.1376313 31.6461832,17.1807354 31.6035114,17.1807354 C31.474203,17.1807354 31.3444634,17.0945272 31.3013606,17.0083191 C31.1724832,16.8363339 31.2586888,16.6634865 31.4306691,16.5341743 L33.7586529,15.1979482 Z" id="Fill-1" fill="url(#linearGradient-1)"></path>
                <path d="M21,40 C11.6126374,40 4,32.3873626 4,23 C4,13.6126374 11.6126374,6 21,6 C30.3873626,6 38,13.6126374 38,23 C38,32.3873626 30.3873626,40 21,40 M21,5 C11.0526316,5 3,13.0525256 3,22.9997632 C3,32.9474744 11.0526316,41 21,41 C30.9473684,41 39,32.9474744 39,22.9997632 C39,13.0525256 30.9473684,5 21,5" id="Fill-3" fill="url(#linearGradient-1)"></path>
                <g id="Group-7">
                    <mask id="mask-3" fill="white">
                        <use xlink:href="#path-2"></use>
                    </mask>
                    <g id="Clip-6"></g>
                    <path d="M40.9382769,38.5580842 C40.9382769,41.6844 38.4464308,44.2896632 35.3536615,44.2896632 L6.27673846,44.2896632 C3.18443077,44.2896632 0.692123077,41.7312947 0.692123077,38.5580842 L0.692123077,8.71597895 C0.692123077,5.58918947 3.18443077,2.98392632 6.27673846,2.98392632 L35.3536615,2.98392632 C38.4464308,2.98392632 40.9382769,5.54229474 40.9382769,8.71597895 L40.9382769,38.5580842 Z M35.3536615,2.2734 L24.0921231,2.2734 C24.6925846,2.2734 25.1541231,1.75282105 25.1541231,1.13703158 C25.1541231,0.521242105 24.6925846,0.000189473684 24.0921231,0.000189473684 L17.5382769,0.000189473684 C16.9382769,0.000189473684 16.4767385,0.521242105 16.4767385,1.13703158 C16.4767385,1.75282105 16.9382769,2.2734 17.5382769,2.2734 L6.27673846,2.2734 C2.8152,2.2734 -0.000184615385,5.16334737 -0.000184615385,8.71597895 L-0.000184615385,38.5580842 C-0.000184615385,42.1107158 2.8152,45.0001895 6.27673846,45.0001895 L35.3536615,45.0001895 C38.8152,45.0001895 41.6305846,42.1107158 41.6305846,38.5580842 L41.6305846,8.71597895 C41.6305846,5.16334737 38.8152,2.2734 35.3536615,2.2734 L35.3536615,2.2734 Z" id="Fill-5" fill="url(#linearGradient-4)" mask="url(#mask-3)"></path>
                </g>
            </g>
        </g>
    </g>
</svg>