<?xml version="1.0" encoding="UTF-8"?>
<svg width="96px" height="62px" viewBox="0 0 96 62" version="1.1" xmlns="http://www.w3.org/2000/svg" xmlns:xlink="http://www.w3.org/1999/xlink">
    <!-- Generator: Sketch 55.2 (78181) - https://sketchapp.com -->
    <title>Group 6</title>
    <desc>Created with Sketch.</desc>
    <g id="Landing-Pages-Mobile" stroke="none" stroke-width="1" fill="none" fill-rule="evenodd">
        <g id="1.-What-we-do" transform="translate(-404.000000, -2658.000000)">
            <g id="Group-6" transform="translate(404.000000, 2658.000000)">
                <path d="M64.5,27.5301515 L71.4150758,20.6150758 C72.2351768,19.7949747 73.5648232,19.7949747 74.3849242,20.6150758 C75.2050253,21.4351768 75.2050253,22.7648232 74.3849242,23.5849242 L67.4698485,30.5 L74.3849242,37.4150758 C75.2050253,38.2351768 75.2050253,39.5648232 74.3849242,40.3849242 C73.5648232,41.2050253 72.2351768,41.2050253 71.4150758,40.3849242 L64.5,33.4698485 L57.5849242,40.3849242 C56.7648232,41.2050253 55.4351768,41.2050253 54.6150758,40.3849242 C53.7949747,39.5648232 53.7949747,38.2351768 54.6150758,37.4150758 L61.5301515,30.5 L54.6150758,23.5849242 C53.7949747,22.7648232 53.7949747,21.4351768 54.6150758,20.6150758 C55.4351768,19.7949747 56.7648232,19.7949747 57.5849242,20.6150758 L64.5,27.5301515 Z M65,62 C47.8791728,62 34,48.1208272 34,31 C34,13.8791728 47.8791728,0 65,0 C82.1208272,0 96,13.8791728 96,31 C96,48.1208272 82.1208272,62 65,62 Z M65,56 C78.8071187,56 90,44.8071187 90,31 C90,17.1928813 78.8071187,6 65,6 C51.1928813,6 40,17.1928813 40,31 C40,44.8071187 51.1928813,56 65,56 Z" id="Oval-2-Copy" fill-opacity="0.5" fill="#F4B779"></path>
                <g id="Group-7" transform="translate(0.000000, 5.000000)">
                    <path d="M52.7598,56.75 L4.7498,56.75 L4.7498,13.439 L64.7498,13.439 L64.7498,44.76 C64.7498,51.382 59.3818,56.75 52.7598,56.75" id="Fill-1" fill="#F4B779"></path>
                    <text id="WELCOME-HOME" font-family="OpenSans-ExtraBold, Open Sans" font-size="6" font-weight="600" fill="#2F5472">
                        <tspan x="7.10595703" y="27">WELCOME</tspan>
                        <tspan x="13.2641602" y="35">HOME</tspan>
                    </text>
                    <path d="M64.75,13.439 L44.891,13.439 L44.891,13.205 C44.891,8.536 48.676,4.75 53.346,4.75 L56.295,4.75 C60.965,4.75 64.75,8.536 64.75,13.205 L64.75,13.439 Z" id="Fill-3" fill="#F4B779"></path>
                    <path d="M49.75,32 C52.839,32 55.682,33.431 57.55,35.925 L58,36.526 L58,9.75 C58,5.201 54.299,1.5 49.75,1.5 C45.201,1.5 41.5,5.201 41.5,9.75 L41.5,35.892 L41.934,35.423 C43.915,33.279 46.837,32 49.75,32 L49.75,32 Z M1.5,45 L50.589,45 C52.016,44.587 53,43.225 53,41.75 C53,39.958 51.542,38.5 49.75,38.5 C47.958,38.5 46.5,39.958 46.5,41.75 C46.485,41.847 46.472,41.892 46.459,41.939 C46.439,42.005 46.43,42.046 46.409,42.084 C46.369,42.178 46.336,42.215 46.294,42.259 C46.221,42.339 46.151,42.385 46.065,42.425 C45.908,42.482 45.826,42.5 45.752,42.5 C45.675,42.5 45.593,42.482 45.492,42.445 L45.366,42.392 L40.363,39.392 L40.254,39.3 C40.16,39.195 40.139,39.164 40.118,39.129 L40.05,38.98 C40.036,38.941 40.028,38.903 40.022,38.862 L40.021,38.827 L39.992,38.69 L40,10.5 L1.5,10.5 L1.5,45 Z M1.5,50 L49.75,50 C54.299,50 58,46.299 58,41.75 C58,37.201 54.299,33.5 49.75,33.5 C46.399,33.5 43.207,35.405 41.806,38.241 L41.703,38.447 L45.172,40.529 L45.271,40.235 C45.929,38.301 47.729,37 49.75,37 C52.369,37 54.5,39.131 54.5,41.75 C54.5,43.875 53.061,45.842 51.078,46.425 L50.971,46.463 C50.876,46.492 50.814,46.5 50.751,46.5 L1.5,46.5 L1.5,50 Z M0.75,51.5 C0.336,51.5 0,51.163 0,50.75 L0,9.75 C0,9.336 0.336,9 0.75,9 L40.027,9 L40.05,8.775 C40.548,3.772 44.719,0 49.75,0 C54.55,0 58.692,3.585 59.386,8.34 C59.472,8.538 59.5,8.644 59.5,8.75 L59.5,41.75 C59.5,47.126 55.126,51.5 49.75,51.5 L0.75,51.5 Z" id="Fill-5" fill="#2F5472"></path>
                </g>
            </g>
        </g>
    </g>
</svg>