<?xml version="1.0" encoding="UTF-8"?>
<svg width="89px" height="67px" viewBox="0 0 89 67" version="1.1" xmlns="http://www.w3.org/2000/svg" xmlns:xlink="http://www.w3.org/1999/xlink">
    <!-- Generator: Sketch 55.2 (78181) - https://sketchapp.com -->
    <title>Group 20</title>
    <desc>Created with Sketch.</desc>
    <defs>
        <polygon id="path-1" points="0 0.769632764 78.6638298 0.769632764 78.6638298 50 0 50"></polygon>
    </defs>
    <g id="Landing-Pages-Mobile" stroke="none" stroke-width="1" fill="none" fill-rule="evenodd">
        <g id="1.-What-we-do" transform="translate(-130.000000, -3036.000000)">
            <g id="Group-20" transform="translate(130.000000, 3036.000000)">
                <path d="M57.5,27.5301515 L64.4150758,20.6150758 C65.2351768,19.7949747 66.5648232,19.7949747 67.3849242,20.6150758 C68.2050253,21.4351768 68.2050253,22.7648232 67.3849242,23.5849242 L60.4698485,30.5 L67.3849242,37.4150758 C68.2050253,38.2351768 68.2050253,39.5648232 67.3849242,40.3849242 C66.5648232,41.2050253 65.2351768,41.2050253 64.4150758,40.3849242 L57.5,33.4698485 L50.5849242,40.3849242 C49.7648232,41.2050253 48.4351768,41.2050253 47.6150758,40.3849242 C46.7949747,39.5648232 46.7949747,38.2351768 47.6150758,37.4150758 L54.5301515,30.5 L47.6150758,23.5849242 C46.7949747,22.7648232 46.7949747,21.4351768 47.6150758,20.6150758 C48.4351768,19.7949747 49.7648232,19.7949747 50.5849242,20.6150758 L57.5,27.5301515 Z M58,62 C40.8791728,62 27,48.1208272 27,31 C27,13.8791728 40.8791728,0 58,0 C75.1208272,0 89,13.8791728 89,31 C89,48.1208272 75.1208272,62 58,62 Z M58,56 C71.8071187,56 83,44.8071187 83,31 C83,17.1928813 71.8071187,6 58,6 C44.1928813,6 33,17.1928813 33,31 C33,44.8071187 44.1928813,56 58,56 Z" id="Oval-2-Copy-5" fill-opacity="0.5" fill="#F4B779"></path>
                <g id="Group-10" transform="translate(0.000000, 15.000000)">
                    <path d="M13.0286209,37.4959898 L16.9673835,29.3188873 C16.9673835,29.3188873 18.6035893,28.2791754 20.2024929,29.9545006 C21.8005488,31.6298259 22.994216,30.681878 24.0090027,30.2079041 C25.0229416,29.7339302 27.7086928,29.5562952 28.3648706,31.3334869 C29.0210485,33.1115206 27.8935077,34.7817946 29.7374183,34.1108226 C31.5813289,33.4398506 33.4065885,33.5173029 33.8347149,35.3635281 C34.2628413,37.2089115 33.0200031,41.2802044 33.0200031,41.2802044 C33.0200031,41.2802044 34.3272722,39.0559786 35.8244428,41.1556073 C37.3207657,43.2543942 37.3758711,46.931691 36.0626676,48.1995502 C34.7503119,49.4674094 33.3184199,50.6527651 32.0052164,49.5852715 C30.692013,48.5194615 29.4983458,47.6893758 29.4390015,47.8670108 C29.3796573,48.0446457 28.2004023,49.5263404 27.1712034,48.7560276 C26.1420046,47.9857147 24.2845295,48.2222807 24.4150869,46.50402 C24.5456442,44.7857593 23.2926328,45.0332697 22.6364549,45.2950919 C21.9794293,45.5560722 19.8311675,45.0820982 19.1749896,43.8369696 C18.5188118,42.5935247 18.1602029,40.8744221 18.1602029,40.8744221 C15.8330606,40.5780831 13.9238713,40.0216058 13.3863819,39.4996451 C12.8497404,38.9785264 13.0286209,37.4959898 13.0286209,37.4959898" id="Fill-3" fill="#B7D1DA"></path>
                    <path d="M12.6129309,7 L21.8012815,12.2642513 L28.9190534,10.2757188 L26.1386342,13.6677746 C26.1386342,13.6677746 28.6302333,17.1387735 31.7803084,16.2421472 C34.9303835,15.34469 36.3871143,13.1999335 36.3871143,13.1999335 L40.0626229,13.6677746 C40.0626229,13.6677746 43.7979164,26.1856407 52.8363837,24.4314442 C56.2651743,27.3614758 63.5336715,34.4837959 63.5336715,34.4837959 C63.5336715,34.4837959 68.4756097,40.5765332 60.2143462,41.4365963 C60.4518017,44.1738408 57.7850581,45.6837294 57.7850581,45.6837294 C57.7850581,45.6837294 55.0972635,46.3069636 54.0901826,45.4294499 C54.0101887,46.8919727 55.1957823,52.6240651 48.0039108,48.8805052 C46.8587352,50.8308127 46.4629759,52 46.4629759,52 C46.4629759,52 39.7855914,50.7518697 37.9280492,49.4854579 C36.0713489,48.2182151 35.557704,47.0673093 35.7353746,44.3765996 C35.9130452,41.68589 36.0907159,42.2991524 34.7872365,41.4365963 C33.4829151,40.5748712 31.5268541,40.8673758 31.5268541,40.8673758 C31.5268541,40.8673758 32.7713906,38.7616753 32.7713906,37.3573209 C32.7713906,35.9537976 32.3571064,33.8480971 31.0527851,33.730929 C29.7493057,33.613761 26.9629923,35.0023267 26.9040494,34.4837959 C26.8442645,33.9652651 26.4889233,31.2163869 26.4889233,31.2163869 C26.4889233,31.2163869 24.1775209,29.1447565 22.6955289,30.0929034 C21.2135369,31.0402194 20.2653988,31.684228 20.2653988,31.684228 C20.2653988,31.684228 18.3093378,29.6566395 17.1237442,29.5004155 C15.9389926,29.3441915 13.2714069,33.7899285 13.2714069,33.7899285 L0,25.0222702 L12.6129309,7 Z" id="Fill-5" fill="#F4B779"></path>
                    <g id="Group-9">
                        <mask id="mask-2" fill="white">
                            <use xlink:href="#path-1"></use>
                        </mask>
                        <g id="Clip-8"></g>
                        <path d="M33.9531915,45.1668333 C33.6170213,46.0835 32.6085106,46.5001667 31.6840426,46.1668333 L31.1797872,46.0001667 C30.2553191,45.6668333 29.8351064,44.666 30.1712766,43.7501667 L31.6840426,39.666 C32.0202128,38.8326667 32.7765957,38.3335 33.5329787,38.3335 C33.7851064,38.3335 34.037234,38.3335 34.2053191,38.5001667 C34.7095745,38.6668333 35.1297872,39.0835 35.2978723,39.5001667 C35.4659574,39.9168333 35.55,40.4993333 35.3819149,41.0001667 L33.9531915,45.1668333 Z M25.212766,45.0001667 L24.7925532,44.8335 C24.2882979,44.5835 23.8680851,44.1668333 23.6159574,43.6668333 C23.3638298,43.1668333 23.3638298,42.5826667 23.6159574,42.0001667 L27.65,32.6668333 C28.1542553,31.5001667 29.5829787,30.9168333 30.7595745,31.4168333 C31.3478723,31.6668333 31.7680851,32.0835 32.0202128,32.6668333 C32.2723404,33.2501667 32.2723404,33.9168333 32.0202128,34.5001667 L28.0702128,43.9168333 C27.5659574,44.9168333 26.3053191,45.4993333 25.212766,45.0001667 L25.212766,45.0001667 Z M19.75,41.3326667 L19.1617021,41.0835 C18.1531915,40.6668333 17.6489362,39.5001667 18.0691489,38.416 L22.0191489,29.0835 C22.5234043,27.9168333 23.9521277,27.3335 25.1287234,27.8335 C25.7170213,28.0835 26.137234,28.5001667 26.3893617,29.0835 C26.6414894,29.6668333 26.6414894,30.3335 26.3893617,30.9168333 L22.4393617,40.2501667 C22.187234,40.7501667 21.8510638,41.1668333 21.3468085,41.3326667 C20.8425532,41.5835 20.2542553,41.5835 19.75,41.3326667 L19.75,41.3326667 Z M14.7914894,37.0001667 L14.1191489,36.7493333 C13.2787234,36.4168333 12.8585106,35.4168333 13.1946809,34.5001667 L15.8840426,28.0835 C16.2202128,27.3335 16.9765957,26.8335 17.8170213,26.8335 C18.0691489,26.8335 18.3212766,26.9168333 18.6574468,27.0001667 C19.75,27.4168333 20.2542553,28.6668333 19.75,29.6668333 L17.0606383,36.0835 C16.7244681,37.0001667 15.7159574,37.4168333 14.7914894,37.0001667 L14.7914894,37.0001667 Z M64.9648936,31.3335 L78.6638298,24.5835 L77.9074468,23.0835 L63.6202128,30.0835 L52.9468085,20.9168333 L52.6946809,20.9168333 C43.1978723,19.9168333 41.6010638,10.5835 41.6010638,10.1668333 L41.5170213,9.50016667 L36.6425532,9.00016667 L33.6170213,11.2501667 C32.1882979,12.0835 30.3393617,12.1668333 28.8265957,11.4168333 L27.7340426,10.9168333 C27.5659574,10.8335 27.5659574,10.7501667 27.5659574,10.6668333 C27.5659574,10.5835 27.5659574,10.5001667 27.65,10.3335 L33.1968085,4.00016667 C33.4489362,3.66683333 33.8691489,3.50016667 34.2893617,3.41683333 L40.7606383,2.41683333 C41.4329787,2.3335 42.1893617,2.41683333 42.7776596,2.75016667 L55.7202128,8.91683333 L70.8478723,3.25016667 L70.2595745,1.66683333 L55.8882979,7.0835 L43.5340426,1.25016667 C42.6095745,0.8335 41.5170213,0.666833333 40.5085106,0.8335 L34.037234,1.8335 C33.1968085,2.00016667 32.4404255,2.3335 31.9361702,3.00016667 L29.3308511,5.91683333 L29.3308511,5.8335 L22.4393617,7.75016667 L13.362766,2.16683333 L12.5223404,3.5835 L22.2712766,9.50016667 L27.5659574,8.0835 L26.4734043,9.3335 C25.9691489,9.75016667 25.8010638,10.4168333 25.9691489,11.0001667 C26.137234,11.6668333 26.4734043,12.1668333 27.0617021,12.4168333 L28.1542553,12.9168333 C30.1712766,13.9168333 32.6085106,13.8335 34.5414894,12.6668333 L37.1468085,10.6668333 L40.0882979,11.0001667 C40.6765957,13.3335 43.1978723,21.4168333 52.2744681,22.5001667 L62.9478723,31.6668333 L63.8723404,32.6668333 C64.7968085,33.6668333 64.8808511,35.2501667 64.0404255,36.2501667 C63.6202128,36.7493333 62.8638298,37.0835 62.0234043,37.0835 C61.1829787,37.166 60.3425532,36.9168333 59.8382979,36.5001667 L58.9138298,35.7501667 L50.7617021,28.1668333 L49.5851064,29.4168333 L57.737234,37.0001667 L57.8212766,36.9168333 L57.9053191,36.9168333 C58.9138298,37.8335 60.0904255,39.8335 58.9138298,41.3326667 C58.493617,41.8335 57.6531915,42.2501667 56.812766,42.2501667 C56.056383,42.3335 55.3,42.0835 54.8797872,41.5835 L54.0393617,40.7501667 L53.5351064,41.2501667 L54.0393617,40.6668333 L45.887234,32.9993333 L44.7106383,34.2493333 L52.862766,41.8335 C53.6191489,42.5826667 54.2074468,44.0835 53.787234,45.0001667 C53.7031915,45.2501667 53.4510638,45.4993333 53.1989362,45.7501667 C52.7787234,46.0835 52.3585106,46.3326667 51.9382979,46.4168333 C50.9297872,46.5835 49.9212766,45.916 48.912766,45.1668333 L48.6606383,45.0826667 L42.5255319,39.0001667 L41.3489362,40.1668333 L44.1223404,42.9168333 L46.643617,45.6668333 C47.2319149,46.3326667 46.9797872,47.2501667 46.4755319,47.8335 C45.887234,48.416 45.3829787,48.5001667 44.206383,48.1668333 C42.693617,47.7501667 41.3489362,46.8335 40.0042553,45.916 C39.6680851,45.6668333 39.2478723,45.4168333 38.9117021,45.1668333 L36.3904255,43.5835 L37.1468085,41.5835 C37.4829787,40.6668333 37.4829787,39.666 37.062766,38.7501667 C36.6425532,37.8335 35.8861702,37.166 34.9617021,36.8335 C34.2893617,36.5835 33.5329787,36.5835 32.8606383,36.6668333 L33.5329787,35.0001667 C33.9531915,34.0001667 33.9531915,32.9168333 33.5329787,31.9168333 C33.112766,30.9168333 32.356383,30.1668333 31.3478723,29.7501667 C30.3393617,29.3335 29.162766,29.3335 28.1542553,29.7501667 C28.1542553,29.2501667 28.0702128,28.8335 27.9021277,28.4168333 C27.4819149,27.4168333 26.7255319,26.6668333 25.7170213,26.2501667 C24.1202128,25.5835 22.3553191,26.0001667 21.1787234,27.2501667 C20.7585106,26.4168333 20.1702128,25.7501667 19.2457447,25.4168333 C17.312766,24.5835 15.1276596,25.5001667 14.287234,27.4168333 L13.5308511,29.1668333 L0.924468085,21.0835 L0,22.5001667 L12.9425532,30.7501667 L11.6819149,33.8326667 C10.9255319,35.5835 11.7659574,37.5001667 13.5308511,38.2501667 L14.2031915,38.5001667 C14.6234043,38.6668333 15.043617,38.7501667 15.5478723,38.7501667 C15.8,38.7501667 16.0521277,38.7501667 16.3042553,38.6668333 C16.0521277,40.2501667 16.9765957,41.9168333 18.5734043,42.5826667 L19.1617021,42.8335 C19.6659574,42.9993333 20.0861702,43.0835 20.5904255,43.0835 C21.0106383,43.0835 21.4308511,42.9993333 21.8510638,42.8335 C21.8510638,44.3335 22.7755319,45.6668333 24.2042553,46.2501667 L24.6244681,46.4168333 C25.1287234,46.5835 25.6329787,46.7493333 26.137234,46.7493333 C27.1457447,46.7493333 28.0702128,46.3326667 28.8265957,45.6668333 C29.162766,46.5001667 29.8351064,47.0835 30.7595745,47.4168333 L31.2638298,47.5826667 C31.6840426,47.7501667 32.0202128,47.8335 32.4404255,47.8335 C33.7851064,47.8335 35.1297872,47.0001667 35.6340426,45.6668333 L35.8021277,45.1668333 L37.987234,46.5835 C38.3234043,46.8335 38.743617,47.0835 39.0797872,47.3335 C40.5085106,48.3335 42.0212766,49.3335 43.7861702,49.7501667 C44.2904255,49.9168333 44.7946809,50.0001667 45.2989362,50.0001667 C46.1393617,50.0001667 46.9797872,49.7501667 47.7361702,48.9168333 C48.2404255,48.3335 48.5765957,47.6668333 48.6606383,47.0001667 C49.5851064,47.6668333 50.8457447,48.3335 52.2744681,47.9993333 C53.0308511,47.8335 53.7031915,47.5001667 54.2914894,46.9168333 C54.7957447,46.5001667 55.1319149,46.0835 55.3,45.5835 C55.5521277,45.0001667 55.6361702,44.2493333 55.5521277,43.5835 C55.9723404,43.6668333 56.3925532,43.7501667 56.8968085,43.6668333 C58.2414894,43.5835 59.4180851,42.9993333 60.1744681,42.0835 C61.0989362,41.0001667 61.1829787,39.666 60.8468085,38.416 C61.2670213,38.5001667 61.7712766,38.5001667 62.1914894,38.5001667 C63.4521277,38.416 64.6287234,37.9168333 65.3010638,37.0835 C66.7297872,35.4993333 66.6457447,32.8335 65.0489362,31.2501667 L64.9648936,31.3335 Z" id="Fill-7" fill="#2F5472" mask="url(#mask-2)"></path>
                    </g>
                </g>
            </g>
        </g>
    </g>
</svg>