<?xml version="1.0" encoding="UTF-8"?>
<svg width="92px" height="62px" viewBox="0 0 92 62" version="1.1" xmlns="http://www.w3.org/2000/svg" xmlns:xlink="http://www.w3.org/1999/xlink">
    <!-- Generator: Sketch 55.2 (78181) - https://sketchapp.com -->
    <title>Group 21</title>
    <desc>Created with Sketch.</desc>
    <defs>
        <polygon id="path-1" points="0.000373333333 0.18627451 55.8133333 0.18627451 55.8133333 38 0.000373333333 38"></polygon>
        <polygon id="path-3" points="0 42 60 42 60 0 0 0"></polygon>
    </defs>
    <g id="Landing-Pages-Mobile" stroke="none" stroke-width="1" fill="none" fill-rule="evenodd">
        <g id="1.-What-we-do" transform="translate(-403.000000, -3036.000000)">
            <g id="Group-21" transform="translate(403.000000, 3036.000000)">
                <path d="M60.5,27.5301515 L67.4150758,20.6150758 C68.2351768,19.7949747 69.5648232,19.7949747 70.3849242,20.6150758 C71.2050253,21.4351768 71.2050253,22.7648232 70.3849242,23.5849242 L63.4698485,30.5 L70.3849242,37.4150758 C71.2050253,38.2351768 71.2050253,39.5648232 70.3849242,40.3849242 C69.5648232,41.2050253 68.2351768,41.2050253 67.4150758,40.3849242 L60.5,33.4698485 L53.5849242,40.3849242 C52.7648232,41.2050253 51.4351768,41.2050253 50.6150758,40.3849242 C49.7949747,39.5648232 49.7949747,38.2351768 50.6150758,37.4150758 L57.5301515,30.5 L50.6150758,23.5849242 C49.7949747,22.7648232 49.7949747,21.4351768 50.6150758,20.6150758 C51.4351768,19.7949747 52.7648232,19.7949747 53.5849242,20.6150758 L60.5,27.5301515 Z M61,62 C43.8791728,62 30,48.1208272 30,31 C30,13.8791728 43.8791728,0 61,0 C78.1208272,0 92,13.8791728 92,31 C92,48.1208272 78.1208272,62 61,62 Z M61,56 C74.8071187,56 86,44.8071187 86,31 C86,17.1928813 74.8071187,6 61,6 C47.1928813,6 36,17.1928813 36,31 C36,44.8071187 47.1928813,56 61,56 Z" id="Oval-2-Copy-6" fill-opacity="0.5" fill="#F4B779"></path>
                <g id="Group-17" transform="translate(0.000000, 15.000000)">
                    <g id="Group-3" transform="translate(4.000000, 4.000000)">
                        <mask id="mask-2" fill="white">
                            <use xlink:href="#path-1"></use>
                        </mask>
                        <g id="Clip-2"></g>
                        <path d="M51.41136,38 L4.40197333,38 C1.98053333,38 0.000373333333,36.0232549 0.000373333333,33.606902 L0.000373333333,4.57937255 C0.000373333333,2.16301961 1.98053333,0.18627451 4.40197333,0.18627451 L51.41136,0.18627451 C53.8320533,0.18627451 55.8137067,2.16301961 55.8137067,4.57937255 L55.8137067,33.606902 C55.8137067,36.0232549 53.8320533,38 51.41136,38" id="Fill-1" fill="#F4B779" mask="url(#mask-2)"></path>
                    </g>
                    <path d="M15.443985,16 L8.55601496,16 C8.250443,16 8,15.749557 8,15.443985 L8,8.55601496 C8,8.250443 8.250443,8 8.55601496,8 L15.443985,8 C15.749557,8 16,8.250443 16,8.55601496 L16,15.443985 C16,15.749557 15.749557,16 15.443985,16" id="Fill-4" fill="#B7D1DA"></path>
                    <path d="M4.47625418,2.0591133 C3.16671572,2.0591133 2.06020067,3.16504433 2.06020067,4.47389163 L2.06020067,33.5261084 C2.06020067,34.8349557 3.16671572,35.9408867 4.47625418,35.9408867 L51.5237458,35.9408867 C52.8332843,35.9408867 53.9397993,34.8349557 53.9397993,33.5261084 L53.9397993,4.47389163 C53.9397993,3.16504433 52.8332843,2.0591133 51.5237458,2.0591133 L4.47625418,2.0591133 Z M4.47625418,38 C2.04971237,38 0,35.9513695 0,33.5261084 L0,4.47389163 C0,2.04863054 2.04971237,0 4.47625418,0 L51.5237458,0 C53.9502876,0 56,2.04863054 56,4.47389163 L56,33.5261084 C56,35.9513695 53.9502876,38 51.5237458,38 L4.47625418,38 Z" id="Fill-6" fill="#2F5472"></path>
                    <path d="M8.93457944,24 C8.41943925,24 8,23.5512 8,23 C8,22.4488 8.41943925,22 8.93457944,22 L47.0654206,22 C47.5805607,22 48,22.4488 48,23 C48,23.5512 47.5805607,24 47.0654206,24 L8.93457944,24 Z" id="Fill-8" fill="#2F5472"></path>
                    <path d="M8.91463415,31 C8.4104878,31 8,30.5512 8,30 C8,29.4488 8.4104878,29 8.91463415,29 L22.0853659,29 C22.5895122,29 23,29.4488 23,30 C23,30.5512 22.5895122,31 22.0853659,31 L8.91463415,31 Z" id="Fill-10" fill="#2F5472"></path>
                    <path d="M27.9782609,31 C27.4390435,31 27,30.5512 27,30 C27,29.4488 27.4390435,29 27.9782609,29 L35.0217391,29 C35.5609565,29 36,29.4488 36,30 C36,30.5512 35.5609565,31 35.0217391,31 L27.9782609,31 Z" id="Fill-12" fill="#2F5472"></path>
                    <mask id="mask-4" fill="white">
                        <use xlink:href="#path-3"></use>
                    </mask>
                    <g id="Clip-15"></g>
                    <path d="M9.8,15.2 L15.2,15.2 L15.2,9.8 L9.8,9.8 L9.8,15.2 Z M8.9,17 C8.40392,17 8,16.59608 8,16.1 L8,8.9 C8,8.40392 8.40392,8 8.9,8 L16.1,8 C16.59608,8 17,8.40392 17,8.9 L17,16.1 C17,16.59608 16.59608,17 16.1,17 L8.9,17 Z" id="Fill-14" fill="#2F5472" mask="url(#mask-4)"></path>
                    <path d="M39.9,10 C39.40392,10 39,9.5512 39,9 C39,8.4488 39.40392,8 39.9,8 L47.1,8 C47.59608,8 48,8.4488 48,9 C48,9.5512 47.59608,10 47.1,10 L39.9,10 Z" id="Fill-16" fill="#2F5472" mask="url(#mask-4)"></path>
                </g>
            </g>
        </g>
    </g>
</svg>