<?xml version="1.0" encoding="UTF-8"?>
<svg width="85px" height="62px" viewBox="0 0 85 62" version="1.1" xmlns="http://www.w3.org/2000/svg" xmlns:xlink="http://www.w3.org/1999/xlink">
    <!-- Generator: Sketch 55.2 (78181) - https://sketchapp.com -->
    <title>Group 15</title>
    <desc>Created with Sketch.</desc>
    <defs>
        <polygon id="path-1" points="0.0887062376 0.0515571429 34.7951852 0.0515571429 34.7951852 44.9994857 0.0887062376 44.9994857"></polygon>
        <polygon id="path-3" points="0 0.0103414634 41.8542469 0.0103414634 41.8542469 52.7401707 0 52.7401707"></polygon>
    </defs>
    <g id="Landing-Pages-Mobile" stroke="none" stroke-width="1" fill="none" fill-rule="evenodd">
        <g id="1.-What-we-do" transform="translate(-675.000000, -2866.000000)">
            <g id="Group-15" transform="translate(675.000000, 2866.000000)">
                <path d="M53.5,27.5301515 L60.4150758,20.6150758 C61.2351768,19.7949747 62.5648232,19.7949747 63.3849242,20.6150758 C64.2050253,21.4351768 64.2050253,22.7648232 63.3849242,23.5849242 L56.4698485,30.5 L63.3849242,37.4150758 C64.2050253,38.2351768 64.2050253,39.5648232 63.3849242,40.3849242 C62.5648232,41.2050253 61.2351768,41.2050253 60.4150758,40.3849242 L53.5,33.4698485 L46.5849242,40.3849242 C45.7648232,41.2050253 44.4351768,41.2050253 43.6150758,40.3849242 C42.7949747,39.5648232 42.7949747,38.2351768 43.6150758,37.4150758 L50.5301515,30.5 L43.6150758,23.5849242 C42.7949747,22.7648232 42.7949747,21.4351768 43.6150758,20.6150758 C44.4351768,19.7949747 45.7648232,19.7949747 46.5849242,20.6150758 L53.5,27.5301515 Z M54,62 C36.8791728,62 23,48.1208272 23,31 C23,13.8791728 36.8791728,0 54,0 C71.1208272,0 85,13.8791728 85,31 C85,48.1208272 71.1208272,62 54,62 Z M54,56 C67.8071187,56 79,44.8071187 79,31 C79,17.1928813 67.8071187,6 54,6 C40.1928813,6 29,17.1928813 29,31 C29,44.8071187 40.1928813,56 54,56 Z" id="Oval-2-Copy-4" fill-opacity="0.5" fill="#F4B779"></path>
                <g id="Group-17" transform="translate(0.000000, 5.000000)">
                    <g id="Group-3" transform="translate(9.000000, 10.000000)">
                        <mask id="mask-2" fill="white">
                            <use xlink:href="#path-1"></use>
                        </mask>
                        <g id="Clip-2"></g>
                        <path d="M0.408268519,44.0210571 L0.0887062376,1.04412857 C0.0848425926,0.497057143 0.530768519,0.0515571429 1.08363889,0.0515571429 L21.7446574,0.0515571429 C21.9715093,0.0515571429 22.1905833,0.128057143 22.3675278,0.2682 L33.9868796,9.53434286 C34.2176204,9.71884286 34.3543796,9.99527143 34.3582685,10.2897 L34.7952044,44.0011286 C34.80225,44.5501286 34.3550278,44.9994857 33.8008611,44.9994857 L1.40252778,44.9994857 C0.856138889,44.9994857 0.412805556,44.5629857 0.408268519,44.0210571" id="Fill-1" fill="#F4B779" mask="url(#mask-2)"></path>
                    </g>
                    <polygon id="Fill-4" fill="#B7D1DA" points="29 7 40 17 29 16.2587477"></polygon>
                    <path d="M5,31.2927266 L5,19.7072734 C5,19.3174872 5.44888889,19 6,19 C6.55111111,19 7,19.3174872 7,19.7072734 L7,31.2927266 C7,31.6825128 6.55111111,32 6,32 C5.44888889,32 5,31.6825128 5,31.2927266 Z" id="Fill-6" fill="#2F5472"></path>
                    <g id="Group-10">
                        <mask id="mask-4" fill="white">
                            <use xlink:href="#path-3"></use>
                        </mask>
                        <g id="Clip-9"></g>
                        <path d="M28.9313719,15.530939 L39.0271219,15.530939 L28.9313719,7.43809756 L28.9313719,15.530939 Z M5.98887188,36.3017683 C6.39574688,36.3017683 6.72715313,36.6281707 6.72715313,37.0289024 L6.72715313,51.2859024 L40.3658719,51.2859024 L40.3658719,16.9852073 L28.1930906,16.9852073 C27.7862156,16.9852073 27.4548094,16.6588049 27.4548094,16.2580732 L27.4548094,6.63534146 L6.72715313,6.63534146 L6.72715313,14.7436951 C6.72715313,15.1444268 6.39574688,15.4708293 5.98887188,15.4708293 C5.58199688,15.4708293 5.25059063,15.1444268 5.25059063,14.7436951 L5.25059063,5.90820732 C5.25059063,5.50747561 5.58199688,5.18107317 5.98887188,5.18107317 L28.1957156,5.18107317 L28.2633094,5.18882927 C28.3669969,5.20110976 28.4234344,5.21920732 28.4667469,5.2360122 C28.5829031,5.2890122 28.6308094,5.32068293 28.6596844,5.34395122 L35.1152156,10.5198537 L35.1152156,1.46460976 L1.47649688,1.46460976 L1.47649688,46.1151707 L5.25059063,46.1151707 L5.25059063,37.0289024 C5.25059063,36.6281707 5.58199688,36.3017683 5.98887188,36.3017683 L5.98887188,36.3017683 Z M5.98887188,52.7401707 C5.58199688,52.7401707 5.25059063,52.4137683 5.25059063,52.0130366 L5.25059063,47.569439 L0.738215625,47.569439 C0.331340625,47.569439 -6.5625e-05,47.2430366 -6.5625e-05,46.8423049 L-6.5625e-05,0.73747561 C-6.5625e-05,0.336743902 0.331340625,0.0103414634 0.738215625,0.0103414634 L35.8528406,0.0103414634 C36.2597156,0.0103414634 36.5911219,0.336743902 36.5911219,0.73747561 L36.5911219,11.7033049 L41.5700906,15.6944634 C41.7525281,15.843122 41.8542469,16.0447805 41.8542469,16.2580732 L41.8457156,16.3291707 L41.8424344,52.0130366 C41.8424344,52.4137683 41.5110281,52.7401707 41.1041531,52.7401707 L5.98887188,52.7401707 Z" id="Fill-8" fill="#2F5472" mask="url(#mask-4)"></path>
                    </g>
                    <path d="M11.7376042,25 C11.3311023,25 11,24.7755556 11,24.5 C11,24.2244444 11.3311023,24 11.7376042,24 L34.2623958,24 C34.6695533,24 35,24.2244444 35,24.5 C35,24.7755556 34.6695533,25 34.2623958,25 L11.7376042,25 Z" id="Fill-11" fill="#2F5472"></path>
                    <path d="M11.7376042,32 C11.3311023,32 11,31.7755556 11,31.5 C11,31.2244444 11.3311023,31 11.7376042,31 L34.2623958,31 C34.6695533,31 35,31.2244444 35,31.5 C35,31.7755556 34.6695533,32 34.2623958,32 L11.7376042,32 Z" id="Fill-13" fill="#2F5472"></path>
                    <path d="M11.7376042,38 C11.3311023,38 11,37.7755556 11,37.5 C11,37.2244444 11.3311023,37 11.7376042,37 L34.2623958,37 C34.6695533,37 35,37.2244444 35,37.5 C35,37.7755556 34.6695533,38 34.2623958,38 L11.7376042,38 Z" id="Fill-15" fill="#2F5472"></path>
                </g>
            </g>
        </g>
    </g>
</svg>