<svg xmlns="http://www.w3.org/2000/svg" xmlns:xlink="http://www.w3.org/1999/xlink" width="342" height="274" viewBox="0 0 342 274">
    <defs>
        <path id="a" d="M2.751 2.554V133.19l131.35-25.814V2.555H2.751zm-1.194 133.28a1.197 1.197 0 0 1-1.194-1.194V1.36C.363.701.897.167 1.557.167h133.739c.66 0 1.194.534 1.194 1.193v106.997c0 .57-.404 1.06-.964 1.171L1.788 135.811a1.199 1.199 0 0 1-.231.023z"/>
        <filter id="b" width="457.6%" height="1059.1%" x="-178.8%" y="-479.5%" filterUnits="objectBoundingBox">
            <feOffset dy="2" in="SourceAlpha" result="shadowOffsetOuter1"/>
            <feGaussianBlur in="shadowOffsetOuter1" result="shadowBlurOuter1" stdDeviation="26.5"/>
            <feColorMatrix in="shadowBlurOuter1" result="shadowMatrixOuter1" values="0 0 0 0 0.276042051 0 0 0 0 0.518455616 0 0 0 0 0.506334938 0 0 0 0.542613636 0"/>
            <feMerge>
                <feMergeNode in="shadowMatrixOuter1"/>
                <feMergeNode in="SourceGraphic"/>
            </feMerge>
        </filter>
        <path id="c" d="M.03 5c0-2.761 2.23-5 4.982-5 2.751 0 4.982 2.239 4.982 5s-2.23 5-4.982 5C2.26 10 .03 7.761.03 5z"/>
        <path id="d" d="M.016 5.256A5.39 5.39 0 0 0 1.462 8.96l3.213-3.39a.411.411 0 0 1 .604 0L8.513 8.98A5.388 5.388 0 0 0 9.98 5.256C9.98 2.353 7.75 0 4.998 0 2.246 0 .016 2.353.016 5.256"/>
        <linearGradient id="e" x1="0%" x2="0%" y1="0%" y2="100%">
            <stop offset="0%" stop-color="#2F5472"/>
            <stop offset="100%" stop-color="#FFF"/>
        </linearGradient>
        <path id="g" d="M0 .008h8.42v9.065H0z"/>
        <path id="i" d="M0 .008h8.42v9.065H0z"/>
        <path id="k" d="M.197.209h8.687v10.5H.197z"/>
    </defs>
    <g fill="none" fill-rule="evenodd">
        <path fill="#FFF" d="M199 189l134-26.425V55H199z"/>
        <g transform="translate(198.562 54)">
            <use fill="#2F5472" stroke="#979797" xlink:href="#a"/>
            <use stroke="#2F5472" xlink:href="#a"/>
        </g>
        <path fill="#FFF" d="M162.618 206.234h72.853l10.2-3.342 6.687-22.798h63.777l-17.724-44.522c0-11.459-9.292-20.745-20.757-20.745H162.618v91.407z"/>
        <path fill="#2F5472" stroke="#2F5472" d="M163.812 205.04h71.468l9.421-3.087 6.512-22.195c.149-.508.615-.858 1.146-.858h62.015l-17.073-42.887a1.19 1.19 0 0 1-.084-.441c0-10.78-8.776-19.552-19.563-19.552H163.812v89.02zm71.659 2.388h-72.853c-.66 0-1.194-.534-1.194-1.194v-91.407c0-.66.535-1.194 1.194-1.194h115.036c12.026 0 21.825 9.716 21.95 21.707l17.64 44.313a1.192 1.192 0 0 1-1.11 1.634h-62.881l-6.437 21.94c-.11.378-.4.677-.773.8l-10.2 3.341c-.12.04-.245.06-.372.06z"/>
        <path fill="#FFF" d="M257.542 114.827H144.178c-12.373 0-22.405 10.026-22.405 22.392v79.806h28.52l9.268-10.79h75.91"/>
        <path fill="#2F5472" stroke="#2F5472" d="M150.293 218.218h-28.52c-.66 0-1.194-.534-1.194-1.194V137.22c0-13.005 10.586-23.586 23.6-23.586H257.54a1.194 1.194 0 1 1 0 2.387H144.178c-11.696 0-21.211 9.51-21.211 21.199v78.612h26.777l8.91-10.374c.227-.264.558-.416.907-.416h75.91a1.194 1.194 0 1 1 0 2.387H160.11l-8.91 10.374a1.195 1.195 0 0 1-.907.416M257.541 185.751c-.659 0-1.194-.534-1.194-1.193v-49.32c0-11.913 9.698-21.605 21.617-21.605 11.92 0 21.617 9.692 21.617 21.605v31.678a1.194 1.194 0 0 1-2.389 0v-31.678c0-10.597-8.625-19.218-19.228-19.218-10.602 0-19.228 8.621-19.228 19.218v49.32c0 .66-.535 1.193-1.195 1.193"/>
        <path fill="#FFF" d="M333.858 107.689v54.667c0 9.788-7.93 17.714-17.723 17.714-9.794 0-17.724-7.926-17.724-17.714v-27.595"/>
        <path fill="#2F5472" stroke="#2F5472" d="M316.052 181.495c-10.476 0-19-8.507-19-18.965v-27.682a1.199 1.199 0 0 1 2.4 0v27.682c0 9.137 7.447 16.57 16.6 16.57 9.154 0 16.601-7.433 16.601-16.57v-54.837c0-.662.537-1.198 1.2-1.198.662 0 1.2.536 1.2 1.198v54.837c0 10.458-8.524 18.965-19 18.965"/>
        <path fill="#FFF" d="M61.317 185.322c0 17.522-14.212 31.703-31.72 31.703H8.193 151.32s12.66-1.791 16.911-10.79c4.252-9 24.388-54.287 24.388-54.287H86.231c-13.76 0-24.914 11.149-24.914 24.9v8.474z"/>
        <path fill="#2F5472" stroke="#2F5472" d="M41.908 215.831h109.32c1.027-.167 12.166-2.153 15.923-10.106 3.733-7.901 19.943-44.298 23.63-52.583H86.231c-13.08 0-23.72 10.634-23.72 23.705v8.475c0 13.791-8.534 25.627-20.603 30.509m109.412 2.387H8.194a1.194 1.194 0 1 1 0-2.387h21.402c16.832 0 30.527-13.687 30.527-30.51v-8.474c0-14.387 11.712-26.092 26.107-26.092h106.39a1.195 1.195 0 0 1 1.09 1.678c-.201.453-20.19 45.402-24.399 54.311-4.475 9.473-17.28 11.385-17.823 11.462a1.29 1.29 0 0 1-.168.012"/>
        <path fill="#FFF" d="M257.542 143.784v40.368c0 12.199-9.889 22.082-22.095 22.082s-22.095-9.883-22.095-22.082v-11.554c0-11.411-9.243-20.65-20.661-20.65-11.417 0-20.662 9.239-20.662 20.65v20.721c0 13.082-10.63 23.706-23.718 23.706 0 0 14.642-.597 19.897-10.79h67.24"/>
        <path fill="#2F5472" stroke="#2F5472" d="M170.286 205.04h54.892c-7.706-3.8-13.02-11.735-13.02-20.888v-11.554c0-10.728-8.733-19.456-19.467-19.456-10.735 0-19.467 8.728-19.467 19.456v20.721c0 4.235-1.064 8.226-2.938 11.722m-21.975 13.177a1.194 1.194 0 0 1-.05-2.386c.091-.004 6.009-.3 11.47-3.115 6.64-3.92 11.104-11.148 11.104-19.398V172.6c0-12.045 9.804-21.844 21.856-21.844 12.051 0 21.855 9.799 21.855 21.843v11.554c0 11.518 9.376 20.889 20.901 20.889s20.9-9.371 20.9-20.889v-40.368a1.194 1.194 0 1 1 2.389 0v40.368c0 12.835-10.447 23.276-23.289 23.276h-66.53c-1.765 3.074-4.552 5.608-8.193 7.473a24.774 24.774 0 0 1-12.413 3.317"/>
        <g filter="url(#b)" transform="translate(212 65)">
            <path fill="#2F5472" d="M54.203 18.105h-1.116a.2.2 0 0 1-.204-.193V13.09v-.002a.2.2 0 0 1 .204-.194H54.203c1.542 0 2.444 1.05 2.444 2.593 0 1.506-.876 2.617-2.444 2.617M54.425 11H51.2a.2.2 0 0 0-.2.192v8.616a.2.2 0 0 0 .2.192h3.225C57.19 20 59 18.213 59 15.487 59 13.003 57.45 11 54.425 11"/>
            <g transform="translate(19 11)">
                <mask id="f" fill="#fff">
                    <use xlink:href="#d"/>
                </mask>
                <path fill="url(#e)" d="M.016 5.256A5.39 5.39 0 0 0 1.462 8.96l3.213-3.39a.411.411 0 0 1 .604 0L8.513 8.98A5.388 5.388 0 0 0 9.98 5.256C9.98 2.353 7.75 0 4.998 0 2.246 0 .016 2.353.016 5.256" mask="url(#f)" style="mix-blend-mode:multiply"/>
            </g>
            <g transform="translate(0 11.151)">
                <mask id="h" fill="#fff">
                    <use xlink:href="#g"/>
                </mask>
                <path fill="#2F5472" d="M8.216 4.34H5.012a.202.202 0 0 0-.206.196V5.64c0 .109.093.197.208.197h1.574c.01 0 .035.004.036.032a.713.713 0 0 1-.217.505l-.013.014c-.56.565-1.204.847-1.879.847-1.35 0-2.304-1.133-2.304-2.682 0-1.51.9-2.707 2.225-2.707.782 0 1.518.408 1.929 1.094a.214.214 0 0 0 .29.04l1.285-.914.005-.004a.191.191 0 0 0 .073-.233C7.37.709 6.095.008 4.502.008 1.96.008 0 2.01 0 4.478c0 2.43 1.96 4.595 4.33 4.595.873 0 1.615-.29 2.29-.932v.672c0 .109.093.197.208.197H8.217c.102 0 .187-.071.204-.164v-4.32a.203.203 0 0 0-.205-.187" mask="url(#h)"/>
            </g>
            <mask id="j" fill="#fff">
                <use xlink:href="#i"/>
            </mask>
            <path fill="#2F5472" d="M8.216 4.34H5.012a.202.202 0 0 0-.206.196V5.64c0 .109.093.197.208.197h1.574c.01 0 .035.004.036.032a.713.713 0 0 1-.217.505l-.013.014c-.56.565-1.204.847-1.879.847-1.35 0-2.304-1.133-2.304-2.682 0-1.51.9-2.707 2.225-2.707.782 0 1.518.408 1.929 1.094a.214.214 0 0 0 .29.04l1.285-.914.005-.004a.191.191 0 0 0 .073-.233C7.37.709 6.095.008 4.502.008 1.96.008 0 2.01 0 4.478c0 2.43 1.96 4.595 4.33 4.595.873 0 1.615-.29 2.29-.932v.672c0 .109.093.197.208.197H8.217c.102 0 .187-.071.204-.164v-4.32a.203.203 0 0 0-.205-.187" mask="url(#j)"/>
            <path fill="#2F5472" d="M38.867 11.222H37.11a.202.202 0 0 0-.207.197v4.374c0 1.322-.503 2.606-1.999 2.606-1.47 0-2-1.246-2-2.606v-4.375a.202.202 0 0 0-.201-.196h-1.766a.202.202 0 0 0-.203.197v4.374c0 2.342 1.165 4.444 4.17 4.444 2.9 0 4.17-1.977 4.17-4.444v-4.38a.203.203 0 0 0-.206-.19M24.78.07h-7.496a.202.202 0 0 0-.204.197v1.42c0 .109.092.196.206.197h2.467c.11.004.2.09.2.197v6.74c.004.104.094.188.205.19h1.76a.202.202 0 0 0 .206-.198V2.08c0-.108.093-.196.208-.196h2.446a.203.203 0 0 0 .206-.193V.267a.202.202 0 0 0-.205-.196M16.27 7.197H12.243A.203.203 0 0 1 12.035 7V5.493c0-.109.093-.197.208-.197h3.292a.203.203 0 0 0 .207-.193V3.818a.202.202 0 0 0-.206-.197h-3.294a.202.202 0 0 1-.207-.197V2.081c0-.109.092-.197.207-.197h3.903a.202.202 0 0 0 .207-.197V.267a.202.202 0 0 0-.205-.196h-6.078a.202.202 0 0 0-.205.195v8.549c0 .108.093.195.206.195h6.194a.203.203 0 0 0 .207-.19V7.387a.202.202 0 0 0-.201-.19M48.791 11.222h-1.766a.202.202 0 0 0-.206.197v5.054l-4.382-5.25h-1.49a.202.202 0 0 0-.205.196v8.545c0 .109.092.197.205.198h1.761a.202.202 0 0 0 .205-.194V15.05l4.306 5.083a.122.122 0 0 0 .075.029h1.491a.202.202 0 0 0 .205-.197v-8.547a.202.202 0 0 0-.199-.196M14.021 15.478h-1.767a.049.049 0 0 0-.011-.001.203.203 0 0 1-.208-.197v-2.045c0-.11.093-.197.208-.197.006 0 .01-.001.011-.003h1.701c.49 0 1.006.479 1.006 1.21 0 .717-.423 1.233-.94 1.233m3.737 4.627l-2.121-3.267c.94-.491 1.536-1.499 1.536-2.594 0-1.486-1.298-3.022-3.072-3.022h-4.053a.203.203 0 0 0-.184.173v8.576a.203.203 0 0 0 .204.19h1.77a.203.203 0 0 0 .197-.174v-2.709h1.417l1.866 2.841c.006.01.034.042.099.043h2.32c.02-.002.051-.01.021-.057"/>
        </g>
        <g>
            <path fill="#D6D6D6" d="M83.958 190L36 163.92 46.941 144 94.9 170.08l6.74 13.412c1.061 2.13-.33 4.661-2.697 4.91L83.958 190z"/>
            <path fill="#2F5472" d="M36 162.95L83.647 189l14.924-1.6a2.67 2.67 0 0 0 2.087-1.39 2.7 2.7 0 0 0 .053-2.531l-6.712-13.428L46.353 144 36 162.95zm46.721 26.96l-48.335-26.374a.74.74 0 0 1-.295-1.005l11.027-20.146a.742.742 0 0 1 1.007-.294l48.335 26.373c.133.073.24.184.308.32l6.793 13.563a4.195 4.195 0 0 1-.08 3.892 4.181 4.181 0 0 1-3.223 2.14l-15.102 1.617a.744.744 0 0 1-.435-.086z"/>
            <path fill="#D6D6D6" d="M48.014 143.41c5.572 3.046 7.62 10.032 4.575 15.604-3.045 5.572-10.03 7.62-15.603 4.575-5.572-3.045-7.62-10.03-4.575-15.603 3.045-5.572 10.03-7.62 15.603-4.575"/>
            <path fill="#2F5472" d="M47.58 144.063c-5.263-2.843-11.885-.924-14.761 4.278-2.877 5.201-.935 11.745 4.328 14.588 5.264 2.843 11.886.924 14.762-4.278 2.877-5.201.935-11.745-4.328-14.588m-11.147 20.156c-5.984-3.231-8.191-10.67-4.92-16.584 3.269-5.913 10.797-8.094 16.78-4.863 5.984 3.232 8.191 10.672 4.921 16.584-3.27 5.914-10.798 8.095-16.781 4.863M82.258 189.905c-3.034-1.76-4.15-5.82-2.488-9.05.839-1.63 2.311-2.812 4.147-3.328.468-.132.76-.31.87-.526.131-.26.044-.676-.053-.98-.6-1.94-.467-3.907.375-5.544 1.662-3.23 5.48-4.425 8.514-2.664.351.204.48.67.288 1.043-.191.373-.631.51-.982.307-2.333-1.355-5.27-.435-6.55 2.05-.648 1.261-.745 2.795-.272 4.32.272.856.258 1.597-.044 2.195-.311.616-.892 1.036-1.775 1.285-1.448.407-2.602 1.324-3.247 2.58-1.28 2.485-.422 5.609 1.91 6.963.352.204.48.67.29 1.044-.193.373-.632.51-.983.305"/>
            <path fill="#383A48" d="M98.84 179L94 188l3.613-.31c2.669-.227 4.22-3.172 2.92-5.552L98.84 179z"/>
            <g transform="translate(93 178)">
                <mask id="l" fill="#fff">
                    <use xlink:href="#k"/>
                </mask>
                <path fill="#2F5472" d="M5.919 2.5L2.275 9.11l2.32-.195a3.029 3.029 0 0 0 2.43-1.582A2.973 2.973 0 0 0 7 4.456L5.919 2.5zM.588 10.619A.738.738 0 0 1 .29 9.609L5.26.596a.751.751 0 1 1 1.316 0l1.737 3.142a4.44 4.44 0 0 1 .035 4.294 4.526 4.526 0 0 1-3.628 2.363l-3.709.312a.757.757 0 0 1-.423-.089z" mask="url(#l)"/>
            </g>
            <path fill="#2F5472" d="M84.965 171.915l-30.601-16.611a.692.692 0 0 1-.278-.943.702.702 0 0 1 .949-.276l30.6 16.611a.692.692 0 0 1 .28.942.702.702 0 0 1-.95.277M79.9 181.91l-32.513-17.534a.728.728 0 0 1-.296-.994.747.747 0 0 1 1.008-.292l32.514 17.534c.36.194.493.639.296.994a.749.749 0 0 1-1.009.292"/>
        </g>
        <circle cx="41.5" cy="153.5" r="11.5" stroke="#2F5472"/>
    </g>
</svg>
