<?xml version="1.0" encoding="utf-8"?>
<!-- Generator: Adobe Illustrator 23.0.1, SVG Export Plug-In . SVG Version: 6.00 Build 0)  -->
<svg version="1.1" id="Layer_1" xmlns="http://www.w3.org/2000/svg" xmlns:xlink="http://www.w3.org/1999/xlink" x="0px" y="0px"
	 viewBox="0 0 80 30" style="enable-background:new 0 0 80 30;" xml:space="preserve">
<style type="text/css">
	.st0{opacity:0.9;}
	.st1{fill-rule:evenodd;clip-rule:evenodd;fill:#2F5472;}
	.st2{filter:url(#Adobe_OpacityMaskFilter);}
	.st3{fill-rule:evenodd;clip-rule:evenodd;fill:#FFFFFF;}
	.st4{mask:url(#mask-5_1_);fill-rule:evenodd;clip-rule:evenodd;fill:#2F5472;}
	.st5{filter:url(#Adobe_OpacityMaskFilter_1_);}
	.st6{mask:url(#mask-8_1_);fill-rule:evenodd;clip-rule:evenodd;fill:#2F5472;}
	.st7{filter:url(#Adobe_OpacityMaskFilter_2_);}
	.st8{mask:url(#mask-10_1_);fill-rule:evenodd;clip-rule:evenodd;fill:#2F5472;}
</style>
<title>GG Blue Logo@3x</title>
<desc>Created with Sketch.</desc>
<g id="GG-Blue-Logo" class="st0">
	<g>
		<path id="Fill-1" class="st1" d="M73.4,25.5h-1.5c0,0,0,0,0,0c-0.2,0-0.3-0.1-0.3-0.3c0,0,0,0,0,0v-6.4c0,0,0,0,0,0
			c0-0.1,0.1-0.3,0.3-0.3c0,0,0,0,0,0h1.5c2.1,0,3.4,1.4,3.4,3.5C76.8,24,75.6,25.5,73.4,25.5 M73.7,16h-4.4c-0.1,0-0.3,0.1-0.3,0.3
			v11.5c0,0.1,0.1,0.3,0.3,0.3h4.4c3.8,0,6.3-2.4,6.3-6C80,18.7,77.9,16,73.7,16"/>
		<g id="Group-5" transform="translate(24.000000, 16.000000)">
			<g id="Clip-4">
			</g>
		</g>
		<g id="Group-11" transform="translate(26.000000, 16.000000)">
			<g id="Clip-10">
			</g>
			<defs>
				<filter id="Adobe_OpacityMaskFilter" filterUnits="userSpaceOnUse" x="0" y="0" width="13.9" height="12">
					<feColorMatrix  type="matrix" values="1 0 0 0 0  0 1 0 0 0  0 0 1 0 0  0 0 0 1 0"/>
				</filter>
			</defs>
			<mask maskUnits="userSpaceOnUse" x="0" y="0" width="13.9" height="12" id="mask-5_1_">
				<g class="st2">
					<path id="path-4_1_" class="st3" d="M0,7c0,1.9,0.8,3.7,2,4.9l0,0l4.5-4.5c0.2-0.2,0.6-0.2,0.8,0l0,0l4.5,4.5
						c1.3-1.3,2.1-3,2.1-5l0,0c0-3.9-3.1-7-7-7l0,0C3.1,0,0,3.1,0,7"/>
				</g>
			</mask>
			<path id="Fill-9" class="st4" d="M0,7c0,1.9,0.8,3.7,2,4.9l0,0l4.5-4.5c0.2-0.2,0.6-0.2,0.8,0l0,0l4.5,4.5c1.3-1.3,2.1-3,2.1-5
				l0,0c0-3.9-3.1-7-7-7l0,0C3.1,0,0,3.1,0,7"/>
		</g>
		<g id="Group-28">
			<g id="Group-14" transform="translate(0.000000, 15.399677)">
				<g id="Clip-13">
				</g>
				<defs>
					<filter id="Adobe_OpacityMaskFilter_1_" filterUnits="userSpaceOnUse" x="0" y="0" width="11.5" height="12.5">
						<feColorMatrix  type="matrix" values="1 0 0 0 0  0 1 0 0 0  0 0 1 0 0  0 0 0 1 0"/>
					</filter>
				</defs>
				<mask maskUnits="userSpaceOnUse" x="0" y="0" width="11.5" height="12.5" id="mask-8_1_">
					<g class="st5">
						<polygon id="path-7_1_" class="st3" points="0,0 11.5,0 11.5,12.5 0,12.5 						"/>
					</g>
				</mask>
				<path id="Fill-12" class="st6" d="M11.2,6H6.9C6.7,6,6.6,6.1,6.6,6.3c0,0,0,0,0,0v1.5c0,0,0,0,0,0c0,0.2,0.1,0.3,0.3,0.3
					c0,0,0,0,0,0H9c0,0,0,0,0,0c0,0.1,0,0.4-0.3,0.7c0,0,0,0,0,0C8,9.6,7.1,10,6.2,10C4.3,10,3,8.4,3,6.3c0-2.1,1.2-3.7,3-3.7
					c1.1,0,2.1,0.6,2.6,1.5c0,0,0,0,0,0C8.8,4.2,9,4.2,9.1,4.1l1.8-1.3c0,0,0,0,0,0C11,2.8,11,2.6,11,2.5C10.1,1,8.3,0,6.2,0
					C2.7,0,0,2.8,0,6.2c0,3.4,2.7,6.3,5.9,6.3c1.2,0,2.2-0.4,3.1-1.3v0.9c0,0,0,0,0,0c0,0.2,0.1,0.3,0.3,0.3c0,0,0,0,0,0h1.9
					c0,0,0,0,0,0c0.1,0,0.3-0.1,0.3-0.2v-6C11.5,6.1,11.4,6,11.2,6"/>
			</g>
			<g id="Group-17">
				<g id="Clip-16">
				</g>
				<defs>
					<filter id="Adobe_OpacityMaskFilter_2_" filterUnits="userSpaceOnUse" x="0" y="0" width="11.5" height="12.5">
						<feColorMatrix  type="matrix" values="1 0 0 0 0  0 1 0 0 0  0 0 1 0 0  0 0 0 1 0"/>
					</filter>
				</defs>
				<mask maskUnits="userSpaceOnUse" x="0" y="0" width="11.5" height="12.5" id="mask-10_1_">
					<g class="st7">
						<polygon id="path-9_1_" class="st3" points="0,0 11.5,0 11.5,12.5 0,12.5 						"/>
					</g>
				</mask>
				<path id="Fill-15" class="st8" d="M11.2,6H6.9C6.7,6,6.6,6.1,6.6,6.3c0,0,0,0,0,0v1.5c0,0,0,0,0,0c0,0.2,0.1,0.3,0.3,0.3
					c0,0,0,0,0,0H9c0,0,0,0,0,0c0,0.1,0,0.4-0.3,0.7c0,0,0,0,0,0C8,9.6,7.1,10,6.2,10C4.3,10,3,8.4,3,6.3c0-2.1,1.2-3.7,3-3.7
					c1.1,0,2.1,0.6,2.6,1.5c0,0,0,0,0,0C8.8,4.2,9,4.2,9.1,4.1l1.8-1.3c0,0,0,0,0,0C11,2.8,11,2.6,11,2.5C10.1,1,8.3,0,6.2,0
					C2.7,0,0,2.8,0,6.2c0,3.4,2.7,6.3,5.9,6.3c1.2,0,2.2-0.4,3.1-1.3v0.9c0,0,0,0,0,0c0,0.2,0.1,0.3,0.3,0.3c0,0,0,0,0,0h1.9
					c0,0,0,0,0,0c0.1,0,0.3-0.1,0.3-0.2v-6C11.5,6.1,11.4,6,11.2,6"/>
			</g>
			<path id="Fill-18" class="st1" d="M53.1,15.5h-2.4c-0.2,0-0.3,0.1-0.3,0.3v6c0,1.8-0.7,3.6-2.7,3.6c-2,0-2.7-1.7-2.7-3.6v-6
				c0-0.1-0.1-0.3-0.3-0.3h-2.4c-0.2,0-0.3,0.1-0.3,0.3c0,0,0,0,0,0v6c0,3.2,1.6,6.1,5.7,6.1c4,0,5.7-2.7,5.7-6.1v-6
				C53.4,15.6,53.3,15.5,53.1,15.5"/>
			<path id="Fill-20" class="st1" d="M33.9,0.1H23.6c-0.2,0-0.3,0.1-0.3,0.3v2c0,0.1,0.1,0.3,0.3,0.3H27c0.2,0,0.3,0.1,0.3,0.3
				c0,0,0,0,0,0v9.3c0,0.1,0.1,0.3,0.3,0.3H30c0.2,0,0.3-0.1,0.3-0.3v0V2.9c0-0.1,0.1-0.3,0.3-0.3c0,0,0,0,0,0h3.3
				c0.2,0,0.3-0.1,0.3-0.3v-2C34.2,0.2,34,0.1,33.9,0.1"/>
			<path id="Fill-22" class="st1" d="M22.2,9.9h-5.5c0,0,0,0,0,0c-0.2,0-0.3-0.1-0.3-0.3V7.6c0-0.2,0.1-0.3,0.3-0.3c0,0,0,0,0,0h4.5
				c0,0,0,0,0,0c0.2,0,0.3-0.1,0.3-0.3V5.3c0-0.1-0.1-0.3-0.3-0.3h-4.5c-0.2,0-0.3-0.1-0.3-0.3V2.9c0-0.1,0.1-0.3,0.3-0.3h5.3
				c0.2,0,0.3-0.1,0.3-0.3v-2c0-0.1-0.1-0.3-0.3-0.3h-8.3c-0.2,0-0.3,0.1-0.3,0.3v11.8c0,0.1,0.1,0.3,0.3,0.3h8.5c0,0,0,0,0,0
				c0.2,0,0.3-0.1,0.3-0.3v-2C22.5,10.1,22.4,9.9,22.2,9.9"/>
			<path id="Fill-24" class="st1" d="M66.7,15.5h-2.4c-0.2,0-0.3,0.1-0.3,0.3v7l-6-7.3h-2c-0.2,0-0.3,0.1-0.3,0.3c0,0,0,0,0,0v11.8
				c0,0,0,0,0,0c0,0.1,0.1,0.3,0.3,0.3h2.4c0.2,0,0.3-0.1,0.3-0.3v-6.8l5.9,7c0,0,0.1,0,0.1,0h2c0.2,0,0.3-0.1,0.3-0.3c0,0,0,0,0,0
				V15.8C67,15.6,66.9,15.5,66.7,15.5"/>
			<path id="Fill-26" class="st1" d="M19.2,21.4h-2.4c0,0,0,0,0,0c-0.2,0-0.3-0.1-0.3-0.3v-2.8c0-0.2,0.1-0.3,0.3-0.3c0,0,0,0,0,0
				h2.3c0.7,0,1.4,0.7,1.4,1.7C20.5,20.7,19.9,21.4,19.2,21.4 M24.3,27.8l-2.9-4.5c1.3-0.7,2.1-2.1,2.1-3.6c0-2.1-1.8-4.2-4.2-4.2
				h-5.5c-0.1,0-0.2,0.1-0.3,0.2v11.8c0,0.1,0.1,0.3,0.3,0.3h2.4c0.1,0,0.3-0.1,0.3-0.2v-3.7h1.9l2.6,3.9c0,0,0,0.1,0.1,0.1
				L24.3,27.8C24.3,27.8,24.3,27.8,24.3,27.8"/>
		</g>
	</g>
</g>
</svg>
