<?xml version="1.0" encoding="UTF-8"?>
<svg width="80px" height="28px" viewBox="0 0 80 28" version="1.1" xmlns="http://www.w3.org/2000/svg" xmlns:xlink="http://www.w3.org/1999/xlink">
    <!-- Generator: Sketch 54.1 (76490) - https://sketchapp.com -->
    <title>logo-white</title>
    <desc>Created with Sketch.</desc>
    <defs>
        <path d="M0.0223393502,7.00840336 C0.0223393502,8.934 0.795169675,10.6782353 2.04622383,11.9449916 L2.04622383,11.9449916 L6.54497473,7.42462185 C6.77847653,7.19001681 7.15698195,7.19001681 7.39043321,7.42462185 L7.39043321,7.42462185 L11.9185993,11.9744874 C13.1868375,10.7054118 13.9717978,8.94902521 13.9717978,7.00840336 L13.9717978,7.00840336 C13.9717978,3.1377479 10.8490903,0 6.99706859,0 L6.99706859,0 C3.14504693,0 0.0223393502,3.1377479 0.0223393502,7.00840336" id="path-1"></path>
        <linearGradient x1="-3.82246377e-05%" y1="0%" x2="-3.82246377e-05%" y2="100%" id="linearGradient-3">
            <stop stop-color="#FFFFFF" offset="0%"></stop>
            <stop stop-color="#FFFFFF" offset="100%"></stop>
        </linearGradient>
        <polygon id="path-4" points="0 0.0109288028 11.5142383 0.0109288028 11.5142383 12.5295743 0 12.5295743"></polygon>
        <polygon id="path-6" points="0 0.0109288028 11.5142383 0.0109288028 11.5142383 12.5295694 0 12.5295694"></polygon>
    </defs>
    <g id="Page-1" stroke="none" stroke-width="1" fill="none" fill-rule="evenodd">
        <g id="logo-white">
            <path d="M73.4036101,25.4736842 L71.875041,25.4736842 C71.8733464,25.4735901 71.8719598,25.4733079 71.8701111,25.4733079 C71.7146147,25.4733079 71.5885948,25.3578344 71.5885948,25.2154092 C71.5885948,25.2141392 71.588338,25.2131985 71.5882353,25.2120226 L71.5882353,18.7884948 C71.588338,18.7873189 71.5885948,18.7863782 71.5885948,18.7850612 C71.5885948,18.642683 71.7146147,18.5272095 71.8701111,18.5272095 C71.8744248,18.5272095 71.8781222,18.5268332 71.8816142,18.5263158 L73.4036101,18.5263158 C75.5245344,18.5263158 76.7647059,19.9256859 76.7647059,21.9835609 C76.7647059,23.992001 75.5604814,25.4736842 73.4036101,25.4736842 M73.709194,16 L69.275085,16 C69.1255602,16.001497 69.0045187,16.1150243 69,16.256511 L69,27.743489 C69.0045187,27.8850723 69.125611,27.9985996 69.2751866,28 L73.709194,28 C77.5121,28 80,25.6169398 80,21.9831472 C80,18.6704278 77.867507,16 73.709194,16" id="Fill-1" fill="#FFFFFF" fill-rule="nonzero"></path>
            <g id="Group-11" transform="translate(26.000000, 16.000000)">
                <g id="Fill-9-Clipped">
                    <mask id="mask-2" fill="white">
                        <use xlink:href="#path-1"></use>
                    </mask>
                    <g id="path-4"></g>
                    <path d="M0.0223393502,7.00840336 C0.0223393502,8.934 0.795169675,10.6782353 2.04622383,11.9449916 L2.04622383,11.9449916 L6.54497473,7.42462185 C6.77847653,7.19001681 7.15698195,7.19001681 7.39043321,7.42462185 L7.39043321,7.42462185 L11.9185993,11.9744874 C13.1868375,10.7054118 13.9717978,8.94902521 13.9717978,7.00840336 L13.9717978,7.00840336 C13.9717978,3.1377479 10.8490903,0 6.99706859,0 L6.99706859,0 C3.14504693,0 0.0223393502,3.1377479 0.0223393502,7.00840336" id="Fill-9" fill="url(#linearGradient-3)" fill-rule="nonzero" mask="url(#mask-2)"></path>
                </g>
            </g>
            <g id="Group-28">
                <g id="Group-14" transform="translate(0.000000, 15.399677)">
                    <g id="Fill-12-Clipped">
                        <mask id="mask-5" fill="white">
                            <use xlink:href="#path-4"></use>
                        </mask>
                        <g id="path-7"></g>
                        <path d="M11.2340421,5.99206386 L6.85285342,5.99206386 C6.69747047,5.9934548 6.57193305,6.11476451 6.57193305,6.2642904 C6.57193305,6.26523425 6.5718296,6.26583037 6.5718296,6.26667487 L6.5718296,7.78602684 C6.5718296,7.78692101 6.57193305,7.78756681 6.57193305,7.78846098 C6.57193305,7.93888105 6.69891878,8.06083655 6.85554314,8.06083655 C6.8577156,8.06083655 6.85937081,8.06098558 6.86133638,8.06108493 L9.00866247,8.06108493 C9.02159381,8.06138299 9.05645669,8.06580419 9.05692222,8.1048995 C9.05842226,8.2161249 9.0350424,8.5227275 8.76074288,8.80265388 C8.75412204,8.80936019 8.74869087,8.81566909 8.74284591,8.82207734 C7.97756939,9.6012513 7.09653153,9.99106183 6.17354442,9.99106183 C4.32689778,9.99106183 3.02336728,8.4262063 3.02336728,6.28758862 C3.02336728,4.20118082 4.25448229,2.54939163 6.06486947,2.54939163 C7.13418759,2.54939163 8.14143529,3.11247336 8.70317257,4.06024894 C8.70337947,4.06049732 8.70358637,4.06059667 8.70379327,4.06089473 C8.79767478,4.18056512 8.97436857,4.20470784 9.09938873,4.11543939 L10.8570161,2.85291429 C10.8589299,2.85107626 10.8606886,2.84923824 10.8635335,2.84730086 C10.972467,2.77338241 11.0098127,2.6392562 10.9628461,2.52519924 C10.0769461,0.978574937 8.33462946,0.0109288028 6.15538883,0.0109288028 C2.67939372,0.0109288028 -3.10352088e-05,2.77541914 -3.10352088e-05,6.18331791 C-3.10352088e-05,9.53895713 2.67939372,12.5295743 5.92003849,12.5295743 C7.11494576,12.5295743 8.12876258,12.1296795 9.05206004,11.2429065 L9.05206004,12.1675329 C9.05211177,12.1684271 9.05221522,12.1690729 9.05221522,12.169967 C9.05221522,12.3204368 9.17920095,12.4423426 9.3358253,12.4423426 C9.33799776,12.4423426 9.33965297,12.4425413 9.34161854,12.4426407 L11.2291799,12.4426407 C11.2311455,12.4425413 11.2328524,12.4423426 11.2350249,12.4423426 C11.375304,12.4423426 11.4915309,12.3443808 11.5142383,12.2158183 L11.5142383,6.2514739 C11.5072554,6.10790917 11.384925,5.99340512 11.2340421,5.99206386" id="Fill-12" fill="#FFFFFF" fill-rule="nonzero" mask="url(#mask-5)"></path>
                    </g>
                </g>
                <g id="Group-17">
                    <g id="Fill-15-Clipped">
                        <mask id="mask-7" fill="white">
                            <use xlink:href="#path-6"></use>
                        </mask>
                        <g id="path-9"></g>
                        <path d="M11.2340421,5.99205889 L6.85285342,5.99205889 C6.69747047,5.99344983 6.57193305,6.11475954 6.57193305,6.26428544 C6.57193305,6.26522929 6.5718296,6.2658254 6.5718296,6.26671958 L6.5718296,7.78602187 C6.5718296,7.78691605 6.57193305,7.78751216 6.57193305,7.78845601 C6.57193305,7.93887608 6.69891878,8.06083158 6.85554314,8.06083158 C6.8577156,8.06083158 6.85937081,8.06098061 6.86133638,8.06107997 L9.00866247,8.06107997 C9.02159381,8.06137802 9.05645669,8.06579922 9.05692222,8.10489453 C9.05842226,8.21616961 9.0350424,8.52277221 8.76074288,8.80264891 C8.75412204,8.80935522 8.74869087,8.81561445 8.74284591,8.82207237 C7.97756939,9.60124634 7.09653153,9.99105686 6.17354442,9.99105686 C4.32689778,9.99105686 3.02336728,8.42620133 3.02336728,6.28758366 C3.02336728,4.20117585 4.25448229,2.54938666 6.06486947,2.54938666 C7.13418759,2.54938666 8.14143529,3.11246839 8.70317257,4.06024397 C8.70337947,4.06049235 8.70358637,4.06059171 8.70379327,4.06088977 C8.79767478,4.18056016 8.97436857,4.20470287 9.09938873,4.11543443 L10.8570161,2.85290932 C10.8589299,2.8510713 10.8606886,2.84923327 10.8635335,2.84729589 C10.972467,2.77337744 11.0098127,2.63925123 10.9628461,2.52519427 C10.0769461,0.978569969 8.33462946,0.0109238351 6.15538883,0.0109238351 C2.67939372,0.0109238351 -3.10352088e-05,2.77541418 -3.10352088e-05,6.18331294 C-3.10352088e-05,9.53895216 2.67939372,12.5295694 5.92003849,12.5295694 C7.11494576,12.5295694 8.12876258,12.1296745 9.05206004,11.2429015 L9.05206004,12.1675279 C9.05211177,12.1684718 9.05221522,12.1690182 9.05221522,12.1699621 C9.05221522,12.3203821 9.17920095,12.4423376 9.3358253,12.4423376 C9.33799776,12.4423376 9.33965297,12.4425364 9.34161854,12.4426357 L11.2291799,12.4426357 C11.2311455,12.4425364 11.2328524,12.4423376 11.2350249,12.4423376 C11.375304,12.4423376 11.4915309,12.3443758 11.5142383,12.2158134 L11.5142383,6.25146893 C11.5072554,6.1079042 11.384925,5.99340016 11.2340421,5.99205889" id="Fill-15" fill="#FFFFFF" fill-rule="nonzero" mask="url(#mask-7)"></path>
                    </g>
                </g>
                <path d="M53.1452828,15.4975192 L50.7407265,15.4975192 C50.5850332,15.498165 50.4589786,15.6192264 50.4583579,15.7687523 L50.4583579,21.8090022 C50.4583579,23.6346587 49.7704107,25.4081053 47.7246732,25.4081053 C45.7150917,25.4081053 44.9909368,23.6868189 44.9909368,21.8090022 L44.9909368,15.7681561 C44.990161,15.6207167 44.8674167,15.5011953 44.71462,15.4975192 L42.3008049,15.4975192 C42.1464048,15.5000031 42.0220053,15.6207663 42.0220053,15.7696464 C42.0220053,15.7703419 42.0218501,15.7708387 42.0218501,15.7714845 L42.0218501,21.8090022 C42.0218501,25.042984 43.6149909,27.9466178 47.7246732,27.9466178 C51.6894729,27.9466178 53.4274963,25.2168513 53.4274963,21.8090022 L53.4274963,15.7599595 C53.4220134,15.6144574 53.2980277,15.4979663 53.1452828,15.4975192" id="Fill-18" fill="#FFFFFF" fill-rule="nonzero"></path>
                <path d="M33.8817944,0.0978425907 L23.6338132,0.0978425907 C23.479051,0.0996309403 23.3541343,0.220344535 23.3537205,0.369323987 L23.3537205,2.33005056 C23.3541343,2.47957645 23.479982,2.60068746 23.6355719,2.60158163 L27.0090474,2.60158163 C27.1608095,2.60684733 27.2822607,2.72636869 27.2822607,2.87346044 C27.2822607,2.87365915 27.2823124,2.87385785 27.2823124,2.87410623 L27.2823124,12.1801308 C27.2876918,12.3252355 27.4109533,12.4414286 27.5630776,12.4426208 L29.9701166,12.4426208 C30.1256548,12.4414286 30.2513991,12.3200692 30.2513991,12.1703943 L30.2513991,12.1702949 L30.2513991,2.87301335 C30.2522784,2.72328875 30.3787986,2.60212807 30.5349574,2.60212807 C30.5373368,2.60212807 30.5391989,2.60173066 30.5413714,2.60158163 L33.880346,2.60158163 C34.0339186,2.60068746 34.1583181,2.48260671 34.1618871,2.33571367 L34.1618871,0.368777547 C34.161163,0.220046476 34.0364014,0.0996309403 33.8817944,0.0978425907" id="Fill-20" fill="#FFFFFF" fill-rule="nonzero"></path>
                <path d="M22.2465446,9.93893144 L16.7452952,9.93893144 C16.7434331,9.93883209 16.7418813,9.93848435 16.7398123,9.93848435 C16.5831879,9.93848435 16.4562539,9.81657852 16.4562022,9.66615846 L16.4562022,7.5859602 C16.4562539,7.43554013 16.5831879,7.31363431 16.7398123,7.31363431 C16.7407434,7.31363431 16.7413641,7.31348528 16.7422434,7.3134356 L21.2417797,7.3134356 C21.2418831,7.3134356 21.2419866,7.3134356 21.24209,7.3134356 C21.3968523,7.3134356 21.5223897,7.19431165 21.5253898,7.04642508 L21.5253898,5.27292877 C21.5252346,5.12330352 21.3993351,5.00194413 21.2436935,5.00100028 L16.7388295,5.00100028 C16.5826707,5.00045384 16.4562539,4.8787964 16.4562022,4.72872406 L16.4562022,2.87380817 C16.4562539,2.72388487 16.5824638,2.60232678 16.7384157,2.60158163 L22.0763165,2.60158163 C22.2321132,2.60068746 22.3581679,2.47917904 22.3582196,2.32935509 L22.3582196,0.36996978 C22.3581679,0.220692269 22.2330443,0.0996309403 22.0780751,0.0978425907 L13.7671566,0.0978425907 C13.6129116,0.0996309403 13.4884087,0.219549713 13.4871155,0.367833696 L13.4871155,12.1725303 C13.4884087,12.3216588 13.6143081,12.4421737 13.7697428,12.4426208 L22.2363547,12.4426208 C22.2369754,12.4426208 22.2373892,12.4424718 22.2380616,12.4424718 C22.3911169,12.4424718 22.5155681,12.325931 22.5211027,12.1802302 L22.5211027,10.2007756 C22.5156716,10.057807 22.3956688,9.94315393 22.2465446,9.93893144" id="Fill-22" fill="#FFFFFF" fill-rule="nonzero"></path>
                <path d="M66.7147192,15.4975192 L64.2994558,15.4975192 C64.144228,15.4986618 64.0186906,15.6194747 64.0180699,15.7687026 L64.0180699,22.7478857 L58.0256366,15.4975192 L55.988951,15.4975192 C55.8337233,15.4990592 55.7082893,15.6202696 55.7082893,15.7697458 C55.7082893,15.7697955 55.7082893,15.7698451 55.7082893,15.7698948 L55.7082893,27.5699219 C55.7082893,27.5699219 55.7082893,27.5699716 55.7082893,27.5700709 C55.7082893,27.7195471 55.833775,27.8408568 55.9891062,27.8422975 L58.3968177,27.8422975 C58.5504937,27.8408568 58.674738,27.7220309 58.6773243,27.5746908 L58.6773243,20.7831354 L64.5645999,27.8031525 C64.5829624,27.8186018 64.6179288,27.8409065 64.6668609,27.8422975 L66.7061845,27.8422975 C66.861464,27.8408568 66.9869497,27.7195471 66.9869497,27.5700709 C66.9869497,27.5690774 66.9871566,27.5683819 66.9872083,27.5674877 L66.9872083,15.7680071 C66.9864324,15.6218095 66.8657055,15.5031327 66.7147192,15.4975192" id="Fill-24" fill="#FFFFFF" fill-rule="nonzero"></path>
                <path d="M19.1720933,21.374324 L16.7558472,21.374324 C16.7512953,21.3732311 16.7462262,21.3724363 16.7400192,21.3724363 C16.5836017,21.3724363 16.4567195,21.2507291 16.4564608,21.1005575 L16.4564608,18.2765051 C16.4567195,18.1262838 16.5836017,18.0046263 16.7400192,18.0046263 C16.7486056,18.0046263 16.7534161,18.0033348 16.7559506,18.0012483 L19.081574,18.0012483 C19.7514172,18.0012483 20.45752,18.6619442 20.45752,19.6703746 C20.45752,20.6614183 19.8781443,21.374324 19.1720933,21.374324 M24.281937,27.764693 L21.3808174,23.2521407 C22.666244,22.5740085 23.4809183,21.1830699 23.4809183,19.6703746 C23.4809183,17.6186906 21.7066871,15.4975093 19.2807683,15.4975093 L13.7387593,15.4975093 C13.6075321,15.5107729 13.5031504,15.6099766 13.4873741,15.7354095 L13.4873741,27.5795988 C13.4925984,27.7243558 13.6151358,27.8403501 13.766691,27.8422875 L16.1866614,27.8422875 C16.3269406,27.8367238 16.4408398,27.7336453 16.4564608,27.6015061 L16.4564608,23.8606763 L18.3936269,23.8606763 L20.9446176,27.7839178 C20.9533591,27.7962872 20.9916876,27.8417411 21.0803966,27.8422875 L24.2539019,27.8422875 C24.2804887,27.8403998 24.3226966,27.8281794 24.281937,27.764693" id="Fill-26" fill="#FFFFFF" fill-rule="nonzero"></path>
            </g>
        </g>
    </g>
</svg>