<?xml version="1.0" encoding="UTF-8"?>
<svg width="79px" height="28px" viewBox="0 0 79 28" version="1.1" xmlns="http://www.w3.org/2000/svg" xmlns:xlink="http://www.w3.org/1999/xlink">
    <!-- Generator: Sketch 55.2 (78181) - https://sketchapp.com -->
    <title>Group 29</title>
    <desc>Created with Sketch.</desc>
    <defs>
        <path d="M0.0416967509,7 C0.0416967509,3.13398561 3.16435379,0 7.01642599,0 C10.8684477,0 13.9911047,3.13398561 13.9911047,7 C13.9911047,10.8660144 10.8684477,14 7.01642599,14 C3.16435379,14 0.0416967509,10.8660144 0.0416967509,7 Z" id="path-1"></path>
        <path d="M0.0223393502,7.00840336 C0.0223393502,8.934 0.795169675,10.6782353 2.04622383,11.9449916 L2.04622383,11.9449916 L6.54497473,7.42462185 C6.77847653,7.19001681 7.15698195,7.19001681 7.39043321,7.42462185 L7.39043321,7.42462185 L11.9185993,11.9744874 C13.1868375,10.7054118 13.9717978,8.94902521 13.9717978,7.00840336 L13.9717978,7.00840336 C13.9717978,3.1377479 10.8490903,0 6.99706859,0 L6.99706859,0 C3.14504693,0 0.0223393502,3.1377479 0.0223393502,7.00840336" id="path-3"></path>
        <linearGradient x1="50%" y1="0%" x2="50%" y2="172.320381%" id="linearGradient-5">
            <stop stop-color="#FFFFFF" offset="0%"></stop>
            <stop stop-color="#FFFFFF" stop-opacity="0" offset="100%"></stop>
        </linearGradient>
        <polygon id="path-6" points="0 0.0109288028 11.5142383 0.0109288028 11.5142383 12.5295743 0 12.5295743"></polygon>
    </defs>
    <g id="Symbols" stroke="none" stroke-width="1" fill="none" fill-rule="evenodd">
        <g id="Footer-desktop" transform="translate(-193.000000, -30.000000)">
            <g id="Footer">
                <g id="Group-29" transform="translate(193.000000, 30.000000)">
                    <path d="M72.4036101,25.4736842 L70.875041,25.4736842 C70.8733464,25.4735901 70.8719598,25.4733079 70.8701111,25.4733079 C70.7146147,25.4733079 70.5885948,25.3578344 70.5885948,25.2154092 C70.5885948,25.2141392 70.588338,25.2131985 70.5882353,25.2120226 L70.5882353,18.7884948 C70.588338,18.7873189 70.5885948,18.7863782 70.5885948,18.7850612 C70.5885948,18.642683 70.7146147,18.5272095 70.8701111,18.5272095 C70.8744248,18.5272095 70.8781222,18.5268332 70.8816142,18.5263158 L72.4036101,18.5263158 C74.5245344,18.5263158 75.7647059,19.9256859 75.7647059,21.9835609 C75.7647059,23.992001 74.5604814,25.4736842 72.4036101,25.4736842 M72.709194,16 L68.275085,16 C68.1255602,16.001497 68.0045187,16.1150243 68,16.256511 L68,27.743489 C68.0045187,27.8850723 68.125611,27.9985996 68.2751866,28 L72.709194,28 C76.5121,28 79,25.6169398 79,21.9831472 C79,18.6704278 76.867507,16 72.709194,16" id="Fill-1" fill="#FFFFFF"></path>
                    <g id="Group-5" transform="translate(25.000000, 16.000000)">
                        <mask id="mask-2" fill="white">
                            <use xlink:href="#path-1"></use>
                        </mask>
                        <g id="Clip-4"></g>
                    </g>
                    <g id="Group-11" transform="translate(26.000000, 16.000000)">
                        <mask id="mask-4" fill="white">
                            <use xlink:href="#path-3"></use>
                        </mask>
                        <g id="Clip-10"></g>
                        <path d="M2.04622383,11.9449916 L6.54497473,7.42462185 C6.77847653,7.19001681 7.15698195,7.19001681 7.39043321,7.42462185 L11.9185993,11.9744874 C13.1868375,10.7054118 13.9717978,8.94902521 13.9717978,7.00840336 C13.9717978,3.1377479 10.8490903,0 6.99706859,0 C3.14504693,0 0.0223393502,3.1377479 0.0223393502,7.00840336 C0.0223393502,8.934 0.795169675,10.6782353 2.04622383,11.9449916 Z" id="Fill-9" fill="url(#linearGradient-5)" mask="url(#mask-4)"></path>
                    </g>
                    <g id="Group-28">
                        <g id="Group-14" transform="translate(0.000000, 16.000000)">
                            <mask id="mask-7" fill="white">
                                <use xlink:href="#path-6"></use>
                            </mask>
                            <g id="Clip-13"></g>
                            <path d="M10.7322873,5.74426637 L6.54677855,5.74426637 C6.39833557,5.74559968 6.27840511,5.86188355 6.27840511,6.00521461 C6.27840511,6.00611936 6.27830628,6.00669077 6.27830628,6.00750029 L6.27830628,7.46390574 C6.27830628,7.46476287 6.27840511,7.46538191 6.27840511,7.46623904 C6.27840511,7.61042722 6.39971919,7.72733013 6.54934813,7.72733013 C6.55142357,7.72733013 6.55300485,7.72747298 6.55488262,7.72756822 L8.60630129,7.72756822 C8.61865506,7.72785393 8.65196084,7.73209196 8.65240558,7.76956755 C8.65383862,7.87618491 8.63150299,8.17008501 8.36945469,8.43841408 C8.36312955,8.44484255 8.35794097,8.45089007 8.35235706,8.45703283 C7.62126059,9.20392574 6.7795731,9.57758647 5.89780997,9.57758647 C4.13364132,9.57758647 2.88833126,8.07756267 2.88833126,6.02754759 C2.88833126,4.02757933 4.06446017,2.44422351 5.79398884,2.44422351 C6.8155473,2.44422351 7.77780764,2.98397685 8.31445568,3.89248624 C8.31465334,3.89272433 8.314851,3.89281957 8.31504866,3.89310528 C8.40473707,4.00781774 8.57353907,4.03096023 8.69297538,3.94539016 L10.3721006,2.73517128 C10.373929,2.7334094 10.3756091,2.73164752 10.3783269,2.72979041 C10.4823952,2.65893439 10.5180729,2.530365 10.4732039,2.4210334 C9.62687145,0.938485508 7.96237305,0.0109288028 5.88046527,0.0109288028 C2.55972081,0.0109288028 -3.10352079e-05,2.66088674 -3.10352079e-05,5.92759679 C-3.10352079e-05,9.1442124 2.55972081,12.0109288 5.65562655,12.0109288 C6.79716488,12.0109288 7.76570094,11.6276016 8.64776056,10.7775674 L8.64776056,11.6638867 C8.64780997,11.6647438 8.6479088,11.6653629 8.6479088,11.66622 C8.6479088,11.8104558 8.76922289,11.9273111 8.91885182,11.9273111 C8.92092726,11.9273111 8.92250854,11.9275016 8.92438632,11.9275968 L10.7276423,11.9275968 C10.7295201,11.9275016 10.7311508,11.9273111 10.7332262,11.9273111 C10.86724,11.9273111 10.9782757,11.8334078 10.999969,11.7101717 L10.999969,5.99292909 C10.9932979,5.85531223 10.8764312,5.74555206 10.7322873,5.74426637" id="Fill-12" fill="#FFFFFF" mask="url(#mask-7)"></path>
                        </g>
                        <g id="Group-17" fill="#FFFFFF">
                            <path d="M10.7323184,6.22203953 L6.54680958,6.22203953 C6.39836661,6.22348395 6.27843615,6.34945814 6.27843615,6.50473346 C6.27843615,6.5057136 6.27833732,6.50633264 6.27833732,6.50726119 L6.27833732,8.08498218 C6.27833732,8.08591074 6.27843615,8.08652978 6.27843615,8.08750992 C6.27843615,8.24371379 6.39975023,8.37035861 6.54937917,8.37035861 C6.5514546,8.37035861 6.55303588,8.37051337 6.55491366,8.37061654 L8.60633232,8.37061654 C8.6186861,8.37092606 8.65199188,8.37551725 8.65243661,8.41611582 C8.65386965,8.53166954 8.63153402,8.85006131 8.36948572,9.14069955 C8.36316059,9.14766373 8.357972,9.15416362 8.3523881,9.16086987 C7.62129162,9.97000385 6.77960414,10.374803 5.89784101,10.374803 C4.13367235,10.374803 2.88836229,8.74977719 2.88836229,6.52892752 C2.88836229,4.36229524 4.0644912,2.6469931 5.79401987,2.6469931 C6.81557834,2.6469931 7.77783867,3.23172589 8.31448671,4.21594439 C8.31468437,4.21620232 8.31488203,4.2163055 8.31507969,4.21661501 C8.40476811,4.34088685 8.57357011,4.36595788 8.69300641,4.27325697 L10.3721317,2.96218651 C10.37396,2.96027781 10.3756402,2.95836911 10.378358,2.95635724 C10.4824262,2.87959655 10.5181039,2.74031305 10.473235,2.62187049 C9.62690248,1.01577693 7.96240409,0.0109238351 5.88049631,0.0109238351 C2.55975185,0.0109238351 0,2.8817116 0,6.42064749 C0,9.9053144 2.55975185,13.0109238 5.65565758,13.0109238 C6.79719592,13.0109238 7.76573197,12.5956526 8.64779159,11.6747823 L8.64779159,12.6349615 C8.64784101,12.6359417 8.64793984,12.6365091 8.64793984,12.6374893 C8.64793984,12.7936932 8.76925392,12.920338 8.91888286,12.920338 C8.92095829,12.920338 8.92253958,12.9205443 8.92441735,12.9206475 L10.7276734,12.9206475 C10.7295511,12.9205443 10.7311818,12.920338 10.7332573,12.920338 C10.867271,12.920338 10.9783068,12.8186094 11,12.6851036 L11,6.49142414 C10.993329,6.34233921 10.8764622,6.22343237 10.7323184,6.22203953" id="Fill-15"></path>
                        </g>
                        <path d="M52.7278235,15.9466178 L50.4087862,15.9466178 C50.2586302,15.9472403 50.1370587,16.0639344 50.1364601,16.2080662 L50.1364601,22.0304154 C50.1364601,23.7902117 49.4729801,25.4996816 47.5,25.4996816 C45.56189,25.4996816 44.86349,23.8404902 44.86349,22.0304154 L44.86349,16.2074916 C44.8627417,16.0653709 44.7443629,15.9501613 44.5970005,15.9466178 L42.2690337,15.9466178 C42.1201248,15.9490121 42.0001497,16.0654188 42.0001497,16.2089281 C42.0001497,16.2095985 42,16.2100773 42,16.2106998 L42,22.0304154 C42,25.147732 43.5364801,27.9466178 47.5,27.9466178 C51.32379,27.9466178 53,25.315327 53,22.0304154 L53,16.1995907 C52.9947121,16.0593375 52.8751361,15.9470488 52.7278235,15.9466178" id="Fill-18" fill="#FFFFFF"></path>
                        <path d="M34.5280739,0.0978425907 L24.2800928,0.0978425907 C24.1253305,0.0996309403 24.0004138,0.220344535 24,0.369323987 L24,2.33005056 C24.0004138,2.47957645 24.1262616,2.60068746 24.2818514,2.60158163 L27.6553269,2.60158163 C27.8070891,2.60684733 27.9285402,2.72636869 27.9285402,2.87346044 C27.9285402,2.87365915 27.9285919,2.87385785 27.9285919,2.87410623 L27.9285919,12.1801308 C27.9339713,12.3252355 28.0572328,12.4414286 28.2093571,12.4426208 L30.6163962,12.4426208 C30.7719343,12.4414286 30.8976786,12.3200692 30.8976786,12.1703943 L30.8976786,12.1702949 L30.8976786,2.87301335 C30.8985579,2.72328875 31.0250781,2.60212807 31.181237,2.60212807 C31.1836163,2.60212807 31.1854784,2.60173066 31.1876509,2.60158163 L34.5266256,2.60158163 C34.6801981,2.60068746 34.8045976,2.48260671 34.8081666,2.33571367 L34.8081666,0.368777547 C34.8074425,0.220046476 34.6826809,0.0996309403 34.5280739,0.0978425907" id="Fill-20" fill="#FFFFFF"></path>
                        <path d="M21.7594291,9.93893144 L16.2581797,9.93893144 C16.2563176,9.93883209 16.2547658,9.93848435 16.2526968,9.93848435 C16.0960724,9.93848435 15.9691384,9.81657852 15.9690867,9.66615846 L15.9690867,7.5859602 C15.9691384,7.43554013 16.0960724,7.31363431 16.2526968,7.31363431 C16.2536278,7.31363431 16.2542485,7.31348528 16.2551279,7.3134356 L20.7546642,7.3134356 C20.7547676,7.3134356 20.7548711,7.3134356 20.7549745,7.3134356 C20.9097368,7.3134356 21.0352742,7.19431165 21.0382743,7.04642508 L21.0382743,5.27292877 C21.0381191,5.12330352 20.9122196,5.00194413 20.756578,5.00100028 L16.251714,5.00100028 C16.0955552,5.00045384 15.9691384,4.8787964 15.9690867,4.72872406 L15.9690867,2.87380817 C15.9691384,2.72388487 16.0953483,2.60232678 16.2513002,2.60158163 L21.5892009,2.60158163 C21.7449977,2.60068746 21.8710524,2.47917904 21.8711041,2.32935509 L21.8711041,0.36996978 C21.8710524,0.220692269 21.7459287,0.0996309403 21.5909596,0.0978425907 L13.280041,0.0978425907 C13.125796,0.0996309403 13.0012931,0.219549713 13,0.367833696 L13,12.1725303 C13.0012931,12.3216588 13.1271926,12.4421737 13.2826273,12.4426208 L21.7492392,12.4426208 C21.7498599,12.4426208 21.7502737,12.4424718 21.7509461,12.4424718 C21.9040014,12.4424718 22.0284526,12.325931 22.0339872,12.1802302 L22.0339872,10.2007756 C22.028556,10.057807 21.9085532,9.94315393 21.7594291,9.93893144" id="Fill-22" fill="#FFFFFF"></path>
                        <path d="M65.7342493,16 L63.3787135,16 C63.2273244,16.0011106 63.1048914,16.1185494 63.1042861,16.2636094 L63.1042861,23.0478705 L57.2600411,16 L55.2737212,16 C55.1223321,16.001497 55,16.119322 55,16.2646235 C55,16.2646718 55,16.2647201 55,16.2647684 L55,27.7352316 C55,27.7352316 55,27.7352799 55,27.7353765 C55,27.880678 55.1223825,27.9985996 55.2738725,28 L57.6220432,28 C57.7719189,27.9985996 57.8930907,27.8830924 57.895613,27.7398674 L57.895613,21.1379938 L63.6373009,27.9619483 C63.6552093,27.9769662 63.6893109,27.9986479 63.737033,28 L65.7259257,28 C65.8773652,27.9985996 65.9997478,27.880678 65.9997478,27.7353765 C65.9997478,27.7344107 66,27.7337347 66,27.7328655 L66,16.2629334 C65.9992433,16.120819 65.8815018,16.0054567 65.7342493,16" id="Fill-24" fill="#FFFFFF"></path>
                        <path d="M18.7149136,22 L16.2993071,22 C16.2947564,21.998704 16.2896887,21.9977614 16.2834833,21.9977614 C16.1271072,21.9977614 16.0002586,21.8534337 16,21.6753509 L16,18.3264164 C16.0002586,18.1482747 16.1271072,18.0040058 16.2834833,18.0040058 C16.2920674,18.0040058 16.2968766,18.0024742 16.2994105,18 L18.6244182,18 C19.2940842,18 20,18.7834936 20,19.9793523 C20,21.1545927 19.4207777,22 18.7149136,22 M23.98276,27.9245726 L21.031061,23.5380517 C22.3388983,22.8788591 23.1677759,21.5267682 23.1677759,20.056321 C23.1677759,18.0619386 21.3626121,16 18.8943987,16 L13.255768,16 C13.1222529,16.0128932 13.0160513,16.1093262 13,16.2312558 L13,27.744648 C13.0053153,27.885362 13.1299891,27.9981167 13.2841866,28 L15.7463478,28 C15.8890727,27.9945916 16.0049577,27.894392 16.0208511,27.7659434 L16.0208511,24.1295915 L17.9917905,24.1295915 L20.5872562,27.9432605 C20.5961502,27.9552844 20.635147,27.9994688 20.7254025,28 L23.9542361,28 C23.9812864,27.998165 24.0242302,27.9862859 23.98276,27.9245726" id="Fill-26" fill="#FFFFFF"></path>
                    </g>
                </g>
            </g>
        </g>
    </g>
</svg>