<svg id="Layer_1" data-name="Layer 1" xmlns="http://www.w3.org/2000/svg" xmlns:xlink="http://www.w3.org/1999/xlink" viewBox="0 0 80 27.99"><defs><style>.cls-1{fill:#fff;}.cls-1,.cls-4{fill-rule:evenodd;}.cls-2{filter:url(#filter-1);}.cls-3{mask:url(#mask);}.cls-4{fill:url(#linear-gradient);}.cls-5{mask:url(#mask-2);}.cls-6{mask:url(#mask-3);}</style><filter id="filter-1" x="-131.9" y="-351.71" width="363.8" height="803.3" name="filter-1"><feOffset result="shadowOffsetOuter1" dy="2" in="SourceAlpha"/><feGaussianBlur result="shadowBlurOuter1" stdDeviation="26.5" in="shadowOffsetOuter1"/><feColorMatrix result="shadowMatrixOuter1" values="0 0 0 0 0.28 0 0 0 0 0.52 0 0 0 0 0.51 0 0 0 0.54 0" in="shadowBlurOuter1"/><feMerge><feMergeNode in="shadowMatrixOuter1"/><feMergeNode in="SourceGraphic"/></feMerge></filter><mask id="mask" x="26.02" y="15.99" width="13.95" height="11.97" maskUnits="userSpaceOnUse"><g transform="translate(0 -0.01)"><g id="mask-5"><path id="path-4" class="cls-1" d="M26,23a7,7,0,0,0,2,4.93h0l4.49-4.52a.61.61,0,0,1,.85,0h0L37.92,28a7,7,0,0,0,2-5h0a7,7,0,0,0-7-7h0a7,7,0,0,0-7,7"/></g></g></mask><linearGradient id="linear-gradient" x1="-197.1" y1="460.25" x2="-197.1" y2="459.25" gradientTransform="matrix(13.95, 0, 0, -11.97, 2782.46, 5527.28)" gradientUnits="userSpaceOnUse"><stop offset="0" stop-color="#2f5472"/><stop offset="1" stop-color="#fff"/></linearGradient><mask id="mask-2" x="0" y="15.4" width="11.51" height="12.52" maskUnits="userSpaceOnUse"><g transform="translate(0 -0.01)"><g id="mask-8"><polygon id="path-7" class="cls-1" points="0 15.41 11.51 15.41 11.51 27.93 0 27.93 0 15.41"/></g></g></mask><mask id="mask-3" x="0" y="0" width="11.51" height="12.52" maskUnits="userSpaceOnUse"><g transform="translate(0 -0.01)"><g id="mask-10"><polygon id="path-9" class="cls-1" points="0 0.01 11.51 0.01 11.51 12.53 0 12.53 0 0.01"/></g></g></mask></defs><title>logo-footer</title><g id="Symbols"><g id="Footer"><g id="Group"><g id="Group-29" class="cls-2"><path id="Fill-1" class="cls-1" d="M73.4,25.47H71.87a.26.26,0,0,1-.28-.25h0V18.79h0a.26.26,0,0,1,.28-.26H73.4A3.17,3.17,0,0,1,76.76,22a3.2,3.2,0,0,1-3.36,3.49M73.71,16H69.28a.28.28,0,0,0-.28.26V27.74a.27.27,0,0,0,.28.26h4.43c3.8,0,6.29-2.38,6.29-6,0-3.31-2.13-6-6.29-6" transform="translate(0 -0.01)"/><g id="Group-11"><g class="cls-3"><path id="Fill-9" class="cls-4" d="M26,23a7,7,0,0,0,2,4.93h0l4.49-4.52a.61.61,0,0,1,.85,0h0L37.92,28a7,7,0,0,0,2-5h0a7,7,0,0,0-7-7h0a7,7,0,0,0-7,7" transform="translate(0 -0.01)"/></g></g><g id="Group-28"><g id="Group-14"><g class="cls-5"><path id="Fill-12" class="cls-1" d="M11.23,21.39H6.85a.28.28,0,0,0-.28.27h0v1.52h0a.28.28,0,0,0,.29.27H9s.05,0,.05,0a1,1,0,0,1-.3.7l0,0a3.55,3.55,0,0,1-2.57,1.17C4.33,25.39,3,23.83,3,21.69S4.25,18,6.06,18A3.06,3.06,0,0,1,8.7,19.46h0a.31.31,0,0,0,.4.06l1.76-1.27h0a.27.27,0,0,0,.1-.33,5.34,5.34,0,0,0-4.8-2.51A6.12,6.12,0,0,0,0,21.58a6.26,6.26,0,0,0,5.92,6.35,4.3,4.3,0,0,0,3.13-1.29v.93h0a.28.28,0,0,0,.29.27h1.9a.27.27,0,0,0,.27-.22v-6a.28.28,0,0,0-.28-.26" transform="translate(0 -0.01)"/></g></g><g id="Group-17"><g class="cls-6"><path id="Fill-15" class="cls-1" d="M11.23,6H6.85a.28.28,0,0,0-.28.27h0V7.79h0a.28.28,0,0,0,.29.27H9s.05,0,.05,0a1,1,0,0,1-.3.7l0,0A3.55,3.55,0,0,1,6.17,10C4.33,10,3,8.43,3,6.29s1.23-3.74,3-3.74A3.06,3.06,0,0,1,8.7,4.06h0a.31.31,0,0,0,.4.06l1.76-1.27h0a.26.26,0,0,0,.1-.32A5.32,5.32,0,0,0,6.16,0,6.12,6.12,0,0,0,0,6.18a6.26,6.26,0,0,0,5.92,6.35,4.3,4.3,0,0,0,3.13-1.29v.93h0a.28.28,0,0,0,.29.27h1.9a.27.27,0,0,0,.27-.22v-6A.28.28,0,0,0,11.23,6" transform="translate(0 -0.01)"/></g></g><path id="Fill-18" class="cls-1" d="M53.15,15.5H50.74a.28.28,0,0,0-.28.27v6c0,1.82-.69,3.6-2.74,3.6S45,23.69,45,21.81v-6a.27.27,0,0,0-.28-.27H42.3a.28.28,0,0,0-.28.27h0v6C42,25,43.61,28,47.72,28s5.71-2.73,5.71-6.14v-6a.28.28,0,0,0-.28-.26" transform="translate(0 -0.01)"/><path id="Fill-20" class="cls-1" d="M33.88.1H23.63a.28.28,0,0,0-.28.27v2a.28.28,0,0,0,.29.27H27a.28.28,0,0,1,.27.27h0v9.31a.28.28,0,0,0,.28.26H30a.27.27,0,0,0,.28-.27h0V2.87a.28.28,0,0,1,.28-.27h3.35a.28.28,0,0,0,.28-.26v-2A.27.27,0,0,0,33.88.1" transform="translate(0 -0.01)"/><path id="Fill-22" class="cls-1" d="M22.25,9.94H16.74a.27.27,0,0,1-.28-.27V7.59a.28.28,0,0,1,.28-.28h4.5a.29.29,0,0,0,.29-.26V5.27A.28.28,0,0,0,21.24,5h-4.5a.27.27,0,0,1-.28-.27V2.87a.27.27,0,0,1,.28-.27h5.34a.28.28,0,0,0,.28-.27v-2A.28.28,0,0,0,22.08.1H13.77a.27.27,0,0,0-.28.27v11.8a.27.27,0,0,0,.28.27h8.47a.27.27,0,0,0,.28-.26v-2a.27.27,0,0,0-.27-.26" transform="translate(0 -0.01)"/><path id="Fill-24" class="cls-1" d="M66.71,15.5H64.3a.27.27,0,0,0-.28.27v7L58,15.5H56a.27.27,0,0,0-.28.27h0v11.8h0a.27.27,0,0,0,.28.27H58.4a.28.28,0,0,0,.28-.27V20.78l5.88,7a.16.16,0,0,0,.11,0h2a.28.28,0,0,0,.28-.27h0V15.77a.27.27,0,0,0-.28-.27" transform="translate(0 -0.01)"/><path id="Fill-26" class="cls-1" d="M19.17,21.37H16.74a.27.27,0,0,1-.28-.27V18.28a.28.28,0,0,1,.28-.28h2.34a1.55,1.55,0,0,1,1.38,1.67c0,1-.58,1.7-1.29,1.7m5.11,6.39-2.9-4.51a4,4,0,0,0,2.1-3.58,4.28,4.28,0,0,0-4.2-4.17H13.74a.27.27,0,0,0-.25.24V27.58a.28.28,0,0,0,.28.26h2.42a.28.28,0,0,0,.27-.24V23.86h1.93l2.55,3.92a.15.15,0,0,0,.14.06h3.17s.07,0,0-.08" transform="translate(0 -0.01)"/></g></g></g></g></g></svg>