<svg height="130" viewBox="0 0 176 130" width="176" xmlns="http://www.w3.org/2000/svg" xmlns:xlink="http://www.w3.org/1999/xlink"><filter id="a" height="803.3%" width="363.8%" x="-131.9%" y="-351.7%"><feOffset dx="0" dy="2" in="SourceAlpha" result="shadowOffsetOuter1"/><feGaussianBlur in="shadowOffsetOuter1" result="shadowBlurOuter1" stdDeviation="26.5"/><feColorMatrix in="shadowBlurOuter1" result="shadowMatrixOuter1" type="matrix" values="0 0 0 0 0.276042051   0 0 0 0 0.518455616   0 0 0 0 0.506334938  0 0 0 0.542613636 0"/><feMerge><feMergeNode in="shadowMatrixOuter1"/><feMergeNode in="SourceGraphic"/></feMerge></filter><linearGradient id="b" x1="-.000038%" x2="-.000038%" y1="0%" y2="100%"><stop offset="0" stop-color="#2f5472"/><stop offset="1" stop-color="#fff"/></linearGradient><mask id="c" fill="#fff"><path d="m.02233935 7.00840336c0 1.92559664.77283033 3.66983194 2.02388448 4.93658824l4.4987509-4.52036975c.2335018-.23460504.61200722-.23460504.84545848 0l4.52816609 4.54986555c1.2682382-1.2690756 2.0531985-3.02546219 2.0531985-4.96608404 0-3.87065546-3.1227075-7.00840336-6.97472921-7.00840336-3.85202166 0-6.97472924 3.1377479-6.97472924 7.00840336" fill="#fff" fill-rule="evenodd"/></mask><mask id="d" fill="#fff"><path d="m0 .0109288h11.5142383v12.5186455h-11.5142383z" fill="#fff" fill-rule="evenodd"/></mask><mask id="e" fill="#fff"><path d="m0 .0109288h11.5142383v12.5186406h-11.5142383z" fill="#fff" fill-rule="evenodd"/></mask><g fill="none" fill-rule="evenodd" filter="url(#a)" transform="translate(50 49)"><path d="m73.4036101 25.4736842h-1.5285691c-.0016946-.0000941-.0030812-.0003763-.0049299-.0003763-.1554964 0-.2815163-.1154735-.2815163-.2578987 0-.00127-.0002568-.0022107-.0003595-.0033866v-6.4235278c.0001027-.0011759.0003595-.0021166.0003595-.0034336 0-.1423782.1260199-.2578517.2815163-.2578517.0043137 0 .0080111-.0003763.0115031-.0008937h1.5219959c2.1209243 0 3.3610958 1.3993701 3.3610958 3.4572451 0 2.0084401-1.2042245 3.4901233-3.3610958 3.4901233m.3055839-9.4736842h-4.434109c-.1495248.001497-.2705663.1150243-.275085.256511v11.486978c.0045187.1415833.125611.2551106.2751866.256511h4.4340074c3.802906 0 6.290806-2.3830602 6.290806-6.0168528 0-3.3127194-2.132493-5.9831472-6.290806-5.9831472" fill="#fff"/><path d="m.02233935 7.00840336c0 1.92559664.77283033 3.66983194 2.02388448 4.93658824l4.4987509-4.52036975c.2335018-.23460504.61200722-.23460504.84545848 0l4.52816609 4.54986555c1.2682382-1.2690756 2.0531985-3.02546219 2.0531985-4.96608404 0-3.87065546-3.1227075-7.00840336-6.97472921-7.00840336-3.85202166 0-6.97472924 3.1377479-6.97472924 7.00840336" fill="url(#b)" mask="url(#c)" transform="translate(26 16)"/><g fill="#fff"><path d="m11.2340421 5.99206386h-4.38118868c-.15538295.00139094-.28092037.12270065-.28092037.27222654 0 .00094385-.00010345.00153997-.00010345.00238447v1.51935197c0 .00089417.00010345.00153997.00010345.00243414 0 .15042007.12698573.27237557.28361009.27237557.00217246 0 .00382767.00014903.00579324.00024838h2.14732609c.01293134.00029806.04779422.00471926.04825975.04381457.00150004.1112254-.02187982.417828-.29617934.69775438-.00662084.00670631-.01205201.01301521-.01789697.01942346-.76527652.77917396-1.64631438 1.16898449-2.56930149 1.16898449-1.84664664 0-3.15017714-1.56485553-3.15017714-3.70347321 0-2.0864078 1.23111501-3.73819699 3.04150219-3.73819699 1.06931812 0 2.07656582.56308173 2.6383031 1.51085731.0002069.00024838.0004138.00034773.0006207.00064579.09388151.11967039.2705753.14381311.39559546.05454466l1.75762737-1.2625251c.0019138-.00183803.0036725-.00367605.0065174-.00561343.1089335-.07391845.1462792-.20804466.0993126-.32210162-.8859-1.5466243-2.62821664-2.51427044-4.80745727-2.51427044-3.47599511 0-6.15541987 2.76449034-6.15541987 6.17238911 0 3.35563922 2.67942476 6.34625639 5.92006953 6.34625639 1.19490727 0 2.20872409-.3998948 3.13202155-1.2866678v.9246264c.00005173.0008942.00015518.00154.00015518.0024341 0 .1504698.12698573.2723756.28361008.2723756.00217246 0 .00382767.0001987.00579324.0002981h1.88756136c.0019656-.0000994.0036725-.0002981.005845-.0002981.1402791 0 .256506-.0979618.2792134-.2265243v-5.9643444c-.0069829-.14356473-.1293133-.25806878-.2801962-.25941004" mask="url(#d)" transform="translate(0 15.399677)"/><path d="m11.2340421 5.99205889h-4.38118868c-.15538295.00139094-.28092037.12270065-.28092037.27222655 0 .00094385-.00010345.00153996-.00010345.00243414v1.51930229c0 .00089418.00010345.00149029.00010345.00243414 0 .15042007.12698573.27237557.28361009.27237557.00217246 0 .00382767.00014903.00579324.00024839h2.14732609c.01293134.00029805.04779422.00471925.04825975.04381456.00150004.11127508-.02187982.41787768-.29617934.69775438-.00662084.00670631-.01205201.01296554-.01789697.01942346-.76527652.77917397-1.64631438 1.16898449-2.56930149 1.16898449-1.84664664 0-3.15017714-1.56485553-3.15017714-3.7034732 0-2.08640781 1.23111501-3.738197 3.04150219-3.738197 1.06931812 0 2.07656582.56308173 2.6383031 1.51085731.0002069.00024838.0004138.00034774.0006207.0006458.09388151.11967039.2705753.1438131.39559546.05454466l1.75762737-1.26252511c.0019138-.00183802.0036725-.00367605.0065174-.00561343.1089335-.07391845.1462792-.20804466.0993126-.32210162-.8859-1.5466243-2.62821664-2.51427043-4.80745727-2.51427043-3.47599511 0-6.15541987 2.76449034-6.15541987 6.1723891 0 3.35563922 2.67942476 6.34625646 5.92006953 6.34625646 1.19490727 0 2.20872409-.3998949 3.13202155-1.2866679v.9246264c.00005173.0009439.00015518.0014903.00015518.0024342 0 .15042.12698573.2723755.28361008.2723755.00217246 0 .00382767.0001988.00579324.0002981h1.88756136c.0019656-.0000993.0036725-.0002981.005845-.0002981.1402791 0 .256506-.0979618.2792134-.2265242v-5.96434447c-.0069829-.14356473-.1293133-.25806877-.2801962-.25941004" mask="url(#e)"/><path d="m53.1452828 15.4975192h-2.4045563c-.1556933.0006458-.2817479.1217072-.2823686.2712331v6.0402499c0 1.8256565-.6879472 3.5991031-2.7336847 3.5991031-2.0095815 0-2.7337364-1.7212864-2.7337364-3.5991031v-6.0408461c-.0007758-.1474394-.1235201-.2669608-.2763168-.2706369h-2.4138151c-.1544001.0024839-.2787996.1232471-.2787996.2721272 0 .0006955-.0001552.0011923-.0001552.0018381v6.0375177c0 3.2339818 1.5931408 6.1376156 5.7028231 6.1376156 3.9647997 0 5.7028231-2.7297665 5.7028231-6.1376156v-6.0490427c-.0054829-.1455021-.1294686-.2619932-.2822135-.2624403"/><path d="m33.8817944.09784259h-10.2479812c-.1547622.00178835-.2796789.12250195-.2800927.2714814v1.96072657c.0004138.14952589.1262615.2706369.2818514.27153107h3.3734755c.1517621.0052657.2732133.12478706.2732133.27187881 0 .00019871.0000517.00039741.0000517.00064579v9.30602457c.0053794.1451047.1286409.2612978.2807652.26249h2.407039c.1555382-.0011922.2812825-.1225516.2812825-.2722265v-.0000994-9.29728155c.0008793-.1497246.1273995-.27088528.2835583-.27088528.0023794 0 .0042415-.00039741.006414-.00054644h3.3389746c.1535726-.00089417.2779721-.11897492.2815411-.26586796v-1.96693612c-.0007241-.14873107-.1254857-.26914661-.2800927-.27093496"/><path d="m22.2465446 9.93893144h-5.5012494c-.0018621-.00009935-.0034139-.00044709-.0054829-.00044709-.1566244 0-.2835584-.12190583-.2836101-.27232589v-2.08019826c.0000517-.15042007.1269857-.27232589.2836101-.27232589.0009311 0 .0015518-.00014903.0024311-.00019871h4.4995363.0003103c.1547623 0 .2802997-.11912395.2832998-.26701052v-1.77349631c-.0001552-.14962525-.1260547-.27098464-.2816963-.27192849h-4.504864c-.1561588-.00054644-.2825756-.12220388-.2826273-.27227622v-1.85491589c.0000517-.1499233.1262616-.27148139.2822135-.27222654h5.3379008c.1557967-.00089417.2818514-.12240259.2819031-.27222654v-1.95938531c-.0000517-.14927751-.1251753-.27033884-.2801445-.27212719h-8.3109185c-.154245.00178835-.2787479.12170712-.2800411.26999111v11.8046966c.0012932.1491285.1271926.2696434.2826273.2700905h8.4666119c.0006207 0 .0010345-.000149.0017069-.000149.1530553 0 .2775065-.1165408.2830411-.2622416v-1.9794546c-.0054311-.1429686-.1254339-.25762167-.2745581-.26184416"/><path d="m66.7147192 15.4975192h-2.4152634c-.1552278.0011426-.2807652.1219555-.2813859.2711834v6.9791831l-5.9924333-7.2503665h-2.0366856c-.1552277.00154-.2806617.1227504-.2806617.2722266v.000149 11.8000271.000149c0 .1494762.1254857.2707859.2808169.2722266h2.4077115c.153676-.0014407.2779203-.1202666.2805066-.2676067v-6.7915554l5.8872756 7.0200171c.0183625.0154493.0533289.037754.102261.039145h2.0393236c.1552795-.0014407.2807652-.1227504.2807652-.2722266 0-.0009935.0002069-.001689.0002586-.0025832v-11.7994806c-.0007759-.1461976-.1215028-.2648744-.2724891-.2704879"/><path d="m19.1720933 21.374324h-2.4162461c-.0045519-.0010929-.009621-.0018877-.015828-.0018877-.1564175 0-.2832997-.1217072-.2835584-.2718788v-2.8240524c.0002587-.1502213.1271409-.2718788.2835584-.2718788.0085864 0 .0133969-.0012915.0159314-.003378h2.3256234c.6698432 0 1.375946.6606959 1.375946 1.6691263 0 .9910437-.5793757 1.7039494-1.2854267 1.7039494m5.1098437 6.390369-2.9011196-4.5125523c1.2854266-.6781322 2.1001009-2.0690708 2.1001009-3.5817661 0-2.051684-1.7742312-4.1728653-4.20015-4.1728653h-5.542009c-.1312272.0132636-.2356089.1124673-.2513852.2379002v11.8441893c.0052243.144757.1277617.2607513.2793169.2626887h2.4199704c.1402792-.0055637.2541784-.1086422.2697994-.2407814v-3.7408298h1.9371661l2.5509907 3.9232415c.0087415.0123694.04707.0578233.135779.0583697h3.1735053c.0265868-.0018877.0687947-.0141081.0280351-.0775945"/></g></g></svg>