<?xml version="1.0" encoding="UTF-8"?>
<svg width="25px" height="23px" viewBox="0 0 25 23" version="1.1" xmlns="http://www.w3.org/2000/svg" xmlns:xlink="http://www.w3.org/1999/xlink">
    <!-- Generator: Sketch 54.1 (76490) - https://sketchapp.com -->
    <title>Fill 1 Copy 4</title>
    <desc>Created with Sketch.</desc>
    <g id="Landing-Pages" stroke="none" stroke-width="1" fill="none" fill-rule="evenodd">
        <g id="COMPANY-ADVANTAGES-1" transform="translate(-212.000000, -445.000000)" fill="#F4B779">
            <path d="M235.624888,445.00144 C235.189837,445.016938 234.790686,445.249813 234.560353,445.622372 L222.236311,464.684969 L214.252297,457.70986 C213.909418,457.350216 213.395035,457.215697 212.921661,457.36578 C212.450776,457.513215 212.100167,457.916837 212.01828,458.408417 C211.936393,458.90258 212.133446,459.399326 212.532663,459.696844 L221.6631,467.686177 C221.949705,467.931966 222.328418,468.040655 222.699466,467.986277 C223.073068,467.929383 223.403238,467.714657 223.607956,467.396408 L236.771311,447.071215 C237.052807,446.654677 237.075801,446.116535 236.832693,445.676683 C236.589652,445.23948 236.121322,444.978126 235.624888,445.00144" id="Fill-1-Copy-4"></path>
        </g>
    </g>
</svg>