<?xml version="1.0" encoding="UTF-8"?>
<svg width="12px" height="16px" viewBox="0 0 12 16" version="1.1" xmlns="http://www.w3.org/2000/svg" xmlns:xlink="http://www.w3.org/1999/xlink">
    <!-- Generator: Sketch 54.1 (76490) - https://sketchapp.com -->
    <title></title>
    <desc>Created with Sketch.</desc>
    <g id="Profile-" stroke="none" stroke-width="1" fill="none" fill-rule="evenodd">
        <g id="Property-Details" transform="translate(-34.000000, -823.000000)" fill="#2F5472" fill-rule="nonzero">
            <path d="M45.5624724,826.062526 C45.8541382,826.354192 45.9999714,826.708358 45.9999714,827.125024 L45.9999714,837.499999 C45.9999714,837.916664 45.8541382,838.27083 45.5624724,838.562496 C45.2708066,838.854162 44.9166405,838.999995 44.499975,838.999995 L35.4999964,838.999995 C35.0833309,838.999995 34.7291648,838.854162 34.437499,838.562496 C34.1458331,838.27083 34,837.916664 34,837.499999 L34,824.500033 C34,824.083364 34.1458331,823.729198 34.437499,823.437532 C34.7291648,823.145867 35.0833309,823.000033 35.5,823.000033 L41.8749812,823.000033 C42.2916467,823.000033 42.6458129,823.145867 42.9374787,823.437532 L45.5624724,826.062526 Z M44.3749753,827.000024 L41.9999809,824.62503 L41.9999809,827.000024 L44.3749753,827.000024 Z M35.4999964,837.499999 L44.499975,837.499999 L44.499975,828.50002 L41.2499827,828.50002 C41.0416497,828.50002 40.8645671,828.427104 40.718734,828.281271 C40.5729008,828.135438 40.4999845,827.958355 40.4999845,827.750022 L40.4999845,824.50003 L35.4999964,824.50003 L35.4999964,837.499999 Z M43.3124778,833.00001 C43.4374775,833.125009 43.4999774,833.286467 43.4999774,833.484383 C43.4999774,833.682299 43.442686,833.854174 43.3281028,834.000007 C43.2135195,834.14584 43.0364369,834.218757 42.796854,834.218757 C42.5572711,834.218757 42.2760218,834.171882 41.953106,834.078132 C41.6301903,833.984382 41.322899,833.854174 41.0312332,833.687508 C40.6562341,833.750008 40.072902,833.916674 39.2812374,834.187507 L38.9062383,834.312506 C38.5312392,834.937505 38.1770735,835.395837 37.8437408,835.687503 C37.572908,835.916669 37.3281171,836.020836 37.1093676,836.000002 C36.8906181,835.979169 36.72916,835.890628 36.6249937,835.734378 C36.5208275,835.578128 36.4791606,835.427087 36.499994,835.281254 C36.6041603,834.822922 37.135409,834.343756 38.0937402,833.843758 C38.4270729,833.260425 38.802072,832.489594 39.2187376,831.531263 C38.9479047,830.531265 38.8749884,829.833351 38.9999881,829.437518 C39.0416545,829.250018 39.1666542,829.11981 39.3749872,829.046894 C39.5833202,828.973978 39.7812362,828.984394 39.9687358,829.078144 C40.1562353,829.171894 40.2708185,829.354185 40.3124849,829.625018 C40.4166512,829.916683 40.3645683,830.479182 40.1562353,831.312514 L40.1562353,831.343763 C40.4062347,832.010428 40.7916503,832.500011 41.3124826,832.81251 C42.37498,832.666677 43.041645,832.729177 43.3124778,833.00001 Z M37.1249925,835.437504 C37.1249925,835.458337 37.166659,835.437504 37.2499923,835.375004 C37.3333255,835.312504 37.4374918,835.208338 37.5624915,835.062505 C37.7291576,834.875005 37.9062407,834.635422 38.0937402,834.343756 L37.9687405,834.437506 C37.4895752,834.854172 37.2083258,835.187504 37.1249925,835.437504 Z M39.6874864,829.468768 C39.64582,829.468768 39.6249866,829.635434 39.6249866,829.968767 C39.6249866,830.302099 39.666653,830.562515 39.7499863,830.750015 C39.8124861,830.604182 39.8437361,830.354182 39.8437361,830.000017 C39.8437361,829.645851 39.7916527,829.468768 39.6874864,829.468768 Z M38.9062383,833.750008 L39.2812374,833.593758 C39.8437361,833.364592 40.2916515,833.218759 40.6249842,833.156259 C40.2499851,832.885426 39.9374858,832.510427 39.6874864,832.031262 C39.4166536,832.760427 39.1562377,833.333342 38.9062383,833.750008 Z M43.0312285,833.593758 C43.0728949,833.572925 43.0676869,833.536467 43.0156035,833.484383 C42.9635201,833.4323 42.8437289,833.390634 42.6562294,833.359384 C42.4687298,833.328134 42.2083139,833.322925 41.8749812,833.343759 C42.166647,833.468758 42.4166464,833.552092 42.6249794,833.593758 C42.7708126,833.635425 42.8749788,833.645841 42.9374787,833.625008 C42.9791451,833.625008 43.010395,833.614592 43.0312285,833.593758 Z" id=""></path>
        </g>
    </g>
</svg>