<svg xmlns="http://www.w3.org/2000/svg" width="210" height="210" viewBox="0 0 210 210">
    <g fill="none" fill-rule="evenodd">
        <path fill="#FEFEFE" d="M104.766 7.464C50.772 7.464 7 50.921 7 104.528c0 31.947 15.548 60.286 39.538 77.974C61.763 190.453 75.25 202 104.766 202c29.516 0 38.664-7.953 58.228-19.498 23.99-17.688 39.538-46.027 39.538-77.974 0-53.607-43.77-97.064-97.766-97.064z" opacity=".1"/>
        <path fill="#FEFEFE" fill-opacity=".3" stroke="#FFF" stroke-width="4" d="M105.579 147.51c-23.318 0-42.628 16.928-46 39.01 12.85 9.417 28.765 14.99 46 14.99s33.15-5.573 46-14.99c-3.373-22.082-22.683-39.01-46-39.01" opacity=".2"/>
        <path fill="#E7E7E7" fill-opacity=".3" stroke="#FFF" stroke-width="4" d="M145 82c0 22.091-17.909 40-40 40-22.092 0-40-17.909-40-40s17.908-40 40-40c22.091 0 40 17.909 40 40" opacity=".2"/>
    </g>
</svg>
