<?xml version="1.0" encoding="utf-8"?>
<!-- Generator: Adobe Illustrator 23.0.1, SVG Export Plug-In . SVG Version: 6.00 Build 0)  -->
<svg version="1.1" id="Layer_1" xmlns="http://www.w3.org/2000/svg" xmlns:xlink="http://www.w3.org/1999/xlink" x="0px" y="0px"
	 viewBox="0 0 16 16" style="enable-background:new 0 0 16 16;" xml:space="preserve">
<style type="text/css">
	.st0{enable-background:new    ;}
	.st1{fill:#2F5472;}
</style>
<title></title>
<desc>Created with Sketch.</desc>
<g id="Landing-Pages">
	<g id="Landing-Page---1--Copy-11" transform="translate(-37.000000, -1502.000000)">
		<g class="st0">
			<path class="st1" d="M52.3,1503.5c0.2,0.2,0.3,0.5,0.3,0.8c0,2.4-0.6,4.6-1.8,6.7c-1.2,2-2.7,3.6-4.7,4.7
				c-2.1,1.2-4.3,1.8-6.7,1.8c-0.3,0-0.6-0.1-0.8-0.3c-0.2-0.2-0.4-0.4-0.5-0.7l-0.7-2.8c-0.1-0.3,0-0.6,0.1-0.9
				c0.1-0.3,0.4-0.5,0.7-0.6l3-1.3c0.3-0.1,0.6-0.1,0.9-0.1c0.3,0.1,0.5,0.2,0.7,0.5l0.9,1.2c1.6-0.9,2.8-2.1,3.7-3.7l-1.2-0.9
				c-0.2-0.2-0.4-0.4-0.5-0.7c-0.1-0.3-0.1-0.6,0.1-0.9l1.3-3c0.1-0.3,0.3-0.5,0.6-0.7s0.6-0.2,0.9-0.1l2.8,0.7
				C51.9,1503.1,52.1,1503.3,52.3,1503.5z M45.4,1514.5c1.8-1,3.2-2.5,4.2-4.2c1.1-1.8,1.6-3.8,1.6-5.9l-2.7-0.6l-1.2,2.9l2,1.6
				c-0.7,1.5-1.4,2.7-2.3,3.5c-0.9,0.9-2.1,1.6-3.5,2.3l-1.6-2l-2.9,1.2l0.6,2.7C41.6,1516.1,43.5,1515.6,45.4,1514.5z"/>
		</g>
	</g>
</g>
</svg>
