<svg id="Layer_1" data-name="Layer 1" xmlns="http://www.w3.org/2000/svg" viewBox="0 0 31 31"><defs><style>.cls-1{stroke:#fff;}.cls-1,.cls-2{fill-rule:evenodd;}</style></defs><title>profile</title><g id="Profile-"><g id="Dashboard-3-"><path id="outer" class="cls-1" d="M15.5,30.5a15,15,0,1,1,15-15A15,15,0,0,1,15.5,30.5Zm0-3a12,12,0,1,0-12-12A12,12,0,0,0,15.5,27.5Z" transform="translate(0 0)"/><path id="profile" class="cls-2" d="M15.5,18.09a5.7,5.7,0,1,1,5.7-5.7A5.7,5.7,0,0,1,15.5,18.09Zm0-2a3.7,3.7,0,1,0-3.7-3.7A3.7,3.7,0,0,0,15.5,16.09ZM6,25.39l-1.34-.57-.06-1.74.06-.16a6.17,6.17,0,0,1,7.19-3.16,13.89,13.89,0,0,0,7.67,0A6.17,6.17,0,0,1,26.7,23v1.74l-1.12.77-.7-1.67A4.14,4.14,0,0,0,20,21.68a15.94,15.94,0,0,1-8.77,0,4.15,4.15,0,0,0-4.81,2.06Z" transform="translate(0 0)"/></g></g></svg>