<svg xmlns="http://www.w3.org/2000/svg" width="210" height="210" viewBox="0 0 210 210">
    <defs>
        <linearGradient id="a" x1=".322%" y1="43.296%" y2="56.747%">
            <stop offset="0%" stop-color="#F27E8D"/>
            <stop offset="48.791%" stop-color="#F29886"/>
            <stop offset="100%" stop-color="#F2B47E"/>
        </linearGradient>
        <linearGradient id="b" x1=".322%" y1="38.868%" y2="61.204%">
            <stop offset="0%" stop-color="#F27E8D"/>
            <stop offset="48.791%" stop-color="#F29886"/>
            <stop offset="100%" stop-color="#F2B47E"/>
        </linearGradient>
    </defs>
    <g fill="none" fill-rule="evenodd">
        <path fill="#FFF" d="M97 161h76V86H97z"/>
        <path fill="#2F5472" stroke="#2F5472" d="M97.928 159.675h73.556V87.248H97.928v72.427zm74.72 2.325H96.764c-.644 0-1.165-.52-1.165-1.163V86.085c0-.642.521-1.162 1.165-1.162h75.886c.643 0 1.165.52 1.165 1.162v74.752c0 .643-.522 1.163-1.165 1.163z"/>
        <path fill="url(#a)" d="M64.077 38.163l-20.957-36h59.467l38.533 36z" transform="translate(33 48)"/>
        <path fill="#2F5472" stroke="#2F5472" d="M96.814 85H171l-36.43-35H77l19.814 35zm76.996 2H96.28c-.426 0-.82-.227-1.032-.596l-21.09-36.629a1.18 1.18 0 0 1 .003-1.184A1.19 1.19 0 0 1 75.19 48h59.842c.305 0 .598.116.82.325l38.776 36.63c.353.333.467.848.286 1.299a1.19 1.19 0 0 1-1.105.746z"/>
        <path fill="#FFF" d="M38.165 160.837h75.886V86.085H38.165z"/>
        <path fill="#2F5472" stroke="#2F5472" d="M39.33 159.675h73.556V87.248H39.33v72.427zM114.05 162H38.166c-.643 0-1.165-.52-1.165-1.163V86.085c0-.642.522-1.162 1.165-1.162h75.886c.643 0 1.165.52 1.165 1.162v74.752c0 .643-.522 1.163-1.165 1.163z"/>
        <path fill="url(#b)" stroke="#2F5472" d="M2.05 38.822L41.564 1.425l39.488 37.397z" transform="translate(33 48)"/>
        <path fill="#2F5472" stroke="#2F5472" d="M38 85h73L74.511 51 38 85zm75.779 2H34.22c-.5 0-.95-.296-1.134-.746a1.162 1.162 0 0 1 .294-1.3l39.79-36.629a1.248 1.248 0 0 1 1.682 0l39.766 36.63c.363.334.48.848.294 1.299-.185.45-.635.746-1.134.746zM63.608 160.814H88.63v-46.386H63.608z"/>
        <path fill="#2F5472" d="M64.773 159.651h22.693v-44.06H64.773v44.06zm23.858 2.326H63.608c-.643 0-1.165-.52-1.165-1.163v-46.386c0-.642.522-1.162 1.165-1.162H88.63c.644 0 1.165.52 1.165 1.162v46.386c0 .642-.521 1.163-1.165 1.163z"/>
    </g>
</svg>
