<svg xmlns="http://www.w3.org/2000/svg" xmlns:xlink="http://www.w3.org/1999/xlink" width="210" height="210" viewBox="0 0 210 210">
    <defs>
        <path id="a" d="M0 .265h130.734v130.294H0z"/>
        <path id="c" d="M.31.265H131.6v130.294H.31z"/>
        <linearGradient id="e" x1=".322%" y1="1.301%" y2="99.015%">
            <stop offset="0%" stop-color="#F27E8D"/>
            <stop offset="48.791%" stop-color="#F29886"/>
            <stop offset="100%" stop-color="#F2B47E"/>
        </linearGradient>
    </defs>
    <g fill="none" fill-rule="evenodd">
        <path fill="#FFF" d="M99 43c34.794 0 63 27.982 63 62.5S133.794 168 99 168s-63-27.982-63-62.5S64.206 43 99 43"/>
        <g transform="translate(32 40)">
            <mask id="b" fill="#fff">
                <use xlink:href="#a"/>
            </mask>
            <path fill="#2F5472" d="M65.367 4.675c-33.603 0-60.941 27.247-60.941 60.737s27.338 60.736 60.94 60.736c33.604 0 60.942-27.246 60.942-60.736 0-33.49-27.338-60.737-60.941-60.737m0 125.884C29.324 130.559 0 101.334 0 65.412 0 29.489 29.324.265 65.367.265c36.043 0 65.367 29.224 65.367 65.147 0 35.922-29.324 65.147-65.367 65.147" mask="url(#b)"/>
        </g>
        <path fill="#FFF" d="M112 43c34.794 0 63 27.982 63 62.5S146.794 168 112 168s-63-27.982-63-62.5S77.206 43 112 43"/>
        <g transform="translate(47 40)">
            <mask id="d" fill="#fff">
                <use xlink:href="#c"/>
            </mask>
            <path fill="#2F5472" d="M65.955 4.675c-33.745 0-61.2 27.247-61.2 60.737s27.455 60.736 61.2 60.736c33.746 0 61.2-27.246 61.2-60.736 0-33.49-27.454-60.737-61.2-60.737m0 125.884C29.76 130.559.311 101.334.311 65.412.31 29.489 29.759.265 65.955.265c36.197 0 65.645 29.224 65.645 65.147 0 35.922-29.448 65.147-65.645 65.147" mask="url(#d)"/>
        </g>
        <path fill="url(#e)" d="M81.5 16c27.89 0 50.5 22.386 50.5 50s-22.61 50-50.5 50S31 93.614 31 66s22.61-50 50.5-50" transform="translate(32 40)"/>
        <path fill="#2F5472" d="M113.5 57.403c-26.497 0-48.055 21.352-48.055 47.597s21.558 47.597 48.055 47.597 48.055-21.352 48.055-47.597-21.558-47.597-48.055-47.597m0 99.597C84.552 157 61 133.673 61 105s23.552-52 52.5-52S166 76.327 166 105s-23.552 52-52.5 52"/>
        <path fill="#2F5472" d="M117.46 79c4.8 0 9.349 1.021 13.645 3.063l-2.312 4.85c-3.892-1.872-7.644-2.808-11.257-2.808-3.107 0-5.452.754-7.03 2.26-1.58 1.508-2.37 3.963-2.37 7.366v10.756h15.995v4.63h-15.994v8.058c0 2.432-.411 4.473-1.232 6.127-.821 1.652-2.166 3.014-4.036 4.083H133V133H94v-5.141c5.18-1.143 7.77-4.679 7.77-10.61v-8.131h-7.505v-4.631h7.504V92.965c0-4.327 1.415-7.735 4.245-10.227C108.844 80.247 112.66 79 117.46 79"/>
    </g>
</svg>
