<svg xmlns="http://www.w3.org/2000/svg" xmlns:xlink="http://www.w3.org/1999/xlink" width="210" height="210" viewBox="0 0 210 210">
    <defs>
        <path id="a" d="M0 .346h87.815v109.953H0z"/>
        <path id="c" d="M0 173h151.945V.103H0z"/>
        <linearGradient id="d" x1="45.462%" x2="54.568%" y1=".322%" y2="100%">
            <stop offset="0%" stop-color="#F27E8D"/>
            <stop offset="48.791%" stop-color="#F29886"/>
            <stop offset="100%" stop-color="#F2B47E"/>
        </linearGradient>
        <linearGradient id="f" x1=".322%" y1="45.386%" y2="54.644%">
            <stop offset="0%" stop-color="#F27E8D"/>
            <stop offset="48.791%" stop-color="#F29886"/>
            <stop offset="100%" stop-color="#F2B47E"/>
        </linearGradient>
    </defs>
    <g fill="none" fill-rule="evenodd">
        <path fill="#2F5472" d="M118.271 42L107 29.42l2.729-2.42L121 39.58zM168 37.76l2.737 2.24L181 27.24 178.263 25zM145.645 18l-3.645.08.335 15.92 3.665-.081L145.665 18z"/>
        <g transform="translate(29 18)">
            <g transform="translate(0 62.701)">
                <mask id="b" fill="#fff">
                    <use xlink:href="#a"/>
                </mask>
                <path fill="#2F5472" d="M31.632 41.89c-1.057.885-1.656 2.35-1.522 3.827.184 2.025 1.642 3.643 4.105 4.557 1.512.565 4.825 1.246 9.821-.676-1.449-2.95-3.526-5.414-6.167-7.196-2.175-1.468-4.22-1.77-5.756-.854-.17.102-.33.216-.481.343m1.212 54.519c-8.156 6.822-18.492 11.582-30.136 13.847a2.275 2.275 0 0 1-2.666-1.812 2.287 2.287 0 0 1 1.802-2.681c17.377-3.38 39.309-15.463 43.93-38.395.973-4.833.884-9.442-.16-13.477-4.086 1.592-8.642 2.294-12.978.675-5.877-2.18-6.894-6.624-7.058-8.434-.314-3.461 1.34-6.808 4.212-8.52 3.085-1.841 6.955-1.481 10.614.988 3.33 2.247 5.936 5.334 7.73 9.001 1.503-.877 3.114-1.973 4.833-3.333C63.15 36.2 73.435 21.851 83.504 1.61A2.27 2.27 0 0 1 86.557.588a2.295 2.295 0 0 1 1.017 3.07c-10.37 20.849-21.065 35.726-31.793 44.208-1.58 1.25-3.638 2.723-5.99 4.038 1.426 4.904 1.624 10.513.443 16.374-1.869 9.275-7.023 18.35-14.512 25.55a55.589 55.589 0 0 1-2.878 2.582" mask="url(#b)"/>
            </g>
            <mask id="e" fill="#fff">
                <use xlink:href="#c"/>
            </mask>
            <path fill="url(#d)" d="M109.9 63.047h8.148V36.092H109.9z" mask="url(#e)"/>
            <path fill="url(#f)" d="M100.532 53.625h26.885V45.43h-26.885z" mask="url(#e)"/>
        </g>
    </g>
</svg>
