<?xml version="1.0" encoding="UTF-8"?>
<svg width="90px" height="75px" viewBox="0 0 90 75" version="1.1" xmlns="http://www.w3.org/2000/svg" xmlns:xlink="http://www.w3.org/1999/xlink">
    <!-- Generator: Sketch 54.1 (76490) - https://sketchapp.com -->
    <title>Group 25</title>
    <desc>Created with Sketch.</desc>
    <g id="Landing-Pages" stroke="none" stroke-width="1" fill="none" fill-rule="evenodd">
        <g id="Partnerships" transform="translate(-138.000000, -370.000000)" fill="#2F5472">
            <g id="Group-25" transform="translate(138.000000, 370.000000)">
                <path d="M30.8392,62.5415 L29.7792,61.7515 C29.3162,62.4165 28.7722,63.0205 28.1592,63.5515 L30.1592,65.0015 C30.7382,64.4385 31.2662,63.8265 31.7392,63.1715 L30.8392,62.5415 Z M18.3092,55.0315 L16.3092,54.3615 C15.4492,54.0695 14.5552,53.8915 13.6492,53.8315 C13.4332,53.8165 13.2152,53.8165 12.9992,53.8315 L11.3492,53.8315 L11.8692,52.1615 C11.4092,52.9285 10.9292,53.6875 10.4292,54.4415 L8.7692,53.9315 L8.5592,54.5915 C8.4472,54.9555 8.5102,55.3505 8.7292,55.6615 C8.9572,55.9855 9.3332,56.1735 9.7292,56.1615 L12.1592,56.1615 L12.9992,56.1615 C13.8802,56.1725 14.7542,56.3215 15.5892,56.6015 L16.9892,57.0715 L19.2992,57.8415 C19.4292,57.5915 19.5792,57.3215 19.7592,57.0415 C20.1092,56.6065 20.5362,56.2405 21.0192,55.9615 L18.3092,55.0315 Z M46.5292,29.5115 L46.5292,29.5715 L49.0592,29.5715 C49.1982,29.5525 49.3392,29.5525 49.4792,29.5715 L48.1592,27.6315 C47.9552,27.3325 47.6292,27.1385 47.2692,27.1015 L39.2692,26.3915 C38.7512,26.3215 38.2272,26.3215 37.7092,26.3915 L22.2792,28.6215 L21.2792,28.7615 L17.6992,28.8915 L20.0492,30.1315 C19.9892,30.5015 19.9192,30.8615 19.8492,31.2315 L21.4292,31.2315 L21.5592,31.2315 L22.3392,31.1215 L38.0192,28.8415 C38.3302,28.7915 38.6482,28.7915 38.9592,28.8415 L40.9092,29.0115 L46.5292,29.5115 Z M72.1492,59.6715 L72.1492,59.3415 L72.1492,58.6515 C72.1742,58.0625 72.0932,57.4725 71.9092,56.9115 L71.5792,56.2315 C70.5572,54.4355 69.1752,52.8685 67.5192,51.6315 L66.2792,50.7115 L69.6992,57.8215 C69.6992,58.1815 69.7792,59.1015 69.7892,59.4215 C69.7992,59.7415 69.7892,59.7515 69.7892,59.8615 C69.8502,60.4435 69.6692,61.0255 69.2892,61.4715 C69.1112,61.6865 68.9182,61.8865 68.7092,62.0715 L68.5892,62.1515 C67.7972,62.7075 66.7412,62.7075 65.9492,62.1515 L50.0192,49.4515 C49.4812,49.0545 48.7242,49.1695 48.3272,49.7075 C47.9552,50.2115 48.0302,50.9165 48.4992,51.3315 L60.4192,60.9315 C61.6112,61.8885 62.5122,63.1595 63.0192,64.6015 L63.1592,65.0015 C63.2772,65.3485 63.1972,65.7315 62.9492,66.0015 L62.8592,66.0915 C62.2412,66.6585 61.4152,66.9415 60.5792,66.8715 C59.8822,66.7635 59.2272,66.4745 58.6792,66.0315 L45.0192,53.8215 C44.5222,53.3745 43.7562,53.4145 43.3092,53.9115 C42.8612,54.4085 42.9022,55.1745 43.3992,55.6215 L54.6692,65.8415 C54.8222,65.9765 54.9302,66.1535 54.9792,66.3515 L54.9792,66.4715 L55.5592,68.1215 C55.6042,68.6035 55.5772,69.0885 55.4792,69.5615 L55.3092,69.9215 C55.1852,70.1865 54.9512,70.3835 54.6692,70.4615 C53.3612,70.8205 51.9622,70.4375 51.0192,69.4615 L43.0792,61.4615 C42.6072,61.0085 41.8612,61.0085 41.3892,61.4615 C40.9122,61.9085 40.8812,62.6565 41.3192,63.1415 L47.8692,70.5015 C48.2552,70.8965 48.2472,71.5295 47.8522,71.9155 C47.8082,71.9585 47.7602,71.9975 47.7092,72.0315 L47.5792,72.1215 C46.0102,72.0775 44.4632,71.7375 43.0192,71.1215 C42.2652,70.8085 41.5452,70.4195 40.8692,69.9615 C40.8242,70.0985 40.7642,70.2285 40.6892,70.3515 C40.3262,70.9425 39.8122,71.4265 39.1992,71.7515 C41.7562,73.5585 44.8082,74.5325 47.9392,74.5415 C48.1812,74.5375 48.4172,74.4645 48.6192,74.3315 L49.0192,74.0315 C49.6932,73.5655 50.1852,72.8795 50.4092,72.0915 C51.8772,73.0005 53.6602,73.2475 55.3192,72.7715 C56.2592,72.4995 57.0412,71.8415 57.4692,70.9615 L57.6392,70.6015 C57.8992,69.9385 58.0272,69.2325 58.0192,68.5215 C58.6762,68.8955 59.3942,69.1525 60.1392,69.2815 C61.7762,69.4815 63.4162,68.9215 64.5892,67.7615 L64.6792,67.6615 C65.4122,66.8795 65.7322,65.7965 65.5392,64.7415 C67.0102,65.2795 68.6522,65.0585 69.9292,64.1515 L70.0192,64.0315 C70.3902,63.7385 70.7262,63.4035 71.0192,63.0315 C71.8372,62.1115 72.2442,60.8985 72.1492,59.6715 L72.1492,59.6715 Z M37.4592,67.4715 L36.0192,66.3715 C35.5082,67.0105 34.9052,67.5705 34.2292,68.0315 L36.1692,69.4715 L36.2392,69.5315 C36.8602,69.0065 37.4232,68.4165 37.9192,67.7715 L37.4592,67.4715 Z M25.2192,58.3815 L23.3892,57.0315 C23.3292,57.7335 23.1212,58.4155 22.7792,59.0315 C22.6992,59.1655 22.6192,59.2845 22.5392,59.3915 L24.1792,60.6115 L24.4792,60.8315 C24.5992,60.6615 24.7092,60.4915 24.8192,60.3215 C25.1432,59.7905 25.3852,59.2145 25.5392,58.6115 L25.2192,58.3815 Z" id="Fill-1"></path>
                <path d="M78.7391,54.3916 C78.4391,53.9416 78.1391,53.4816 77.8591,53.0216 L76.6291,53.5216 C76.2401,53.6856 75.9611,54.0356 75.8891,54.4516 L75.8891,54.6416 C75.8891,55.5156 75.1831,56.2256 74.3091,56.2316 L71.5091,56.2316 C70.4871,54.4346 69.1051,52.8686 67.4491,51.6316 L66.2091,50.7116 L51.2691,39.6016 C49.5581,38.3276 47.5171,37.5746 45.3891,37.4316 L42.5591,37.2316 C42.2241,37.2026 41.8921,37.3186 41.6491,37.5516 C41.4021,37.7776 41.2601,38.0966 41.2591,38.4316 C41.2601,42.2316 38.2281,45.3396 34.4291,45.4316 L34.0191,45.4316 C32.7291,44.7216 32.6091,44.2316 32.5991,44.1716 C32.5841,44.1226 32.5841,44.0706 32.5991,44.0216 C32.6821,43.9506 32.7531,43.8656 32.8091,43.7716 L33.8091,42.2516 C34.5771,40.6526 35.0831,38.9406 35.3091,37.1816 C35.5961,35.8786 36.3921,34.7446 37.5191,34.0316 L44.1391,29.8216 C44.4391,29.6366 44.7861,29.5416 45.1391,29.5516 L49.1391,29.5516 C49.2791,29.5326 49.4201,29.5326 49.5591,29.5516 C49.6761,29.5766 49.7901,29.6126 49.8991,29.6616 L56.5191,32.0316 C58.4161,32.6796 60.4051,33.0166 62.4091,33.0316 C63.9811,33.0526 65.5501,32.9016 67.0891,32.5816 C67.8821,32.4426 68.6671,32.2596 69.4391,32.0316 C69.3091,31.4116 69.1991,30.7816 69.0891,30.1616 L71.9191,28.6716 C71.7391,28.6496 71.5571,28.6736 71.3891,28.7416 L69.9091,29.3116 C68.8561,29.7376 67.7691,30.0726 66.6591,30.3116 C65.2681,30.6026 63.8501,30.7406 62.4291,30.7216 C60.6811,30.6926 58.9501,30.3856 57.2991,29.8116 L50.7091,27.5516 C50.1981,27.3396 49.6521,27.2316 49.0991,27.2316 L45.0991,27.2316 C44.3021,27.2306 43.5221,27.4556 42.8491,27.8816 L40.9391,29.0316 L36.2291,32.0316 C34.5491,33.0886 33.3611,34.7736 32.9291,36.7116 C32.9251,36.7416 32.9251,36.7716 32.9291,36.8016 C32.7521,38.2476 32.3611,39.6606 31.7691,40.9916 L30.8791,42.4116 C30.3771,42.9846 30.1441,43.7456 30.2391,44.5016 C30.3991,45.7116 31.3891,46.8016 33.1691,47.7216 C33.3061,47.7936 33.4551,47.8376 33.6091,47.8516 L34.4791,47.8516 C39.1061,47.7526 42.9761,44.3066 43.6091,39.7216 L45.2391,39.8416 C46.9071,39.9536 48.5081,40.5426 49.8491,41.5416 L66.0191,53.5716 C67.5351,54.7046 68.7731,56.1686 69.6391,57.8516 C69.6661,57.8926 69.6901,57.9356 69.7091,57.9816 C69.9111,58.3926 70.3311,58.6526 70.7891,58.6516 L74.3191,58.6516 C75.6661,58.6486 76.9221,57.9686 77.6591,56.8416 C77.9351,56.4336 78.1291,55.9746 78.2291,55.4916 L81.0191,54.3316 C81.3641,54.1946 81.6251,53.9076 81.7291,53.5516 L78.7391,54.3916 Z" id="Fill-3"></path>
                <path d="M11.869,52.1113 C11.409,52.8783 10.929,53.6383 10.429,54.3913 L8.769,53.9313 L2.849,52.2813 L13.129,26.4613 L17.729,28.8913 L20.079,30.1313 C20.019,30.5013 19.949,30.8613 19.879,31.2313 C18.479,38.6143 15.766,45.6863 11.869,52.1113 M22.279,28.6213 C22.19,28.5343 22.089,28.4603 21.979,28.4013 L13.019,23.7013 C12.442,23.3873 11.719,23.6013 11.405,24.1783 C11.38,24.2243 11.358,24.2723 11.339,24.3213 L0.109,52.6413 C-0.036,52.9593 -0.036,53.3243 0.109,53.6413 C0.264,53.9483 0.539,54.1763 0.869,54.2713 L10.579,56.9813 C11.076,57.1103 11.601,56.9193 11.899,56.5013 L12.079,56.2313 C12.609,55.4613 13.079,54.6713 13.609,53.8713 C17.943,46.8793 20.915,39.1293 22.369,31.0313 C22.459,30.5613 22.539,30.1013 22.609,29.6313 C22.656,29.2623 22.535,28.8913 22.279,28.6213" id="Fill-5"></path>
                <path d="M81.7093,53.5517 L78.7093,54.3917 C78.4093,53.9417 78.1093,53.4817 77.8293,53.0217 C73.7733,46.5897 70.9203,39.4737 69.4093,32.0217 C69.2793,31.4017 69.1693,30.7717 69.0593,30.1517 L71.8893,28.6617 L76.0193,26.4617 L86.3193,52.2817 L81.7093,53.5517 Z M89.0193,52.6417 L77.7893,24.3217 C77.5543,23.7077 76.8663,23.4007 76.2523,23.6357 C76.2033,23.6547 76.1553,23.6767 76.1093,23.7017 L67.1893,28.4017 C66.7313,28.6437 66.4783,29.1497 66.5593,29.6617 C66.5593,29.8517 66.6193,30.0417 66.6593,30.2317 C66.7793,31.0317 66.9293,31.8217 67.0893,32.6117 C68.6793,40.3637 71.6603,47.7627 75.8893,54.4517 C76.3193,55.1417 76.7693,55.8117 77.2293,56.4517 C77.3333,56.6047 77.4743,56.7287 77.6393,56.8117 C77.8163,56.9187 78.0213,56.9747 78.2293,56.9717 C78.3353,56.9857 78.4423,56.9857 78.5493,56.9717 L88.2593,54.2617 C88.5893,54.1667 88.8653,53.9387 89.0193,53.6317 C89.1613,53.3167 89.1613,52.9557 89.0193,52.6417 L89.0193,52.6417 Z" id="Fill-7"></path>
                <path d="M40.6893,70.3613 C40.3263,70.9523 39.8123,71.4363 39.1993,71.7613 C38.3923,72.2423 37.3863,72.2423 36.5793,71.7613 C35.9393,71.3513 35.7793,70.6513 36.1093,69.6613 L36.1693,69.4913 C36.3823,68.9813 36.6443,68.4923 36.9493,68.0313 C37.0873,67.8273 37.2603,67.6483 37.4593,67.5013 C37.7723,67.2813 38.1073,67.0943 38.4593,66.9413 L38.6593,66.8613 C38.9743,66.7223 39.3143,66.6473 39.6593,66.6413 C39.9063,66.6323 40.1503,66.6983 40.3593,66.8313 C40.8493,67.2653 41.0953,67.9113 41.0193,68.5613 L41.0193,68.7013 C41.0313,69.1313 40.9733,69.5603 40.8493,69.9713 C40.8113,70.1073 40.7573,70.2383 40.6893,70.3613 M41.6193,64.7513 C41.1173,64.4333 40.5423,64.2473 39.9493,64.2113 C39.0803,64.1623 38.2133,64.3343 37.4293,64.7113 L36.9493,64.9513 C36.8893,65.0613 36.8393,65.1613 36.7793,65.2513 C36.5333,65.6393 36.2663,66.0133 35.9793,66.3713 C35.4803,67.0073 34.8913,67.5673 34.2293,68.0313 L34.1293,68.1013 C33.6783,69.0093 33.4743,70.0203 33.5393,71.0313 C33.6533,72.1793 34.3023,73.2053 35.2893,73.8013 C36.0383,74.2703 36.9053,74.5163 37.7893,74.5113 C38.7493,74.5023 39.6893,74.2443 40.5193,73.7613 C40.8763,73.5673 41.2103,73.3363 41.5193,73.0713 C42.0043,72.6583 42.4223,72.1723 42.7593,71.6313 C42.8563,71.4703 42.9433,71.3033 43.0193,71.1313 C43.3513,70.3033 43.5013,69.4133 43.4593,68.5213 C43.5363,67.0313 42.8403,65.6073 41.6193,64.7513" id="Fill-9"></path>
                <path d="M34.119,68.1714 C34.004,68.2554 33.884,68.3324 33.759,68.4014 C33.054,68.9274 32.099,68.9714 31.349,68.5114 C30.529,67.9104 30.051,66.9484 30.069,65.9314 C30.049,65.6624 30.049,65.3914 30.069,65.1214 C30.065,65.0954 30.065,65.0674 30.069,65.0414 C30.163,64.1844 30.411,63.3514 30.799,62.5814 C30.932,62.3114 31.079,62.0474 31.239,61.7914 C31.791,60.9354 32.465,60.1644 33.239,59.5014 C33.381,59.4074 33.528,59.3204 33.679,59.2414 C34.163,58.9854 34.702,58.8484 35.249,58.8414 C35.748,58.8354 36.238,58.9744 36.659,59.2414 C37.712,59.9304 38.248,61.1844 38.019,62.4214 C37.914,62.8974 37.756,63.3604 37.549,63.8014 C37.389,64.1974 37.202,64.5814 36.989,64.9514 C36.929,65.0614 36.879,65.1614 36.819,65.2514 C36.574,65.6394 36.307,66.0134 36.019,66.3714 C35.508,67.0104 34.905,67.5704 34.229,68.0314 L34.119,68.1714 Z M38.019,57.1714 C36.563,56.2964 34.777,56.1664 33.209,56.8214 C32.778,56.9904 32.366,57.2054 31.979,57.4614 C31.682,57.6664 31.404,57.8974 31.149,58.1514 C31.238,58.3704 31.302,58.5984 31.339,58.8314 C31.419,59.2914 31.149,59.7214 30.619,60.5014 L30.219,61.1114 C30.081,61.3394 29.931,61.5594 29.769,61.7714 C29.306,62.4364 28.762,63.0414 28.149,63.5714 C28.054,63.6574 27.954,63.7374 27.849,63.8114 C27.687,64.5394 27.626,65.2864 27.669,66.0314 C27.678,66.2434 27.701,66.4534 27.739,66.6614 C27.88,68.2284 28.717,69.6494 30.019,70.5314 C30.708,70.9744 31.51,71.2104 32.329,71.2114 C32.739,71.2054 33.145,71.1444 33.539,71.0314 C34.028,70.9004 34.498,70.7094 34.939,70.4614 C35.352,70.2314 35.744,69.9634 36.109,69.6614 C36.157,69.6304 36.201,69.5934 36.239,69.5514 C36.861,69.0264 37.424,68.4364 37.919,67.7914 C38.173,67.4844 38.412,67.1514 38.639,66.7914 L38.829,66.5014 C39.266,65.7574 39.641,64.9784 39.949,64.1714 C40.139,63.7044 40.28,63.2184 40.369,62.7214 C40.749,60.5694 39.828,58.3964 38.019,57.1714 L38.019,57.1714 Z" id="Fill-11"></path>
                <path d="M23.409,56.7114 L23.409,57.0314 C23.349,57.7334 23.141,58.4154 22.799,59.0314 C22.719,59.1654 22.639,59.2844 22.559,59.3914 C22.326,59.7234 22.062,60.0314 21.769,60.3114 C21.516,60.5664 21.226,60.7824 20.909,60.9514 C20.421,61.2254 19.82,61.1974 19.359,60.8814 C18.908,60.6334 18.657,60.1314 18.729,59.6214 C18.8,59.0184 18.986,58.4344 19.279,57.9014 C19.409,57.6514 19.559,57.3814 19.739,57.1014 C20.089,56.6434 20.524,56.2564 21.019,55.9614 C21.326,55.7504 21.663,55.5854 22.019,55.4714 C22.092,55.4614 22.166,55.4614 22.239,55.4714 C22.683,55.4814 23.077,55.7574 23.239,56.1714 C23.297,56.3494 23.324,56.5354 23.319,56.7214 L23.409,56.7114 Z M25.589,55.2814 C25.471,54.9664 25.302,54.6724 25.089,54.4114 C24.279,53.3454 22.933,52.8344 21.619,53.0914 C20.362,53.4614 19.222,54.1504 18.309,55.0914 C18.067,55.3194 17.852,55.5744 17.669,55.8514 C17.397,56.2764 17.157,56.7214 16.949,57.1814 C16.584,57.9134 16.36,58.7074 16.289,59.5214 C16.177,60.8934 16.846,62.2114 18.019,62.9314 C19.052,63.6074 20.345,63.7484 21.499,63.3114 L21.929,63.1214 C22.7,62.7154 23.38,62.1574 23.929,61.4814 C24.11,61.2764 24.28,61.0634 24.439,60.8414 C24.559,60.6714 24.669,60.5014 24.779,60.3314 C25.297,59.4494 25.637,58.4744 25.779,57.4614 C25.89,56.7304 25.826,55.9824 25.589,55.2814 L25.589,55.2814 Z" id="Fill-13"></path>
                <path d="M27.8592,63.8115 C26.8592,64.6115 25.7192,64.9215 24.8092,64.3515 C24.0772,63.8685 23.7102,62.9915 23.8792,62.1315 C23.8912,61.9125 23.9212,61.6955 23.9692,61.4815 C24.0192,61.1905 24.0892,60.9025 24.1792,60.6215 C24.4282,59.8405 24.7642,59.0885 25.1792,58.3815 L25.3692,58.0615 C25.5092,57.8615 25.6192,57.6515 25.7392,57.4615 C26.2192,56.6515 26.4892,56.2215 26.9392,56.0915 C27.2472,56.0005 27.5672,55.9535 27.8892,55.9515 C28.5442,55.9575 29.1842,56.1445 29.7392,56.4915 C30.3672,56.8875 30.8482,57.4775 31.1092,58.1715 C31.1982,58.3905 31.2612,58.6185 31.2992,58.8515 C31.3792,59.3115 31.1092,59.7415 30.5792,60.5215 L30.1792,61.1315 C30.0412,61.3595 29.8902,61.5795 29.7292,61.7915 C29.2662,62.4565 28.7212,63.0615 28.1092,63.5915 C28.0292,63.6695 27.9462,63.7425 27.8592,63.8115 M33.7392,58.4515 C33.6522,57.8845 33.4772,57.3335 33.2192,56.8215 C32.7442,55.8395 32.0032,55.0115 31.0792,54.4315 C29.6592,53.5325 27.9232,53.2855 26.3092,53.7515 C25.8612,53.8855 25.4462,54.1095 25.0892,54.4115 C24.5302,54.9285 24.0642,55.5375 23.7092,56.2115 L23.4092,56.7015 L23.4092,57.0215 C23.3492,57.7235 23.1412,58.4055 22.7992,59.0215 C22.7192,59.1545 22.6392,59.2745 22.5592,59.3815 C22.3262,59.7135 22.0622,60.0215 21.7692,60.3015 C21.6132,60.8425 21.5162,61.3995 21.4792,61.9615 C21.4462,62.4065 21.4692,62.8535 21.5492,63.2915 C21.8632,65.4205 23.6772,67.0055 25.8292,67.0315 C26.4852,67.0225 27.1342,66.8875 27.7392,66.6315 C28.2422,66.4205 28.7182,66.1525 29.1592,65.8315 C29.4862,65.5925 29.8002,65.3355 30.0992,65.0615 C30.6782,64.4985 31.2062,63.8865 31.6792,63.2315 C31.8592,62.9715 32.0492,62.7015 32.2292,62.4115 L32.5892,61.8615 C33.1942,61.1025 33.5812,60.1935 33.7092,59.2315 C33.7552,58.9745 33.7642,58.7115 33.7392,58.4515" id="Fill-15"></path>
                <path d="M28.1092,21.8413 C27.7092,21.8413 27.3342,21.6423 27.1092,21.3113 L20.9092,12.2513 C20.5522,11.6863 20.7212,10.9393 21.2862,10.5823 C21.8242,10.2423 22.5332,10.3783 22.9092,10.8913 L29.1092,19.9513 C29.4842,20.5043 29.3412,21.2573 28.7882,21.6323 C28.5882,21.7683 28.3512,21.8413 28.1092,21.8413" id="Fill-17"></path>
                <path d="M38.5589,19.8217 C37.9729,19.8207 37.4709,19.3997 37.3689,18.8217 L34.5889,1.4317 C34.4789,0.7607 34.9329,0.1267 35.6039,0.0167 C36.2749,-0.0943 36.9089,0.3607 37.0189,1.0317 L39.7989,18.4117 C39.9069,19.0707 39.4599,19.6937 38.8009,19.8007 C38.7999,19.8007 38.7999,19.8007 38.7989,19.8017 L38.5589,19.8217 Z" id="Fill-19"></path>
                <path d="M59.849,21.8413 C59.181,21.8413 58.64,21.2993 58.64,20.6313 C58.64,20.3883 58.713,20.1523 58.849,19.9513 L65.019,10.8813 C65.376,10.3163 66.123,10.1473 66.688,10.5043 C67.253,10.8613 67.422,11.6083 67.065,12.1733 C67.051,12.1963 67.036,12.2193 67.019,12.2413 L60.819,21.3013 C60.602,21.6283 60.241,21.8293 59.849,21.8413" id="Fill-21"></path>
                <path d="M49.389,19.8217 L49.199,19.8217 C48.539,19.7147 48.092,19.0927 48.199,18.4327 L48.199,18.4317 L51.019,1.0317 C51.124,0.3717 51.744,-0.0783 52.404,0.0267 C53.064,0.1317 53.514,0.7517 53.409,1.4117 L50.589,18.8117 C50.491,19.3967 49.983,19.8247 49.389,19.8217" id="Fill-23"></path>
            </g>
        </g>
    </g>
</svg>