<?xml version="1.0" encoding="utf-8"?>
<!-- Generator: Adobe Illustrator 23.0.1, SVG Export Plug-In . SVG Version: 6.00 Build 0)  -->
<svg version="1.1" id="Layer_1" xmlns="http://www.w3.org/2000/svg" xmlns:xlink="http://www.w3.org/1999/xlink" x="0px" y="0px"
	 viewBox="0 0 87 71" style="enable-background:new 0 0 87 71;" xml:space="preserve">
<style type="text/css">
	.st0{fill-rule:evenodd;clip-rule:evenodd;fill:#FFFFFF;stroke:#2F5472;stroke-width:2;}
	.st1{enable-background:new    ;}
	.st2{fill:#2F5472;}
	.st3{fill-rule:evenodd;clip-rule:evenodd;fill:#2F5472;}
	.st4{fill-rule:evenodd;clip-rule:evenodd;fill:url(#Rectangle-Copy-7_1_);}
</style>
<title>paper address copy</title>
<desc>Created with Sketch.</desc>
<g id="Company-Documents">
	<g transform="translate(-51.000000, -373.000000)">
		<g id="paper-address-copy" transform="translate(51.000000, 373.000000)">
			<path id="Rectangle" class="st0" d="M3,1h81c1.1,0,2,0.9,2,2v65c0,1.1-0.9,2-2,2H3c-1.1,0-2-0.9-2-2V3C1,1.9,1.9,1,3,1z"/>
			<g class="st1">
				<path class="st2" d="M15.5,33.5c0,0.8-0.3,1.5-0.9,1.9s-1.4,0.7-2.4,0.7c-1.1,0-1.9-0.1-2.5-0.4v-1c0.4,0.2,0.8,0.3,1.2,0.4
					c0.4,0.1,0.9,0.1,1.3,0.1c0.7,0,1.3-0.1,1.6-0.4c0.4-0.3,0.5-0.7,0.5-1.1c0-0.3-0.1-0.6-0.2-0.8c-0.1-0.2-0.3-0.4-0.6-0.6
					c-0.3-0.2-0.8-0.4-1.4-0.6c-0.9-0.3-1.5-0.7-1.9-1.1c-0.4-0.4-0.6-1-0.6-1.7c0-0.7,0.3-1.3,0.8-1.7c0.5-0.4,1.2-0.6,2.1-0.6
					c0.9,0,1.8,0.2,2.5,0.5L14.9,28c-0.8-0.3-1.5-0.5-2.2-0.5c-0.6,0-1,0.1-1.3,0.4c-0.3,0.2-0.5,0.6-0.5,1c0,0.3,0.1,0.6,0.2,0.8
					s0.3,0.4,0.6,0.6c0.3,0.2,0.7,0.4,1.3,0.6c1,0.3,1.6,0.7,2,1.1C15.3,32.4,15.5,32.9,15.5,33.5z"/>
				<path class="st2" d="M17.1,35.3c0-0.3,0.1-0.5,0.2-0.6c0.1-0.1,0.3-0.2,0.6-0.2c0.2,0,0.4,0.1,0.6,0.2c0.1,0.1,0.2,0.4,0.2,0.6
					c0,0.3-0.1,0.5-0.2,0.6s-0.3,0.2-0.6,0.2c-0.2,0-0.4-0.1-0.5-0.2C17.2,35.9,17.1,35.6,17.1,35.3z"/>
				<path class="st2" d="M26.7,36l-1.2-3h-3.7l-1.1,3h-1.1l3.7-9.3h0.9l3.6,9.3H26.7z M25.2,32.1l-1.1-2.9c-0.1-0.4-0.3-0.8-0.4-1.3
					c-0.1,0.4-0.2,0.9-0.4,1.3l-1.1,2.9H25.2z"/>
			</g>
			<path id="Rectangle-Copy-6" class="st3" d="M10,42h67c0.6,0,1,0.4,1,1l0,0c0,0.6-0.4,1-1,1H10c-0.6,0-1-0.4-1-1l0,0
				C9,42.4,9.4,42,10,42z"/>
			
				<linearGradient id="Rectangle-Copy-7_1_" gradientUnits="userSpaceOnUse" x1="-616.9623" y1="245.5024" x2="-615.9655" y2="245.4976" gradientTransform="matrix(29 0 0 -2 17901 543)">
				<stop  offset="0" style="stop-color:#F27E8D"/>
				<stop  offset="0.4879" style="stop-color:#F29886"/>
				<stop  offset="1" style="stop-color:#F2B47E"/>
			</linearGradient>
			<path id="Rectangle-Copy-7" class="st4" d="M10,51h27c0.6,0,1,0.4,1,1l0,0c0,0.6-0.4,1-1,1H10c-0.6,0-1-0.4-1-1l0,0
				C9,51.4,9.4,51,10,51z"/>
		</g>
	</g>
</g>
</svg>
