<svg xmlns="http://www.w3.org/2000/svg" width="210" height="210" viewBox="0 0 210 210">
    <defs>
        <linearGradient id="a" x1="4.376%" x2="95.92%" y1=".322%" y2="100%">
            <stop offset="0%" stop-color="#F27E8D"/>
            <stop offset="48.791%" stop-color="#F29886"/>
            <stop offset="100%" stop-color="#F2B47E"/>
        </linearGradient>
    </defs>
    <g fill="none" fill-rule="evenodd">
        <path fill="#FFF" d="M179 106c0 39.705-33.08 71.907-73.873 72L105 106V34c40.889 0 74 32.233 74 72"/>
        <path fill="#2F5472" stroke="#2F5472" d="M105.925 34.92v70.582l.125 70.577c18.808-.432 36.43-7.752 49.77-20.713 13.723-13.33 21.28-31.04 21.28-49.864 0-18.86-7.567-36.59-21.307-49.922-13.365-12.968-31.02-20.269-49.868-20.66zM104.733 179c-.425 0-.832-.162-1.132-.45a1.514 1.514 0 0 1-.473-1.09L103 105.502v-71.96c0-.851.718-1.542 1.604-1.542 20.414 0 39.602 7.645 54.028 21.527C173.056 67.407 181 85.865 181 105.5c0 19.6-7.933 38.036-22.34 51.914-14.4 13.874-33.55 21.54-53.924 21.586h-.003z"/>
        <path fill="#FFF" d="M105 178h-.127c-4.118 0-8.173-.34-12.132-.957-.254-.031-.476-.093-.729-.124a23.869 23.869 0 0 1-1.584-.309 73.988 73.988 0 0 1-29.207-12.538c-.222-.154-.444-.34-.665-.494-.222-.154-.444-.34-.666-.494-.221-.154-.443-.34-.665-.494a70.933 70.933 0 0 1-6.906-6.053C39.11 143.537 31 125.687 31 105.985c0-8.802 1.616-17.263 4.593-25.045 3.738-9.82 9.599-18.59 17.043-25.848C66.004 42.06 84.473 34 104.873 34v71.985L105 178z"/>
        <path fill="#2F5472" stroke="#2F5472" d="M92.514 174.88c.152.019.296.046.44.073.083.016.165.033.253.044l.053.007c3.53.54 7.067.848 10.535.916l-.125-69.933V36.082c-18.92.386-36.646 7.621-50.068 20.47-7.518 7.198-13.19 15.645-16.857 25.106-3.015 7.737-4.543 15.921-4.543 24.327 0 18.52 7.488 35.958 21.086 49.1a70.232 70.232 0 0 0 6.808 5.864c.12.083.24.172.359.262.093.07.185.14.278.204.132.09.264.188.395.287.093.07.185.14.278.203.131.09.264.189.395.288.093.07.185.14.277.203 8.67 6.108 18.387 10.205 28.901 12.188a22.493 22.493 0 0 0 1.534.295M105.4 179h-.128c-4.099 0-8.301-.325-12.494-.966a7.235 7.235 0 0 1-.45-.075c-.084-.016-.166-.033-.254-.044a1.396 1.396 0 0 1-.08-.011c-.55-.093-1.117-.188-1.671-.32-10.966-2.074-21.1-6.349-30.123-12.707a10.251 10.251 0 0 1-.376-.274c-.093-.07-.185-.14-.278-.203-.132-.09-.264-.189-.395-.288-.093-.07-.185-.14-.278-.203-.131-.09-.263-.188-.395-.287-.093-.07-.185-.14-.278-.203a73.335 73.335 0 0 1-7.198-6.187C36.819 143.522 29 125.319 29 105.985c0-8.773 1.596-17.317 4.744-25.396 3.828-9.875 9.747-18.692 17.594-26.204C65.743 40.595 84.897 33 105.271 33c.884 0 1.6.686 1.6 1.533v71.452l.129 71.48a1.5 1.5 0 0 1-.468 1.085c-.3.288-.708.45-1.133.45"/>
        <path fill="url(#a)" d="M74 0v72L5 46.95c3.723-9.823 9.56-18.595 16.974-25.853C35.288 8.062 53.682 0 74 0" transform="translate(29 32)"/>
        <path fill="#2F5472" stroke="#2F5472" d="M37.664 79.533l66.144 23.707V35.102c-18.86.39-36.53 7.67-49.91 20.603-7.116 6.877-12.572 14.887-16.234 23.828M105.404 107c-.187 0-.375-.032-.555-.096l-69.808-25.02a1.575 1.575 0 0 1-.895-.804 1.495 1.495 0 0 1-.046-1.18c3.817-9.942 9.718-18.816 17.54-26.377C66 39.643 85.094 32 105.404 32c.881 0 1.596.69 1.596 1.543v71.914c0 .505-.256.978-.684 1.267-.272.182-.59.276-.912.276"/>
        <path fill="#FFF" stroke="#2F5472" d="M105 176.998a76.93 76.93 0 0 1-12.551-.958c-.26-.03-.487-.093-.746-.123a79.576 79.576 0 0 1-18.227-5.408 78.325 78.325 0 0 1-13.33-7.416c-.227-.155-.454-.34-.681-.495-.227-.154-.454-.34-.681-.494-.227-.154-.454-.34-.681-.494A71.748 71.748 0 0 1 51 155.584L104.87 105l.13 71.998z"/>
        <path fill="#2F5472" stroke="#2F5472" d="M92.649 174.85c.15.02.292.046.434.074.081.016.163.033.25.043l.06.009c3.504.563 7.005.875 10.431.93l-.117-66.681-48.864 46.845a69.22 69.22 0 0 0 5.643 4.78c.12.085.242.176.362.269.092.07.183.14.275.204.13.09.261.19.391.29.092.07.183.14.275.204.13.09.261.19.391.29.092.07.184.14.276.204a74.747 74.747 0 0 0 12.779 7.26 75.03 75.03 0 0 0 17.414 5.278M104.904 179a75.99 75.99 0 0 1-12.444-1.05c-.082-.016-.164-.033-.251-.044a78.278 78.278 0 0 1-18.292-5.528 77.952 77.952 0 0 1-13.318-7.564c-.118-.082-.248-.182-.378-.28-.092-.071-.184-.142-.276-.206-.13-.09-.261-.19-.392-.29-.091-.07-.183-.14-.274-.203-.13-.09-.26-.19-.391-.29-.092-.07-.183-.14-.275-.204a72.483 72.483 0 0 1-7.156-6.191 1.521 1.521 0 0 1-.457-1.094c.003-.41.173-.8.473-1.088l52.7-50.524a1.618 1.618 0 0 1 1.725-.325c.59.24.974.8.975 1.422l.127 71.912c.002.848-.702 1.539-1.574 1.545l-.522.002"/>
        <path fill="#2F5472" stroke="#2F5472" d="M175.022 129L104 106.945l.978-2.945L176 126.055z"/>
    </g>
</svg>
