<svg xmlns="http://www.w3.org/2000/svg" xmlns:xlink="http://www.w3.org/1999/xlink" width="210" height="210" viewBox="0 0 210 210">
    <defs>
        <linearGradient id="a" x1=".322%" y1=".322%" y2="100%">
            <stop offset="0%" stop-color="#F27E8D"/>
            <stop offset="48.791%" stop-color="#F29886"/>
            <stop offset="100%" stop-color="#F2B47E"/>
        </linearGradient>
        <linearGradient id="b" x1=".322%" y1="28.547%" y2="71.592%">
            <stop offset="0%" stop-color="#F27E8D"/>
            <stop offset="48.791%" stop-color="#F29886"/>
            <stop offset="100%" stop-color="#F2B47E"/>
        </linearGradient>
        <path id="c" d="M.158.228h121.705v57.5H.158z"/>
    </defs>
    <g fill="none" fill-rule="evenodd">
        <path fill="#2F5472" stroke="#2F5472" d="M144.993 35.333c-22.99 0-41.695 18.704-41.695 41.694 0 22.99 18.704 41.694 41.695 41.694 22.99 0 41.694-18.704 41.694-41.694 0-22.99-18.704-41.694-41.694-41.694m0 86.6c-24.762 0-44.907-20.144-44.907-44.906s20.145-44.906 44.907-44.906c24.762 0 44.906 20.144 44.906 44.906s-20.144 44.906-44.906 44.906"/>
        <path fill="url(#a)" d="M123.5 23c6.351 0 11.5 5.149 11.5 11.5S129.851 46 123.5 46 112 40.851 112 34.5 117.149 23 123.5 23" transform="translate(21 32)"/>
        <path fill="#2F5472" d="M145 55.234c-5.385 0-9.766 4.38-9.766 9.766 0 5.385 4.381 9.766 9.766 9.766s9.766-4.38 9.766-9.766c0-5.385-4.38-9.766-9.766-9.766M145 78c-7.168 0-13-5.832-13-13s5.832-13 13-13 13 5.832 13 13-5.832 13-13 13"/>
        <path fill="url(#b)" d="M142 67h-35v-4.432C107 52.293 114.841 44 124.484 44c9.675 0 17.484 8.327 17.484 18.568V67H142z" transform="translate(21 32)"/>
        <path fill="#2F5472" d="M128.231 96.816h32.506v-2.612c0-8.833-7.291-16.019-16.253-16.019s-16.253 7.186-16.253 16.019v2.612zM162.384 100h-35.768A1.604 1.604 0 0 1 125 98.408v-4.204C125 83.615 133.74 75 144.484 75c10.743 0 19.484 8.615 19.484 19.204v3.886a1.604 1.604 0 0 1-1.583 1.91zM145.5 153a3.5 3.5 0 1 1 0 7 3.5 3.5 0 0 1 0-7"/>
        <path fill="#2F5472" d="M144.5 155.374a2.128 2.128 0 0 0-2.126 2.126c0 1.172.954 2.126 2.126 2.126a2.128 2.128 0 0 0 2.126-2.126 2.128 2.128 0 0 0-2.126-2.126m0 7.626a5.506 5.506 0 0 1-5.5-5.5c0-3.033 2.467-5.5 5.5-5.5s5.5 2.467 5.5 5.5-2.467 5.5-5.5 5.5M25.5 153a3.5 3.5 0 1 1 0 7 3.5 3.5 0 0 1 0-7"/>
        <path fill="#2F5472" d="M26.5 155.374a2.128 2.128 0 0 0-2.126 2.126c0 1.172.954 2.126 2.126 2.126a2.128 2.128 0 0 0 2.126-2.126 2.128 2.128 0 0 0-2.126-2.126m0 7.626a5.506 5.506 0 0 1-5.5-5.5c0-3.033 2.467-5.5 5.5-5.5s5.5 2.467 5.5 5.5-2.467 5.5-5.5 5.5"/>
        <g transform="translate(25 121)">
            <mask id="d" fill="#fff">
                <use xlink:href="#c"/>
            </mask>
            <path fill="#2F5472" stroke="#2F5472" d="M118.645.228V34.05H1.767c-.889 0-1.609.716-1.609 1.6v22.078h3.218V37.25h116.878c.889 0 1.609-.717 1.609-1.6V.227h-3.218z" mask="url(#d)"/>
        </g>
    </g>
</svg>
