<?xml version="1.0" encoding="UTF-8"?>
<svg width="163px" height="157px" viewBox="0 0 163 157" version="1.1" xmlns="http://www.w3.org/2000/svg" xmlns:xlink="http://www.w3.org/1999/xlink">
    <!-- Generator: Sketch 54.1 (76490) - https://sketchapp.com -->
    <title>Group 23</title>
    <desc>Created with Sketch.</desc>
    <defs>
        <polygon id="path-1" points="0 0.158599644 93.3203327 0.158599644 93.3203327 95.8573127 0 95.8573127"></polygon>
        <polygon id="path-3" points="0.336114465 0.158699441 93.656543 0.158699441 93.656543 95.8573127 0.336114465 95.8573127"></polygon>
        <linearGradient x1="0.322001689%" y1="5.77556979%" x2="100%" y2="94.5110831%" id="linearGradient-5">
            <stop stop-color="#F27E8D" offset="0%"></stop>
            <stop stop-color="#F29886" offset="48.791174%"></stop>
            <stop stop-color="#F2B47E" offset="100%"></stop>
        </linearGradient>
    </defs>
    <g id="Company-Design" stroke="none" stroke-width="1" fill="none" fill-rule="evenodd">
        <g id="Confirmation-of-company-complete" transform="translate(-105.000000, -222.000000)">
            <g id="Group-23" transform="translate(105.000000, 222.000000)">
                <polygon id="Fill-1" fill="#FFFFFF" points="92 89.3632933 81.8357511 105.238422 74.632695 116.442539 50.5342129 154 36.7006159 124.080274 2 126.637022 26.1324762 89.0476844 43.4994447 62 81.8357511 83.619211"></polygon>
                <g id="Group-22" transform="translate(0.000000, -0.000000)">
                    <g id="Group-4" transform="translate(0.000000, 60.307581)">
                        <mask id="mask-2" fill="white">
                            <use xlink:href="#path-1"></use>
                        </mask>
                        <g id="Clip-3"></g>
                        <path d="M36.3665543,62.5929843 C37.0323102,62.5929843 37.6408763,62.9653042 37.9093317,63.5487007 L50.435904,90.8099491 L72.8381358,55.6804659 L80.0379881,44.4115183 L89.3313214,29.8066092 L80.6105584,24.847739 L43.7352845,3.92354773 L4.80891733,64.927205 L36.2340086,62.5980628 C36.2784148,62.5945713 36.3224845,62.5929843 36.3665543,62.5929843 M50.1930158,95.8573762 C50.1556743,95.8573762 50.1186691,95.8561066 50.0813276,95.8538847 C49.4522404,95.8145261 48.8998548,95.4469673 48.6495655,94.9016598 L35.3004702,65.8511807 L1.81385682,68.3333137 C1.18712451,68.3812424 0.582595282,68.0911312 0.25156759,67.5854997 C-0.0801329231,67.0801857 -0.0841698462,66.4418775 0.241138872,65.9324372 L41.7205235,0.927213185 C42.1995717,0.176859916 43.2320148,-0.065957449 44.0282978,0.386031999 L82.3457625,22.1285019 L92.5063614,27.9059682 C93.3009625,28.3576402 93.5576435,29.331449 93.0802773,30.0821196 L82.921024,46.0474407 L75.7198261,57.3179754 L51.6338609,95.0886133 C51.3284004,95.5675824 50.7800517,95.8573762 50.1930158,95.8573762" id="Fill-2" fill="#2F5472" mask="url(#mask-2)"></path>
                    </g>
                    <polygon id="Fill-5" fill="#FFFFFF" points="161.274942 127.058805 126.624686 124.48748 112.798224 154.577789 88.677609 116.806198 81.4787659 105.538203 71.3191762 89.5725645 81.4787659 83.7960505 119.795558 62.0535806 137.154663 89.2551562"></polygon>
                    <g id="Group-9" transform="translate(69.300513, 60.307581)">
                        <mask id="mask-4" fill="white">
                            <use xlink:href="#path-3"></use>
                        </mask>
                        <g id="Clip-8"></g>
                        <path d="M4.32512574,29.806641 L13.6204775,44.4137719 L43.2535114,90.8122027 L55.7807565,63.5487325 C56.0670416,62.9269296 56.7391893,62.5435003 57.4560796,62.5980945 L88.8471934,64.9272368 L66.4133391,29.7663301 L49.9211627,3.92357947 L13.045216,24.8484056 L4.32512574,29.806641 Z M43.4974088,95.857408 C42.9107093,95.857408 42.362697,95.5679316 42.0572365,95.0892798 L17.9366211,57.3176897 L10.7377781,46.0500117 L0.576169846,30.0821514 C0.0988036923,29.3314807 0.355484718,28.357672 1.15008574,27.9056825 L11.3100119,22.1291685 L49.6281493,0.38606374 C50.424096,-0.0656082998 51.4572119,0.176574249 51.9359237,0.927244926 L69.2950293,28.129138 L93.4153083,65.9324689 C93.740617,66.4422267 93.7365801,67.0802174 93.405216,67.5855315 C93.0735155,68.0914803 92.4676406,68.3803219 91.8425904,68.3333455 L58.3896181,65.8512124 L45.0411955,94.9016915 C44.7905698,95.446999 44.2385206,95.8142404 43.6097698,95.8539165 C43.5724283,95.8561383 43.5347504,95.857408 43.4974088,95.857408 L43.4974088,95.857408 Z" id="Fill-7" fill="#2F5472" mask="url(#mask-4)"></path>
                    </g>
                    <path d="M137.154596,89.2552832 C126.35549,104.332178 108.828853,114.774912 88.6775417,116.806325 L81.4786987,105.53833 L74.2795192,116.806325 C54.0949038,114.774912 36.6015705,104.332178 25.8028012,89.2552832 L43.1615705,62.0533901 L81.4786987,83.8276009 L119.79549,62.0533901 L137.154596,89.2552832 Z" id="Fill-10" fill="#2F5472"></path>
                    <path d="M27.8025247,89.1984036 C38.4714396,103.589062 54.984137,112.974826 73.3968796,115.113206 L81.4787996,102.464167 L89.5597104,115.112889 C107.975144,112.971335 124.487842,103.585888 135.154738,89.1984036 L119.222348,64.2320173 L81.4787996,85.6805672 L43.7345781,64.2320173 L27.8025247,89.1984036 Z M87.7905288,118.492017 L81.4787996,108.612366 L75.1667339,118.4917 L74.1009863,118.384416 C53.9210806,116.353638 35.8090888,106.060403 24.4091545,90.143963 L23.8079893,89.304418 L42.5880919,59.8749533 L81.4787996,81.9751424 L120.368834,59.8749533 L139.149273,89.304418 L138.548108,90.143963 C127.150529,106.056912 109.038537,116.350146 88.8562765,118.384416 L87.7905288,118.492017 Z" id="Fill-12" fill="#2F5472"></path>
                    <path d="M81.4786987,1.71413189 C111.948721,1.71413189 136.649981,25.0198378 136.649981,53.7690964 C136.649981,82.518355 111.948721,105.824061 81.4786987,105.824061 C51.0083397,105.824061 26.3074166,82.518355 26.3074166,53.7690964 C26.3074166,25.0198378 51.0083397,1.71413189 81.4786987,1.71413189" id="Fill-14" fill="url(#linearGradient-5)"></path>
                    <path d="M81.4786987,3.3011735 C51.9846023,3.3011735 27.9894679,25.9409568 27.9894679,53.7690964 C27.9894679,81.5972361 51.9846023,104.237019 81.4786987,104.237019 C110.972795,104.237019 134.967929,81.5972361 134.967929,53.7690964 C134.967929,25.9409568 110.972795,3.3011735 81.4786987,3.3011735 M81.4786987,107.411103 C50.1296361,107.411103 24.6253653,83.3474256 24.6253653,53.7690964 C24.6253653,24.1907673 50.1296361,0.127090291 81.4786987,0.127090291 C112.827761,0.127090291 138.332032,24.1907673 138.332032,53.7690964 C138.332032,83.3474256 112.827761,107.411103 81.4786987,107.411103" id="Fill-16" fill="#2F5472"></path>
                    <polygon id="Fill-18" fill="#FFFFFF" points="81.4786987 25.4245969 90.2253653 42.1837562 109.838083 44.8499861 95.6415705 57.8954681 99.005673 76.2734098 81.4786987 67.6081627 63.9853653 76.2734098 67.3154905 57.8954681 53.1529551 44.8499861 72.732032 42.1837562"></polygon>
                    <path d="M56.7673469,45.9611374 L68.4909079,56.7596859 C68.8861899,57.1240706 69.0668423,57.6487466 68.9736566,58.1629481 L66.217111,73.3753766 L80.6968812,66.2029008 C81.1860217,65.9604009 81.7700299,65.9607183 82.2591705,66.2025834 L96.7682084,73.3753766 L93.9840771,58.1654873 C93.8895458,57.6500162 94.0705346,57.1234358 94.4678351,56.7584163 L106.217973,45.9611374 L89.9855048,43.7545148 C89.4361469,43.6799238 88.961472,43.3545803 88.7165653,42.884816 L81.4786987,29.0169291 L74.240832,42.884816 C73.9959253,43.3542629 73.5215869,43.6799238 72.9722289,43.7545148 L56.7673469,45.9611374 Z M99.0053366,77.8603562 C98.7385633,77.8603562 98.4704443,77.8006834 98.2248648,77.6791161 L81.4793715,69.4001548 L64.7671828,77.6784812 C64.2006679,77.9593876 63.514391,77.9120938 62.9966556,77.5572313 C62.4792566,77.2023688 62.2195479,76.60088 62.3271992,76.0057394 L65.508631,58.448933 L51.9778741,45.9855779 C51.5196833,45.5634248 51.3551787,44.9327345 51.5536607,44.3582254 C51.7521428,43.7837163 52.2789612,43.3653722 52.9127582,43.2790371 L71.6148135,40.7324702 L79.9698987,24.7233467 C80.2528197,24.1812133 80.8378371,23.8374601 81.4786987,23.8374601 C82.1195602,23.8374601 82.7049141,24.1812133 82.9874987,24.7233467 L91.3425838,40.7321527 L110.077944,43.2790371 C110.712077,43.3653722 111.239232,43.7840337 111.437714,44.3588602 C111.63586,44.9336867 111.470346,45.5650118 111.011482,45.9868475 L97.4497756,58.448933 L100.66283,76.0032001 C100.772163,76.5983407 100.513464,77.2004643 99.9960648,77.556279 C99.7027151,77.7578333 99.3548669,77.8603562 99.0053366,77.8603562 L99.0053366,77.8603562 Z" id="Fill-20" fill="#2F5472"></path>
                </g>
            </g>
        </g>
    </g>
</svg>