<?xml version="1.0" encoding="UTF-8"?>
<svg width="210px" height="159px" viewBox="0 0 210 159" version="1.1" xmlns="http://www.w3.org/2000/svg" xmlns:xlink="http://www.w3.org/1999/xlink">
    <!-- Generator: Sketch 54.1 (76490) - https://sketchapp.com -->
    <title>Icon-PDF Copy@3x</title>
    <desc>Created with Sketch.</desc>
    <defs>
        <linearGradient x1="0%" y1="0%" x2="0%" y2="100%" id="linearGradient-1">
            <stop stop-color="#559BAB" offset="0%"></stop>
            <stop stop-color="#8AD9D0" offset="100%"></stop>
        </linearGradient>
        <polygon id="path-2" points="0.17128841 0.192912409 7.70630702 0.192912409 7.70630702 9.88486508 0.17128841 9.88486508"></polygon>
    </defs>
    <g id="Page-1" stroke="none" stroke-width="1" fill="none" fill-rule="evenodd">
        <g id="T&amp;Cs-legal-doc-MERG-" transform="translate(-75.000000, -318.000000)">
            <g id="Icon-PDF-TandC" transform="translate(54.000000, 275.000000)">
                <g id="Group-18" stroke-width="1" transform="translate(36.692982, 42.956204)">
                    <g id="Group-17">
                        <polygon id="Fill-7" fill="#FFFFFF" points="2.32513827 156.770008 192.3352 156.770008 192.3352 2.09737652 2.32513827 2.09737652"></polygon>
                        <path d="M4.10060137,154.99257 L190.559737,154.99257 L190.559737,3.87481425 L4.10060137,3.87481425 L4.10060137,154.99257 Z M192.334845,158.547445 L2.32513827,158.547445 C1.34437245,158.547445 0.549675167,157.751864 0.549675167,156.770008 L0.549675167,2.09737652 C0.549675167,1.11587541 1.34437245,0.319938791 2.32513827,0.319938791 L192.334845,0.319938791 C193.31561,0.319938791 194.110308,1.11587541 194.110308,2.09737652 L194.110308,156.770008 C194.110308,157.751864 193.31561,158.547445 192.334845,158.547445 L192.334845,158.547445 Z" id="Fill-8" fill="#2F5472"></path>
                        <polygon id="Fill-9" fill="url(#linearGradient-1)" points="2.32513827 46.7110635 192.370709 46.7110635 192.370709 2.09737652 2.32513827 2.09737652"></polygon>
                        <path d="M4.10060137,44.9336257 L190.595246,44.9336257 L190.595246,3.87481425 L4.10060137,3.87481425 L4.10060137,44.9336257 Z M192.370709,48.4885012 L2.32513827,48.4885012 C1.34437245,48.4885012 0.549675167,47.6925646 0.549675167,46.7110635 L0.549675167,2.09737652 C0.549675167,1.11587541 1.34437245,0.319938791 2.32513827,0.319938791 L192.370709,0.319938791 C193.351475,0.319938791 194.146172,1.11587541 194.146172,2.09737652 L194.146172,46.7110635 C194.146172,47.6925646 193.351475,48.4885012 192.370709,48.4885012 L192.370709,48.4885012 Z" id="Fill-10" fill="#2F5472"></path>
                        <polygon id="Fill-11" fill="#FFFFFF" points="170.484575 29.8024406 162.210562 21.5195808 164.721422 19.0059283 172.99508 27.2887881"></polygon>
                        <polygon id="Fill-12" fill="#FFFFFF" points="164.72128 29.8024406 162.210775 27.2887881 170.484433 19.0059283 172.995293 21.5195808"></polygon>
                        <path d="M147.380474,27.1592485 L152.884409,27.1592485 L152.884409,21.6491915 L147.380474,21.6491915 L147.380474,27.1592485 Z M143.829548,30.7141239 L156.435336,30.7141239 L156.435336,18.0943161 L143.829548,18.0943161 L143.829548,30.7141239 Z" id="Fill-13" fill="#FFFFFF"></path>
                        <polygon id="Fill-14" fill="#FFFFFF" points="127.637324 30.7141239 136.656322 30.7141239 136.656322 27.1592485 127.637324 27.1592485"></polygon>
                    </g>
                </g>
                <g id="pencil" stroke-width="1" transform="translate(21.078947, 110.124088)">
                    <path d="M48.010984,43.7372263 L5.46491228,20.2691393 L15.1716783,2.34306569 L57.71775,25.8114162 L63.6971513,37.8810118 C64.6386557,39.7973227 63.4049063,42.0755449 61.3048685,42.2990705 L48.010984,43.7372263 Z" id="Fill-1" fill="#D6D6D6"></path>
                    <path d="M5.67156863,19.5292945 L47.7928485,42.8423054 L60.9861661,41.4100658 C61.7758068,41.3260987 62.4477911,40.8726761 62.8310301,40.1668189 C63.2174276,39.4550974 63.2342733,38.6292873 62.8778821,37.9013055 L56.9447848,25.8841412 L14.8235049,2.57086375 L5.67156863,19.5292945 Z M46.974478,43.6563256 L4.24493304,20.0536753 C3.92703454,19.878181 3.81031438,19.4754986 3.98395201,19.1544661 L13.732577,1.12601136 C13.9064769,0.804713737 14.3048992,0.686745552 14.6227977,0.862504893 L57.3520804,24.464625 C57.4693252,24.5295738 57.564275,24.6289852 57.6240777,24.7498694 L63.6292643,36.8883981 C64.1714229,37.9925272 64.1441445,39.2938886 63.5579207,40.371243 C62.9748445,41.4430304 61.909937,42.1593226 60.709162,42.2873645 L47.3587365,43.7334689 C47.2257542,43.7477841 47.0919851,43.7210093 46.974478,43.6563256 L46.974478,43.6563256 Z" id="Fill-3" fill="#2F5472"></path>
                    <path d="M15.7961744,2.02648872 C20.7138448,4.71522436 22.5216246,10.8829651 19.8339911,15.802652 C17.1460977,20.722339 10.981145,22.5308601 6.06347468,19.8421244 C1.14580432,17.1531288 -0.661975475,10.9856481 2.02565805,6.06596113 C4.71329158,1.14627418 10.8785041,-0.662246932 15.7961744,2.02648872" id="Fill-5" fill="#D6D6D6"></path>
                    <g id="Group-9" fill="#2F5472">
                        <path d="M15.372512,2.77497999 C10.7700149,0.199316788 4.97981023,1.93774289 2.46464942,6.65046578 C-0.0507716374,11.3629222 1.64725468,17.2917973 6.24949152,19.8674605 C10.8517284,22.4428572 16.6421933,20.7041646 19.1573541,15.9919747 C21.6725149,11.2792518 19.9747488,5.35037673 15.372512,2.77497999 M5.62545058,21.0364481 C0.393707895,18.1087829 -1.53644708,11.368518 1.32300322,6.0114796 C4.18219327,0.654441219 10.7648102,-1.32193929 15.9962927,1.60572589 C21.2282956,4.53365754 23.1584506,11.2739225 20.2992605,16.6306944 C17.4398102,21.9879992 10.8571933,23.9643797 5.62545058,21.0364481" id="Fill-7"></path>
                    </g>
                    <path d="M46.601692,43.6537526 C43.9178896,42.0989948 42.9308057,38.5142256 44.4007998,35.6629762 C45.1427139,34.2239086 46.4456748,33.1805235 48.0698927,32.7245517 C48.483889,32.6080467 48.7426366,32.451892 48.839731,32.2601612 C48.9557832,32.0312248 48.8781589,31.6635144 48.7925928,31.3949283 C48.2610073,29.6823862 48.3793652,27.9456742 49.1248658,26.5000889 C50.5948599,23.6485679 53.9739505,22.5937767 56.6577529,24.1485346 C56.96825,24.3283162 57.0822527,24.7405646 56.9126577,25.0697116 C56.7430627,25.3988586 56.3539165,25.5199804 56.0434193,25.3399272 C53.9795866,24.1441894 51.3800693,24.9567371 50.2487529,27.1510504 C49.6751529,28.2639582 49.5893307,29.6182949 50.0074259,30.9650275 C50.2484967,31.7205448 50.2361998,32.3739505 49.9687418,32.9024323 C49.6930859,33.4463939 49.1794334,33.8173632 48.3983229,34.0370661 C47.1168816,34.3966293 46.0962374,35.2056465 45.5249431,36.3142093 C44.3933704,38.5085225 45.1521927,41.2666222 47.2157693,42.46236 C47.5262665,42.6421416 47.6405253,43.0546617 47.4709303,43.3838087 C47.3010792,43.7129556 46.9121891,43.8338058 46.601692,43.6537526" id="Fill-10" fill="#2F5472"></path>
                    <path d="M61.310318,34.3649635 L56.9912281,42.1751825 L60.2149703,41.9057136 C62.5962177,41.7091507 63.979609,39.1535755 62.8193537,37.0882483 L61.310318,34.3649635 Z" id="Fill-12" fill="#383A48"></path>
                    <g id="Group-16" transform="translate(56.210526, 32.802920)">
                        <mask id="mask-3" fill="white">
                            <use xlink:href="#path-2"></use>
                        </mask>
                        <g id="Clip-15"></g>
                        <path d="M5.13444123,2.30836299 L1.97364006,8.40746853 L3.98550848,8.22745354 C4.88227456,8.14869698 5.67026287,7.60288933 6.09314298,6.76730144 C6.51550263,5.93281121 6.50743538,4.94080785 6.0718038,4.11262912 L5.13444123,2.30836299 Z M0.509824269,9.80066384 C0.417180994,9.74687887 0.33650848,9.66976879 0.276914912,9.57317538 C0.146017251,9.36160288 0.136128363,9.09130598 0.25089152,8.86958019 L4.56296754,0.549923851 C4.67695,0.329844545 4.89580673,0.192912409 5.13366053,0.192912409 C5.37125409,0.192912409 5.59037105,0.329570132 5.70435351,0.549375025 L7.21084766,3.4501959 C7.86039152,4.68368278 7.87236228,6.16661117 7.2410348,7.41354429 C6.60892661,8.66130065 5.4326693,9.47685638 4.09454649,9.59485401 L0.877014327,9.88243894 C0.747417836,9.89396429 0.619903216,9.86405326 0.509824269,9.80066384 L0.509824269,9.80066384 Z" id="Fill-14" fill="#2F5472" mask="url(#mask-3)"></path>
                    </g>
                    <path d="M49.005773,28.0354699 L20.6357287,12.1786809 C20.3214998,12.0031543 20.206127,11.6006627 20.3777603,11.2793058 C20.5493935,10.958214 20.9434759,10.8399589 21.2574455,11.0157507 L49.6272306,26.8720095 C49.9414595,27.0475361 50.0570915,27.4502928 49.8854583,27.7716497 C49.7135658,28.0930066 49.3200019,28.2109966 49.005773,28.0354699" id="Fill-17" fill="#2F5472"></path>
                    <path d="M44.2960559,36.6267116 L15.1796975,20.7700808 C14.8571995,20.5945559 14.7387905,20.1920684 14.9149405,19.8707147 C15.0910904,19.549361 15.4952773,19.4311071 15.8177754,19.6071622 L44.9341337,35.4632628 C45.2566318,35.6387876 45.3753068,36.0415403 45.1991569,36.362894 C45.0224748,36.6842477 44.6185539,36.8022365 44.2960559,36.6267116" id="Fill-19" fill="#2F5472"></path>
                </g>
                <path d="M133.246906,132.773723 C132.350675,132.773723 131.442575,133.273852 130.897417,134.097014 C130.149866,135.22624 130.209813,136.697318 131.065386,138.238742 C131.58977,139.187168 132.968243,140.976651 136.269754,142.145985 C136.765945,139.989658 136.747249,137.811734 136.162028,135.74303 C135.680082,134.039628 134.780884,132.996174 133.630029,132.804884 C133.503311,132.783904 133.375405,132.773723 133.246906,132.773723 M110.156986,161.671533 C102.888163,161.671533 95.3679821,159.647613 88.2466693,155.753551 C87.4919692,155.341202 87.216909,154.39838 87.6319941,153.648401 C88.0467673,152.898112 88.9954441,152.62435 89.7495204,153.037319 C100.37707,158.848338 117.195967,162.110855 129.624194,152.181307 C132.242879,150.088559 134.204163,147.64919 135.412619,145.092937 C132.565965,144.142054 129.860584,142.522732 128.281015,139.790068 C126.135733,136.094119 127.536294,133.336962 128.23829,132.322832 C129.581158,130.383242 131.910437,129.361051 134.170483,129.721003 C136.597997,130.106379 138.479446,131.979621 139.331446,134.859863 C140.106729,137.480914 140.134173,140.224119 139.481139,142.915548 C140.65529,143.113042 141.981317,143.244497 143.479802,143.285422 C152.360315,143.51857 164.03197,140.527955 178.156713,134.373415 C178.94447,134.029584 179.865079,134.386747 180.21062,135.17114 C180.55616,135.955223 180.19721,136.869211 179.408517,137.213042 C164.859957,143.552364 152.742654,146.64064 143.394664,146.38455 C142.017181,146.347035 140.291974,146.21744 138.479134,145.87733 C137.093542,149.052726 134.75366,152.060083 131.577682,154.598044 C126.55113,158.61426 119.882014,161.094554 112.798436,161.581312 C111.922734,161.641769 111.041419,161.671533 110.156986,161.671533" id="Fill-1" fill="#2F5472"></path>
            </g>
        </g>
    </g>
</svg>