<?xml version="1.0" encoding="UTF-8"?>
<svg width="12px" height="12px" viewBox="0 0 12 12" version="1.1" xmlns="http://www.w3.org/2000/svg" xmlns:xlink="http://www.w3.org/1999/xlink">
    <!-- Generator: Sketch 56 (81588) - https://sketch.com -->
    <title>check-mark-button</title>
    <desc>Created with Sketch.</desc>
    <g id="Landing-Pages-Mobile" stroke="none" stroke-width="1" fill="none" fill-rule="evenodd">
        <g id="Landing-Page-" transform="translate(-27.000000, -1372.000000)" fill="#3CCF8E">
            <g id="check-mark-button" transform="translate(27.000000, 1372.000000)">
                <g id="Group-3">
                    <path d="M5.81243478,0.11426087 C2.60765217,0.11426087 0,2.72191304 0,5.92695652 C0,9.13173913 2.60765217,11.7393913 5.81243478,11.7393913 C9.01721739,11.7393913 11.6248696,9.13173913 11.6248696,5.92695652 C11.6248696,2.72191304 9.01721739,0.11426087 5.81243478,0.11426087 Z M5.81243478,10.8018261 C3.12443478,10.8018261 0.936521739,8.61495652 0.936521739,5.92695652 C0.936521739,3.23765217 3.12443478,1.05078261 5.81243478,1.05078261 C8.50069565,1.05078261 10.6875652,3.23869565 10.6875652,5.92695652 C10.6875652,8.61495652 8.50069565,10.8018261 5.81243478,10.8018261 Z" id="Fill-1"></path>
                </g>
                <path d="M7.66513043,4.07321739 L4.95234783,6.78704348 L3.95895652,5.7933913 C3.7766087,5.61104348 3.48,5.61104348 3.29765217,5.7933913 C3.11426087,5.97678261 3.11426087,6.2733913 3.29765217,6.45573913 L4.62130435,7.78043478 C4.71286957,7.87121739 4.83208696,7.91713043 4.95234783,7.91713043 C5.07156522,7.91713043 5.19182609,7.87121739 5.28365217,7.78043478 L8.32747826,4.73556522 C8.51086957,4.55217391 8.51086957,4.2566087 8.32747826,4.07321739 C8.14513043,3.89086957 7.84852174,3.89086957 7.66513043,4.07321739 Z" id="Fill-4"></path>
            </g>
        </g>
    </g>
</svg>