<?xml version="1.0" encoding="utf-8"?>
<!-- Generator: Adobe Illustrator 23.0.1, SVG Export Plug-In . SVG Version: 6.00 Build 0)  -->
<svg version="1.1" id="Layer_1" xmlns="http://www.w3.org/2000/svg" xmlns:xlink="http://www.w3.org/1999/xlink" x="0px" y="0px"
	 viewBox="0 0 31.7 37.8" style="enable-background:new 0 0 31.7 37.8;" xml:space="preserve">
<style type="text/css">
	.st0{enable-background:new    ;}
	.st1{fill:#909090;}
</style>
<title></title>
<desc>Created with Sketch.</desc>
<g id="Company-Documents">
	<g transform="translate(-172.000000, -372.000000)">
		<g class="st0">
			<path class="st1" d="M202.3,380.7c0.4,0.4,0.7,0.9,1,1.6c0.3,0.7,0.4,1.3,0.4,1.8v23.8c0,0.5-0.2,1-0.6,1.4
				c-0.4,0.4-0.9,0.6-1.4,0.6H174c-0.6,0-1-0.2-1.4-0.6c-0.4-0.4-0.6-0.9-0.6-1.4v-33c0-0.5,0.2-1,0.6-1.4c0.4-0.4,0.9-0.6,1.4-0.6
				h18.5c0.6,0,1.2,0.1,1.8,0.4c0.7,0.3,1.2,0.6,1.6,1L202.3,380.7z M201.1,407.2v-21.1h-8.6c-0.6,0-1-0.2-1.4-0.6
				c-0.4-0.4-0.6-0.9-0.6-1.4v-8.6h-15.9v31.7H201.1z M184.1,392.8c-0.8,0.8-1.7,1.2-2.8,1.2c-1.1,0-2-0.4-2.8-1.2s-1.2-1.7-1.2-2.8
				c0-1.1,0.4-2,1.2-2.8c0.8-0.8,1.7-1.2,2.8-1.2c1.1,0,2,0.4,2.8,1.2c0.8,0.8,1.2,1.7,1.2,2.8C185.2,391.1,184.8,392.1,184.1,392.8
				z M198.4,398v6.6h-21.1v-4l4-4l2.6,2.6l7.9-7.9L198.4,398z M193.1,375.7v7.8h7.8c-0.1-0.4-0.3-0.7-0.5-0.8l-6.5-6.5
				C193.8,375.9,193.5,375.8,193.1,375.7z"/>
		</g>
	</g>
</g>
</svg>
