<?xml version="1.0" encoding="UTF-8"?>
<svg width="25px" height="23px" viewBox="0 0 25 23" version="1.1" xmlns="http://www.w3.org/2000/svg" xmlns:xlink="http://www.w3.org/1999/xlink">
    <!-- Generator: Sketch 54.1 (76490) - https://sketchapp.com -->
    <title>Fill 1 Copy 4</title>
    <desc>Created with Sketch.</desc>
    <g id="Landing-Pages" stroke="none" stroke-width="1" fill="none" fill-rule="evenodd">
        <g id="COMPANY-ADVANTAGES-3" transform="translate(-212.000000, -445.000000)" fill="#FFFFFF">
            <g id="Personal-ownership" transform="translate(179.000000, 409.000000)">
                <path d="M56.6248882,36.0014396 C56.1898373,36.0169381 55.7906857,36.2498126 55.560353,36.6223722 L43.236311,55.6849693 L35.2522971,48.7098597 C34.9094185,48.3502156 34.3950351,48.2156968 33.9216609,48.3657803 C33.450776,48.5132145 33.1001672,48.9168373 33.0182799,49.4084172 C32.9363926,49.9025802 33.1334462,50.3993262 33.5326633,50.696844 L42.6630998,58.6861765 C42.9497054,58.9319665 43.3284179,59.0406545 43.6994657,58.9862774 C44.0730684,58.9293834 44.4032381,58.7146566 44.6079564,58.396408 L57.7713107,38.0712149 C58.0528066,37.6546767 58.0758006,37.1165352 57.8326935,36.6766831 C57.5896519,36.2394803 57.1213219,35.9781256 56.6248882,36.0014396" id="Fill-1-Copy-4"></path>
            </g>
        </g>
    </g>
</svg>